<svg xmlns="http://www.w3.org/2000/svg" height="24" viewBox="0 96 960 960" width="24"><path d="M480 662.154q-12.385 0-21.577-9.193-9.192-9.192-9.192-21.576 0-12.385 9.192-21.577 9.192-9.193 21.577-9.193 12.385 0 21.577 9.193 9.192 9.192 9.192 21.577 0 12.384-9.192 21.576-9.192 9.193-21.577 9.193Zm-160 0q-12.385 0-21.577-9.193-9.192-9.192-9.192-21.576 0-12.385 9.192-21.577 9.192-9.193 21.577-9.193 12.385 0 21.577 9.193 9.192 9.192 9.192 21.577 0 12.384-9.192 21.576-9.192 9.193-21.577 9.193Zm320 0q-12.385 0-21.577-9.193-9.192-9.192-9.192-21.576 0-12.385 9.192-21.577 9.192-9.193 21.577-9.193 12.385 0 21.577 9.193 9.192 9.192 9.192 21.577 0 12.384-9.192 21.576-9.192 9.193-21.577 9.193ZM480 816q-12.385 0-21.577-9.192-9.192-9.193-9.192-21.577 0-12.385 9.192-21.577 9.192-9.193 21.577-9.193 12.385 0 21.577 9.193 9.192 9.192 9.192 21.577 0 12.384-9.192 21.577Q492.385 816 480 816Zm-160 0q-12.385 0-21.577-9.192-9.192-9.193-9.192-21.577 0-12.385 9.192-21.577 9.192-9.193 21.577-9.193 12.385 0 21.577 9.193 9.192 9.192 9.192 21.577 0 12.384-9.192 21.577Q332.385 816 320 816Zm320 0q-12.385 0-21.577-9.192-9.192-9.193-9.192-21.577 0-12.385 9.192-21.577 9.192-9.193 21.577-9.193 12.385 0 21.577 9.193 9.192 9.192 9.192 21.577 0 12.384-9.192 21.577Q652.385 816 640 816ZM224.615 936Q197 936 178.5 917.5 160 899 160 871.385v-510.77Q160 333 178.5 314.5 197 296 224.615 296h70.769v-67.692q0-9.308 6.116-15.424 6.115-6.115 15.423-6.115t15.423 6.115q6.115 6.116 6.115 15.424V296h286.154v-69.231q0-8.538 5.731-14.269t14.27-5.731q8.538 0 14.269 5.731t5.731 14.269V296h70.769Q763 296 781.5 314.5 800 333 800 360.615v510.77Q800 899 781.5 917.5 763 936 735.385 936h-510.77Zm0-40h510.77q10.769 0 17.692-6.923T760 871.385v-350.77H200v350.77q0 10.769 6.923 17.692T224.615 896ZM200 480.615h560v-120q0-10.769-6.923-17.692T735.385 336h-510.77q-10.769 0-17.692 6.923T200 360.615v120Zm0 0V336v144.615Z"/></svg>