<svg xmlns="http://www.w3.org/2000/svg" height="24" viewBox="0 96 960 960" width="24"><path d="M500 556h299.538q-8.077-121.539-93.038-206.885-84.961-85.346-206.5-92.653V556Zm-40 339.538V256.462q-126.385 7.307-213.192 99.346Q160 447.846 160 576t86.808 220.192Q333.615 888.231 460 895.538Zm40 0Q621.539 888.461 706.615 803q85.077-85.461 92.923-207H500v299.538ZM480 576Zm.134 360q-74.673 0-140.41-28.339-65.737-28.34-114.365-76.922-48.627-48.582-76.993-114.257Q120 650.806 120 576.134q0-74.673 28.339-140.41 28.34-65.737 76.922-114.365 48.582-48.627 114.257-76.993Q405.194 216 479.866 216q74.673 0 140.249 28.423 65.577 28.423 114.308 77.154 48.731 48.731 77.154 114.215Q840 501.275 840 576.243q0 74.065-28.339 139.648-28.34 65.584-76.922 114.547-48.582 48.963-114.257 77.263Q554.806 936 480.134 936Z"/></svg>