<svg xmlns="http://www.w3.org/2000/svg" height="24" viewBox="0 96 960 960" width="24"><path d="M542.308 924.308q-11.529 11.461-28.573 11.461-17.043 0-28.504-11.461l-352-352q-6.385-6.385-9.808-14.02T120 542V256q0-16.077 11.961-28.039Q143.923 216 160 216h286q7.769 0 15.452 3.166 7.683 3.167 13.317 8.526l352 352.231Q839 592.154 839.385 609.5q.384 17.346-11.077 28.808l-286 286ZM513.425 896l286.344-286-353.425-354H160v286l353.425 354ZM259.91 396q16.629 0 28.359-11.64Q300 372.719 300 356.091q0-16.63-11.64-28.36Q276.72 316 260.09 316q-16.629 0-28.359 11.64Q220 339.281 220 355.909q0 16.63 11.64 28.36Q243.28 396 259.91 396ZM160 256Z"/></svg>