<svg xmlns="http://www.w3.org/2000/svg" height="24" viewBox="0 96 960 960" width="24"><path d="M160 937.231V215.538q.461 0 2.807.116 2.347.115 5.808 3.577l33.539 35.076q3.692 3.693 8.615 4.077 4.923.385 8.615-3.307L256 218.461q3.692-3.692 8.615-3.692t8.616 3.692l36.615 36.616q3.692 3.692 8.615 3.692 4.924 0 8.616-3.692l36.615-36.616q3.693-3.692 8.616-3.692t8.615 3.692l36.615 36.616q3.693 3.692 8.616 3.692t8.615-3.692l36.616-36.616q3.692-3.692 8.615-3.692t8.615 3.692l36.616 36.616q3.692 3.692 8.615 3.692t8.616-3.692l36.615-36.616q3.692-3.692 8.615-3.692t8.616 3.692l36.615 36.616q3.692 3.692 8.616 3.692 4.923 0 8.615-3.692l36.615-36.616q3.693-3.692 8.616-3.692t8.615 3.692l36.616 36.616q3.692 3.692 8.615 3.307 4.923-.384 8.615-4.077l33.539-35.076q3.461-3.462 5.808-3.577 2.346-.116 2.807-.116v721.693q-.461 0-2.807-.5-2.347-.5-5.808-3.962l-33.539-35.076q-3.692-3.693-8.615-4.077-4.923-.385-8.615 3.307L704 933.539q-3.692 3.692-8.615 3.692t-8.616-3.692l-36.615-36.616q-3.692-3.692-8.615-3.692-4.924 0-8.616 3.692l-36.615 36.616q-3.693 3.692-8.616 3.692t-8.615-3.692l-36.615-36.616q-3.693-3.692-8.616-3.692t-8.615 3.692l-36.616 36.616q-3.692 3.692-8.615 3.692t-8.615-3.692l-36.616-36.616q-3.692-3.692-8.615-3.692t-8.616 3.692l-36.615 36.616q-3.692 3.692-8.615 3.692t-8.616-3.692l-36.615-36.616q-3.692-3.692-8.616-3.692-4.923 0-8.615 3.692l-36.615 36.616q-3.693 3.692-8.616 3.692T256 933.539l-36.616-36.616q-3.692-3.692-8.615-3.307-4.923.384-8.615 4.077l-33.539 35.076q-3.461 3.462-5.808 3.962-2.346.5-2.807.5Zm120-205.846h400q8.539 0 14.269-5.731Q700 719.923 700 711.385q0-8.539-5.731-14.27-5.73-5.73-14.269-5.73H280q-8.539 0-14.269 5.73-5.731 5.731-5.731 14.27 0 8.538 5.731 14.269 5.73 5.731 14.269 5.731ZM280 596h400q8.539 0 14.269-5.731Q700 584.539 700 576t-5.731-14.269Q688.539 556 680 556H280q-8.539 0-14.269 5.731Q260 567.461 260 576t5.731 14.269Q271.461 596 280 596Zm0-135.385h400q8.539 0 14.269-5.73 5.731-5.731 5.731-14.27 0-8.538-5.731-14.269-5.73-5.731-14.269-5.731H280q-8.539 0-14.269 5.731Q260 432.077 260 440.615q0 8.539 5.731 14.27 5.73 5.73 14.269 5.73ZM200 860h560V292H200v568Zm0-568v568-568Z"/></svg>