<svg xmlns="http://www.w3.org/2000/svg" height="24" viewBox="0 96 960 960" width="24"><path d="M240 936q-33.846 0-56.923-23.077Q160 889.846 160 856v-47.693q0-13.73 9.288-23.019Q178.577 776 192.307 776H280V258.846q0-10.539 9.154-14.462 9.153-3.923 17.153 4.077l24.462 24.462 40.556-39.195q5.29-5.113 11.892-5.113 6.601 0 11.552 5.231l40.616 39.077 40.556-39.195q5.29-5.113 11.891-5.113 6.602 0 11.553 5.231L540 272.923l40.556-39.195q5.29-5.113 11.892-5.113 6.601 0 11.552 5.231l40.615 39.077 40.557-39.195q5.29-5.113 11.891-5.113t11.553 5.231l40.615 39.077 24.462-24.462q8-8 17.153-4.192Q800 248.077 800 258.846V856q0 33.846-23.077 56.923Q753.846 936 720 936H240Zm480-40q17 0 28.5-11.5T760 856V296H320v480h327.692q13.731 0 23.02 9.288Q680 794.577 680 808.307V856q0 17 11.5 28.5T720 896ZM394.385 436q-7.77 0-13.385-5.758-5.615-5.757-5.615-14.269t5.75-14.242q5.75-5.731 14.25-5.731h173.846q8.5 0 14.25 5.758 5.75 5.757 5.75 14.269t-5.75 14.242q-5.75 5.731-14.25 5.731H394.385Zm0 120q-7.77 0-13.385-5.758t-5.615-14.269q0-8.512 5.75-14.242 5.75-5.731 14.25-5.731h173.846q8.5 0 14.25 5.758 5.75 5.757 5.75 14.269t-5.75 14.242q-5.75 5.731-14.25 5.731H394.385Zm281-109.231q-12.385 0-21.577-9.192-9.193-9.192-9.193-21.577 0-12.385 9.193-21.577 9.192-9.192 21.577-9.192 12.384 0 21.577 9.192 9.192 9.192 9.192 21.577 0 12.385-9.192 21.577-9.193 9.192-21.577 9.192Zm0 120q-12.385 0-21.577-9.192-9.193-9.192-9.193-21.577 0-12.385 9.193-21.577 9.192-9.192 21.577-9.192 12.384 0 21.577 9.192 9.192 9.192 9.192 21.577 0 12.385-9.192 21.577-9.193 9.192-21.577 9.192ZM240 896h400v-80H200v40q0 17 11.5 28.5T240 896Zm-40 0v-80 80Z"/></svg>