<svg width="12" height="12" viewBox="0 0 12 12" fill="none" xmlns="http://www.w3.org/2000/svg">
<path d="M11.2667 12L6.88333 7.61667C6.55 7.90556 6.16134 8.13056 5.71735 8.29167C5.27336 8.45278 4.80091 8.53333 4.3 8.53333C3.0982 8.53333 2.08108 8.11667 1.24865 7.28333C0.416217 6.45 0 5.44444 0 4.26667C0 3.08889 0.416667 2.08333 1.25 1.25C2.08333 0.416667 3.09167 0 4.275 0C5.45833 0 6.46389 0.416667 7.29167 1.25C8.11944 2.08333 8.53333 3.08972 8.53333 4.26917C8.53333 4.74528 8.45556 5.20556 8.3 5.65C8.14444 6.09444 7.91111 6.51111 7.6 6.9L12 11.2667L11.2667 12ZM4.28333 7.53333C5.18611 7.53333 5.95347 7.21389 6.58542 6.575C7.21736 5.93611 7.53333 5.16667 7.53333 4.26667C7.53333 3.36667 7.21736 2.59722 6.58542 1.95833C5.95347 1.31944 5.18611 1 4.28333 1C3.3713 1 2.59607 1.31944 1.95763 1.95833C1.31921 2.59722 1 3.36667 1 4.26667C1 5.16667 1.31921 5.93611 1.95763 6.575C2.59607 7.21389 3.3713 7.53333 4.28333 7.53333Z" fill="#929292"/>
</svg>
