<?xml version="1.0" encoding="UTF-8"?>
<svg width="752pt" height="752pt" version="1.1" viewBox="0 0 752 752" xmlns="http://www.w3.org/2000/svg">
 <g>
  <path d="m549.36 529.86h-346.71c-14.238 0-25.766 11.527-25.766 25.75v20.188c0 14.223 11.527 25.75 25.766 25.75h346.71c14.223 0 25.75-11.527 25.75-25.75v-20.188c0-14.207-11.531-25.75-25.75-25.75z"/>
  <path d="m373.16 281.2c-6.8672 0-13.098-2.2188-17.539-4.6328l-3.1836 12.344c4.0273 2.3242 10.879 4.2188 17.965 4.543v10.035h10.344v-10.758c12.137-2.1328 18.809-10.152 18.809-19.535 0-9.5156-5.0781-15.316-17.641-19.758-8.9688-3.375-12.668-5.5938-12.668-9.0703 0-2.9609 2.2188-5.9062 9.0859-5.9062 7.6055 0 12.461 2.4258 15.199 3.582l3.0625-11.93c-3.4922-1.6875-8.2422-3.1836-15.301-3.4922l0.007812-9.3086h-10.344v10.035c-11.309 2.207-17.848 9.5-17.848 18.809 0 10.227 7.7109 15.512 19.004 19.312 7.8008 2.6484 11.188 5.1797 11.188 9.1914-0.019531 4.2148-4.1328 6.5391-10.141 6.5391z"/>
  <path d="m206.89 351.33h338.23c8.7891 0 15.969-7.1641 15.969-15.953v-48.277l-185.08-136.66-185.07 136.66v48.277c0 8.7891 7.1797 15.953 15.953 15.953zm169.11-154.12c34.898 0 63.195 28.281 63.195 63.195 0 34.883-28.281 63.195-63.195 63.195-34.91 0-63.195-28.297-63.195-63.195 0.003906-34.914 28.301-63.195 63.195-63.195z"/>
  <path d="m212.72 360.51h63.828v160.18h-63.828z"/>
  <path d="m344.09 360.51h63.828v160.18h-63.828z"/>
  <path d="m475.47 360.51h63.828v160.18h-63.828z"/>
 </g>
</svg>
