<?xml version="1.0" encoding="UTF-8"?>
<svg width="752pt" height="752pt" version="1.1" viewBox="0 0 752 752" xmlns="http://www.w3.org/2000/svg">
 <path d="m579.65 284.15h-47.715c-5.0625-6.9336-10.738-13.535-16.961-19.727l4.4336-79.152c0.29297-5.2344-2.3867-10.184-6.9297-12.797-4.5391-2.6172-10.168-2.4492-14.547 0.42969l-68.668 45.145-49.023 0.089844-24.539 64.285 42.863 31.844c4.043 3.6875 5.0469 9.793 2.4102 14.656l-50.051 92.457c-4.4688 8.2539-13.109 5.5547-13.109 5.5547-5.082-1.5312-8.4727-6.5039-8.1836-11.984l13.547-71.648-45.035-33.281c-3.5352-3.0352-4.9727-7.9727-3.6367-12.531l25.215-79.23-21.102 0.035157c-61.883 0-97.18 37.773-98.648 39.383 0 0-59.984 54.449-33.391 146.97 11.07 38.52 37.793 62.254 38.836 63.273 0 0 31.535 28.324 39.93 71.488 0.88672 25.734 30.426 41.48 51.691 41.48 0 0 50.059 0.59766 50.082-47.324 0 0 13.605 2.5352 33.039 1.2578 0 0-2.1523 42.355 49.504 46.555 20.621 1.6758 52.293-16.812 52.293-43.164v-31.082c17.895-10.73 36.578-23.812 49.84-40.91h47.852c7.6641 0 13.875-6.2109 13.875-13.875l0.003907-154.32c-0.003907-7.6641-6.2148-13.875-13.875-13.875zm-327.18 11.027c-48.996 49.977-21.23 100.52-20.945 101.02 3.7812 6.6641 1.7031 15.641-5.2227 18.914-12.809 6.0469-18.914-5.2266-18.914-5.2266s-16.594-29.438-9.8555-69.895c0 0 4.3164-34.387 35.125-64.246 5.5-5.332 14.148-5.5586 19.621-0.19531 5.4688 5.3711 5.5586 14.156 0.19141 19.625zm248.12 61.496c-10.227 8.9961-19.621 0-19.621 0l-8.1211-8.1211-8.1211 8.1211c-10.48 9.1133-19.621 0-19.621 0-5.418-5.418-5.418-14.203 0-19.621l8.1211-8.1211-8.1211-8.1211c-5.418-5.418-5.418-14.203 0-19.621 5.418-5.418 14.203-5.418 19.621 0l8.1211 8.1211 8.1211-8.1211c5.418-5.418 14.203-5.418 19.621 0 5.418 5.418 5.418 14.203 0 19.621l-8.1211 8.1211 8.1211 8.1211c5.4219 5.418 5.7539 14.559 0 19.621z"/>
</svg>
