<?xml version="1.0" encoding="UTF-8"?>
<svg width="752pt" height="752pt" version="1.1" viewBox="0 0 752 752" xmlns="http://www.w3.org/2000/svg">
 <g>
  <path d="m592.43 480.52c0-12.844-7.1055-23.879-17.492-29.82 5.0508-6.0859 8.207-13.793 8.207-22.316 0-19.031-15.211-34.441-34.125-34.93v-0.11328h-0.90234s-42.98 12.816-114.06 0c-40.715-7.3203-44.043-38.961-44.043-38.961h-39.695c-33.152 0-66.301 45.938-66.301 45.938v163.41s50.012 41.875 81.988 41.875h65.973 108.49 8.5547v-1.3789c12.586-3.7031 21.828-15.227 21.828-29.031 0-6.1133-1.8359-11.797-4.9648-16.562 10.52-5.3242 17.797-16.117 17.797-28.73 0-7.707-2.8281-14.711-7.3633-20.262 9.6484-6.1016 16.109-16.809 16.109-29.121z"/>
  <path d="m254.94 385.23h-81.398c-7.707 0-13.965 6.2578-13.965 13.965v174.45c0 7.707 6.2578 13.965 13.965 13.965h81.398c7.707 0 13.965-6.2578 13.965-13.965l-0.003906-174.46c0-7.707-6.2539-13.949-13.961-13.949zm-40.699 176.39c-10.707 0-19.387-8.668-19.387-19.375 0-10.707 8.6836-19.402 19.387-19.402 10.707 0 19.387 8.6836 19.387 19.402s-8.6797 19.375-19.387 19.375z"/>
  <path d="m402.57 340.43 1.3203 12.5c0.27344 1.9648 3.832 20.652 31.086 26.289 0.32812-13.648 0.40234-27.383 0.23047-41.145 10.605 16.059 28.199 29.148 48.289 33.754 19.848 4.5625 38.129-0.50391 49.582-11.969-0.85938 7.6797-1.8789 15.27-2.8555 22.934 6.5859-1.0625 10.805-2.2109 13.965-2.7969 1.7383-0.32813 4.1484-0.875 6.7734-1.4922 8.8672-62.555 14.121-126.27 39.395-185.83 4.7461-10.402 1.2422-20.191-8.9727-22.059-43.598-7.9648-87.93-15.945-132.99-23.91-10.777-1.8789-22.934 4.8516-25.988 15.254-1.3047 4.4922-2.3672 9.0547-3.3867 13.59h-31.746c-10.535 0-20.32 8.7969-20.75 19.676-1.1211 48.406 9.3555 96.812 20.02 145.22l16.027 0.003906zm82.316 7.2891c-16.848-3.7305-30.512-18.227-30.438-32.406 0.085938-14.207 14.953-22.676 32.906-18.941 17.809 3.7305 31.055 18.227 29.852 32.434-1.1797 14.207-15.602 22.676-32.32 18.914zm-46.984-136.13c19.059 3.5859 36.711-9.9727 42.609-29.734 16.074 2.9414 32.031 5.8828 47.891 8.8555-6.8594 19.762 4.8516 39.105 23.02 42.664-5.8555 23.879-9.4414 48.203-12.398 72.66-9.3281-16.059-27.598-29.148-50.043-33.727-22.688-4.5625-43.082 0.50391-54.52 11.969-0.089843-24.453 0.48438-48.777 3.4414-72.688zm-25.82 22.172c-0.73047 23.207 0.11328 46.699 1.0781 70.219-4.0742 3.1133-7.4922 6.7031-9.9883 10.734-4.75-24.297-9.0547-48.605-11.266-72.902 7.8516-0.011719 14.68-3.0859 20.176-8.0508z"/>
 </g>
</svg>
