<?xml version="1.0" encoding="UTF-8"?>
<svg width="752pt" height="752pt" version="1.1" viewBox="0 0 752 752" xmlns="http://www.w3.org/2000/svg">
 <g>
  <path d="m154.01 287.2v177.59h340.39v-45.32c-3.6875-2.0156-7.207-4.5273-10.641-6.9375-3.9062-2.7266-8.9102-3.4336-13.41-1.8516l-7.3984 2.7734c-1.6445 0.5625-3.293 1.668-4.625 2.7773-12.387 10.195-27.91 15.938-43.938 16.648-2.9297 0.11719-5.4844-0.19922-8.3242-0.92578-15.852-4.0977-25.359-20.223-21.273-36.074 0.91797-3.5078 2.7969-6.8789 5.5508-9.25l36.07-30.984 67.988-23.586v-44.863zm162.79 22.199h14.797v8.3281c10.613 2.4258 19.504 9.8203 23.59 19.887l-13.875 5.5469c-1.8047-4.4688-5.2734-8.2344-9.7148-10.172v36.535c12.492 2.8398 22.133 12.496 24.977 24.973 4.082 17.922-7.0391 35.676-24.977 39.773v8.3242h-14.797v-8.3242c-10.598-2.4258-19.504-9.8242-23.586-19.887l13.871-5.5508c1.8086 4.4844 5.2891 8.2539 9.7148 10.176v-36.535c-12.477-2.8438-22.133-12.5-24.977-24.973-4.082-17.922 7.0547-35.676 24.977-39.773z"/>
  <path d="m331.6 418.86v-33.906c4.2773 1.8633 7.6953 5.2695 9.5586 9.5586 4.0859 9.3516-0.19141 20.262-9.5586 24.344z"/>
  <path d="m316.8 367.06v-33.906c-9.3516 4.0859-13.629 14.992-9.5586 24.359 1.8633 4.2617 5.2969 7.6797 9.5586 9.5469z"/>
  <path d="m593.64 416.51c3.7305-1.6719 5.3711-6.0664 3.6992-9.7812-1.6719-3.7305-6.0547-5.3867-9.7812-3.6992-29.762 13.422-64.391 10.195-91.164-8.4805-9.7539-6.8086-22.215-8.5078-33.445-4.5586l-7.4727 2.6328c-4.0859 1.4336-7.8867 3.582-11.234 6.3359-8.6719 7.1328-19.43 11.262-30.637 11.75-0.3125 0.015625-0.63672 0-0.94531-0.015625-4.0859-0.33984-7.1172-3.9531-6.7773-8.0352l31.746-27.289 78.051-27.453c3.8633-1.3633 5.875-5.5781 4.5273-9.4414-1.3633-3.8633-5.5781-5.875-9.4414-4.5273l-80.688 28.387-35.031 30.133c-1.5977 1.375-2.7539 3.2109-3.2852 5.2539-3.0781 11.898 4.0703 24.02 15.969 27.098 2.1445 0.5625 4.3359 0.78516 6.543 0.67969 14.414-0.63672 28.238-5.9492 39.367-15.109 2.0117-1.6562 4.293-2.9453 6.75-3.8047l7.4727-2.6328c6.7344-2.3672 14.207-1.3477 20.055 2.7383 31.062 21.668 71.215 25.395 105.73 9.8281z"/>
  <path d="m501.8 316.8v-14.801c31.82 0 63.223 7.0742 91.977 20.703 3.6836 1.7617 5.2539 6.1719 3.5078 9.8555-1.7461 3.6992-6.1562 5.2695-9.8555 3.5234-26.758-12.695-56-19.281-85.629-19.281z"/>
 </g>
</svg>
