<?xml version="1.0" encoding="UTF-8"?>
<svg width="752pt" height="752pt" version="1.1" viewBox="0 0 752 752" xmlns="http://www.w3.org/2000/svg">
 <defs>
  <clipPath id="b">
   <path d="m139.21 155h302.79v426h-302.79z"/>
  </clipPath>
  <clipPath id="a">
   <path d="m400 384h212.79v213h-212.79z"/>
  </clipPath>
 </defs>
 <g>
  <g clip-path="url(#b)">
   <path d="m171.87 580.13c10.453 0 19.645-4.9961 25.621-12.641 27.242 9.6172 62.938 12.641 105.02 12.641 42.082 0 77.766-3.0195 105-12.641 3.3984 4.3438 7.9023 7.6758 13.016 9.8633-22.453-22.195-36.367-52.977-36.367-87.043 0-43.602 22.848-81.781 57.156-103.48-37.789-64.16-106.15-85.996-106.15-133.3h16.332l-0.003906-16.332h-16.332l16.332-65.32h-48.992l-7.2461 29.035-9.082-45.363h-32.66l16.332 81.652-16.332-0.003906v16.332h16.332c0 65.32-130.64 81.652-130.64 228.62 0 17.328 3.0391 31.551 8.5391 43.473-5.2578 5.7969-8.5391 13.406-8.5391 21.848 0 18.047 14.617 32.664 32.66 32.664zm156.45-138.5c-5.1289-3.8203-14.176-6.5469-27.172-8.1797-17.555-1.7656-30.996-5.4219-40.336-11.023-9.3398-5.5859-13.996-12.281-13.996-20.07-0.375-9.293 4.3945-17.867 14.273-25.703 7.707-6.125 17.441-9.7812 29.066-11.121v-14.031h24.969v14.859c15.516 2.7773 27.633 9.6367 36.223 20.738l-24.414 8.4766c-5.8477-7.4141-14.91-11.172-27.156-11.301-7.1523 0-13.082 1.5039-17.848 4.5234-4.7539 3.0039-7.0391 6.582-6.8438 10.73 0 3.0195 2.1406 5.7148 6.4336 8.1016 4.293 2.3828 11.105 4.082 20.43 5.0938 22.145 2.6289 38.195 7.7578 48.176 15.352 9.9453 7.5938 14.941 16.297 14.941 26.098 0 10.793-5.9453 20.363-17.832 28.727-9.0156 6.3359-19.742 10.238-32.121 11.773l-0.003906 20.133h-24.953v-20.656c-21.734-2.7773-38.672-11.871-50.199-28.121l27.711-9.6016c8.5898 12.184 20.477 18.273 35.684 18.273 8.7695 0.11328 16.363-1.9766 22.766-6.3203 6.418-4.3281 9.6172-9.3906 9.6172-15.172 0.17969-3.8867-2.3008-7.7383-7.4141-11.578z"/>
  </g>
  <g clip-path="url(#a)">
   <path d="m506.64 384.17c-58.625 0-106.15 47.52-106.15 106.15 0 58.625 47.52 106.15 106.15 106.15 58.625 0 106.15-47.52 106.15-106.15s-47.523-106.15-106.15-106.15zm73.488 114.31h-146.97v-16.332h146.97z"/>
  </g>
 </g>
</svg>
