<?xml version="1.0" encoding="UTF-8"?>
<svg width="752pt" height="752pt" version="1.1" viewBox="0 0 752 752" xmlns="http://www.w3.org/2000/svg">
 <g>
  <path d="m380.04 371.41h97.883c16.812 0 29.051-14.727 29.051-35.18v-61.18c0-19.875-18.352-33.625-42.828-33.625-24.477 0-57.305-3.3008-61.18-11.469-8.7891-18.617-10.699-28.297-21.398-28.297h-20.926c-21.801 0-21.133 41.676-37.191 47.418-17.285 6.1562-25.988 10.699-25.988 10.699v78.008h33.641c13.773-0.015624 9.1836 33.625 48.938 33.625z"/>
  <path d="m381.58 192.49c14.711 0 19.758 11.352 25.59 24.477 1.1094 2.5156 2.3242 5.2695 3.7461 8.3008 3.4492 2.3984 16.977 5.4023 36.836 6.5273l40.105-66.836h-126.94l16.531 27.531z"/>
  <path d="m536.9 479.64c-1.7617-35.387-15.895-74.441-33.152-109.91-6.6445 6.8359-15.582 10.848-25.809 10.848h-97.883c-16.93 0-27.438-5.4023-34.438-12.004-17.539 35.77-31.922 75.285-33.715 111.05-4.8672 97.645 75.078 107.4 112.52 107.4 37.441 0.003906 117.36-9.7344 112.48-107.38zm-105.48 49.105v15.91h-15.289v-14.812c-10.465-0.47266-20.617-3.2852-26.535-6.7188l4.6758-18.246c6.543 3.582 15.746 6.8672 25.898 6.8672 8.8945 0 14.992-3.4336 14.992-9.6797 0-5.918-5.0039-9.6641-16.547-13.57-16.707-5.6094-28.09-13.41-28.09-28.547 0-13.734 9.6797-24.508 26.371-27.777v-14.828h15.301v13.734c10.434 0.47266 17.465 2.6641 22.598 5.1641l-4.5156 17.625c-4.0547-1.7148-11.246-5.2969-22.48-5.2969-10.152 0-13.422 4.3672-13.422 8.7305 0 5.1484 5.4609 8.4219 18.734 13.41 18.559 6.5547 26.062 15.141 26.062 29.184 0.007812 13.875-9.8164 25.73-27.754 28.852z"/>
  <path d="m260.77 229.96h-18.352c-15.199 0-27.512 12.328-27.512 27.527v80.285c0 15.199 12.312 27.512 27.512 27.512h18.352c15.199 0 27.512-12.312 27.512-27.512v-80.285c0-15.199-12.312-27.527-27.512-27.527zm-9.1758 113.55c-6.9688 0-12.625-5.6523-12.625-12.625 0-6.9688 5.6562-12.605 12.625-12.605 6.957 0 12.625 5.6523 12.625 12.625 0 6.9688-5.6836 12.605-12.625 12.605z"/>
 </g>
</svg>
