<?xml version="1.0" encoding="UTF-8"?>
<svg width="752pt" height="752pt" version="1.1" viewBox="0 0 752 752" xmlns="http://www.w3.org/2000/svg">
 <defs>
  <clipPath id="a">
   <path d="m146 139.21h460v473.58h-460z"/>
  </clipPath>
 </defs>
 <g clip-path="url(#a)">
  <path d="m248.68 313.74c2.6836-3.1016 6.5859-4.8867 10.691-4.8867h84.82c4.0742 0 7.9531 1.7617 10.637 4.8281 68.062 77.785 102.46 139.2 102.46 186.02 0 62.457-50.637 113.09-113.09 113.09h-84.82c-62.461 0-113.09-50.637-113.09-113.09 0-45.961 34.355-107.31 102.4-185.96zm10.691 178.89c0 18.465 11.801 34.176 28.273 39.996v9.4844c0 7.8047 6.3281 14.137 14.137 14.137 7.8047 0 14.137-6.332 14.137-14.137v-9.4844c16.469-5.8203 28.273-21.531 28.273-39.996 0-20.266-10.137-28.621-36.359-41.047-16.188-7.6719-20.188-10.973-20.188-15.5 0-7.8086 6.3281-14.137 14.137-14.137 7.8047 0 14.137 6.3281 14.137 14.137 0 7.8086 6.3281 14.137 14.137 14.137 7.8047 0 14.137-6.3281 14.137-14.137 0-18.465-11.805-34.176-28.273-39.996v-9.4805c0-7.8086-6.332-14.137-14.137-14.137-7.8086 0-14.137 6.3281-14.137 14.137v9.4805c-16.473 5.8203-28.273 21.531-28.273 39.996 0 20.266 10.133 28.625 36.355 41.051 16.188 7.668 20.191 10.969 20.191 15.496 0 7.8086-6.332 14.137-14.137 14.137-7.8086 0-14.137-6.3281-14.137-14.137s-6.332-14.137-14.137-14.137c-7.8086 0-14.137 6.3281-14.137 14.137zm-28.273-353.42h141.37c10 0 16.84 10.102 13.125 19.387l-28.273 70.684c-2.1484 5.3672-7.3477 8.8867-13.125 8.8867h-84.82c-5.7812 0-10.98-3.5195-13.129-8.8867l-28.273-70.684c-3.7109-9.2852 3.125-19.387 13.129-19.387zm28.273 113.09h84.82c11.711 0 21.203 9.4922 21.203 21.207 0 11.711-9.4922 21.203-21.203 21.203h-84.82c-11.715 0-21.207-9.4922-21.207-21.203 0-11.715 9.4922-21.207 21.207-21.207zm233.25 70.684c-3.75 0-7.3438-1.4883-9.9961-4.1406l-42.41-42.41c-2.6523-2.6523-4.1406-6.2461-4.1406-9.9961v-56.547c0-3.75 1.4883-7.3438 4.1406-9.9961l42.41-42.41c2.6523-2.6523 6.2461-4.1406 9.9961-4.1406h56.547c3.75 0 7.3477 1.4883 9.9961 4.1406l42.41 42.41c2.6523 2.6523 4.1406 6.2461 4.1406 9.9961v56.547c0 3.75-1.4883 7.3438-4.1406 9.9961l-42.41 42.41c-2.6484 2.6523-6.2461 4.1406-9.9961 4.1406zm-14.137-70.684h84.82c3.9062 0 7.0703-3.1641 7.0703-7.0664v-14.137c0-3.9062-3.1641-7.0703-7.0703-7.0703h-84.82c-3.9023 0-7.0664 3.1641-7.0664 7.0703v14.137c0 3.9023 3.1641 7.0664 7.0664 7.0664z"/>
 </g>
</svg>
