<?xml version="1.0" encoding="UTF-8"?>
<svg width="752pt" height="752pt" version="1.1" viewBox="0 0 752 752" xmlns="http://www.w3.org/2000/svg">
 <g>
  <path d="m492.04 179.01h-232.08c-22.215 0-40.227 18.012-40.227 40.238v313.57c0 22.199 18.012 40.18 40.227 40.18h232.09c22.199 0 40.211-17.98 40.211-40.18l-0.003906-313.57c0.015625-22.23-17.996-40.238-40.211-40.238zm-198.7 351.11c-11.41 0-20.645-9.2188-20.645-20.645 0-11.395 9.25-20.645 20.645-20.645 11.395 0 20.645 9.25 20.645 20.645 0 11.426-9.25 20.645-20.645 20.645zm0-71.109c-11.41 0-20.645-9.2188-20.645-20.645 0-11.395 9.25-20.645 20.645-20.645 11.395 0 20.645 9.25 20.645 20.645 0 11.426-9.25 20.645-20.645 20.645zm0-71.098c-11.41 0-20.645-9.25-20.645-20.645s9.25-20.645 20.645-20.645c11.395 0 20.645 9.25 20.645 20.645s-9.25 20.645-20.645 20.645zm82.652 142.21c-11.41 0-20.645-9.2188-20.645-20.645 0-11.395 9.25-20.645 20.645-20.645s20.645 9.25 20.645 20.645c0.003907 11.426-9.2461 20.645-20.645 20.645zm0-71.109c-11.41 0-20.645-9.2188-20.645-20.645 0-11.395 9.25-20.645 20.645-20.645s20.645 9.25 20.645 20.645c0.003907 11.426-9.2461 20.645-20.645 20.645zm0-71.098c-11.41 0-20.645-9.25-20.645-20.645s9.25-20.645 20.645-20.645 20.645 9.25 20.645 20.645c0.003907 11.395-9.2461 20.645-20.645 20.645zm82.656 142.21c-11.41 0-20.645-9.2188-20.645-20.645 0-11.395 9.25-20.645 20.645-20.645s20.645 9.25 20.645 20.645c0 11.426-9.25 20.645-20.645 20.645zm0-71.109c-11.41 0-20.645-9.2188-20.645-20.645 0-11.395 9.25-20.645 20.645-20.645s20.645 9.25 20.645 20.645c0 11.426-9.25 20.645-20.645 20.645zm0-71.098c-11.41 0-20.645-9.25-20.645-20.645s9.25-20.645 20.645-20.645 20.645 9.25 20.645 20.645-9.25 20.645-20.645 20.645zm35.473-79.605h-236.26v-91.742h236.27v91.742z"/>
  <path d="m441.09 279.43c-5.5938 0-10.699-1.8203-14.312-3.7891l-2.5898 10.082c3.2695 1.8789 8.8945 3.4336 14.668 3.6992v8.1836h8.4492v-8.7891c9.9023-1.7305 15.348-8.2734 15.348-15.953 0-7.7383-4.1445-12.492-14.398-16.133-7.3242-2.7539-10.344-4.5742-10.344-7.3984 0-2.4258 1.8203-4.8242 7.4141-4.8242 6.1992 0 10.184 1.9688 12.418 2.9141l2.5-9.7383c-2.8398-1.3906-6.7188-2.5742-12.504-2.8281l-0.003906-7.6055h-8.4492v8.2148c-9.2188 1.7891-14.562 7.7383-14.562 15.348 0 8.3477 6.3047 12.652 15.523 15.777 6.3789 2.1445 9.1445 4.1875 9.1445 7.4883-0.015625 3.4453-3.3867 5.3516-8.3008 5.3516z"/>
  <path d="m373.68 279.43c-5.5938 0-10.699-1.8203-14.312-3.7891l-2.5898 10.082c3.2695 1.8789 8.8945 3.4336 14.668 3.6992v8.1836h8.4492v-8.7891c9.9141-1.7305 15.348-8.2734 15.348-15.953 0-7.7383-4.1445-12.492-14.398-16.133-7.3398-2.7539-10.359-4.5742-10.359-7.3984 0-2.4258 1.8203-4.8242 7.4141-4.8242 6.1992 0 10.184 1.9688 12.418 2.9141l2.5-9.7383c-2.8398-1.3906-6.7188-2.5742-12.492-2.8281v-7.6055h-8.4648v8.2148c-9.2188 1.7891-14.562 7.7383-14.562 15.348 0 8.3477 6.3047 12.652 15.523 15.777 6.3789 2.1445 9.1445 4.1875 9.1445 7.4883 0 3.4453-3.375 5.3516-8.2852 5.3516z"/>
  <path d="m306.25 279.43c-5.5938 0-10.684-1.8203-14.312-3.7891l-2.5859 10.082c3.2695 1.8789 8.8945 3.4336 14.668 3.6992v8.1836h8.4492v-8.7891c9.9141-1.7305 15.348-8.2734 15.348-15.953 0-7.7383-4.1289-12.492-14.398-16.133-7.3398-2.7539-10.344-4.5742-10.344-7.3984 0-2.4258 1.8047-4.8242 7.3984-4.8242 6.1992 0 10.184 1.9688 12.418 2.9141l2.5-9.7383c-2.8555-1.3906-6.7188-2.5742-12.504-2.8281l-0.003907-7.6055h-8.4492v8.2148c-9.2188 1.7891-14.578 7.7383-14.578 15.348 0 8.3477 6.3047 12.652 15.523 15.777 6.3789 2.1445 9.1445 4.1875 9.1445 7.4883 0.015624 3.4453-3.3438 5.3516-8.2734 5.3516z"/>
 </g>
</svg>
