<?xml version="1.0" encoding="UTF-8"?>
<svg width="752pt" height="752pt" version="1.1" viewBox="0 0 752 752" xmlns="http://www.w3.org/2000/svg">
 <g>
  <path d="m309.7 478.29c-70.562 0-127.87-57.301-127.87-128.34 0-70.562 57.305-127.87 127.87-127.87 63.461 0 116.5 46.883 126.45 107.5 9.4727-4.2617 18.941-7.5781 29.363-9.9453-13.734-73.406-78.613-128.34-155.81-128.34-87.137 0-158.65 71.039-158.65 158.65 0 87.613 71.512 159.12 158.65 159.12 18.941 0 37.414-3.3164 54.934-9.4727-3.3164-9.4727-5.6836-19.891-7.1055-30.309-14.676 5.6836-30.777 8.9961-47.828 8.9961z"/>
  <path d="m299.75 441.83h20.363c2.3672 0 4.2617-1.8945 4.2617-4.2617v-15.156c18.469-4.2617 33.625-18.941 35.52-38.359 2.3672-26.047-17.996-48.305-43.57-48.305h-11.84c-8.5234 0-15.156-6.6289-15.156-15.156 0-8.5234 6.6289-15.156 15.156-15.156h11.84c7.1055 0 13.262 5.2109 14.68 11.84 0.47266 1.8945 2.3672 3.3164 4.2617 3.3164h20.363c2.3672 0 4.7344-2.3672 4.2617-4.7344-1.8945-19.418-16.574-35.047-35.52-38.359v-14.68c0-2.3672-1.8945-4.2617-4.2617-4.2617h-20.363c-2.3672 0-4.2617 1.8945-4.2617 4.2617v14.68c-21.785 4.2617-37.414 24.152-35.52 47.359 2.3672 22.73 22.73 39.781 45.938 39.781h9.9453c8.5234 0 15.156 6.6289 15.156 15.156 0 8.5234-6.6289 15.156-15.156 15.156h-11.84c-7.1055 0-13.262-5.2109-14.68-11.84-0.47266-1.8945-2.3672-3.3164-4.2617-3.3164h-20.363c-2.3672 0-4.7344 2.3672-4.2617 4.7344 1.8945 19.418 16.574 35.047 35.52 38.359v14.68c-0.47266 2.3672 1.4219 4.2617 3.7891 4.2617z"/>
  <path d="m494.4 347.11c-58.723 0-106.55 47.832-106.55 106.55-0.47656 59.199 47.355 107.03 106.55 107.03 59.199 0 106.55-47.832 106.55-106.55 0-59.199-47.832-107.03-106.55-107.03zm44.043 122.18h-29.363v29.363c0 8.5234-6.6289 15.156-15.156 15.156-8.5234 0-15.156-6.6289-15.156-15.156v-29.363h-29.363c-8.5234 0-15.156-6.6289-15.156-15.156 0-8.5234 6.6289-15.156 15.156-15.156h29.363v-29.363c0-8.5234 6.6289-15.156 15.156-15.156 8.5234 0 15.156 6.6289 15.156 15.156v29.363h29.363c8.5234 0 15.156 6.6289 15.156 15.156-0.003906 8.5273-6.6328 15.156-15.156 15.156z"/>
 </g>
</svg>
