<?xml version="1.0" encoding="UTF-8"?>
<svg width="752pt" height="752pt" version="1.1" viewBox="0 0 752 752" xmlns="http://www.w3.org/2000/svg">
 <g>
  <path d="m544.17 403.14c-1.9609-2.6133-2.7656-5.9141-2.2227-9.1367 0.53906-3.2188 2.3789-6.0781 5.082-7.9062 2.707-1.832 6.043-2.4727 9.2344-1.7734 3.1914 0.69531 5.957 2.6719 7.6523 5.4609 11.27 16.816 17.301 36.59 17.332 56.832 0.015625 28.758-12.133 56.18-33.441 75.488-21.309 19.312-49.789 28.711-78.406 25.879-28.621-2.832-54.703-17.633-71.812-40.75-17.109-23.113-23.645-52.387-17.992-80.582 5.6484-28.195 22.961-52.688 47.656-67.426 24.691-14.738 54.469-18.344 81.965-9.9297 9.6875 3.0664 18.898 7.4648 27.375 13.07 2.8203 1.6836 4.8203 4.4609 5.5273 7.668 0.71094 3.2109 0.0625 6.5703-1.7852 9.2891-1.8477 2.7148-4.7344 4.5508-7.9805 5.0703-3.2461 0.51953-6.5625-0.32422-9.1641-2.3281-6.4805-4.3516-13.543-7.7656-20.98-10.133-7.4688-2.2227-15.223-3.3555-23.016-3.3633-20.789-0.015625-40.727 8.25-55.41 22.969-18.344 18.512-26.25 44.945-21.086 70.488 5.1641 25.543 22.723 46.832 46.816 56.762 24.094 9.9297 51.551 7.1953 73.215-7.293 21.66-14.488 34.676-38.82 34.699-64.879-0.011719-7.7305-1.1445-15.422-3.3633-22.828-2.2266-7.3477-5.5664-14.309-9.8945-20.648z"/>
  <path d="m467.26 408.11c0.75391-5.9609 5.8281-10.434 11.84-10.434 6.0078 0 11.082 4.4727 11.84 10.434v77.102c-0.75781 5.9609-5.832 10.434-11.84 10.434-6.0117 0-11.086-4.4727-11.84-10.434z"/>
  <path d="m440.46 458.59c-3.4023 0.42969-6.8203-0.62109-9.3906-2.8867-2.5742-2.2656-4.0469-5.5273-4.0469-8.9531 0-3.4258 1.4727-6.6875 4.0469-8.9531 2.5703-2.2656 5.9883-3.3164 9.3906-2.8867h77.289c3.3984-0.42969 6.8164 0.62109 9.3906 2.8867 2.5703 2.2656 4.043 5.5273 4.043 8.9531 0 3.4258-1.4727 6.6875-4.043 8.9531-2.5742 2.2656-5.9922 3.3164-9.3906 2.8867z"/>
  <path d="m392.67 460.49c3.3242-0.29688 6.6172 0.81641 9.082 3.0664 2.4609 2.2539 3.8633 5.4375 3.8633 8.7734s-1.4023 6.5195-3.8633 8.7734c-2.4648 2.25-5.7578 3.3633-9.082 3.0664h-210.04c-3.1602 0.023437-6.1953-1.2188-8.4336-3.4531-2.2344-2.2344-3.4766-5.2734-3.4531-8.4336v-256.92c-0.023438-3.1602 1.2188-6.1992 3.4531-8.4336 2.2383-2.2344 5.2734-3.4805 8.4336-3.4531h386.73c3.1602-0.027343 6.1992 1.2188 8.4336 3.4531 2.2344 2.2344 3.4805 5.2734 3.4531 8.4336v91.117c0.027344 3.1719-1.2148 6.2266-3.4453 8.4844-2.2305 2.2539-5.2656 3.5312-8.4414 3.543-6.5938-0.078124-11.906-5.4336-11.934-12.027v-79.23h-362.86v233.24zm164.76-118.11c0.050781-6.5625 5.3711-11.863 11.934-11.887 3.1562-0.015626 6.1875 1.2344 8.4219 3.4648 2.2305 2.2344 3.4805 5.2656 3.4648 8.4219v21.594c0.027344 3.1719-1.2148 6.2266-3.4453 8.4844-2.2305 2.2578-5.2656 3.5312-8.4414 3.543-6.5938-0.074219-11.906-5.4297-11.934-12.027z"/>
  <path d="m542.7 372.88c-0.39844 6.3398-5.6562 11.273-12.008 11.273-6.3477 0-11.605-4.9336-12.004-11.273v-69.898c-9.0117-2.1836-17.25-6.8008-23.816-13.348-6.5625-6.5508-11.203-14.777-13.406-23.781h-210.93c-2.2148 8.9688-6.8516 17.16-13.402 23.68-6.5703 6.4688-14.742 11.074-23.68 13.352v81.883c8.9648 2.207 17.156 6.8242 23.68 13.355 6.5781 6.4961 11.219 14.695 13.402 23.68h87.613c6.1289 0.54688 10.824 5.6836 10.824 11.84 0 6.1523-4.6953 11.289-10.824 11.84h-98.176c-6.4609-0.050781-11.711-5.2383-11.84-11.699-0.058593-7.0469-2.8906-13.789-7.8789-18.766-4.9883-4.9805-11.734-7.8008-18.781-7.8477-6.5547 0-11.883-5.2852-11.934-11.84v-102.86c-0.015624-3.1641 1.2422-6.2031 3.4844-8.4336 2.2422-2.2344 5.2852-3.4766 8.4492-3.4531 7.0781-0.023438 13.859-2.8555 18.859-7.8711 4.9961-5.0156 7.8008-11.805 7.8008-18.887 0.10547-6.5312 5.4023-11.789 11.938-11.84h232.05c6.4805 0.10547 11.691 5.3594 11.742 11.84 0 7.1055 2.8281 13.918 7.8555 18.938 5.0273 5.0195 11.844 7.832 18.949 7.8203 6.5742 0 11.91 5.3164 11.934 11.887z"/>
  <path d="m371.69 302.98c0-5.2305 4.2422-9.4727 9.4727-9.4727 5.2305 0 9.4727 4.2422 9.4727 9.4727v10.277-0.003906c0 5.2344-4.2422 9.4727-9.4727 9.4727-5.2305 0-9.4727-4.2383-9.4727-9.4727z"/>
  <path d="m371.69 374.54c0-5.2344 4.2422-9.4727 9.4727-9.4727 5.2305 0 9.4727 4.2383 9.4727 9.4727v10.23-0.003906c0 5.2305-4.2422 9.4727-9.4727 9.4727-5.2305 0-9.4727-4.2422-9.4727-9.4727z"/>
  <path d="m391.44 303.78c5.2305 0 9.4688 4.2383 9.4688 9.4688 0 5.2344-4.2383 9.4727-9.4688 9.4727h-15.441c-1.5508 0.019532-3.043 0.58984-4.2148 1.6094-1.0508 1.0938-1.6289 2.5586-1.6094 4.0742 0.019531 1.5391 0.58984 3.0156 1.6094 4.168 1.1172 1.1211 2.6328 1.75 4.2148 1.7539h10.277c6.5898-0.058594 12.93 2.5156 17.617 7.1484 0.14062 0.24609 0.31641 0.46875 0.52344 0.66406 4.4375 4.6641 6.8711 10.883 6.7734 17.32s-2.7148 12.582-7.2969 17.109c-4.7031 4.625-11.02 7.2383-17.617 7.293h-15.438c-5.2305 0-9.4727-4.2422-9.4727-9.4727s4.2422-9.4727 9.4727-9.4727h15.438c1.582 0.003906 3.1016-0.625 4.2148-1.75 1.0977-1.1016 1.6836-2.6133 1.6094-4.168 0.023438-1.3789-0.44922-2.7227-1.3242-3.7891l-0.28516-0.28516c-1.1133-1.1211-2.6328-1.7539-4.2148-1.75h-10.277c-6.5977-0.035156-12.922-2.6523-17.617-7.293-4.5898-4.5703-7.2109-10.762-7.293-17.238 0.027344-6.5898 2.6484-12.902 7.293-17.57 4.6641-4.6836 11.008-7.3125 17.617-7.293z"/>
 </g>
</svg>
