<?xml version="1.0" encoding="UTF-8"?>
<svg width="752pt" height="752pt" version="1.1" viewBox="0 0 752 752" xmlns="http://www.w3.org/2000/svg">
 <g>
  <path d="m471.36 258.16c-0.46094-2.2188-1.7578-4.1641-3.6992-5.3633-1.9414-1.2031-4.2539-1.6641-6.4766-1.1094l-124.5 29.32h139.3z"/>
  <path d="m480.89 356.58c-3.9766 0-7.1211 3.1445-7.1211 7.1211 0 3.9766 3.2383 7.1211 7.1211 7.1211 3.8867 0 7.1211-3.2383 7.1211-7.1211 0.003906-3.9766-3.1406-7.1211-7.1211-7.1211z"/>
  <path d="m302.38 410.32h-8.7891v34.316h-34.316v8.7891h34.316v34.316h8.7891v-34.316h34.316v-8.7891h-34.316z"/>
  <path d="m376 144.76c-127.73 0-231.24 103.5-231.24 231.24 0 127.74 103.5 231.24 231.24 231.24 127.74 0 231.24-103.5 231.24-231.24-0.003906-127.73-103.51-231.24-231.25-231.24zm-77.879 365.08c-33.574 0-60.863-27.285-60.863-60.863 0-33.574 27.285-60.863 60.863-60.863 33.574 0 60.863 27.285 60.863 60.863-0.003906 33.578-27.289 60.863-60.863 60.863zm216.62-72.148c0 4.9023-3.9766 8.7891-8.7891 8.7891h-140.59c-1.8516-35.609-31.266-63.824-67.246-63.824-4.4414 0-8.7891 0.37109-12.949 1.2031v-87.316c0-7.3086 5.0859-13.504 12.023-15.078l-0.09375-0.55469 162.05-38.199c4.625-1.1094 9.4336-0.27734 13.504 2.3125s6.8438 6.5664 7.7695 11.285l4.9961 24.695h13.688c8.6016 0 15.539 6.9375 15.539 15.539v41.902h-51.52c-4.8086 0-8.7891 3.9766-8.6953 8.6953v33.02c0 4.9023 3.9766 8.7891 8.7891 8.7891l51.523-0.003906zm-0.46094-84.078v20.258c0 4.9023-3.9766 8.7891-8.7891 8.7891h-35.055c-4.9023 0-8.7891-3.9766-8.7891-8.7891v-20.258c0-4.9023 3.9766-8.7891 8.7891-8.7891l35.055 0.003906c4.8086 0 8.6953 3.8828 8.7891 8.7852z"/>
 </g>
</svg>
