<?xml version="1.0" encoding="UTF-8"?>
<svg width="752pt" height="752pt" version="1.1" viewBox="0 0 752 752" xmlns="http://www.w3.org/2000/svg">
 <g>
  <path d="m485.87 344.27c-4.2617 0-8.9961 0.47266-13.262 0.94531v-6.6289c0-89.035-71.984-161.02-161.02-161.02-89.035 0-161.02 71.984-161.02 161.02 0 89.035 71.984 161.02 161.02 161.02 22.258 0 43.098-4.7344 62.039-12.785 12.789 50.199 58.25 87.613 112.24 87.613 63.461 0 115.08-51.621 115.08-115.08 0-63.461-51.621-115.08-115.08-115.08zm-180.43-21.785h13.734c28.887 0 52.094 24.625 49.254 53.988-1.8945 21.785-18.941 38.359-39.781 43.098v17.051c0 2.8398-2.3672 4.7344-4.7344 4.7344h-22.73c-2.8398 0-4.7344-1.8945-4.7344-4.7344v-16.574c-20.836-4.2617-37.414-21.785-39.309-43.098-0.47266-2.8398 1.8945-5.2109 4.7344-5.2109h22.73c2.3672 0 4.2617 1.4219 4.7344 3.3164 1.4219 7.5781 8.5234 13.262 16.574 13.262h13.734c9.4727 0 17.051-7.5781 17.051-17.051 0-9.4727-7.5781-17.051-17.051-17.051h-11.367c-25.574 0-48.777-18.941-51.148-44.516-2.3672-26.047 15.156-48.305 39.309-53.043v-16.574c0-2.8398 2.3672-4.7344 4.7344-4.7344h22.73c2.3672 0 4.7344 2.3672 4.7344 4.7344v16.574c20.836 4.2617 37.414 21.785 39.781 43.098 0.47266 2.8398-2.3672 5.2109-4.7344 5.2109h-22.73c-2.3672 0-4.2617-1.4219-4.7344-3.3164-1.8945-7.5781-8.5234-13.262-16.574-13.262h-13.734c-9.4727 0-17.051 7.5781-17.051 17.051-0.46875 8.9961 7.1055 17.047 16.578 17.047zm180.43 220.69c-46.41 0-83.824-37.414-83.824-83.824 0-46.41 37.414-83.824 83.824-83.824s83.824 37.414 83.824 83.824c0 46.41-37.414 83.824-83.824 83.824z"/>
  <path d="m528.02 443.72h-26.52v-26.52c0-8.5234-7.1055-15.629-15.629-15.629-8.5234 0-15.629 7.1055-15.629 15.629v26.52h-26.52c-8.5234 0-15.629 7.1055-15.629 15.629 0 8.5234 7.1055 15.629 15.629 15.629h26.52v26.52c0 8.5234 7.1055 15.629 15.629 15.629 8.5234 0 15.629-7.1055 15.629-15.629v-26.52h26.52c8.5234 0 15.629-7.1055 15.629-15.629 0-8.5234-7.1016-15.629-15.629-15.629z"/>
 </g>
</svg>
