<?xml version="1.0" encoding="UTF-8"?>
<svg width="752pt" height="752pt" version="1.1" viewBox="0 0 752 752" xmlns="http://www.w3.org/2000/svg">
 <g>
  <path d="m451.77 257.61h23.68v23.68c0 2.6172 2.1211 4.7344 4.7344 4.7344 2.6172 0 4.7383-2.1172 4.7383-4.7344v-23.68h23.68c2.6133 0 4.7344-2.1211 4.7344-4.7344 0-2.6172-2.1211-4.7383-4.7344-4.7383h-23.68v-23.676c0-2.6172-2.1211-4.7383-4.7383-4.7383-2.6133 0-4.7344 2.1211-4.7344 4.7383v23.68l-23.68-0.003907c-2.6133 0-4.7344 2.1211-4.7344 4.7383 0 2.6133 2.1211 4.7344 4.7344 4.7344z"/>
  <path d="m494.83 297.63c-1.3711-2.1133-4.1602-2.7852-6.3438-1.5195-2.1797 1.2617-2.9922 4.0117-1.8438 6.2539 11.297 19.496 17.238 41.633 17.223 64.168 0 3.0742-0.14844 6.1133-0.36328 9.1367v-0.003907c-2.0742 27.988-13.27 54.523-31.863 75.539-18.598 21.02-43.574 35.359-71.098 40.824l-0.51172 0.089844c-1.7891 0.34766-3.5898 0.66016-5.3984 0.94531-0.47266 0.070312-0.99609 0.125-1.4883 0.1875-1.5156 0.20703-3.0352 0.40625-4.5664 0.55859-0.94531 0.09375-1.9336 0.14844-2.9023 0.22266-1.1016 0.085938-2.2031 0.18359-3.3164 0.24219-2.0977 0.066406-4.2227 0.125-6.3594 0.125s-4.2617-0.058594-6.3633-0.16016c-1.1094-0.058593-2.207-0.15625-3.3164-0.24219-0.94531-0.070313-1.9414-0.12891-2.9023-0.22266-1.5312-0.15234-3.0508-0.35156-4.5664-0.55859-0.47266-0.066406-0.99609-0.11719-1.4883-0.1875-1.8125-0.26953-3.6133-0.58203-5.3984-0.94531l-0.51172-0.089843 0.003906-0.007813c-27.52-5.4648-52.488-19.797-71.082-40.805-18.594-21.008-29.793-47.531-31.875-75.512-0.21875-3.0234-0.36719-6.0664-0.36719-9.1367 0.039063-33.902 13.523-66.402 37.496-90.375 23.973-23.969 56.473-37.453 90.371-37.492 18.875-0.050781 37.523 4.1172 54.582 12.199 2.3672 1.1172 5.1875 0.10156 6.3047-2.2617 1.1172-2.3672 0.10547-5.1875-2.2617-6.3047-42.551-20.051-92.402-16.938-132.13 8.25-39.73 25.184-63.812 68.945-63.832 115.98 0 3.1953 0.15234 6.3594 0.36328 9.5-0.24219 3.5469-0.36328 6.5781-0.36328 9.4414 0 49.066 26.176 94.406 68.668 118.94 42.492 24.535 94.848 24.535 137.34 0 42.492-24.531 68.668-69.871 68.668-118.94 0-2.8633-0.125-5.8945-0.36328-9.4414 0.21094-3.1406 0.36328-6.3047 0.36328-9.5 0.011718-24.199-6.375-47.969-18.508-68.902zm-33.516 182.91c-3.0703 2.7578-6.2188 5.418-9.543 7.8711v-7.4102c3.2617-2.1641 6.4141-4.4766 9.4727-6.9062v6.0938c0 0.125 0.0625 0.23047 0.070312 0.35156zm-170.56-0.35156v-6.0977c3.0586 2.4297 6.207 4.7344 9.4727 6.9062v7.4102c-3.3164-2.4531-6.4727-5.1133-9.543-7.8711 0.007812-0.11719 0.070312-0.22266 0.070312-0.34766zm18.941 14.207v-7.6406c4.6484 2.5703 9.4453 4.8672 14.359 6.8789-0.070313 0.25-0.12109 0.50391-0.15234 0.76563v7.8125c-4.9062-2.2109-9.668-4.7305-14.258-7.543 0.003906-0.097657 0.050781-0.17578 0.050781-0.26953zm23.68 2.668c4.6641 1.5312 9.4062 2.8125 14.207 3.832v9.2344c-4.8125-1.1094-9.5547-2.4961-14.207-4.1562zm23.68 5.4648 0.41797 0.050781c0.66016 0.089844 1.3164 0.17188 1.9766 0.25 2.0547 0.25 4.125 0.44922 6.2031 0.60156 0.72266 0.058593 1.4219 0.125 2.168 0.16406 1.1406 0.066406 2.293 0.10547 3.4414 0.14844v9.4219c-4.7539-0.14844-9.5-0.5625-14.207-1.2383zm23.68 1.2188c1.1523-0.039063 2.3008-0.074219 3.4414-0.14844 0.72266-0.042968 1.4453-0.10938 2.168-0.16406 2.082-0.15625 4.1484-0.35547 6.2031-0.60156 0.66016-0.082031 1.3164-0.16016 1.9766-0.25l0.41797-0.050781v9.3867c-4.7109 0.67969-9.4531 1.0938-14.207 1.2422zm23.68-2.8398v-0.003906c4.8008-1.0195 9.543-2.2969 14.207-3.8281v8.9062c-4.6523 1.6602-9.3945 3.0508-14.207 4.1562zm23.527-7.2539v-0.003906c4.9141-2.0195 9.7109-4.3203 14.359-6.8945v7.6445c0 0.09375 0.046874 0.17578 0.050781 0.26953-4.5898 2.8125-9.3516 5.332-14.262 7.543v-7.8125c-0.027344-0.25781-0.078125-0.51172-0.14844-0.75781zm-166.6-51.621v-0.003906c5.7344 8.6797 12.434 16.684 19.965 23.859 0 0.042969-0.023438 0.074219-0.023438 0.11719v5.2695c-7.9688-8.7891-14.68-18.637-19.941-29.27zm209.38 29.215v-5.2656c0-0.042969 0-0.074219-0.023438-0.11719 7.5312-7.1758 14.227-15.18 19.965-23.859-5.2656 10.621-11.977 20.465-19.941 29.242z"/>
  <path d="m380.74 365.16v-35.156c3.9883 0.99609 7.7812 2.6484 11.23 4.8867 0.90625 0.625 2.0312 0.85547 3.1094 0.63672 1.0781-0.21484 2.0234-0.86328 2.6172-1.7891 0.59375-0.92969 0.78516-2.0586 0.52734-3.1289-0.25391-1.0703-0.93359-1.9922-1.8828-2.5547-4.7617-2.9766-10.062-4.9844-15.602-5.9102v-12.445c0-2.6133-2.1211-4.7344-4.7383-4.7344-2.6133 0-4.7344 2.1211-4.7344 4.7344v12.148c-5.6016 0.34766-10.949 2.4648-15.273 6.0469-4.3398 3.6914-7.0586 8.9375-7.5781 14.609-1.1875 15.344 9.4727 21.355 22.473 27.113l0.37109 0.16406v34.949c-6.9727-1.0352-13.473-4.125-18.676-8.875-1.6602-1.4492-4.1758-1.2969-5.6484 0.33984-0.71875 0.80469-1.082 1.8711-1.0039 2.9492 0.078124 1.0781 0.58984 2.0781 1.4219 2.7695 6.6602 5.7734 14.918 9.3906 23.676 10.375h0.20703l0.003906 11.07c0 2.6172 2.1211 4.7344 4.7344 4.7344 2.6172 0 4.7344-2.1172 4.7344-4.7344v-11.883c3.6289-0.77734 7.0781-2.2227 10.18-4.2617 5.5156-3.4531 9.125-9.2695 9.7695-15.746 1.0859-13.617-8.168-20.648-19.918-26.309zm-24.316-22.168c0.35156-3.7461 2.1914-7.1953 5.1055-9.5703 2.8125-2.1875 6.1914-3.5156 9.7383-3.832v31.328c-9.9453-4.5234-15.512-9.25-14.844-17.926zm35.895 48.074c-0.47656 3.0078-1.8281 5.8086-3.8867 8.0508-2.0586 2.2422-4.7344 3.8281-7.6914 4.5547v-29.336c8.0508 4.5078 12.152 9.3125 11.578 16.734z"/>
  <path d="m376 262.34c-27.633 0-54.133 10.977-73.672 30.516s-30.516 46.039-30.516 73.672 10.977 54.133 30.516 73.672 46.039 30.516 73.672 30.516 54.133-10.977 73.672-30.516 30.516-46.039 30.516-73.672c-0.03125-27.625-11.016-54.105-30.547-73.641-19.535-19.531-46.016-30.516-73.641-30.547zm0 198.9c-25.117 0-49.211-9.9805-66.973-27.742-17.762-17.762-27.742-41.855-27.742-66.973 0-25.121 9.9805-49.215 27.742-66.977 17.762-17.762 41.855-27.742 66.973-27.742 25.121 0 49.215 9.9805 66.977 27.742 17.762 17.762 27.742 41.855 27.742 66.977-0.03125 25.109-10.02 49.184-27.773 66.941-17.758 17.758-41.832 27.746-66.945 27.773z"/>
 </g>
</svg>
