<?xml version="1.0" encoding="UTF-8"?>
<svg width="752pt" height="752pt" version="1.1" viewBox="0 0 752 752" xmlns="http://www.w3.org/2000/svg">
 <g>
  <path d="m293.12 325.68c8.2109 8.207 12.82 19.344 12.816 30.953-0.007812 11.609-4.6289 22.742-12.848 30.941-8.2227 8.1992-19.363 12.793-30.973 12.77h-52.836v48.32c0.019532 4.8203 1.9453 9.4375 5.3555 12.848 3.4062 3.4102 8.0273 5.3359 12.848 5.3555h218.73c-0.078125-1.1836-0.078125-2.3711 0-3.5547 0.023438-14.438 5.7656-28.277 15.977-38.488 10.207-10.207 24.051-15.953 38.488-15.973h5.6992v-147.99h-0.003907c0-3.9258-1.5586-7.6914-4.332-10.465-2.7773-2.7773-6.5391-4.3359-10.465-4.3359h-264.1c-4.957-0.003906-9.7031 2.0156-13.141 5.5898-3.4336 3.5781-5.2617 8.3984-5.0625 13.355v48.32h52.832l0.003906-0.003906c11.566-0.16406 22.723 4.2812 31.004 12.359z"/>
  <path d="m209.29 326.64v60.086h52.836c10.73 0 20.648-5.7266 26.016-15.02 5.3672-9.2969 5.3672-20.75 0-30.043-5.3672-9.2969-15.285-15.023-26.016-15.023zm46.469 29.969h0.003906c0-6.1289 4.9688-11.098 11.098-11.098 6.1289 0 11.102 4.9688 11.102 11.098 0 6.1328-4.9727 11.102-11.102 11.102-6.1289 0-11.098-4.9688-11.098-11.102z"/>
  <path d="m458.21 463.24v3.5508 0.003906c0.88281 10.637 5.7617 20.547 13.652 27.738 7.8906 7.1875 18.211 11.125 28.883 11.016 10.676-0.10547 20.914-4.25 28.656-11.598 7.7461-7.3477 12.422-17.355 13.086-28.012 0.66797-10.652-2.7227-21.164-9.4883-29.422-6.7656-8.2578-16.406-13.645-26.984-15.082-1.8828-0.33984-3.7891-0.51172-5.6992-0.51953-11.188 0.058593-21.895 4.543-29.785 12.477-7.8906 7.9297-12.32 18.66-12.32 29.848zm9.25 0c-0.019532-2.0781 0.78906-4.082 2.2461-5.5664s3.4453-2.3281 5.5234-2.3477h17.316v-17.168c0.019531-2.082 0.86328-4.0703 2.3477-5.5273 1.4883-1.457 3.4883-2.2617 5.5703-2.2422 4.2578 0.078125 7.6914 3.5117 7.7695 7.7695v17.242h17.242v-0.003906c4.0547 0.39453 7.1523 3.8047 7.1523 7.8828s-3.0977 7.4883-7.1523 7.8789h-17.168v17.242c0 4.332-3.5117 7.8438-7.8438 7.8438-4.332 0-7.8438-3.5117-7.8438-7.8438v-17.242h-17.316c-4.2969-0.11719-7.7305-3.6172-7.7695-7.918z"/>
 </g>
</svg>
