<?xml version="1.0" encoding="UTF-8"?>
<svg width="752pt" height="752pt" version="1.1" viewBox="0 0 752 752" xmlns="http://www.w3.org/2000/svg">
 <g>
  <path d="m250.21 568.39h-22.199v-51.797h22.199zm44.398-51.797h111c4.0859 0 7.3984 3.3125 7.3984 7.3984 0 4.0859-3.3125 7.3984-7.3984 7.3984h-74v14.801h74c4.9258-0.015624 9.7109-1.668 13.598-4.6992 3.8828-3.0312 6.6484-7.2695 7.8594-12.047l77.289-28.117c0.26562-0.09375 0.52734-0.20312 0.77734-0.32812 4.1875-2.625 9.2422-3.4883 14.062-2.4023 2.543 1.1172 4.4922 3.2734 5.3477 5.918 2.0273 5.1445-0.19531 10.988-5.1289 13.48l-129.85 64.941-94.953-13.562zm-29.598-14.801h14.801l-0.003906 81.395h-14.797z"/>
  <path d="m326.37 304.17c-3.2773 3.1367-8.4414 3.1367-11.719 0-3.2266-3.2422-3.2266-8.4805 0-11.719l24.418-24.344 7.3984 7.3984v8.6719zm27.43-6.5039 7.3984 7.3984v8.6719l-12.633 12.633h0.003906c-3.2773 3.1484-8.457 3.1484-11.734 0-1.5547-1.5547-2.4297-3.6602-2.4297-5.8594s0.875-4.3086 2.4297-5.8594zm-24.367 87.902c-5.1953-5.3203-5.1953-13.816 0-19.137l31.77-31.766v28.594-0.003907c-9.0469 6.3242-15.832 15.379-19.367 25.832-4.4609 1.0078-9.1328-0.31641-12.402-3.5195zm98.367 20.031c0.023438 11.898-5.6758 23.086-15.316 30.059-9.6445 6.9727-22.051 8.8867-33.344 5.1328-11.293-3.75-20.094-12.703-23.648-24.059-3.5547-11.359-1.4297-23.73 5.7109-33.25v14.715c0 10.574 5.6406 20.348 14.797 25.633 9.1602 5.2891 20.441 5.2891 29.602 0 9.1562-5.2852 14.797-15.059 14.797-25.633v-14.715c4.7891 6.3789 7.3828 14.137 7.4023 22.117zm23.539-128.95-0.003906-0.003907c2.2969 2.8164 3.6172 6.2969 3.7656 9.9258 0.14844 3.6289-0.87891 7.207-2.9336 10.203l-31.77 31.766v-38.27l12.633-12.633-10.465-10.465-14.801 14.801h0.003906c-1.3906 1.3867-2.168 3.2695-2.168 5.2305v111c0 5.2891-2.8203 10.176-7.4023 12.816-4.5781 2.6445-10.219 2.6445-14.797 0-4.582-2.6406-7.4023-7.5273-7.4023-12.816v-96.195c0-1.9609-0.77734-3.8438-2.168-5.2305l-12.629-12.633v-41.332h-14.801v11.734l-24.324-24.367c-2.8867-2.8906-7.5703-2.8906-10.461 0l-5.5938 5.5938-3.5742-14.305 11.527-23.055h99.023v14.801-0.003907c0 1.3867 0.39062 2.7461 1.125 3.9219zm-149.34-107.84h125.8v14.801h-125.8zm-2.125 94.027 16.969-16.969 11.715 11.738-17.078 17.078c-3.2773 3.0352-8.3516 2.9961-11.582-0.085938-1.5547-1.5547-2.4258-3.6641-2.4258-5.8633 0-2.1953 0.87109-4.3047 2.4258-5.8594z"/>
 </g>
</svg>
