<?xml version="1.0" encoding="UTF-8"?>
<svg width="752pt" height="752pt" version="1.1" viewBox="0 0 752 752" xmlns="http://www.w3.org/2000/svg">
 <g>
  <path d="m340.85 472.57-82.508-18.5c-10.73-2.5898-21.828 4.8086-21.828 14.801 0 7.0312 5.1797 12.949 12.578 14.801l101.01 37.367c10.359 1.1094 86.945 1.4805 121.73 1.4805 11.098 0 21.461 15.91 28.488 24.418h96.938c-7.3984-13.32-15.168-26.641-22.57-39.957-7.3984-13.32-15.168-26.641-22.57-39.957-5.5508-5.5508-11.84-11.098-19.609-16.648-35.148-24.418-72.887-27.008-93.605-26.27l-86.945 8.1406c-11.84 2.2188-19.238 7.7695-16.648 17.758 2.5898 9.9883 14.059 16.281 25.16 13.688 31.078 0.37109 18.5 0 49.949 0.37109l0.73828 8.1406z"/>
  <path d="m496.62 554.7h106.55v15.91h-106.55z"/>
  <path d="m149.2 227.64h17.02v91.758h-17.02z"/>
  <path d="m336.41 324.2c-5.1797-2.2188-37-17.02-51.797-25.16 0 0-0.73828-0.37109-1.4805-0.73828-2.2188-1.8516-4.0703-5.1797-2.9609-8.1406 1.1094-2.9609 4.8086-3.3281 6.6602-3.6992 4.0703-0.73828 7.3984 0.73828 8.5078 1.4805l62.16-61.789c-34.777-14.43-60.309-14.059-77.695-10.359-17.758 3.3281-27.75 3.3281-55.496 9.6211-22.199 5.1797-39.59 6.2891-51.797 6.6602 1.8516 28.117-0.73828 56.238 0.73828 83.988 13.688-2.9609 30.707-6.2891 44.77-9.6211l5.918 6.2891c2.9609 3.3281 8.5078 8.5078 15.91 12.578 9.9883 5.1797 19.609 5.918 24.789 6.2891 19.609 7.7695 39.219 15.91 58.828 23.68 8.1406 1.8516 16.648-2.9609 19.238-10.73 2.5859-7.0273-0.003906-15.539-6.293-20.348z"/>
  <path d="m492.18 260.57-78.438-79.547c-38.477 38.477-75.105 76.586-113.58 115.07 12.578 6.6602 22.199 11.84 34.777 18.129 3.6992 2.5898 7.3984 5.1797 11.098 7.3984 1.1094 1.8516 8.1406 11.469 5.5508 23.309-0.37109 2.5898-2.2188 8.8789-8.1406 13.688-4.4414 3.3281-9.25 4.0703-11.84 4.4414-1.1094 0-2.2188 0-3.3281-0.37109-9.6211-2.5898-19.238-4.8086-28.859-7.3984 8.1406 7.3984 16.648 15.168 25.527 23.68 8.1406 8.1406 15.91 16.648 22.938 24.418zm-136.89 57.719c-15.168-15.168-15.168-39.59 0-54.387 15.168-14.801 39.59-15.168 54.387 0 15.168 15.168 15.168 39.59 0 54.387-15.168 15.168-39.586 15.168-54.387 0z"/>
  <path d="m409.67 290.16c0 14.918-12.094 27.008-27.012 27.008-14.914 0-27.008-12.09-27.008-27.008 0-14.914 12.094-27.008 27.008-27.008 14.918 0 27.012 12.094 27.012 27.008"/>
 </g>
</svg>
