<?xml version="1.0" encoding="UTF-8"?>
<svg width="752pt" height="752pt" version="1.1" viewBox="0 0 752 752" xmlns="http://www.w3.org/2000/svg">
 <g>
  <path d="m500.36 289.43c40.535 0 73.406-32.871 73.406-73.418 0-40.52-32.871-73.391-73.406-73.391-40.551 0-73.406 32.871-73.406 73.391 0.003906 40.562 32.871 73.418 73.406 73.418zm-4.5273-67.516c-13.141-4.4258-22.094-10.551-22.094-22.465 0-10.789 7.6055-19.254 20.734-21.828l-0.003906-11.633h12.031v10.789c8.2148 0.37109 13.734 2.0859 17.789 4.0391l-3.5508 13.883c-3.1953-1.3633-8.8359-4.1875-17.672-4.1875-7.9766 0-10.551 3.4336-10.551 6.8828 0 4.0391 4.3047 6.6172 14.727 10.551 14.594 5.1484 20.48 11.914 20.48 22.953 0 10.922-7.7266 20.23-21.844 22.688v12.52h-12.031v-11.676c-8.2148-0.37109-16.191-2.5742-20.852-5.2852l3.6836-14.34c5.1484 2.7969 12.387 5.3711 20.363 5.3711 7 0 11.781-2.6953 11.781-7.6055 0-4.6484-3.9336-7.5938-12.992-10.656z"/>
  <path d="m393.95 289.43c-16.738 0-32.883 2.0273-48.188 5.6094-24.242-26.668-63.387-37.727-63.387-37.727v65.176c-22.512 15.375-40.195 35.297-50.777 58.074l-26.312 4.9141c-14.887 2.7969-27.055 17.465-27.055 32.602v24.051c0 15.141 12.164 29.836 27.055 32.602l26.312 4.9414c11.395 24.477 30.887 45.672 55.926 61.445v49.891c0 10.121 8.2578 18.352 18.352 18.352h17.078c10.094 0 21.281-7.7109 24.848-17.168l9.3086-24.625c11.883 2.0586 24.184 3.2422 36.82 3.2422 12.641 0 24.953-1.1836 36.836-3.2422l9.3086 24.625c3.5664 9.457 14.754 17.168 24.848 17.168h17.078c10.094 0 18.352-8.2422 18.352-18.352v-49.891c40.848-25.75 67.234-65.844 67.234-111.02 0.003906-77.68-77.738-140.66-173.64-140.66zm-81.824 101.23c-10.609 0-19.211-8.6133-19.211-19.223 0-10.609 8.5977-19.223 19.211-19.223 10.609 0 19.211 8.6133 19.211 19.223-0.003906 10.609-8.6016 19.223-19.211 19.223zm208.49-17.047c-0.85938 0.66406-1.8633 1.0078-2.8867 1.0078-1.332 0-2.6641-0.57812-3.5664-1.7031-22.879-28.148-60.426-46.559-102.99-50.555-2.5312-0.23828-4.3789-2.4844-4.1445-5.0039 0.23828-2.5156 2.5156-4.3945 4.9883-4.1289 45.02 4.1875 84.844 23.844 109.27 53.914 1.5977 1.9531 1.3008 4.8555-0.66797 6.4688z"/>
 </g>
</svg>
