<svg width="24" height="22" viewBox="0 0 24 22" fill="none" xmlns="http://www.w3.org/2000/svg">
<path d="M12.5032 15.0224H12.2559V14.6909C12.2559 14.5492 12.141 14.4352 12.0002 14.4352C11.8593 14.4352 11.7444 14.5501 11.7444 14.6909V15.0224H11.4971C11.194 15.0224 10.9478 15.2688 10.9478 15.5717V16.4377C10.9478 16.7409 11.1942 16.9871 11.4971 16.9871L12.541 17.0241L12.5032 17.9271L11.4593 17.8901V17.6657C11.4593 17.524 11.3444 17.4099 11.2035 17.4099C11.0627 17.4099 10.9478 17.5248 10.9478 17.6657V17.8901C10.9478 18.1933 11.1942 18.4395 11.4971 18.4395H11.7444V18.7709C11.7444 18.9126 11.8593 19.0267 12.0001 19.0267C12.141 19.0267 12.2559 18.9118 12.2559 18.7709L12.2561 18.4389H12.5034C12.8065 18.4389 13.0527 18.1924 13.0527 17.8895V17.0235C13.0527 16.7203 12.8063 16.4741 12.5034 16.4741L11.4595 16.4371L11.4965 15.5341L12.5404 15.5711V15.7955C12.5404 15.9372 12.6553 16.0513 12.7961 16.0513C12.937 16.0513 13.0519 15.9364 13.0519 15.7955V15.5711C13.0528 15.2688 12.8063 15.0224 12.5032 15.0224L12.5032 15.0224Z" fill="#6D29D3"/>
<path d="M12.0001 13.1814C10.043 13.1814 8.45142 14.7738 8.45142 16.7309C8.45142 18.6879 10.0432 20.2795 12.0001 20.2795C13.9572 20.2795 15.5488 18.6877 15.5488 16.7309C15.549 14.7738 13.9572 13.1814 12.0001 13.1814ZM12.0001 19.7676C10.3258 19.7676 8.96296 18.4058 8.96296 16.7304C8.96296 15.0553 10.3248 13.6933 12.0001 13.6933C13.6752 13.6933 15.0372 15.0559 15.0372 16.7304C15.0372 18.405 13.6746 19.7676 12.0001 19.7676Z" fill="#6D29D3"/>
<path d="M12 2.50373C11.0828 2.50373 10.3367 3.25006 10.3367 4.16639C10.3367 5.08352 11.083 5.82969 12 5.82969C12.9171 5.82969 13.6633 5.08336 13.6633 4.16639C13.6635 3.25006 12.9171 2.50373 12 2.50373V2.50373ZM12 5.3181C11.3648 5.3181 10.8491 4.80177 10.8491 4.16719C10.8491 3.53262 11.3654 3.01629 12 3.01629C12.6345 3.01629 13.1509 3.53262 13.1509 4.16719C13.1509 4.80177 12.6354 5.3181 12 5.3181Z" fill="#6D29D3"/>
<path d="M22.925 5.25639L12.4351 0.257031C12.1588 0.125505 11.8423 0.125505 11.566 0.257031L1.0761 5.25639C0.862712 5.358 0.724121 5.57679 0.724121 5.81384V6.86623C0.724121 7.20699 1.0013 7.48416 1.34205 7.48416H1.67574V8.65086C1.67574 8.99162 1.95291 9.26879 2.29366 9.26879H2.69904V10.3087C2.69904 10.6495 2.97622 10.9267 3.31697 10.9267H3.52163V17.2724H2.29365C1.95352 17.2724 1.67716 17.5487 1.67716 17.8889V19.3051H1.55457C1.20987 19.3051 0.930424 19.5815 0.930424 19.9216V21.2252C0.930424 21.5654 1.21072 21.8417 1.55457 21.8417L22.4471 21.8415C22.7918 21.8415 23.0713 21.5652 23.0713 21.225V19.9214C23.0713 19.5813 22.791 19.3049 22.4471 19.3049H22.326V17.8887C22.326 17.5486 22.0496 17.2722 21.7095 17.2722H20.4815V10.9265H20.6862C21.0269 10.9265 21.3041 10.6493 21.3041 10.3085V9.26858H21.7095C22.0502 9.26858 22.3274 8.9914 22.3274 8.65065V7.48395H22.6611C23.0019 7.48395 23.279 7.20678 23.279 6.86603V5.81384C23.2776 5.57677 23.139 5.35798 22.9256 5.2564L22.925 5.25639ZM3.20961 10.3096V9.26964H7.62972V10.3096C7.62972 10.3678 7.58255 10.4151 7.52416 10.4151L3.31581 10.4149C3.25763 10.4149 3.20964 10.3678 3.20964 10.3096H3.20961ZM4.03222 10.9267H6.80796V17.2725H4.03222V10.9267ZM21.8125 17.8889V19.3052H15.1907C15.049 19.3052 14.9349 19.4201 14.9349 19.5609C14.9349 19.7018 15.0499 19.8167 15.1907 19.8167H22.4466C22.5087 19.8167 22.5592 19.8633 22.5592 19.9206V21.2242C22.5592 21.2818 22.5089 21.3281 22.4466 21.3281H1.55403C1.4919 21.3281 1.44141 21.2816 1.44141 21.2242V19.9206C1.44141 19.8631 1.49169 19.8167 1.55403 19.8167H8.80988C8.95158 19.8167 9.06565 19.7018 9.06565 19.5609C9.06565 19.4201 8.95075 19.3052 8.80988 19.3052H2.18807V17.8889C2.18807 17.8331 2.2369 17.7851 2.29196 17.7851H7.81483C7.95654 17.7851 8.07061 17.6702 8.07061 17.5293C8.07061 17.3884 7.9557 17.2735 7.81483 17.2735H7.31969V10.9278H7.52436C7.86511 10.9278 8.14228 10.6506 8.14228 10.3098V9.26989H15.8593V10.3098C15.8593 10.6506 16.1365 10.9278 16.4772 10.9278H16.6819V17.2735H16.1868C16.045 17.2735 15.931 17.3884 15.931 17.5293C15.931 17.6702 16.0459 17.7851 16.1868 17.7851H21.7096C21.7641 17.7851 21.8129 17.8331 21.8129 17.8889H21.8125ZM19.9681 17.2725H17.1923V10.9267H19.9681V17.2725ZM20.7907 10.3097C20.7907 10.3679 20.7435 10.4152 20.6851 10.4152H16.4768C16.4186 10.4152 16.3712 10.3681 16.3712 10.3097V9.26974H20.7913L20.7915 10.3097H20.7907ZM21.8134 8.65182C21.8134 8.71 21.7662 8.75737 21.7078 8.75737H2.29241C2.23423 8.75737 2.18686 8.71021 2.18686 8.65182V7.48512H21.814V8.65182H21.8134ZM22.765 6.86719C22.765 6.92537 22.7179 6.97274 22.6595 6.97274H1.34033C1.28215 6.97274 1.23478 6.92558 1.23478 6.86719L1.23499 5.81395C1.23499 5.77301 1.25868 5.7352 1.29483 5.71795L11.7858 0.719175C11.9219 0.654558 12.0785 0.654558 12.2149 0.719175L22.7053 5.71875C22.7423 5.736 22.7659 5.77381 22.7659 5.81474L22.7657 6.86714L22.765 6.86719Z" fill="#6D29D3"/>
</svg>
