<svg width="26" height="23" viewBox="0 0 26 23" fill="none" xmlns="http://www.w3.org/2000/svg">
<path d="M19.315 9.70136H19.3565C22.9977 9.70136 25.96 12.6748 25.96 16.3307C25.96 19.9864 22.9978 22.96 19.3565 22.96C16.2588 22.96 13.6498 20.8049 12.9158 17.9127L12.9043 17.8674L12.8613 17.8857C11.7724 18.3503 10.5747 18.6234 9.29555 18.6234C4.17781 18.6234 0.04 14.4697 0.04 9.33172C0.04 4.19369 4.17787 0.04 9.29555 0.04C14.4133 0.04 18.5511 4.19375 18.5511 9.33172V9.71589V9.76058L18.5955 9.75564C18.8279 9.7298 19.0825 9.70418 19.315 9.70136ZM8.0504 11.4379L8.05046 11.4379L8.0499 11.4356C8.01752 11.3053 7.88993 11.213 7.73776 11.213H6.42558C6.24142 11.213 6.08171 11.368 6.11255 11.56C6.22324 12.8021 7.17784 13.8236 8.38154 14.0852V15.0133C8.38154 15.1046 8.41206 15.1839 8.46838 15.2404C8.52471 15.2969 8.60374 15.3276 8.69485 15.3276H10.007C10.1633 15.3276 10.3204 15.2023 10.3204 15.0133V14.0568C11.5233 13.7696 12.5064 12.8026 12.6167 11.5311C12.7829 9.80555 11.4242 8.35858 9.73348 8.35858H8.94063C8.41632 8.35858 7.99769 7.91083 8.02354 7.41272L8.0236 7.41272V7.41064C8.0236 6.8836 8.44332 6.46247 8.96794 6.46247H9.76079C10.2056 6.46247 10.5735 6.77781 10.6788 7.20072C10.7112 7.33097 10.8387 7.42325 10.9909 7.42325H12.3031C12.3838 7.42325 12.4687 7.38335 12.5296 7.32219C12.5907 7.26075 12.6318 7.17336 12.616 7.07584C12.4782 5.83434 11.5238 4.81271 10.3199 4.55114V3.62304C10.3199 3.5415 10.2797 3.46326 10.2228 3.40618C10.166 3.34912 10.088 3.30867 10.0066 3.30867H8.69438C8.53812 3.30867 8.38107 3.43397 8.38107 3.62304V4.55087C6.98346 4.8428 5.9745 6.14284 6.11196 7.66122L6.11196 7.66129C6.25094 9.16622 7.60976 10.2775 9.10452 10.2775H9.76073C10.2854 10.2775 10.7051 10.6986 10.7051 11.2257C10.7051 11.7527 10.2853 12.1738 9.76073 12.1738H8.96788C8.52124 12.1738 8.12874 11.857 8.0504 11.4379ZM14.4776 16.3305C14.4776 19.0421 16.6553 21.2284 19.3567 21.2284C22.0581 21.2284 24.2358 19.0421 24.2358 16.3305C24.2358 13.6189 22.0581 11.4326 19.3567 11.4326C16.6553 11.4326 14.4776 13.6189 14.4776 16.3305Z" fill="#BF0000" stroke="black" stroke-width="0.08"/>
<path d="M20.6392 15.4647H20.6423H21.7899C22.26 15.4647 22.6522 15.8584 22.6522 16.3304C22.6522 16.8025 22.2598 17.1962 21.7899 17.1962H20.259H20H19.7215H19.7194H19.7173H19.7152H19.7131H19.711H19.709H19.7069H19.7049H19.7029H19.7009H19.6989H19.6969H19.6949H19.6929H19.691H19.689H19.6871H19.6851H19.6832H19.6813H19.6794H19.6775H19.6757H19.6738H19.6719H19.6701H19.6683H19.6664H19.6646H19.6628H19.661H19.6592H19.6574H19.6557H19.6539H19.6522H19.6504H19.6487H19.647H19.6453H19.6436H19.6419H19.6402H19.6385H19.6369H19.6352H19.6336H19.6319H19.6303H19.6287H19.6271H19.6255H19.6239H19.6223H19.6207H19.6191H19.6176H19.616H19.6145H19.613H19.6114H19.6099H19.6084H19.6069H19.6054H19.6039H19.6025H19.601H19.5995H19.5981H19.5966H19.5952H19.5938H19.5923H19.5909H19.5895H19.5881H19.5867H19.5853H19.584H19.5826H19.5812H19.5799H19.5785H19.5772H19.5758H19.5745H19.5732H19.5719H19.5706H19.5693H19.568H19.5667H19.5654H19.5641H19.5629H19.5616H19.5604H19.5591H19.5579H19.5566H19.5554H19.5542H19.553H19.5518H19.5506H19.5494H19.5482H19.547H19.5458H19.5446H19.5435H19.5423H19.5411H19.54H19.5388H19.5377H19.5366H19.5354H19.5343H19.5332H19.5321H19.531H19.5299H19.5288H19.5277H19.5266H19.5255H19.5244H19.5233H19.5223H19.5212H19.5201H19.5191H19.518H19.517H19.516H19.5149H19.5139H19.5129H19.5118H19.5108H19.5098H19.5088H19.5078H19.5068H19.5058H19.5048H19.5038H19.5028H19.5018H19.5008H19.4999H19.4989H19.4979H19.497H19.496H19.495H19.4941H19.4931H19.4922H19.4912H19.4903H19.4894H19.4884H19.4875H19.4866H19.4856H19.4847H19.4838H19.4829H19.4819H19.481H19.4801H19.4792H19.4783H19.4774H19.4765H19.4756H19.4747H19.4738H19.4729H19.472H19.4712H19.4703H19.4694H19.4685H19.4676H19.4668H19.4659H19.465H19.4641H19.4633H19.4624H19.4615H19.4607H19.4598H19.4589H19.4581H19.4572H19.4564H19.4555H19.4547H19.4538H19.453H19.4521H19.4512H19.4504H19.4495H19.4487H19.4479H19.447H19.4462H19.4453H19.4445H19.4436H19.4428H19.4419H19.4411H19.4403H19.4394H19.4386H19.4377H19.4369H19.436H19.4352H19.4344H19.4335H19.4327H19.4318H19.431H19.4302H19.4293H19.4285H19.4276H19.4268H19.4259H19.4251H19.4243H19.4234H19.4226H19.4217H19.4209H19.42H19.4192H19.4183H19.4175H19.4166H19.4158H19.4149H19.414H19.4132H19.4123H19.4115H19.4106H19.4097H19.4089H19.408H19.4072H19.4063H19.4054H19.4045H19.4037H19.4028H19.4019H19.401H19.4001H19.3993H19.3984H19.3975H19.3966H19.3957H19.3948H19.3939H19.393H19.3921H19.3912H19.3903H19.3894H19.3885H19.3876H19.3866H19.3857H19.3848H19.3839H19.3829H19.382H19.3811H19.3801H19.3792H19.3782H19.3773H19.3764H19.3754H19.3744H19.3735H19.3725H19.3715H19.3706H19.3696H19.3686H19.3676H19.3666H19.3657H19.3647H19.3637H19.3627H19.3616H19.3606H19.3596H19.3586H19.3576H19.3566H19.3555H19.3545H19.3534H19.3524H19.3513H19.3503H19.3492H19.3482H19.3471H19.346H19.3449H19.3439H19.3428H19.3417H19.3406H19.3395H19.3384H19.3373H19.3361H19.335H19.3339H19.3328H19.3316H19.3305H19.3293H19.3282H19.327H19.3258H19.3247H19.3235H19.3223H19.3211H19.3199H19.3187H19.3175H19.3163H19.315H19.3138H19.3126H19.3113H19.3101H19.3088H19.3076H19.3063H19.305H19.3038H19.3025H19.3012H19.2999H19.2986H19.2973H19.296H19.2946H19.2933H19.2919H19.2906H19.2892H19.2879H19.2865H19.2851H19.2838H19.2824H19.281H19.2796H19.2781H19.2767H19.2753H19.2739H19.2724H19.271H19.2695H19.268H19.2666H19.2651H19.2636H19.2621H19.2606H19.2591H19.2575H19.256H19.2545H19.2529H19.2513H19.2498H19.2482H19.2466H19.245H19.2434H19.2418H19.2402H19.2386H19.2369H19.2353H19.2336H19.232H19.2303H19.2286H19.2269H19.2252H19.2235H19.2218H19.2201H19.2183H19.2166H19.2148H19.2131H19.2113H19.2095H19.2077H19.2059H19.2041H19.2023H19.2004H19.1986H19.1967H19.1949H19.193H19.1911H19.1892H19.1873H19.1854H19.1835H19.1815H19.1796H19.1776H19.1757H19.1737H19.1717H19.1697H19.1677H19.1656H19.1636H19.1616H19.1595H19.1575H19.1554H19.1533H19.1512H19.1491H19.147H19.1448H19.1427H19.1405H19.1384H19.1362H19.134H19.1318H19.1296H19.1273H19.1251H19.1229H19.1206H19.1183H19.116H19.1137H19.1114H19.1091H19.1068H19.1044H19.1021H19.0997H19.0973H19.0949H19.0925H19.0901H19.0877H19.0852H19.0828H19.0803H19.0778H19.0753H19.0728H19.0703H19.0677H19.0652H19.0626H19.0601H19.0575H19.057H19.057H19.057H19.057H19.0569H19.0569H19.0569H19.0569H19.0568H19.0568H19.0567H19.0565H19.0565H19.0564H19.0564H19.0563H19.0562H19.0561H19.056H19.0559H19.0558H19.0557H19.0556H19.0554H19.0554H19.0552H19.0551H19.0549H19.0549H19.0548H19.0547H19.0545H19.0544H19.0542H19.0541H19.0538H19.0537H19.0534H19.0534H19.053H19.053H19.0527H19.0526H19.0523H19.0523H19.0522H19.0519H19.0517H19.0514H19.0512H19.051H19.0507H19.0506H19.0502H19.0501H19.0496H19.0496H19.0496H19.0491H19.049H19.0486H19.0484H19.0481H19.0478H19.0476H19.0471H19.047H19.047H19.0465H19.0464H19.0459H19.0458H19.0453H19.045H19.0447H19.0443H19.0443H19.044H19.0435H19.0434H19.0428H19.0427H19.0421H19.0419H19.0417H19.0414H19.0411H19.0408H19.0402H19.0401H19.0393H19.0393H19.039H19.0386H19.0384H19.0379H19.0374H19.0372H19.0365H19.0364H19.0363H19.0356H19.0355H19.0349H19.0345H19.0341H19.0336H19.0334H19.0333H19.0325H19.0323H19.0316H19.0312H19.0309H19.0308H19.0301H19.03H19.0291H19.0289H19.0283H19.0281H19.0278H19.0274H19.0266H19.0265H19.0256H19.0254H19.0253H19.0247H19.0241H19.0238H19.0229H19.0228H19.0226H19.022H19.0214H19.021H19.0201H19.0201H19.0198H19.0191H19.0187H19.0182H19.0173H19.0172H19.017H19.0162H19.0159H19.0153H19.0144H19.0143H19.0142H19.0133H19.0129H19.0123H19.0114H19.0114H19.0113H19.0102H19.0099H19.0092H19.0086H19.0083H19.0082H19.0071H19.0067H19.0061H19.0057H19.0051H19.005H19.004H19.0034H19.0029H19.0029H19.0018H19.0017H19.0008H19H19H18.9997H18.9986H18.9983H18.9975H18.9971H18.9965H18.9964H18.9953H18.9947H18.9943H18.9942H18.9931H18.9928H18.992H18.9915H18.991H18.9908H18.9897H18.9891H18.9887H18.9886H18.9875H18.9871H18.9863H18.986H18.9852H18.9852H18.984H18.9833H18.9832H18.9829H18.9817H18.9811H18.9807H18.9806H18.9794H18.9791H18.9783H18.9781H18.9771H18.977H18.9759H18.9755H18.9749H18.9748H18.9736H18.9729H18.9727H18.9724H18.9713H18.9705H18.9704H18.9701H18.9689H18.9683H18.9679H18.9678H18.9666H18.9661H18.9654H18.9654H18.9642H18.9638H18.9631H18.963H18.9619H18.9615H18.9607H18.9606H18.9595H18.9591H18.9583H18.9583H18.9572H18.9567H18.956H18.956H18.9548H18.9543H18.9537H18.9536H18.9525H18.9519H18.9514H18.9513H18.9501H18.9494H18.9492H18.9489H18.9478H18.947H18.9469H18.9466H18.9454H18.9448H18.9443H18.9443H18.9431H18.9427H18.9419H18.9417H18.9408H18.9406H18.9396H18.9391H18.9386H18.9385H18.9373H18.9365H18.9365H18.9362H18.935H18.9345H18.9339H18.9338H18.9327H18.9325H18.9316H18.9311H18.9306H18.9305H18.9293H18.9287H18.9283H18.9282H18.9271H18.9268H18.926H18.9255H18.925H18.9249H18.9238H18.9232H18.9227H18.9227H18.9216H18.9214H18.9205H18.9199H18.9196H18.9194H18.9183H18.9179H18.9172H18.917H18.9162H18.9162H18.9151H18.9145H18.914H18.914H18.913H18.9129H18.9119H18.9113H18.9111H18.9109H18.9099H18.9097H18.9088H18.9082H18.9081H18.9078H18.9068H18.9066H18.9058H18.9051H18.905H18.9048H18.9038H18.9037H18.9028H18.9022H18.902H18.9019H18.9009H18.9008H18.8999H18.8995H18.899H18.8989H18.8981H18.898H18.8971H18.8968H18.8962H18.8957H18.8955H18.8953H18.8944H18.8942H18.8935H18.893H18.8926H18.8925H18.8918H18.8917H18.8908H18.8906H18.89H18.8894H18.8893H18.8891H18.8883H18.8883H18.8875H18.8872H18.8866H18.8861H18.8861H18.8858H18.885H18.885H18.8843H18.884H18.8835H18.883H18.8828H18.8827H18.882H18.882H18.8812H18.8811H18.8805H18.8802H18.8798H18.8794H18.8793H18.8791H18.8784H18.8784H18.8777H18.8775H18.877H18.8767H18.8764H18.8761H18.8759H18.8757H18.8751H18.8751H18.8745H18.8744H18.8739H18.8736H18.8733H18.8729H18.8727H18.8727H18.8723H18.8722H18.8716H18.8716H18.8711H18.871H18.8706H18.8704H18.8701H18.8698H18.8696H18.8692H18.8692H18.8691H18.8687H18.8686H18.8682H18.8677H18.8677H18.8673H18.8672H18.8669H18.8668H18.8665H18.8663H18.8662H18.8659H18.8658H18.8657H18.8656H18.8655H18.8652H18.8651H18.8649H18.8648H18.8645H18.8645H18.8643H18.8642H18.864H18.864H18.8638H18.8637H18.8636H18.8635H18.8633H18.8633H18.8632H18.8631H18.863H18.8629H18.8628H18.8628H18.8627H18.8626H18.8626H18.8625H18.8625H18.8624H18.8624H18.8624H18.8623H18.8623H18.8623H18.8623H18.8623H18.8623H18.8622H18.8587H18.8551H18.8514H18.8478H18.8441H18.8403H18.8365H18.8327H18.8288H18.8249H18.821H18.817H18.813H18.8089H18.8048H18.8007H18.7965H18.7923H18.788H18.7837H18.7794H18.775H18.7705H18.7661H18.7615H18.757H18.7524H18.7478H18.7431H18.7383H18.7336H18.7288H18.7239H18.719H18.5558H18.4545H16.9235C16.4537 17.1962 16.0612 16.8025 16.0612 16.3304C16.0612 15.8584 16.4537 15.4647 16.9235 15.4647H18.4545H18.719C19.3049 15.4647 19.3034 15.4647 19.3008 15.4647C19.2989 15.4647 19.2965 15.4647 19.5 15.4647H19.5029H19.5057H19.5086H19.5115H19.5143H19.5171H19.52H19.5228H19.5256H19.5284H19.5312H19.534H19.5368H19.5395H19.5423H19.545H19.5478H19.5505H19.5533H19.556H19.5587H19.5614H19.5641H19.5668H19.5695H19.5721H19.5748H19.5775H19.5801H19.5828H19.5854H19.588H19.5906H19.5933H19.5959H19.5985H19.6011H19.6036H19.6062H19.6088H19.6113H19.6139H19.6165H19.619H19.6215H19.6241H19.6266H19.6291H19.6316H19.6341H19.6366H19.6391H19.6415H19.644H19.6465H19.6489H19.6514H19.6538H19.6563H19.6587H19.6611H19.6635H19.666H19.6684H19.6708H19.6732H19.6755H19.6779H19.6803H19.6827H19.685H19.6874H19.6897H19.6921H19.6944H19.6968H19.6991H19.7014H19.7037H19.706H19.7083H19.7106H19.7129H19.7152H19.7175H19.7197H19.722H19.7243H19.7265H19.7288H19.731H19.7333H19.7355H19.7377H19.74H19.7422H19.7444H19.7466H19.7488H19.751H19.7532H19.7554H19.7576H19.7598H19.7619H19.7641H19.7663H19.7684H19.7706H19.7727H19.7749H19.777H19.7792H19.7813H19.7834H19.7855H19.7877H19.7898H19.7919H19.794H19.7961H19.7982H19.8003H19.8024H19.8044H19.8065H19.8086H19.8107H19.8127H19.8148H19.8169H19.8189H19.821H19.823H19.8251H19.8271H19.8291H19.8312H19.8332H19.8352H19.8372H19.8393H19.8413H19.8433H19.8453H19.8473H19.8493H19.8513H19.8533H19.8553H19.8572H19.8592H19.8612H19.8632H19.8652H19.8671H19.8691H19.8711H19.873H19.875H19.8769H19.8789H19.8808H19.8828H19.8847H19.8867H19.8886H19.8905H19.8925H19.8944H19.8963H19.8983H19.9002H19.9021H19.904H19.9059H19.9079H19.9098H19.9117H19.9136H19.9155H19.9174H19.9193H19.9212H19.9231H19.925H19.9269H19.9288H19.9306H19.9325H19.9344H19.9363H19.9382H19.9401H19.9419H19.9438H19.9457H19.9476H19.9494H19.9513H19.9532H19.955H19.9569H19.9588H19.9606H19.9625H19.9643H19.9662H19.968H19.9699H19.9718H19.9736H19.9755H19.9773H19.9792H19.981H19.9829H19.9847H19.9866H19.9884H19.9902H19.9921H19.9939H19.9958H19.9976H19.9995H20.0013H20.0031H20.005H20.0068H20.0087H20.0105H20.0123H20.0142H20.016H20.0179H20.0197H20.0215H20.0234H20.0252H20.027H20.0289H20.0307H20.0326H20.0344H20.0362H20.0381H20.0399H20.0417H20.0436H20.0454H20.0473H20.0491H20.0509H20.0528H20.0546H20.0565H20.0583H20.0601H20.062H20.0638H20.0657H20.0675H20.0694H20.0712H20.073H20.0749H20.0767H20.0786H20.0804H20.0823H20.0841H20.086H20.0879H20.0897H20.0916H20.0934H20.0953H20.0971H20.099H20.1009H20.1027H20.1046H20.1065H20.1083H20.1102H20.1121H20.114H20.1158H20.1177H20.1196H20.1215H20.1234H20.1252H20.1271H20.129H20.1309H20.1328H20.1347H20.1366H20.1385H20.1404H20.1423H20.1442H20.1461H20.148H20.1499H20.1518H20.1538H20.1557H20.1576H20.1595H20.1614H20.1634H20.1653H20.1672H20.1692H20.1711H20.1731H20.175H20.1769H20.1789H20.1808H20.1828H20.1848H20.1867H20.1887H20.1907H20.1926H20.1946H20.1966H20.1986H20.2005H20.2025H20.2045H20.2065H20.2085H20.2105H20.2125H20.2145H20.2165H20.2185H20.2206H20.2226H20.2246H20.2266H20.2287H20.2307H20.2328H20.2348H20.2368H20.2389H20.241H20.243H20.2451H20.2471H20.2492H20.2513H20.2534H20.2555H20.2575H20.259H20.2596H20.2617H20.2638H20.2659H20.268H20.2702H20.2723H20.2744H20.2765H20.2787H20.2808H20.2829H20.2851H20.2872H20.2894H20.2916H20.2937H20.2959H20.2981H20.3003H20.3024H20.3046H20.3068H20.309H20.3112H20.3134H20.3157H20.3179H20.3201H20.3223H20.3246H20.3268H20.3291H20.3313H20.3336H20.3358H20.3381H20.3404H20.3427H20.345H20.3473H20.3495H20.3519H20.3542H20.3565H20.3588H20.3611H20.3635H20.3658H20.3681H20.3705H20.3729H20.3752H20.3776H20.38H20.3823H20.3847H20.3871H20.3895H20.3919H20.3944H20.3968H20.3992H20.4016H20.4041H20.4065H20.409H20.4114H20.4139H20.4164H20.4189H20.4213H20.4238H20.4263H20.4288H20.4314H20.4339H20.4364H20.4389H20.4415H20.444H20.4466H20.4492H20.4517H20.4543H20.4569H20.4595H20.4621H20.4647H20.4673H20.4699H20.4726H20.4752H20.4778H20.4805H20.4832H20.4858H20.4885H20.4912H20.4939H20.4966H20.4993H20.502H20.5047H20.5074H20.5102H20.5129H20.5157H20.5185H20.5212H20.524H20.5268H20.5296H20.5324H20.5352H20.538H20.5409H20.5437H20.5465H20.5494H20.5523H20.5551H20.558H20.5609H20.5638H20.5667H20.5696H20.5725H20.5755H20.5784H20.5814H20.5843H20.5873H20.5903H20.5933H20.5963H20.5993H20.6023H20.6053H20.6083H20.6114H20.6144H20.6175H20.6206H20.6236H20.6267H20.6298H20.6329H20.6361H20.6392Z" fill="#BF0000" stroke="black" stroke-width="0.08"/>
</svg>
