<svg width="28" height="28" viewBox="0 0 28 28" fill="none" xmlns="http://www.w3.org/2000/svg">
<path d="M27.2276 17.7034L27.2319 17.6994L27.1454 17.4026C25.6812 12.3776 21.9358 8.33888 17.4749 7.02935L17.4815 7.01455L17.5659 6.82765L17.5663 6.82684C17.5782 6.80161 17.8581 6.20887 18.3084 5.51293C18.7791 4.7853 19.3919 4.01504 20.0351 3.61862C20.4435 3.36963 20.7831 3.09792 20.9792 2.79204C21.0815 2.63245 21.1563 2.4455 21.1639 2.23729C21.1717 2.02353 21.1069 1.82762 20.9948 1.66034L20.8353 1.76495L20.993 1.65771C20.7111 1.24311 20.2037 1.11726 19.8031 1.08977C19.3736 1.0603 18.8998 1.12999 18.4894 1.25986L18.4884 1.26019L18.4261 1.28005C18.4259 1.28012 18.4257 1.28019 18.4255 1.28025C17.8976 1.44706 17.5095 1.55555 17.1931 1.57878C16.9008 1.60025 16.7135 1.54566 16.5515 1.41313L16.5514 1.41311C15.495 0.549196 13.6789 0.0854674 11.9794 0.995121C11.1075 1.4605 10.2374 1.38959 9.40837 1.22579L9.40748 1.22562C8.86429 1.1193 8.34803 1.098 7.91335 1.17225C7.49638 1.24346 7.05838 1.42129 6.82028 1.80513L6.8202 1.80508L6.81523 1.81346C6.70453 1.99995 6.6063 2.29812 6.71982 2.65785C6.82725 2.99829 7.09887 3.30977 7.53082 3.60111L7.53209 3.60196C7.73635 3.73882 7.99908 3.99789 8.29226 4.34461C8.579 4.6837 8.87099 5.0777 9.13545 5.45722C9.64373 6.18665 10.0344 6.83945 10.0716 6.90162C10.0716 6.90164 10.0716 6.90165 10.0716 6.90166L10.1463 7.02846C5.84284 8.22836 2.17178 12.3686 0.847756 17.4218L27.2276 17.7034ZM27.2276 17.7034C27.8603 20.1565 27.394 22.2878 25.7813 23.9589L25.7809 23.9593C23.5567 26.2594 19.2229 27.5 13.9979 27.5C8.4009 27.5 4.38072 26.4851 2.2404 24.3186C0.534749 22.5956 0.110364 20.2345 0.847738 17.4219L27.2276 17.7034Z" fill="#F92828" stroke="black"/>
</svg>
