<svg width="14" height="14" viewBox="0 0 14 14" fill="none" xmlns="http://www.w3.org/2000/svg">
<g clip-path="url(#clip0_226_1426)">
<path d="M4.98791 13.26C2.99643 13.1618 1.67716 12.7123 0.955093 11.8856C0.460221 11.3188 0.252351 10.5542 0.337149 9.61259C0.567685 7.03627 3.02466 4.04099 5.8479 4.04099C6.56193 4.04099 7.28872 4.23637 8.00768 4.62235C9.34347 5.34983 10.4725 6.67845 11.0281 8.1774C11.0585 8.25943 11.1506 8.30111 11.2326 8.27114C11.3149 8.24085 11.3571 8.14953 11.3267 8.06737C10.7687 6.56148 9.65249 5.22424 8.32294 4.44334C8.45046 4.26794 8.51709 4.08173 8.51709 3.88687C8.51709 3.58987 8.35972 3.3171 8.09289 3.08897C8.79709 2.47432 9.14983 1.62508 8.91291 1.04461C8.79085 0.737285 8.47452 0.493422 8.14246 0.450999C7.80557 0.408439 7.57655 0.595568 7.31315 0.810167C7.28274 0.83454 7.25041 0.860465 7.21853 0.886385C6.90906 0.336753 6.39953 0 5.84838 0C5.29721 0 4.78759 0.336225 4.47772 0.886385C4.44587 0.860981 4.41351 0.835062 4.38309 0.810683C4.11929 0.596215 3.88978 0.411532 3.55234 0.452042C3.22213 0.493697 2.90576 0.737959 2.78421 1.04387C2.54682 1.62523 2.89942 2.47487 3.6037 3.08912C3.33692 3.31777 3.17938 3.58989 3.17938 3.88702C3.17938 4.08344 3.24759 4.27109 3.37756 4.44752C1.5444 5.53417 0.191331 7.66691 0.019746 9.58434C-0.0729361 10.6147 0.160968 11.4591 0.714738 12.0937C1.49645 12.9894 2.88872 13.474 4.97157 13.5771H4.97984C5.06425 13.5771 5.13428 13.5112 5.1388 13.4261C5.14321 13.3391 5.07567 13.2644 4.98791 13.26ZM5.84909 0.318116C6.29439 0.318116 6.70975 0.607384 6.96086 1.07746C6.86872 1.14001 6.76957 1.20256 6.65433 1.26123C6.14683 1.50949 5.54893 1.50795 5.04577 1.26227C4.92953 1.2032 4.82947 1.14066 4.73679 1.07759C4.98843 0.607785 5.40382 0.318116 5.84909 0.318116ZM3.08016 1.16231C3.16016 0.960992 3.37646 0.794487 3.59223 0.767022C3.7864 0.742134 3.92128 0.84427 4.18225 1.0568C4.36269 1.20343 4.58688 1.38566 4.90311 1.54688C5.49803 1.83705 6.1973 1.83808 6.79713 1.54585C7.11105 1.38554 7.33505 1.20332 7.51552 1.05719C7.77649 0.845174 7.91121 0.744972 8.10447 0.76741C8.32166 0.795264 8.53745 0.961374 8.61795 1.16462C8.78226 1.56673 8.51989 2.32892 7.82555 2.90203C7.34052 2.60889 6.64415 2.42371 5.84919 2.42371C5.05425 2.42371 4.35734 2.60838 3.87284 2.90203C3.17772 2.32763 2.9159 1.56596 3.08016 1.16231ZM3.49852 3.88734C3.49852 3.26586 4.57496 2.7406 5.84856 2.7406C7.12218 2.7406 8.19859 3.26586 8.19859 3.88734C8.19859 4.02365 8.14374 4.15752 8.04065 4.28804C7.31195 3.91765 6.57535 3.72368 5.84751 3.72368C5.08005 3.72368 4.3395 3.93428 3.65683 4.28893C3.55393 4.15842 3.49852 4.02404 3.49852 3.88734Z" fill="#F92828"/>
<path d="M13.6643 11.7057H11.9022V9.07697C11.9022 8.89281 11.7511 8.74231 11.5658 8.74231H9.82091C9.63554 8.74231 9.48453 8.89281 9.48453 9.07748V10.7182H7.72238C7.537 10.7182 7.38599 10.8687 7.38599 11.0533V12.694H5.99266C5.8073 12.694 5.65625 12.8445 5.65625 13.0292V13.6648C5.65625 13.8495 5.80731 14 5.99266 14H13.6637C13.849 14 14 13.8495 14 13.6648V12.0412C14.0002 11.8561 13.8497 11.7057 13.6643 11.7057ZM7.38644 13.6791L5.97605 13.6644L5.99327 13.0115H7.38663L7.38644 13.6791ZM9.48485 11.7062H9.00859C8.92033 11.7062 8.84925 11.7775 8.84925 11.8649C8.84925 11.9524 8.92084 12.0237 9.00859 12.0237H9.48485V12.6945H9.00859C8.92033 12.6945 8.84925 12.7658 8.84925 12.8533C8.84925 12.9407 8.92084 13.0121 9.00859 13.0121H9.48485V13.681H7.70653L7.71041 13.0121H8.18228C8.27054 13.0121 8.34162 12.9407 8.34162 12.8533C8.34162 12.7658 8.27003 12.6945 8.18228 12.6945H7.71239L7.71627 12.0237H8.18215C8.27041 12.0237 8.34149 11.9524 8.34149 11.8649C8.34149 11.7775 8.2699 11.7062 8.18215 11.7062H7.71818L7.72206 11.0358H9.48421L9.48485 11.7062ZM11.5834 9.72976H11.1087C11.0204 9.72976 10.9494 9.80109 10.9494 9.88853C10.9494 9.97596 11.021 10.0473 11.1087 10.0473H11.5834V10.7187H11.1087C11.0204 10.7187 10.9494 10.79 10.9494 10.8774C10.9494 10.9649 11.021 11.0362 11.1087 11.0362H11.5834V11.7055H11.1087C11.0204 11.7055 10.9494 11.7768 10.9494 11.8642C10.9494 11.9517 11.021 12.023 11.1087 12.023H11.5834V12.6939H11.1087C11.0204 12.6939 10.9494 12.7652 10.9494 12.8526C10.9494 12.9401 11.021 13.0114 11.1087 13.0114H11.5834V13.6804H9.80469L9.80717 13.0114H10.2823C10.3706 13.0114 10.4417 12.9401 10.4417 12.8526C10.4417 12.7652 10.3701 12.6939 10.2823 12.6939H9.80806L9.81054 12.023H10.2823C10.3706 12.023 10.4417 11.9517 10.4417 11.8642C10.4417 11.7768 10.3701 11.7055 10.2823 11.7055H9.81156L9.81404 11.0362H10.2823C10.3706 11.0362 10.4417 10.9649 10.4417 10.8774C10.4417 10.79 10.3701 10.7187 10.2823 10.7187H9.81544L9.81792 10.0473H10.2823C10.3707 10.0473 10.4417 9.97596 10.4417 9.88853C10.4417 9.80109 10.3701 9.72976 10.2823 9.72976H9.81894L9.82142 9.05992L11.5835 9.0771L11.5834 9.72976ZM13.6745 12.6946H13.2081C13.1198 12.6946 13.0488 12.7659 13.0488 12.8533C13.0488 12.9408 13.1204 13.0121 13.2081 13.0121H13.671L13.6642 13.681H11.9021V13.0121H12.3816C12.4699 13.0121 12.541 12.9408 12.541 12.8533C12.541 12.7659 12.4694 12.6946 12.3816 12.6946H11.9021V12.0247L13.6812 12.0403L13.6745 12.6946Z" fill="#F92828"/>
<path d="M6.55753 8.23152C6.64579 8.23152 6.71687 8.16018 6.71687 8.07274V7.87439C6.71687 7.64383 6.528 7.45566 6.29657 7.45566H6.00765L6.00778 7.09249C6.00778 7.00454 5.9362 6.93372 5.84844 6.93372C5.76068 6.93372 5.68909 7.00505 5.68909 7.09249V7.45496H5.40225C5.17081 7.45496 4.98193 7.64313 4.98193 7.87375V8.64082C4.98193 8.87195 5.17079 9.05955 5.40225 9.05955H6.29722C6.35314 9.05955 6.39869 9.10499 6.39869 9.16067V9.92774C6.39869 9.98349 6.35314 10.0289 6.29722 10.0289H5.40225C5.34633 10.0289 5.30076 9.98349 5.30076 9.92774V9.72939C5.30076 9.64144 5.22918 9.57068 5.14142 9.57068C5.05366 9.57068 4.98207 9.64195 4.98207 9.72939V9.92774C4.98207 10.1589 5.17093 10.3465 5.40239 10.3465H5.68923V10.7081C5.68923 10.7961 5.76082 10.8669 5.84858 10.8669C5.93634 10.8669 6.00792 10.7956 6.00792 10.7081V10.3465H6.29684C6.52832 10.3465 6.71713 10.1584 6.71713 9.92774V9.16067C6.71713 8.93012 6.52832 8.74194 6.29684 8.74194H5.40187C5.34595 8.74194 5.30038 8.69651 5.30038 8.64082V7.87375C5.30038 7.81801 5.34595 7.77263 5.40187 7.77263H6.29684C6.35276 7.77263 6.39831 7.81801 6.39831 7.87375V8.07211C6.39818 8.16005 6.46926 8.23152 6.55753 8.23152Z" fill="#F92828"/>
<path d="M8.07543 10.4029C8.15243 10.4488 8.24903 10.4229 8.29364 10.3477C8.55411 9.91092 8.69188 9.41099 8.69188 8.90146C8.69188 7.33944 7.41635 6.06848 5.84837 6.06848C4.28058 6.06848 3.00488 7.33931 3.00488 8.90146C3.00488 10.4635 4.28041 11.7344 5.84837 11.7344C6.18727 11.7344 6.51978 11.6754 6.83605 11.5585C6.91833 11.5282 6.96053 11.4369 6.93011 11.3548C6.89969 11.2727 6.80754 11.2307 6.72558 11.261C6.44513 11.3641 6.14985 11.4169 5.84876 11.4169C4.45699 11.4169 3.32462 10.2887 3.32462 8.90209C3.32462 7.51552 4.45699 6.38731 5.84876 6.38731C7.24053 6.38731 8.37293 7.51552 8.37293 8.90209C8.37293 9.35455 8.25082 9.79867 8.01982 10.1862C7.97489 10.2608 7.99983 10.358 8.07543 10.4029Z" fill="#F92828"/>
</g>
<defs>
<clipPath id="clip0_226_1426">
<rect width="14" height="14" fill="white"/>
</clipPath>
</defs>
</svg>
