<svg width="20" height="20" viewBox="0 0 20 20" fill="none" xmlns="http://www.w3.org/2000/svg">
<circle cx="10" cy="10" r="9.95" fill="#F3F3F3" stroke="black" stroke-width="0.1"/>
<g clip-path="url(#clip0_226_1424)">
<path d="M7.98791 16.26C5.99643 16.1618 4.67716 15.7123 3.95509 14.8856C3.46022 14.3188 3.25235 13.5542 3.33715 12.6126C3.56769 10.0363 6.02466 7.04099 8.8479 7.04099C9.56193 7.04099 10.2887 7.23637 11.0077 7.62235C12.3435 8.34983 13.4725 9.67845 14.0281 11.1774C14.0585 11.2594 14.1506 11.3011 14.2326 11.2711C14.3149 11.2408 14.3571 11.1495 14.3267 11.0674C13.7687 9.56148 12.6525 8.22424 11.3229 7.44334C11.4505 7.26794 11.5171 7.08173 11.5171 6.88687C11.5171 6.58987 11.3597 6.3171 11.0929 6.08897C11.7971 5.47432 12.1498 4.62508 11.9129 4.04461C11.7909 3.73728 11.4745 3.49342 11.1425 3.451C10.8056 3.40844 10.5765 3.59557 10.3132 3.81017C10.2827 3.83454 10.2504 3.86047 10.2185 3.88638C9.90906 3.33675 9.39953 3 8.84838 3C8.2972 3 7.78759 3.33623 7.47772 3.88638C7.44587 3.86098 7.41351 3.83506 7.38309 3.81068C7.11929 3.59621 6.88978 3.41153 6.55234 3.45204C6.22213 3.4937 5.90576 3.73796 5.78421 4.04387C5.54682 4.62523 5.89942 5.47487 6.6037 6.08912C6.33692 6.31777 6.17938 6.58989 6.17938 6.88702C6.17938 7.08344 6.24759 7.27109 6.37756 7.44752C4.5444 8.53417 3.19133 10.6669 3.01975 12.5843C2.92706 13.6147 3.16097 14.4591 3.71474 15.0937C4.49645 15.9894 5.88872 16.474 7.97157 16.5771H7.97984C8.06425 16.5771 8.13428 16.5112 8.1388 16.4261C8.14321 16.3391 8.07567 16.2644 7.98791 16.26ZM8.84909 3.31812C9.29439 3.31812 9.70975 3.60738 9.96086 4.07746C9.86872 4.14001 9.76957 4.20256 9.65433 4.26123C9.14683 4.50949 8.54893 4.50795 8.04577 4.26227C7.92953 4.2032 7.82947 4.14066 7.73679 4.07759C7.98843 3.60779 8.40382 3.31812 8.84909 3.31812ZM6.08016 4.16231C6.16016 3.96099 6.37646 3.79449 6.59223 3.76702C6.7864 3.74213 6.92128 3.84427 7.18225 4.0568C7.36269 4.20343 7.58688 4.38566 7.90311 4.54688C8.49803 4.83705 9.1973 4.83808 9.79713 4.54585C10.111 4.38554 10.335 4.20332 10.5155 4.05719C10.7765 3.84517 10.9112 3.74497 11.1045 3.76741C11.3217 3.79526 11.5375 3.96137 11.618 4.16462C11.7823 4.56673 11.5199 5.32892 10.8256 5.90203C10.3405 5.60889 9.64415 5.42371 8.84919 5.42371C8.05425 5.42371 7.35734 5.60838 6.87284 5.90203C6.17772 5.32763 5.9159 4.56596 6.08016 4.16231ZM6.49852 6.88734C6.49852 6.26586 7.57496 5.7406 8.84856 5.7406C10.1222 5.7406 11.1986 6.26586 11.1986 6.88734C11.1986 7.02365 11.1437 7.15752 11.0406 7.28804C10.3119 6.91765 9.57535 6.72368 8.84751 6.72368C8.08005 6.72368 7.3395 6.93428 6.65683 7.28893C6.55393 7.15842 6.49852 7.02404 6.49852 6.88734Z" fill="#F92828"/>
<path d="M16.6643 14.7057H14.9022V12.077C14.9022 11.8928 14.7511 11.7423 14.5658 11.7423H12.8209C12.6355 11.7423 12.4845 11.8928 12.4845 12.0775V13.7182H10.7224C10.537 13.7182 10.386 13.8687 10.386 14.0533V15.694H8.99266C8.8073 15.694 8.65625 15.8445 8.65625 16.0292V16.6648C8.65625 16.8495 8.80731 17 8.99266 17H16.6637C16.849 17 17 16.8495 17 16.6648V15.0412C17.0002 14.8561 16.8497 14.7057 16.6643 14.7057ZM10.3864 16.6791L8.97605 16.6644L8.99327 16.0115H10.3866L10.3864 16.6791ZM12.4848 14.7062H12.0086C11.9203 14.7062 11.8492 14.7775 11.8492 14.8649C11.8492 14.9524 11.9208 15.0237 12.0086 15.0237H12.4848V15.6945H12.0086C11.9203 15.6945 11.8492 15.7658 11.8492 15.8533C11.8492 15.9407 11.9208 16.0121 12.0086 16.0121H12.4848V16.681H10.7065L10.7104 16.0121H11.1823C11.2705 16.0121 11.3416 15.9407 11.3416 15.8533C11.3416 15.7658 11.27 15.6945 11.1823 15.6945H10.7124L10.7163 15.0237H11.1821C11.2704 15.0237 11.3415 14.9524 11.3415 14.8649C11.3415 14.7775 11.2699 14.7062 11.1821 14.7062H10.7182L10.7221 14.0358H12.4842L12.4848 14.7062ZM14.5834 12.7298H14.1087C14.0204 12.7298 13.9494 12.8011 13.9494 12.8885C13.9494 12.976 14.021 13.0473 14.1087 13.0473H14.5834V13.7187H14.1087C14.0204 13.7187 13.9494 13.79 13.9494 13.8774C13.9494 13.9649 14.021 14.0362 14.1087 14.0362H14.5834V14.7055H14.1087C14.0204 14.7055 13.9494 14.7768 13.9494 14.8642C13.9494 14.9517 14.021 15.023 14.1087 15.023H14.5834V15.6939H14.1087C14.0204 15.6939 13.9494 15.7652 13.9494 15.8526C13.9494 15.9401 14.021 16.0114 14.1087 16.0114H14.5834V16.6804H12.8047L12.8072 16.0114H13.2823C13.3706 16.0114 13.4417 15.9401 13.4417 15.8526C13.4417 15.7652 13.3701 15.6939 13.2823 15.6939H12.8081L12.8105 15.023H13.2823C13.3706 15.023 13.4417 14.9517 13.4417 14.8642C13.4417 14.7768 13.3701 14.7055 13.2823 14.7055H12.8116L12.814 14.0362H13.2823C13.3706 14.0362 13.4417 13.9649 13.4417 13.8774C13.4417 13.79 13.3701 13.7187 13.2823 13.7187H12.8154L12.8179 13.0473H13.2823C13.3707 13.0473 13.4417 12.976 13.4417 12.8885C13.4417 12.8011 13.3701 12.7298 13.2823 12.7298H12.8189L12.8214 12.0599L14.5835 12.0771L14.5834 12.7298ZM16.6745 15.6946H16.2081C16.1198 15.6946 16.0488 15.7659 16.0488 15.8533C16.0488 15.9408 16.1204 16.0121 16.2081 16.0121H16.671L16.6642 16.681H14.9021V16.0121H15.3816C15.4699 16.0121 15.541 15.9408 15.541 15.8533C15.541 15.7659 15.4694 15.6946 15.3816 15.6946H14.9021V15.0247L16.6812 15.0403L16.6745 15.6946Z" fill="#F92828"/>
<path d="M9.55753 11.2315C9.64579 11.2315 9.71687 11.1602 9.71687 11.0727V10.8744C9.71687 10.6438 9.528 10.4557 9.29657 10.4557H9.00765L9.00778 10.0925C9.00778 10.0045 8.9362 9.93372 8.84844 9.93372C8.76068 9.93372 8.68909 10.0051 8.68909 10.0925V10.455H8.40225C8.17081 10.455 7.98193 10.6431 7.98193 10.8738V11.6408C7.98193 11.872 8.17079 12.0596 8.40225 12.0596H9.29722C9.35314 12.0596 9.39869 12.105 9.39869 12.1607V12.9277C9.39869 12.9835 9.35314 13.0289 9.29722 13.0289H8.40225C8.34633 13.0289 8.30076 12.9835 8.30076 12.9277V12.7294C8.30076 12.6414 8.22918 12.5707 8.14142 12.5707C8.05366 12.5707 7.98207 12.642 7.98207 12.7294V12.9277C7.98207 13.1589 8.17093 13.3465 8.40239 13.3465H8.68923V13.7081C8.68923 13.7961 8.76082 13.8669 8.84858 13.8669C8.93634 13.8669 9.00792 13.7956 9.00792 13.7081V13.3465H9.29684C9.52832 13.3465 9.71713 13.1584 9.71713 12.9277V12.1607C9.71713 11.9301 9.52832 11.7419 9.29684 11.7419H8.40187C8.34595 11.7419 8.30038 11.6965 8.30038 11.6408V10.8738C8.30038 10.818 8.34595 10.7726 8.40187 10.7726H9.29684C9.35276 10.7726 9.39831 10.818 9.39831 10.8738V11.0721C9.39818 11.1601 9.46926 11.2315 9.55753 11.2315Z" fill="#F92828"/>
<path d="M11.0754 13.4029C11.1524 13.4488 11.249 13.4229 11.2936 13.3477C11.5541 12.9109 11.6919 12.411 11.6919 11.9015C11.6919 10.3394 10.4164 9.06848 8.84837 9.06848C7.28058 9.06848 6.00488 10.3393 6.00488 11.9015C6.00488 13.4635 7.28041 14.7344 8.84837 14.7344C9.18727 14.7344 9.51978 14.6754 9.83605 14.5585C9.91833 14.5282 9.96053 14.4369 9.93011 14.3548C9.89969 14.2727 9.80754 14.2307 9.72558 14.261C9.44513 14.3641 9.14985 14.4169 8.84876 14.4169C7.45699 14.4169 6.32462 13.2887 6.32462 11.9021C6.32462 10.5155 7.45699 9.38731 8.84876 9.38731C10.2405 9.38731 11.3729 10.5155 11.3729 11.9021C11.3729 12.3545 11.2508 12.7987 11.0198 13.1862C10.9749 13.2608 10.9998 13.358 11.0754 13.4029Z" fill="#F92828"/>
</g>
<defs>
<clipPath id="clip0_226_1424">
<rect width="14" height="14" fill="white" transform="translate(3 3)"/>
</clipPath>
</defs>
</svg>
