<svg width="22" height="22" viewBox="0 0 22 22" fill="none" xmlns="http://www.w3.org/2000/svg">
<path d="M7.83815 20.8371C4.70867 20.6829 2.63553 19.9764 1.50086 18.6774C0.723204 17.7867 0.396551 16.5852 0.529806 15.1055C0.892077 11.057 4.75303 6.35012 9.18955 6.35012C10.3116 6.35012 11.4537 6.65715 12.5835 7.26369C14.6826 8.40688 16.4568 10.4947 17.3298 12.8502C17.3776 12.9791 17.5224 13.0446 17.6512 12.9975C17.7806 12.9499 17.8469 12.8064 17.7991 12.6773C16.9222 10.3109 15.1682 8.20952 13.0789 6.98239C13.2793 6.70677 13.384 6.41414 13.384 6.10794C13.384 5.64122 13.1367 5.21258 12.7174 4.85409C13.824 3.88822 14.3783 2.55369 14.006 1.64153C13.8142 1.15859 13.3171 0.775378 12.7953 0.708712C12.2659 0.641832 11.906 0.935892 11.4921 1.27312C11.4443 1.31142 11.3935 1.35216 11.3434 1.39289C10.8571 0.529184 10.0564 0 9.19031 0C8.32418 0 7.52335 0.528354 7.03641 1.39289C6.98637 1.35297 6.93552 1.31224 6.88772 1.27393C6.47317 0.936909 6.11251 0.646693 5.58225 0.710351C5.06335 0.775809 4.5662 1.15965 4.37519 1.64036C4.00214 2.55393 4.55623 3.88908 5.66296 4.85433C5.24373 5.21364 4.99617 5.64125 4.99617 6.10818C4.99617 6.41683 5.10336 6.71171 5.30759 6.98896C2.42691 8.69656 0.300663 12.048 0.0310293 15.0611C-0.114614 16.6803 0.252949 18.0071 1.12316 19.0044C2.35156 20.4119 4.53941 21.1735 7.81246 21.3354H7.82547C7.9581 21.3354 8.06815 21.2319 8.07526 21.0981C8.08218 20.9615 7.97579 20.844 7.83788 20.8371L7.83815 20.8371ZM9.19142 0.499897C9.89118 0.499897 10.5439 0.95446 10.9385 1.69315C10.7937 1.79144 10.6379 1.88974 10.4568 1.98194C9.6593 2.37206 8.71975 2.36963 7.92907 1.98356C7.74641 1.89074 7.58917 1.79246 7.44353 1.69335C7.83896 0.955091 8.49171 0.499889 9.19141 0.499889L9.19142 0.499897ZM4.84025 1.82649C4.96596 1.51013 5.30586 1.24848 5.64494 1.20532C5.95005 1.16621 6.16201 1.32671 6.5721 1.66069C6.85565 1.89111 7.20796 2.17747 7.70489 2.43081C8.63976 2.88679 9.73861 2.88841 10.6812 2.42919C11.1745 2.17728 11.5265 1.89093 11.8101 1.6613C12.2202 1.32813 12.4319 1.17067 12.7356 1.20593C13.0769 1.2497 13.416 1.51073 13.5425 1.83011C13.8007 2.46201 13.3884 3.65973 12.2973 4.56033C11.5351 4.09969 10.4408 3.80868 9.19158 3.80868C7.9424 3.80868 6.84725 4.09889 6.08589 4.56033C4.99356 3.65771 4.58208 2.46077 4.8402 1.82647L4.84025 1.82649ZM5.49767 6.10867C5.49767 5.13207 7.18922 4.30665 9.19059 4.30665C11.192 4.30665 12.8835 5.13207 12.8835 6.10867C12.8835 6.32288 12.7973 6.53324 12.6353 6.73835C11.4902 6.1563 10.3327 5.8515 9.18894 5.8515C7.98293 5.8515 6.81921 6.18244 5.74645 6.73975C5.58474 6.53466 5.49768 6.32349 5.49768 6.10867H5.49767Z" fill="#F92828"/>
<path d="M21.4725 18.3946H18.7035V14.2638C18.7035 13.9744 18.4661 13.7379 18.1749 13.7379H15.4329C15.1416 13.7379 14.9043 13.9744 14.9043 14.2646V16.8428H12.1352C11.8439 16.8428 11.6066 17.0793 11.6066 17.3695V19.9477H9.41707C9.12579 19.9477 8.88843 20.1842 8.88843 20.4744V21.4733C8.88843 21.7635 9.12581 22 9.41707 22H21.4715C21.7627 22 22.0001 21.7635 22.0001 21.4733V18.9218C22.0003 18.631 21.7637 18.3945 21.4724 18.3945L21.4725 18.3946ZM11.6073 21.4957L9.39098 21.4726L9.41804 20.4467H11.6076L11.6073 21.4957ZM14.9048 18.3954H14.1564C14.0177 18.3954 13.906 18.5075 13.906 18.6449C13.906 18.7823 14.0185 18.8943 14.1564 18.8943H14.9048V19.9485H14.1564C14.0177 19.9485 13.906 20.0606 13.906 20.198C13.906 20.3354 14.0185 20.4475 14.1564 20.4475H14.9048V21.4987H12.1103L12.1164 20.4475H12.8579C12.9966 20.4475 13.1083 20.3354 13.1083 20.198C13.1083 20.0606 12.9958 19.9485 12.8579 19.9485H12.1195L12.1256 18.8943H12.8577C12.9964 18.8943 13.1081 18.7823 13.1081 18.6449C13.1081 18.5075 12.9956 18.3954 12.8577 18.3954H12.1286L12.1347 17.3419H14.9038L14.904 18.3954H14.9048ZM18.2025 15.2896H17.4566C17.3178 15.2896 17.2062 15.4017 17.2062 15.5391C17.2062 15.6765 17.3187 15.7886 17.4566 15.7886H18.2025V16.8436H17.4566C17.3178 16.8436 17.2062 16.9557 17.2062 17.0931C17.2062 17.2305 17.3187 17.3426 17.4566 17.3426H18.2025V18.3944H17.4566C17.3178 18.3944 17.2062 18.5064 17.2062 18.6438C17.2062 18.7812 17.3187 18.8933 17.4566 18.8933H18.2025V19.9475H17.4566C17.3178 19.9475 17.2062 20.0596 17.2062 20.197C17.2062 20.3344 17.3187 20.4465 17.4566 20.4465H18.2025V21.4977H15.4074L15.4113 20.4465H16.158C16.2967 20.4465 16.4084 20.3344 16.4084 20.197C16.4084 20.0596 16.2959 19.9475 16.158 19.9475H15.4127L15.4166 18.8933H16.158C16.2967 18.8933 16.4084 18.7812 16.4084 18.6438C16.4084 18.5064 16.2959 18.3944 16.158 18.3944H15.4182L15.4221 17.3426H16.158C16.2967 17.3426 16.4084 17.2305 16.4084 17.0931C16.4084 16.9557 16.2959 16.8436 16.158 16.8436H15.4243L15.4282 15.7886H16.158C16.2968 15.7886 16.4084 15.6765 16.4084 15.5391C16.4084 15.4017 16.2959 15.2896 16.158 15.2896H15.4298L15.4337 14.237L18.2027 14.264L18.2025 15.2896ZM21.4885 19.9486H20.7557C20.6169 19.9486 20.5053 20.0607 20.5053 20.1981C20.5053 20.3355 20.6178 20.4475 20.7557 20.4475H21.4831L21.4723 21.4987H18.7033V20.4475H19.4569C19.5956 20.4475 19.7073 20.3355 19.7073 20.1981C19.7073 20.0607 19.5948 19.9486 19.4569 19.9486H18.7033V18.896L21.4991 18.9205L21.4885 19.9486Z" fill="#F92828"/>
<path d="M10.3043 12.9352C10.443 12.9352 10.5547 12.8231 10.5547 12.6857V12.374C10.5547 12.0117 10.2579 11.716 9.89423 11.716H9.44021L9.44042 11.1453C9.44042 11.0071 9.32793 10.8958 9.19002 10.8958C9.05211 10.8958 8.93962 11.0079 8.93962 11.1453V11.7149H8.48886C8.12517 11.7149 7.82837 12.0106 7.82837 12.373V13.5784C7.82837 13.9416 8.12514 14.2364 8.48886 14.2364H9.89525C9.98313 14.2364 10.0547 14.3078 10.0547 14.3953V15.6007C10.0547 15.6883 9.98313 15.7596 9.89525 15.7596H8.48886C8.40099 15.7596 8.32939 15.6883 8.32939 15.6007V15.289C8.32939 15.1508 8.2169 15.0396 8.07899 15.0396C7.94108 15.0396 7.82859 15.1516 7.82859 15.289V15.6007C7.82859 15.9639 8.12537 16.2588 8.48909 16.2588H8.93984V16.827C8.93984 16.9652 9.05233 17.0765 9.19024 17.0765C9.32815 17.0765 9.44064 16.9644 9.44064 16.827V16.2588H9.89465C10.2584 16.2588 10.5551 15.9631 10.5551 15.6007V14.3953C10.5551 14.033 10.2584 13.7373 9.89465 13.7373H8.48827C8.40039 13.7373 8.32879 13.6659 8.32879 13.5784V12.373C8.32879 12.2854 8.40039 12.2141 8.48827 12.2141H9.89465C9.98253 12.2141 10.0541 12.2854 10.0541 12.373V12.6847C10.0539 12.8229 10.1656 12.9352 10.3043 12.9352V12.9352Z" fill="#F92828"/>
<path d="M12.6903 16.3474C12.8113 16.4195 12.9631 16.3788 13.0332 16.2606C13.4425 15.5743 13.659 14.7887 13.659 13.988C13.659 11.5334 11.6546 9.53618 9.19062 9.53618C6.72695 9.53618 4.72229 11.5332 4.72229 13.988C4.72229 16.4426 6.72669 18.4398 9.19062 18.4398C9.72318 18.4398 10.2457 18.347 10.7427 18.1634C10.872 18.1158 10.9383 17.9723 10.8905 17.8432C10.8427 17.7143 10.6979 17.6483 10.5691 17.6959C10.1284 17.8578 9.66438 17.9409 9.19124 17.9409C7.00418 17.9409 5.22474 16.168 5.22474 13.989C5.22474 11.8101 7.00418 10.0372 9.19124 10.0372C11.3783 10.0372 13.1578 11.8101 13.1578 13.989C13.1578 14.7 12.9659 15.3979 12.6029 16.0069C12.5323 16.1241 12.5715 16.2769 12.6903 16.3474L12.6903 16.3474Z" fill="#F92828"/>
</svg>
