<svg width="20" height="20" viewBox="0 0 20 20" fill="none" xmlns="http://www.w3.org/2000/svg">
<circle cx="10" cy="10" r="9.95" fill="#F3F3F3" stroke="black" stroke-width="0.1"/>
<path d="M10.3112 11.597H10.1577V11.383C10.1577 11.2915 10.0864 11.2179 9.99894 11.2179C9.9115 11.2179 9.84017 11.2921 9.84017 11.383V11.597H9.6867C9.49853 11.597 9.34571 11.7561 9.34571 11.9517V12.5109C9.34571 12.7066 9.49867 12.8656 9.6867 12.8656L10.3346 12.8894L10.3112 13.4725L9.66323 13.4486V13.3037C9.66323 13.2122 9.59191 13.1386 9.50447 13.1386C9.41702 13.1386 9.3457 13.2128 9.3457 13.3037V13.4486C9.3457 13.6443 9.49866 13.8033 9.6867 13.8033H9.84017V14.0173C9.84017 14.1088 9.91149 14.1824 9.99893 14.1824C10.0864 14.1824 10.1577 14.1082 10.1577 14.0173L10.1578 13.8029H10.3113C10.4995 13.8029 10.6523 13.6438 10.6523 13.4482V12.8891C10.6523 12.6933 10.4993 12.5344 10.3113 12.5344L9.66335 12.5105L9.68631 11.9274L10.3343 11.9513V12.0962C10.3343 12.1877 10.4056 12.2613 10.493 12.2613C10.5805 12.2613 10.6518 12.1872 10.6518 12.0962V11.9513C10.6523 11.7561 10.4993 11.597 10.3112 11.597L10.3112 11.597Z" fill="#6D29D3"/>
<path d="M9.99907 10.4084C8.7843 10.4084 7.79639 11.4366 7.79639 12.7002C7.79639 13.9638 8.78443 14.9914 9.99907 14.9914C11.2138 14.9914 12.2018 13.9636 12.2018 12.7002C12.2019 11.4366 11.2138 10.4084 9.99907 10.4084ZM9.99907 14.6609C8.95982 14.6609 8.1139 13.7816 8.1139 12.6999C8.1139 11.6184 8.95919 10.739 9.99907 10.739C11.0388 10.739 11.8842 11.6187 11.8842 12.6999C11.8842 13.7811 11.0385 14.6609 9.99907 14.6609Z" fill="#6D29D3"/>
<path d="M9.99873 3.51428C9.42946 3.51428 8.96631 3.99616 8.96631 4.58779C8.96631 5.17994 9.42956 5.66171 9.99873 5.66171C10.568 5.66171 11.0312 5.17984 11.0312 4.58779C11.0313 3.99616 10.568 3.51428 9.99873 3.51428ZM9.99873 5.3314C9.60448 5.3314 9.28435 4.99802 9.28435 4.58831C9.28435 4.17859 9.60484 3.84522 9.99873 3.84522C10.3926 3.84522 10.7131 4.17859 10.7131 4.58831C10.7131 4.99802 10.3931 5.3314 9.99873 5.3314Z" fill="#6D29D3"/>
<path d="M16.7803 5.29157L10.2691 2.06369C10.0976 1.97877 9.90115 1.97877 9.72963 2.06369L3.21848 5.29157C3.08602 5.35717 3 5.49843 3 5.65149V6.33097C3 6.55098 3.17205 6.72994 3.38355 6.72994H3.59068V7.48323C3.59068 7.70324 3.76272 7.8822 3.97423 7.8822H4.22585V8.55365C4.22585 8.77366 4.39789 8.95262 4.6094 8.95262H4.73644V13.0498H3.97422C3.7631 13.0498 3.59156 13.2282 3.59156 13.4478V14.3622H3.51547C3.30151 14.3622 3.12805 14.5407 3.12805 14.7603V15.602C3.12805 15.8216 3.30203 16 3.51547 16L16.4836 15.9999C16.6976 15.9999 16.871 15.8214 16.871 15.6018V14.7601C16.871 14.5405 16.6971 14.3621 16.4836 14.3621H16.4084V13.4477C16.4084 13.2281 16.2369 13.0497 16.0258 13.0497H15.2636V8.95248H15.3906C15.6021 8.95248 15.7742 8.77352 15.7742 8.55351V7.88206H16.0258C16.2373 7.88206 16.4093 7.7031 16.4093 7.4831V6.72981H16.6164C16.828 6.72981 17 6.55085 17 6.33084V5.65149C16.9991 5.49842 16.9131 5.35715 16.7806 5.29157L16.7803 5.29157ZM4.54276 8.5542V7.88275H7.28635V8.5542C7.28635 8.59176 7.25708 8.62235 7.22084 8.62235L4.60868 8.62221C4.57257 8.62221 4.54278 8.59176 4.54278 8.5542H4.54276ZM5.05336 8.95265H6.77628V13.0498H5.05336V8.95265ZM16.0897 13.4479V14.3623H11.9795C11.8916 14.3623 11.8208 14.4365 11.8208 14.5274C11.8208 14.6184 11.8921 14.6926 11.9795 14.6926H16.4833C16.5218 14.6926 16.5532 14.7226 16.5532 14.7596V15.6013C16.5532 15.6385 16.522 15.6684 16.4833 15.6684H3.51513C3.47656 15.6684 3.44523 15.6383 3.44523 15.6013V14.7596C3.44523 14.7225 3.47644 14.6926 3.51513 14.6926H8.01889C8.10685 14.6926 8.17765 14.6184 8.17765 14.5274C8.17765 14.4365 8.10633 14.3623 8.01889 14.3623H3.90868V13.4479C3.90868 13.4118 3.93899 13.3808 3.97317 13.3808H7.40125C7.48921 13.3808 7.56002 13.3066 7.56002 13.2156C7.56002 13.1247 7.48869 13.0505 7.40125 13.0505H7.09392V8.95333H7.22095C7.43246 8.95333 7.60451 8.77437 7.60451 8.55436V7.88291H12.3945V8.55436C12.3945 8.77437 12.5666 8.95333 12.7781 8.95333H12.9051V13.0505H12.5978C12.5098 13.0505 12.439 13.1247 12.439 13.2156C12.439 13.3066 12.5103 13.3808 12.5978 13.3808H16.0259C16.0596 13.3808 16.09 13.4118 16.09 13.4479H16.0897ZM14.9449 13.0498H13.2219V8.95265H14.9449V13.0498ZM15.4555 8.55427C15.4555 8.59183 15.4262 8.62242 15.3899 8.62242H12.7778C12.7417 8.62242 12.7123 8.59196 12.7123 8.55427V7.88282H15.4559L15.456 8.55427H15.4555ZM16.0903 7.48385C16.0903 7.52141 16.061 7.552 16.0247 7.552H3.97345C3.93733 7.552 3.90793 7.52155 3.90793 7.48385V6.73056H16.0906V7.48385H16.0903ZM16.681 6.33159C16.681 6.36915 16.6517 6.39974 16.6154 6.39974H3.38249C3.34637 6.39974 3.31697 6.36929 3.31697 6.33159L3.3171 5.65155C3.3171 5.62513 3.3318 5.60071 3.35424 5.58957L9.86606 2.36208C9.95053 2.32036 10.0478 2.32036 10.1324 2.36208L16.6439 5.59009C16.6668 5.60122 16.6815 5.62564 16.6815 5.65207L16.6814 6.33156L16.681 6.33159Z" fill="#6D29D3"/>
</svg>
