<svg width="14" height="14" viewBox="0 0 14 14" fill="none" xmlns="http://www.w3.org/2000/svg">
<path d="M7.31117 9.59702H7.1577V9.38304C7.1577 9.29154 7.08638 9.2179 6.99894 9.2179C6.9115 9.2179 6.84017 9.29208 6.84017 9.38304V9.59702H6.6867C6.49853 9.59702 6.34571 9.75612 6.34571 9.95172V10.5109C6.34571 10.7066 6.49867 10.8656 6.6867 10.8656L7.33465 10.8894L7.31117 11.4725L6.66323 11.4486V11.3037C6.66323 11.2122 6.59191 11.1386 6.50447 11.1386C6.41702 11.1386 6.3457 11.2128 6.3457 11.3037V11.4486C6.3457 11.6443 6.49866 11.8033 6.6867 11.8033H6.84017V12.0173C6.84017 12.1088 6.91149 12.1824 6.99893 12.1824C7.08637 12.1824 7.15769 12.1082 7.15769 12.0173L7.15782 11.8029H7.3113C7.49946 11.8029 7.65229 11.6438 7.65229 11.4482V10.8891C7.65229 10.6933 7.49933 10.5344 7.3113 10.5344L6.66335 10.5105L6.68631 9.92744L7.33425 9.95131V10.0962C7.33425 10.1877 7.40557 10.2613 7.49301 10.2613C7.58046 10.2613 7.65178 10.1872 7.65178 10.0962V9.95131C7.65229 9.75612 7.49933 9.59703 7.31118 9.59703L7.31117 9.59702Z" fill="#6D29D3"/>
<path d="M6.99907 8.40845C5.7843 8.40845 4.79639 9.43662 4.79639 10.7002C4.79639 11.9638 5.78443 12.9914 6.99907 12.9914C8.21384 12.9914 9.20176 11.9636 9.20176 10.7002C9.20189 9.43659 8.21384 8.40845 6.99907 8.40845ZM6.99907 12.6609C5.95982 12.6609 5.1139 11.7816 5.1139 10.6999C5.1139 9.61837 5.95919 8.73897 6.99907 8.73897C8.03882 8.73897 8.88424 9.61875 8.88424 10.6999C8.88424 11.7811 8.03846 12.6609 6.99907 12.6609Z" fill="#6D29D3"/>
<path d="M6.99873 1.51428C6.42946 1.51428 5.96631 1.99616 5.96631 2.58779C5.96631 3.17994 6.42956 3.66171 6.99873 3.66171C7.568 3.66171 8.03115 3.17984 8.03115 2.58779C8.03128 1.99616 7.56803 1.51428 6.99873 1.51428ZM6.99873 3.3314C6.60448 3.3314 6.28435 2.99802 6.28435 2.58831C6.28435 2.17859 6.60484 1.84522 6.99873 1.84522C7.39261 1.84522 7.7131 2.17859 7.7131 2.58831C7.7131 2.99802 7.39313 3.3314 6.99873 3.3314Z" fill="#6D29D3"/>
<path d="M13.7803 3.29157L7.26912 0.0636908C7.09759 -0.0212303 6.90115 -0.0212303 6.72963 0.0636908L0.218476 3.29157C0.0860242 3.35717 0 3.49843 0 3.65149V4.33097C0 4.55098 0.172045 4.72994 0.383551 4.72994H0.590675V5.48323C0.590675 5.70324 0.76272 5.8822 0.974226 5.8822H1.22585V6.55365C1.22585 6.77366 1.39789 6.95262 1.6094 6.95262H1.73644V11.0498H0.97422C0.763097 11.0498 0.59156 11.2282 0.59156 11.4478V12.3622H0.515468C0.301505 12.3622 0.128054 12.5407 0.128054 12.7603V13.602C0.128054 13.8216 0.302034 14 0.515468 14L13.4836 13.9999C13.6976 13.9999 13.871 13.8214 13.871 13.6018V12.7601C13.871 12.5405 13.6971 12.3621 13.4836 12.3621H13.4084V11.4477C13.4084 11.2281 13.2369 11.0497 13.0258 11.0497H12.2636V6.95248H12.3906C12.6021 6.95248 12.7742 6.77352 12.7742 6.55351V5.88206H13.0258C13.2373 5.88206 13.4093 5.7031 13.4093 5.4831V4.72981H13.6164C13.828 4.72981 14 4.55085 14 4.33084V3.65149C13.9991 3.49842 13.9131 3.35715 13.7806 3.29157L13.7803 3.29157ZM1.54276 6.5542V5.88275H4.28635V6.5542C4.28635 6.59176 4.25708 6.62235 4.22084 6.62235L1.60868 6.62221C1.57257 6.62221 1.54278 6.59176 1.54278 6.5542H1.54276ZM2.05336 6.95265H3.77628V11.0498H2.05336V6.95265ZM13.0897 11.4479V12.3623H8.97953C8.89157 12.3623 8.82076 12.4365 8.82076 12.5274C8.82076 12.6184 8.89209 12.6926 8.97953 12.6926H13.4833C13.5218 12.6926 13.5532 12.7226 13.5532 12.7596V13.6013C13.5532 13.6385 13.522 13.6684 13.4833 13.6684H0.515128C0.476565 13.6684 0.445225 13.6383 0.445225 13.6013V12.7596C0.445225 12.7225 0.476436 12.6926 0.515128 12.6926H5.01889C5.10685 12.6926 5.17765 12.6184 5.17765 12.5274C5.17765 12.4365 5.10633 12.3623 5.01889 12.3623H0.908682V11.4479C0.908682 11.4118 0.93899 11.3808 0.973166 11.3808H4.40125C4.48921 11.3808 4.56002 11.3066 4.56002 11.2156C4.56002 11.1247 4.48869 11.0505 4.40125 11.0505H4.09392V6.95333H4.22095C4.43246 6.95333 4.60451 6.77437 4.60451 6.55436V5.88291H9.39452V6.55436C9.39452 6.77437 9.56656 6.95333 9.77807 6.95333H9.9051V11.0505H9.59777C9.50981 11.0505 9.43901 11.1247 9.43901 11.2156C9.43901 11.3066 9.51033 11.3808 9.59777 11.3808H13.0259C13.0596 11.3808 13.09 11.4118 13.09 11.4479H13.0897ZM11.9449 11.0498H10.2219V6.95265H11.9449V11.0498ZM12.4555 6.55427C12.4555 6.59183 12.4262 6.62242 12.3899 6.62242H9.77778C9.74167 6.62242 9.71227 6.59196 9.71227 6.55427V5.88282H12.4559L12.456 6.55427H12.4555ZM13.0903 5.48385C13.0903 5.52141 13.061 5.552 13.0247 5.552H0.973447C0.937334 5.552 0.90793 5.52155 0.90793 5.48385V4.73056H13.0906V5.48385H13.0903ZM13.681 4.33159C13.681 4.36915 13.6517 4.39974 13.6154 4.39974H0.382488C0.346374 4.39974 0.31697 4.36929 0.31697 4.33159L0.317099 3.65155C0.317099 3.62513 0.331802 3.60071 0.354243 3.58957L6.86606 0.362078C6.95053 0.320357 7.04777 0.320357 7.13238 0.362078L13.6439 3.59009C13.6668 3.60122 13.6815 3.62564 13.6815 3.65207L13.6814 4.33156L13.681 4.33159Z" fill="#6D29D3"/>
</svg>
