<svg width="23" height="23" viewBox="0 0 23 23" fill="none" xmlns="http://www.w3.org/2000/svg">
<path d="M12.2135 15.2394H11.9723V14.9032C11.9723 14.7594 11.8602 14.6437 11.7228 14.6437C11.5854 14.6437 11.4733 14.7603 11.4733 14.9032V15.2394H11.2321C10.9365 15.2394 10.6963 15.4895 10.6963 15.7968V16.6755C10.6963 16.9831 10.9367 17.2329 11.2321 17.2329L12.2503 17.2704L12.2135 18.1866L11.1953 18.1491V17.9214C11.1953 17.7776 11.0832 17.6619 10.9458 17.6619C10.8084 17.6619 10.6963 17.7785 10.6963 17.9214V18.1491C10.6963 18.4567 10.9367 18.7065 11.2321 18.7065H11.4733V19.0427C11.4733 19.1865 11.5854 19.3022 11.7228 19.3022C11.8602 19.3022 11.9723 19.1856 11.9723 19.0427L11.9725 18.7058H12.2136C12.5093 18.7058 12.7495 18.4558 12.7495 18.1484V17.2698C12.7495 16.9622 12.5091 16.7124 12.2136 16.7124L11.1954 16.6749L11.2315 15.7587L12.2497 15.7962V16.0239C12.2497 16.1676 12.3618 16.2834 12.4992 16.2834C12.6366 16.2834 12.7487 16.1668 12.7487 16.0239V15.7962C12.7495 15.4895 12.5091 15.2394 12.2135 15.2394L12.2135 15.2394Z" fill="#6D29D3"/>
<path d="M11.7226 13.3716C9.81367 13.3716 8.26123 14.9873 8.26123 16.9729C8.26123 18.9586 9.81388 20.5734 11.7226 20.5734C13.6315 20.5734 15.184 18.9583 15.184 16.9729C15.1842 14.9872 13.6315 13.3716 11.7226 13.3716ZM11.7226 20.0539C10.0895 20.0539 8.76019 18.6723 8.76019 16.9725C8.76019 15.2729 10.0885 13.891 11.7226 13.891C13.3565 13.891 14.685 15.2735 14.685 16.9725C14.685 18.6714 13.3559 20.0539 11.7226 20.0539Z" fill="#6D29D3"/>
<path d="M11.7225 2.53799C10.8279 2.53799 10.1001 3.29522 10.1001 4.22493C10.1001 5.15545 10.8281 5.91252 11.7225 5.91252C12.617 5.91252 13.3448 5.15529 13.3448 4.22493C13.3451 3.29522 12.6171 2.53799 11.7225 2.53799V2.53799ZM11.7225 5.39345C11.1029 5.39345 10.5999 4.86958 10.5999 4.22574C10.5999 3.5819 11.1035 3.05803 11.7225 3.05803C12.3414 3.05803 12.8451 3.5819 12.8451 4.22574C12.8451 4.86958 12.3422 5.39345 11.7225 5.39345Z" fill="#6D29D3"/>
<path d="M22.3788 5.33085L12.147 0.258472C11.8775 0.125024 11.5688 0.125024 11.2993 0.258472L1.06744 5.33085C0.859302 5.43394 0.724121 5.65592 0.724121 5.89643V6.9642C0.724121 7.30993 0.994478 7.59115 1.32684 7.59115H1.65233V8.77489C1.65233 9.12062 1.92268 9.40184 2.25505 9.40184H2.65045V10.457C2.65045 10.8027 2.92081 11.0839 3.25318 11.0839H3.4528V17.5223H2.25504C1.92327 17.5223 1.65372 17.8027 1.65372 18.1478V19.5847H1.53414C1.19792 19.5847 0.925348 19.8651 0.925348 20.2102V21.5329C0.925348 21.878 1.19875 22.1584 1.53414 22.1584L21.9127 22.1582C22.2489 22.1582 22.5215 21.8778 22.5215 21.5327V20.21C22.5215 19.8649 22.2481 19.5845 21.9127 19.5845H21.7945V18.1476C21.7945 17.8025 21.525 17.5221 21.1932 17.5221H19.9954V11.0837H20.1951C20.5274 11.0837 20.7978 10.8025 20.7978 10.4568V9.40163H21.1932C21.5256 9.40163 21.7959 9.12041 21.7959 8.77468V7.59094H22.1214C22.4538 7.59094 22.7241 7.30971 22.7241 6.96399V5.89644C22.7227 5.6559 22.5875 5.43391 22.3794 5.33085L22.3788 5.33085ZM3.14846 10.4578V9.4027H7.45982V10.4578C7.45982 10.5169 7.41381 10.5649 7.35686 10.5649L3.25205 10.5647C3.1953 10.5647 3.14849 10.5169 3.14849 10.4578H3.14846ZM3.95083 11.084H6.65828V17.5224H3.95083V11.084ZM21.2937 18.1479V19.5848H14.8348C14.6966 19.5848 14.5853 19.7014 14.5853 19.8443C14.5853 19.9872 14.6974 20.1038 14.8348 20.1038H21.9121C21.9727 20.1038 22.022 20.151 22.022 20.2092V21.5319C22.022 21.5903 21.9729 21.6373 21.9121 21.6373H1.53361C1.47301 21.6373 1.42376 21.5901 1.42376 21.5319V20.2092C1.42376 20.1508 1.47281 20.1038 1.53361 20.1038H8.61094C8.74916 20.1038 8.86043 19.9872 8.86043 19.8443C8.86043 19.7014 8.74835 19.5848 8.61094 19.5848H2.15205V18.1479C2.15205 18.0912 2.19968 18.0425 2.25338 18.0425H7.64038C7.7786 18.0425 7.88986 17.9259 7.88986 17.783C7.88986 17.64 7.77778 17.5235 7.64038 17.5235H7.15742V11.085H7.35705C7.68942 11.085 7.95977 10.8038 7.95977 10.4581V9.40296H15.4869V10.4581C15.4869 10.8038 15.7573 11.085 16.0897 11.085H16.2893V17.5235H15.8063C15.6681 17.5235 15.5568 17.64 15.5568 17.783C15.5568 17.9259 15.6689 18.0425 15.8063 18.0425H21.1933C21.2464 18.0425 21.294 18.0912 21.294 18.1479H21.2937ZM19.4946 17.5224H16.7872V11.084H19.4946V17.5224ZM20.297 10.4579C20.297 10.517 20.251 10.565 20.194 10.565H16.0892C16.0325 10.565 15.9863 10.5172 15.9863 10.4579V9.40281H20.2976L20.2978 10.4579H20.297ZM21.2945 8.77586C21.2945 8.83489 21.2485 8.88296 21.1916 8.88296H2.25382C2.19707 8.88296 2.15087 8.8351 2.15087 8.77586V7.59212H21.2951V8.77586H21.2945ZM22.2228 6.96517C22.2228 7.0242 22.1768 7.07227 22.1198 7.07227H1.32517C1.26842 7.07227 1.22222 7.02441 1.22222 6.96517L1.22242 5.89654C1.22242 5.85501 1.24552 5.81664 1.28079 5.79915L11.5136 0.727365C11.6464 0.661805 11.7992 0.661805 11.9321 0.727365L22.1645 5.79996C22.2005 5.81745 22.2237 5.85582 22.2237 5.89735L22.2235 6.96512L22.2228 6.96517Z" fill="#6D29D3"/>
</svg>
