<svg width="26" height="26" viewBox="0 0 26 26" fill="none" xmlns="http://www.w3.org/2000/svg">
<path d="M1.68225 21.9182H24.3188C25.2256 21.9182 25.95 22.5668 25.95 23.3523V24.5159C25.95 25.3024 25.2258 25.95 24.3188 25.95H1.68225C0.774144 25.95 0.05 25.3023 0.05 24.5159V23.3523C0.05 22.5659 0.774208 21.9182 1.68225 21.9182Z" fill="#6D29D3" stroke="black" stroke-width="0.1"/>
<path d="M12.8149 7.5865H12.9138L12.9117 7.58369C13.0717 7.57428 13.211 7.54093 13.3166 7.48295C13.4449 7.41254 13.5262 7.30358 13.527 7.15984V7.15958C13.527 7.02375 13.4602 6.9157 13.3317 6.82447C13.2057 6.73501 13.0164 6.65852 12.7609 6.58193L12.7607 6.58189C12.394 6.47295 12.0914 6.3443 11.8812 6.1734C11.6731 6.00432 11.5557 5.79439 11.5557 5.51676C11.5557 5.01378 11.9547 4.60682 12.6795 4.48196L12.721 4.47481V4.43269V3.90431H13.2963L13.2959 4.39077L13.2958 4.43892L13.3439 4.44078C13.7717 4.45729 14.0661 4.53338 14.2843 4.62114L14.112 5.21372C14.112 5.21369 14.1119 5.21366 14.1118 5.21364C13.9255 5.1423 13.6146 5.02324 13.1526 5.02324C12.9232 5.02324 12.7633 5.06648 12.6594 5.13832C12.5532 5.21171 12.5094 5.31242 12.5094 5.41365C12.5094 5.5396 12.5877 5.63492 12.7273 5.71994C12.8663 5.80458 13.0782 5.88669 13.3707 5.98387L13.3707 5.98388L13.3716 5.98415C13.7787 6.11125 14.0577 6.25583 14.2347 6.43163C14.4095 6.60527 14.4882 6.81264 14.4882 7.07519C14.4882 7.58307 14.0798 8.03113 13.3025 8.1517L13.2602 8.15827V8.20111V8.77115H12.6848V8.24278V8.19476L12.6369 8.19282C12.2007 8.1752 11.7807 8.07615 11.5217 7.95453L11.7014 7.33941C11.9921 7.47102 12.3843 7.5865 12.8149 7.5865Z" fill="#6D29D3" stroke="black" stroke-width="0.1"/>
<path d="M24.042 11.5285H1.95929C1.95925 11.5285 1.9592 11.5285 1.95916 11.5285C1.40795 11.5284 0.967725 11.1322 0.967725 10.659V7.90361L13.0009 0.0596846L25.0347 7.90361V10.659C25.0347 11.1322 24.5944 11.5285 24.042 11.5285ZM17.1763 6.33793C17.1763 4.29233 15.3003 2.64563 13.0003 2.64563C10.7005 2.64563 8.82456 4.29233 8.8243 6.33792C8.8243 8.38259 10.6994 10.0302 13.0003 10.0302C15.3014 10.0302 17.1763 8.38172 17.1763 6.33793Z" fill="#6D29D3" stroke="black" stroke-width="0.1"/>
<path d="M2.38984 12.1575H6.45715V21.2897H2.38984V12.1575Z" fill="#6D29D3" stroke="black" stroke-width="0.1"/>
<path d="M10.9667 12.1575H15.034V21.2897H10.9667V12.1575Z" fill="#6D29D3" stroke="black" stroke-width="0.1"/>
<path d="M19.5446 12.1575H23.6119V21.2897H19.5446V12.1575Z" fill="#6D29D3" stroke="black" stroke-width="0.1"/>
</svg>
