<svg width="34" height="46" viewBox="0 0 34 46" fill="none" xmlns="http://www.w3.org/2000/svg">
<path d="M3.84684e-06 42.8671L0.103509 3.0326C0.106458 2.22635 0.409032 1.45427 0.944844 0.885746C1.48066 0.317221 2.20595 -0.00132067 2.96161 4.11575e-06L31.1577 0.0834058C31.9134 0.0865558 32.637 0.40939 33.1699 0.981076C33.7027 1.55276 34.0012 2.32661 34 3.13286L33.8965 42.9674C33.8935 43.7737 33.591 44.5457 33.0552 45.1142C32.5194 45.6828 31.7941 46.0013 31.0384 46L2.84229 45.9166C2.08663 45.9134 1.36301 45.5906 0.830164 45.0189C0.297317 44.4472 -0.00123609 43.6734 3.84684e-06 42.8671V42.8671Z" fill="#D1D1D1"/>
<path d="M3.00002 30.9912L3.06289 4.8942C3.06548 4.12474 3.33319 3.38789 3.80727 2.84531C4.28135 2.30273 4.92309 1.99873 5.59169 2L28.485 2.07305C29.1537 2.07603 29.7939 2.38412 30.2654 2.92972C30.7369 3.47532 31.0011 4.21388 31 4.98336L30.913 41.1058C30.9103 41.8753 30.6426 42.6121 30.1685 43.1547C29.6944 43.6973 29.0527 44.0013 28.384 44L14.2021 43.9547C11.2239 43.9414 8.37194 42.569 6.27187 40.1387C4.1718 37.7084 2.99513 34.4187 3.00002 30.9912V30.9912Z" fill="white"/>
<path d="M26.8214 22H7.17857C6.866 22 6.56622 21.8946 6.3452 21.7071C6.12417 21.5196 6 21.2652 6 21C6 20.7348 6.12417 20.4804 6.3452 20.2929C6.56622 20.1054 6.866 20 7.17857 20H26.8214C27.134 20 27.4338 20.1054 27.6548 20.2929C27.8758 20.4804 28 20.7348 28 21C28 21.2652 27.8758 21.5196 27.6548 21.7071C27.4338 21.8946 27.134 22 26.8214 22V22Z" fill="#6D29D3"/>
<path d="M11.7647 16H7.2353C6.90768 16 6.59347 15.842 6.36181 15.5607C6.13015 15.2794 6 14.8978 6 14.5C6 14.1022 6.13015 13.7206 6.36181 13.4393C6.59347 13.158 6.90768 13 7.2353 13H11.7647C12.0923 13 12.4065 13.158 12.6382 13.4393C12.8699 13.7206 13 14.1022 13 14.5C13 14.8978 12.8699 15.2794 12.6382 15.5607C12.4065 15.842 12.0923 16 11.7647 16V16Z" fill="#6D29D3"/>
<path d="M26.8214 33H7.17857C6.866 33 6.56622 32.842 6.3452 32.5607C6.12417 32.2794 6 31.8978 6 31.5C6 31.1022 6.12417 30.7207 6.3452 30.4393C6.56622 30.158 6.866 30 7.17857 30H26.8214C27.134 30 27.4338 30.158 27.6548 30.4393C27.8758 30.7207 28 31.1022 28 31.5C28 31.8978 27.8758 32.2794 27.6548 32.5607C27.4338 32.842 27.134 33 26.8214 33V33Z" fill="#6D29D3"/>
<path d="M26.8214 28H7.17857C6.866 28 6.56622 27.842 6.3452 27.5607C6.12417 27.2794 6 26.8978 6 26.5C6 26.1022 6.12417 25.7206 6.3452 25.4393C6.56622 25.158 6.866 25 7.17857 25H26.8214C27.134 25 27.4338 25.158 27.6548 25.4393C27.8758 25.7206 28 26.1022 28 26.5C28 26.8978 27.8758 27.2794 27.6548 27.5607C27.4338 27.842 27.134 28 26.8214 28V28Z" fill="#6D29D3"/>
<path d="M23.5 17C24.8807 17 26 15.8807 26 14.5C26 13.1193 24.8807 12 23.5 12C22.1193 12 21 13.1193 21 14.5C21 15.8807 22.1193 17 23.5 17Z" fill="#6D29D3"/>
<path d="M23.5 17C24.8807 17 26 15.8807 26 14.5C26 13.1193 24.8807 12 23.5 12C22.1193 12 21 13.1193 21 14.5C21 15.8807 22.1193 17 23.5 17Z" fill="#6D29D3"/>
<path d="M23.107 16C23.0573 16 23.0082 15.9884 22.9637 15.9661C22.9192 15.9439 22.8804 15.9116 22.8506 15.8717L22.0643 14.8233C22.039 14.7896 22.0206 14.7513 22.0101 14.7104C21.9996 14.6696 21.9973 14.6272 22.0032 14.5855C22.0091 14.5437 22.0232 14.5036 22.0447 14.4673C22.0661 14.4311 22.0945 14.3994 22.1282 14.3741C22.1619 14.3489 22.2003 14.3305 22.2411 14.32C22.2819 14.3096 22.3244 14.3073 22.3661 14.3133C22.4078 14.3192 22.4479 14.3334 22.4842 14.3549C22.5204 14.3764 22.552 14.4048 22.5773 14.4386L23.0917 15.1244L24.4128 13.1425C24.46 13.0719 24.5333 13.0228 24.6167 13.0062C24.7 12.9896 24.7865 13.0067 24.8572 13.0539C24.9279 13.101 24.977 13.1743 24.9937 13.2576C25.0104 13.3409 24.9934 13.4275 24.9463 13.4982L23.3738 15.8572C23.3454 15.8999 23.3071 15.9351 23.2622 15.9599C23.2174 15.9848 23.1672 15.9985 23.1159 15.9999C23.113 16 23.11 16 23.107 16Z" fill="#7AFF64"/>
<path d="M23.107 16C23.0573 16 23.0082 15.9884 22.9637 15.9661C22.9192 15.9439 22.8804 15.9116 22.8506 15.8717L22.0643 14.8233C22.039 14.7896 22.0206 14.7513 22.0101 14.7104C21.9996 14.6696 21.9973 14.6272 22.0032 14.5855C22.0091 14.5437 22.0232 14.5036 22.0447 14.4673C22.0661 14.4311 22.0945 14.3994 22.1282 14.3741C22.1619 14.3489 22.2003 14.3305 22.2411 14.32C22.2819 14.3096 22.3244 14.3073 22.3661 14.3133C22.4078 14.3192 22.4479 14.3334 22.4842 14.3549C22.5204 14.3764 22.552 14.4048 22.5773 14.4386L23.0917 15.1244L24.4128 13.1425C24.46 13.0719 24.5333 13.0228 24.6167 13.0062C24.7 12.9896 24.7865 13.0067 24.8572 13.0539C24.9279 13.101 24.977 13.1743 24.9937 13.2576C25.0104 13.3409 24.9934 13.4275 24.9463 13.4982L23.3738 15.8572C23.3454 15.8999 23.3071 15.9351 23.2622 15.9599C23.2174 15.9848 23.1672 15.9985 23.1159 15.9999C23.113 16 23.11 16 23.107 16Z" fill="#7AFF64"/>
</svg>
