<svg width="165" height="85" viewBox="0 0 165 85" fill="none" xmlns="http://www.w3.org/2000/svg">
<path d="M108.229 38.9328C108.181 38.9232 108.135 38.9044 108.086 38.9044C108.064 38.9044 108.042 38.9016 108.02 38.9016C108.004 38.9016 107.965 38.895 107.952 38.9087C107.951 38.9098 107.968 38.9114 107.969 38.9115C107.991 38.9139 108.013 38.9134 108.035 38.9151C108.038 38.9154 108.088 38.9218 108.087 38.9259C108.084 38.9367 108.033 38.9429 108.024 38.944C108.021 38.9444 107.983 38.952 107.984 38.9533C107.988 38.9578 107.997 38.9555 108.003 38.9555C108.006 38.9555 108.028 38.9555 108.022 38.9555C108.007 38.9555 107.993 38.9555 107.979 38.9555C107.974 38.9555 107.967 38.9569 107.962 38.9541C107.958 38.9513 107.972 38.9513 107.977 38.9498" stroke="black" stroke-width="0.1"/>
<path d="M121.162 5.08547C121.291 5.09966 121.411 5.15723 121.504 5.24885L145.626 29.6591C145.694 29.7301 145.743 29.8176 145.769 29.9133L148.066 38.0498C148.129 38.2558 148.074 38.4796 147.923 38.632C147.773 38.784 147.552 38.8396 147.349 38.7763L139.308 36.4518C139.213 36.4258 139.127 36.3755 139.057 36.3062L114.935 11.896C114.823 11.7865 114.76 11.6357 114.76 11.4784C114.76 11.3207 114.823 11.1703 114.935 11.0604L120.678 5.24846C120.805 5.12034 120.985 5.06033 121.162 5.08547ZM121.091 6.50235L116.173 11.4787L119.081 14.4208L123.998 9.44445L121.091 6.50235ZM124.824 10.2799L119.906 15.2563L139.182 34.7627L144.1 29.7863L124.824 10.2799ZM144.799 30.7495L140.133 35.4717L143.759 36.5249L145.84 34.4179L144.799 30.7495ZM146.199 35.7258L145.051 36.8881L146.666 37.3604L146.199 35.7258ZM123.962 36.4706C128.525 36.4706 131.674 39.5327 134.965 42.4276C138.255 45.3227 141.681 48.0945 146.935 48.0945C148.276 48.0945 149.611 47.7495 150.561 47.0773C151.511 46.4052 152.105 45.4529 152.105 44.0259C152.105 42.0037 149.538 40.4663 149.538 40.4663C149.385 40.4059 149.264 40.2823 149.207 40.1262C149.15 39.9697 149.161 39.7966 149.239 39.6498C149.317 39.5031 149.453 39.3969 149.613 39.3588C149.773 39.3202 149.942 39.3531 150.076 39.4492C150.076 39.4492 153.253 41.0947 153.253 44.0259C153.253 45.804 152.411 47.1703 151.207 48.0216C150.004 48.873 148.467 49.2569 146.936 49.2569C141.278 49.2569 137.526 46.2163 134.211 43.2994C130.897 40.3825 128.015 37.6329 123.963 37.6329C121.147 37.6763 119.112 38.7722 117.358 39.9032C115.604 41.0343 114.176 42.2826 112.476 42.2826C111.41 42.2826 110.488 41.4784 109.675 40.6781C109.345 39.9516 107.699 39.9573 107.37 39.9573C107.088 39.6487 107.543 39.2225 107.699 39.2251C108.028 39.2308 107.699 38.8675 108.357 38.8619C108.508 38.8615 107.699 38.8675 108.687 38.8675C108.85 38.8675 110.004 39.2251 110.574 40.121C111.31 40.8451 111.748 41.1199 112.476 41.1199C113.555 41.1199 114.915 40.0934 116.73 38.9226C118.546 37.7517 120.858 36.518 123.962 36.4706Z" fill="black"/>
<path d="M107.975 39.3743C106.771 39.3711 105.607 39.8533 104.702 40.7303C104.144 41.3796 103.759 42.1856 103.59 43.0601C102.693 46.3924 99.2627 48.6356 98.0189 49.4435C93.0309 52.6748 87.4078 50.9582 86.0986 50.547C83.4802 49.7464 81.6473 48.2966 77.9684 45.3898C71.023 39.9153 71.2587 38.1193 67.7173 36.6767C63.5317 35.0621 58.943 35.2816 54.9001 37.2898C53.1916 38.177 52.7137 38.8982 49.8728 40.3625C47.6426 41.4774 45.33 42.3799 42.9601 43.0601C41.4807 43.464 36.6497 45.0148 27.3609 44.38C18.3143 43.7525 18.3142 43.7525 12.2068 41.0621C9.30689 39.7854 4.45626 34.9961 2.17824 28.3242C1.59564 26.6147 0.6661 20.9382 2.96376 15.038C4.46349 11.0666 7.23923 7.8438 10.7601 5.98588C17.7775 1.98994 24.6836 3.74989 27.027 4.38462C31.5589 5.49315 35.6721 8.10927 38.8099 11.8788C40.5053 13.9655 41.8368 16.3789 42.7376 18.9979C43.9542 22.6454 44.3364 26.567 43.8504 30.4159C43.245 35.2163 41.3427 39.705 38.391 43.2981C34.195 48.3471 29.2265 49.7392 24.1337 51.1529C18.2328 52.7878 12.0959 53.1139 6.07968 52.1122C5.24516 51.9553 4.40403 51.8446 3.55945 51.7804C3.2387 51.7804 2.90485 51.73 2.60373 51.7227" stroke="black" stroke-width="1.5" stroke-miterlimit="10"/>
<g clip-path="url(#clip0_41_566)">
<path d="M98.4685 61.1443H98.1899V62.105H98.4685V61.1443Z" fill="#2F2E41"/>
<path d="M98.4685 59.0415H98.1899V56.9388H98.4685V59.0415ZM98.4685 54.8358H98.1899V52.733H98.4685V54.8358Z" fill="#2F2E41"/>
<path d="M98.4685 50.6301H98.1899V49.8296H97.4934V49.5094H98.4685V50.6301Z" fill="#2F2E41"/>
<g filter="url(#filter0_d_41_566)">
<path d="M98.4166 73.7926C100.554 73.7926 102.286 71.8013 102.286 69.3449C102.286 66.8885 100.554 64.8972 98.4166 64.8972C96.2794 64.8972 94.5469 66.8885 94.5469 69.3449C94.5469 71.8013 96.2794 73.7926 98.4166 73.7926Z" fill="#6D29D3"/>
</g>
<g filter="url(#filter1_d_41_566)">
<path d="M87.5593 42.7323L88.3951 48.4343L96.3351 43.5328L87.5593 42.7323Z" fill="#2F2E41"/>
</g>
<g filter="url(#filter2_d_41_566)">
<path d="M86.6106 78.1863L84.9472 78.1083L84.4175 70.6974L86.8723 70.8125L86.6106 78.1863Z" fill="#FFB6B6"/>
</g>
<g filter="url(#filter3_d_41_566)">
<path d="M86.7235 56.9816C89.7407 55.9243 90.36 51.4041 92.0169 50.4173C92.0127 48.0299 92.0962 40.6266 90.0227 40.7675C88.868 40.846 82.4343 54.3813 82.1585 56.6238C81.6469 60.7843 84.3787 71.403 84.0617 72.1325L87.2342 72.3632L87.2527 72.0762C87.303 71.2977 87.8087 68.9505 87.2318 68.5385L87.0132 68.3824C87.0151 67.573 87.1688 66.1941 86.5337 65.8446C86.5256 65.8401 86.5184 65.8338 86.5126 65.826C86.5068 65.8181 86.5025 65.809 86.5 65.7991C86.4974 65.7892 86.4967 65.7789 86.4979 65.7687C86.4991 65.7585 86.5021 65.7487 86.5068 65.7399L86.7235 56.9816Z" fill="#2F2E41"/>
</g>
<g filter="url(#filter4_d_41_566)">
<path d="M87.4678 79.8445L86.3555 79.9198L86.095 78.7263L85.6484 79.9677L82.6983 80.1677C82.5569 80.1773 82.4165 80.1346 82.2977 80.046C82.1788 79.9574 82.0878 79.8275 82.0377 79.6752C81.9877 79.5229 81.9813 79.3562 82.0195 79.1994C82.0578 79.0426 82.1386 78.904 82.2502 78.8038L84.5102 76.774L84.4476 75.5538L86.9343 75.5559L87.4678 79.8445Z" fill="#2F2E41"/>
</g>
<path d="M99.2888 64.8297L100.948 64.9842L102.256 57.7019L99.8073 57.4738L99.2888 64.8297Z" fill="#FFB6B6"/>
<g filter="url(#filter5_d_41_566)">
<path d="M98.6382 46.3741C97.1501 49.3799 94.4879 50.0975 91.7273 50.6234C90.527 48.675 88.6975 45.9586 90.4584 44.6924C91.439 43.9872 99.9397 38.2826 101.252 39.972C104.678 44.3827 102.234 58.5762 102.444 58.2624L99.7306 58.2171L99.5708 57.9956C99.3581 57.7007 99.2198 57.3446 99.1707 56.9658C99.1216 56.5869 99.1637 56.1999 99.2925 55.8467L99.3919 55.5738C99.1912 55.2513 99.0742 54.8699 99.0544 54.474C99.0346 54.0781 99.1129 53.6838 99.2801 53.337L99.3145 53.2657L98.6382 46.3741Z" fill="#2F2E41"/>
</g>
<path d="M99.2454 62.1736L101.714 62.5183L101.523 63.7208L103.552 66.0506C103.652 66.1656 103.718 66.3145 103.739 66.4755C103.761 66.6364 103.737 66.801 103.671 66.9452C103.605 67.0894 103.501 67.2057 103.374 67.2771C103.247 67.3485 103.103 67.3712 102.963 67.3419L100.056 66.7322L99.7438 65.4376L99.3593 66.586L98.2632 66.3561L99.2454 62.1736Z" fill="#2F2E41"/>
<path d="M92.7953 22.3989H91.6564C91.4238 22.3989 91.1947 22.4637 90.9886 22.5878C90.7826 22.7118 90.6058 22.8915 90.4734 23.1113L89.6488 24.4803L87.5942 24.9098C86.8805 25.4164 86.3428 26.1931 86.0738 27.1063C85.8047 28.0195 85.8212 29.012 86.1202 29.9128C87.5741 34.2833 88.2759 42.4751 86.8628 46.0945C86.8628 46.0945 95.4356 46.987 97.5888 44.0131C99.742 41.0392 98.0067 26.5616 98.0067 26.5616L94.8028 24.4803L93.9782 23.1113C93.8458 22.8915 93.6691 22.7119 93.463 22.5878C93.257 22.4637 93.0279 22.3989 92.7953 22.3989V22.3989Z" fill="#6D29D3"/>
<g filter="url(#filter6_d_41_566)">
<path d="M98.1082 47.9794C98.2046 47.8627 98.2776 47.7231 98.322 47.5705C98.3663 47.4179 98.3811 47.2559 98.3651 47.0961C98.3491 46.9362 98.3029 46.7823 98.2296 46.6452C98.1562 46.5082 98.0577 46.3912 97.9408 46.3026L99.8176 39.2099L97.7281 37.769L96.5685 46.676C96.4521 46.9116 96.4149 47.188 96.464 47.453C96.513 47.718 96.6449 47.9531 96.8347 48.1137C97.0245 48.2744 97.259 48.3494 97.4937 48.3247C97.7284 48.2999 97.9471 48.177 98.1082 47.9794H98.1082Z" fill="#FFB6B6"/>
</g>
<g filter="url(#filter7_d_41_566)">
<path d="M99.9569 40.0105L97.4496 38.8897L97.5566 37.4508L94.5774 29.9553C94.4302 29.5848 94.3557 29.1816 94.3593 28.7743C94.3628 28.367 94.4444 27.9656 94.5981 27.5986C94.7518 27.2315 94.974 26.9079 95.2488 26.6507C95.5236 26.3934 95.8442 26.2089 96.1881 26.1101V26.1101C96.8092 25.9325 97.4663 26.0454 98.0152 26.424C98.5641 26.8025 98.9598 27.4159 99.1157 28.1295L101.074 37.1343C101.3 38.5319 101.044 39.5758 99.9569 40.0105Z" fill="#6D29D3"/>
</g>
<path d="M96.4884 18.036C96.4884 16.7388 96.0401 15.4947 95.242 14.5774C94.4439 13.6601 93.3615 13.1448 92.2329 13.1448C91.1042 13.1448 90.0218 13.6601 89.2237 14.5774C88.4256 15.4947 87.9773 16.7388 87.9773 18.036V21.102C87.9775 21.2761 88.0377 21.4429 88.1448 21.566C88.2519 21.689 88.397 21.7582 88.5484 21.7585H88.6529C88.7735 21.3612 88.8471 20.9471 88.8716 20.5273C89.0913 20.9057 89.2586 21.321 89.3675 21.7585H95.9159C96.0675 21.7583 96.2128 21.6891 96.3201 21.5661C96.4274 21.4431 96.4879 21.2762 96.4884 21.102C96.8325 20.2951 96.9871 19.3697 96.4884 18.036Z" fill="#2F2E41"/>
<path d="M92.0613 21.7283C93.7844 21.7283 95.1812 20.1228 95.1812 18.1423C95.1812 16.1619 93.7844 14.5564 92.0613 14.5564C90.3382 14.5564 88.9414 16.1619 88.9414 18.1423C88.9414 20.1228 90.3382 21.7283 92.0613 21.7283Z" fill="#FFB8B8"/>
<path d="M88.8559 18.1285C88.8261 18.089 88.804 18.0425 88.7912 17.9923C88.7784 17.9421 88.7751 17.8893 88.7816 17.8375L89.1511 14.8796C89.1585 14.8194 89.1787 14.7623 89.2101 14.7133C89.2415 14.6644 89.283 14.6253 89.3308 14.5994C91.2172 13.5847 93.1301 13.5834 95.0165 14.5956C95.0666 14.6228 95.1096 14.6646 95.1414 14.7167C95.1732 14.7688 95.1927 14.8295 95.198 14.8928L95.584 17.2142C95.5882 17.2648 95.5831 17.3159 95.5692 17.3642C95.5552 17.4125 95.5326 17.4568 95.5029 17.4945C95.4429 17.5704 95.3589 19.2384 95.2696 19.2384C95.3449 18.2442 95.1627 17.7685 94.5029 18.2544C94.4425 18.2543 94.3834 18.2344 94.3324 18.1971C94.2815 18.1598 94.2408 18.1067 94.2151 18.0438L93.9451 17.3788C93.9276 17.3358 93.8984 17.3004 93.862 17.2781C93.8255 17.2558 93.7836 17.2477 93.7428 17.2551C93.702 17.2625 93.6643 17.2849 93.6356 17.3191C93.6068 17.3532 93.5885 17.3971 93.5834 17.4443L93.53 17.9346C93.5204 18.0229 93.483 18.104 93.425 18.1629C93.367 18.2218 93.2923 18.2543 93.2149 18.2544C92.1124 18.8832 90.6666 18.714 89.0959 18.2544C89.0504 18.2544 89.0054 18.2432 88.964 18.2215C88.9226 18.1997 88.8857 18.1681 88.8559 18.1285V18.1285Z" fill="#2F2E41"/>
<g filter="url(#filter8_d_41_566)">
<path d="M94.549 38.0796H89.4356C89.2605 38.0794 89.0926 37.9994 88.9688 37.8571C88.845 37.7148 88.7753 37.5218 88.7751 37.3206V31.0031C88.7753 30.8019 88.845 30.6089 88.9688 30.4666C89.0926 30.3243 89.2605 30.2443 89.4356 30.244H94.549C94.7241 30.2443 94.892 30.3243 95.0158 30.4666C95.1396 30.6089 95.2093 30.8019 95.2095 31.0031V37.3206C95.2093 37.5218 95.1396 37.7148 95.0158 37.8571C94.892 37.9994 94.7241 38.0794 94.549 38.0796V38.0796Z" fill="#3F3D56"/>
</g>
<g filter="url(#filter9_d_41_566)">
<path d="M89.5795 31.6087C89.791 31.6087 89.9625 31.4116 89.9625 31.1685C89.9625 30.9254 89.791 30.7283 89.5795 30.7283C89.368 30.7283 89.1965 30.9254 89.1965 31.1685C89.1965 31.4116 89.368 31.6087 89.5795 31.6087Z" fill="#E6E6E6"/>
</g>
<g filter="url(#filter10_d_41_566)">
<path d="M89.5794 31.4326C89.7063 31.4326 89.8092 31.3143 89.8092 31.1685C89.8092 31.0226 89.7063 30.9044 89.5794 30.9044C89.4525 30.9044 89.3496 31.0226 89.3496 31.1685C89.3496 31.3143 89.4525 31.4326 89.5794 31.4326Z" fill="#3F3D56"/>
</g>
<g filter="url(#filter11_d_41_566)">
<path d="M95.4562 33.8218C95.3425 33.9669 95.2026 34.0816 95.0462 34.1578C94.8899 34.234 94.7209 34.2698 94.5511 34.2628C94.3814 34.2558 94.2151 34.2062 94.0638 34.1173C93.9126 34.0284 93.7802 33.9025 93.6759 33.7484L89.0915 35.2073L88.395 33.4461L93.9384 31.8054C94.1752 31.6211 94.4626 31.5431 94.746 31.5861C95.0295 31.6291 95.2894 31.7902 95.4765 32.0387C95.6636 32.2873 95.7649 32.6061 95.7611 32.9347C95.7574 33.2634 95.6489 33.579 95.4562 33.8218H95.4562Z" fill="#FFB8B8"/>
</g>
<g filter="url(#filter12_d_41_566)">
<path d="M89.6361 35.2526L88.3498 35.7246C86.9509 37.4234 86.4558 36.1907 84.8072 36.0631C84.497 36.0391 84.2542 35.7465 84.0856 35.1934C83.8561 34.4156 83.879 33.5686 84.1502 32.8088L86.4403 26.2118L87.3989 25.3091L88.7373 27.1526L87.7097 32.2206L89.3967 33.2088L89.6361 35.2526Z" fill="#6D29D3"/>
</g>
<rect width="0.983808" height="5.28542" rx="0.491904" transform="matrix(0.997798 0.0663267 -0.0578549 0.998325 97.9795 66.5954)" fill="#7AFF64"/>
<rect width="1.05904" height="4.89739" rx="0.529522" transform="matrix(0.0694101 -0.997588 0.996813 0.0797778 95.8433 69.6173)" fill="#7AFF64"/>
</g>
<path d="M107.892 38.8704C107.982 38.8704 108.009 38.8647 108.107 38.8647C108.186 38.8647 108.264 38.8675 108.343 38.8675C108.381 38.8675 108.419 38.876 108.458 38.876C108.498 38.876 108.538 38.8789 108.577 38.8789C108.596 38.8789 108.611 38.8874 108.629 38.8874C108.648 38.8874 108.665 38.8902 108.683 38.8902C108.689 38.8902 108.701 38.8946 108.705 38.9002C108.71 38.9071 108.723 38.9044 108.728 38.9115C108.733 38.9179 108.746 38.9125 108.751 38.92C108.756 38.9271 108.772 38.927 108.772 38.9356" stroke="black" stroke-width="0.1"/>
<path d="M5.3526 51.8082C5.33878 51.7996 5.33203 51.7792 5.31756 51.77C5.30781 51.7639 5.29908 51.7553 5.2892 51.7497C5.26883 51.7383 5.24802 51.727 5.22827 51.7132C5.21368 51.703 5.18491 51.7096 5.16874 51.7096C5.13122 51.7096 5.09604 51.6979 5.05938 51.6948C5.0271 51.692 4.99622 51.673 4.96428 51.673C4.9572 51.673 4.94007 51.6598 4.93117 51.6566C4.91711 51.6515 4.90408 51.6451 4.88978 51.641C4.83726 51.6258 4.78167 51.6139 4.72811 51.6071C4.66651 51.5992 4.60965 51.5763 4.5476 51.5673C4.52758 51.5644 4.50416 51.5612 4.48526 51.5564C4.47187 51.5529 4.45955 51.5525 4.44581 51.5525C4.43127 51.5525 4.41862 51.5452 4.40407 51.5452C4.36492 51.5452 4.32664 51.5415 4.28749 51.5415C4.26618 51.5415 4.24534 51.5379 4.22409 51.5379C4.20981 51.5379 4.19814 51.5306 4.18305 51.5306C4.16728 51.5306 4.15249 51.5233 4.13691 51.5233C4.12565 51.5233 4.11312 51.525 4.10204 51.5231C4.09 51.5209 4.07376 51.5225 4.06242 51.5178C4.05471 51.5146 4.03493 51.5168 4.03001 51.5095C4.02391 51.5004 4.09401 51.4941 4.10028 51.4941C4.11231 51.4941 4.12491 51.4831 4.13691 51.4831C4.14993 51.4831 4.16134 51.4794 4.17407 51.4794C4.18477 51.4794 4.20545 51.4791 4.21387 51.4713C4.221 51.4648 4.23777 51.4685 4.24698 51.4685C4.27342 51.4685 4.29741 51.4794 4.32394 51.4794C4.39104 51.4794 4.18896 51.4904 4.12265 51.4786C4.09574 51.4739 4.06745 51.466 4.04023 51.4648C4.01184 51.4636 3.98487 51.4508 3.95604 51.4502C3.93863 51.4499 3.92375 51.4393 3.90709 51.4393C3.89237 51.4393 3.87787 51.432 3.86429 51.432C3.84492 51.432 3.82307 51.4187 3.80248 51.4174C3.78652 51.4163 3.7706 51.4144 3.75422 51.4137C3.73854 51.4131 3.72328 51.4027 3.70738 51.4027C3.67248 51.4027 3.63337 51.3937 3.59977 51.3843C3.56569 51.3748 3.53132 51.3685 3.4971 51.3597C3.48758 51.3573 3.48147 51.3516 3.47139 51.3516C3.44977 51.3516 3.42588 51.337 3.40376 51.337C3.33925 51.337 3.27362 51.3297 3.20775 51.3297C3.18879 51.3297 3.16983 51.3297 3.15087 51.3297C3.13135 51.3297 3.11014 51.3208 3.09064 51.3169C3.0644 51.3117 3.03622 51.3095 3.01121 51.2982C2.99356 51.2903 2.97567 51.2768 2.95926 51.2668C2.9425 51.2566 2.92417 51.2548 2.90537 51.2477C2.88798 51.2412 2.87046 51.2321 2.85306 51.2276C2.8304 51.2218 2.80497 51.2128 2.78174 51.2128" stroke="black" stroke-linecap="round"/>
<defs>
<filter id="filter0_d_41_566" x="90.5469" y="64.8972" width="15.7395" height="16.8954" filterUnits="userSpaceOnUse" color-interpolation-filters="sRGB">
<feFlood flood-opacity="0" result="BackgroundImageFix"/>
<feColorMatrix in="SourceAlpha" type="matrix" values="0 0 0 0 0 0 0 0 0 0 0 0 0 0 0 0 0 0 127 0" result="hardAlpha"/>
<feOffset dy="4"/>
<feGaussianBlur stdDeviation="2"/>
<feComposite in2="hardAlpha" operator="out"/>
<feColorMatrix type="matrix" values="0 0 0 0 0 0 0 0 0 0 0 0 0 0 0 0 0 0 0.25 0"/>
<feBlend mode="normal" in2="BackgroundImageFix" result="effect1_dropShadow_41_566"/>
<feBlend mode="normal" in="SourceGraphic" in2="effect1_dropShadow_41_566" result="shape"/>
</filter>
<filter id="filter1_d_41_566" x="83.5593" y="42.7323" width="16.7759" height="13.702" filterUnits="userSpaceOnUse" color-interpolation-filters="sRGB">
<feFlood flood-opacity="0" result="BackgroundImageFix"/>
<feColorMatrix in="SourceAlpha" type="matrix" values="0 0 0 0 0 0 0 0 0 0 0 0 0 0 0 0 0 0 127 0" result="hardAlpha"/>
<feOffset dy="4"/>
<feGaussianBlur stdDeviation="2"/>
<feComposite in2="hardAlpha" operator="out"/>
<feColorMatrix type="matrix" values="0 0 0 0 0 0 0 0 0 0 0 0 0 0 0 0 0 0 0.25 0"/>
<feBlend mode="normal" in2="BackgroundImageFix" result="effect1_dropShadow_41_566"/>
<feBlend mode="normal" in="SourceGraphic" in2="effect1_dropShadow_41_566" result="shape"/>
</filter>
<filter id="filter2_d_41_566" x="80.4175" y="70.6974" width="10.4548" height="15.4889" filterUnits="userSpaceOnUse" color-interpolation-filters="sRGB">
<feFlood flood-opacity="0" result="BackgroundImageFix"/>
<feColorMatrix in="SourceAlpha" type="matrix" values="0 0 0 0 0 0 0 0 0 0 0 0 0 0 0 0 0 0 127 0" result="hardAlpha"/>
<feOffset dy="4"/>
<feGaussianBlur stdDeviation="2"/>
<feComposite in2="hardAlpha" operator="out"/>
<feColorMatrix type="matrix" values="0 0 0 0 0 0 0 0 0 0 0 0 0 0 0 0 0 0 0.25 0"/>
<feBlend mode="normal" in2="BackgroundImageFix" result="effect1_dropShadow_41_566"/>
<feBlend mode="normal" in="SourceGraphic" in2="effect1_dropShadow_41_566" result="shape"/>
</filter>
<filter id="filter3_d_41_566" x="78.0945" y="40.7655" width="17.9224" height="39.5977" filterUnits="userSpaceOnUse" color-interpolation-filters="sRGB">
<feFlood flood-opacity="0" result="BackgroundImageFix"/>
<feColorMatrix in="SourceAlpha" type="matrix" values="0 0 0 0 0 0 0 0 0 0 0 0 0 0 0 0 0 0 127 0" result="hardAlpha"/>
<feOffset dy="4"/>
<feGaussianBlur stdDeviation="2"/>
<feComposite in2="hardAlpha" operator="out"/>
<feColorMatrix type="matrix" values="0 0 0 0 0 0 0 0 0 0 0 0 0 0 0 0 0 0 0.25 0"/>
<feBlend mode="normal" in2="BackgroundImageFix" result="effect1_dropShadow_41_566"/>
<feBlend mode="normal" in="SourceGraphic" in2="effect1_dropShadow_41_566" result="shape"/>
</filter>
<filter id="filter4_d_41_566" x="77.9949" y="75.5538" width="13.4729" height="12.6152" filterUnits="userSpaceOnUse" color-interpolation-filters="sRGB">
<feFlood flood-opacity="0" result="BackgroundImageFix"/>
<feColorMatrix in="SourceAlpha" type="matrix" values="0 0 0 0 0 0 0 0 0 0 0 0 0 0 0 0 0 0 127 0" result="hardAlpha"/>
<feOffset dy="4"/>
<feGaussianBlur stdDeviation="2"/>
<feComposite in2="hardAlpha" operator="out"/>
<feColorMatrix type="matrix" values="0 0 0 0 0 0 0 0 0 0 0 0 0 0 0 0 0 0 0.25 0"/>
<feBlend mode="normal" in2="BackgroundImageFix" result="effect1_dropShadow_41_566"/>
<feBlend mode="normal" in="SourceGraphic" in2="effect1_dropShadow_41_566" result="shape"/>
</filter>
<filter id="filter5_d_41_566" x="85.729" y="39.6607" width="21.365" height="26.6068" filterUnits="userSpaceOnUse" color-interpolation-filters="sRGB">
<feFlood flood-opacity="0" result="BackgroundImageFix"/>
<feColorMatrix in="SourceAlpha" type="matrix" values="0 0 0 0 0 0 0 0 0 0 0 0 0 0 0 0 0 0 127 0" result="hardAlpha"/>
<feOffset dy="4"/>
<feGaussianBlur stdDeviation="2"/>
<feComposite in2="hardAlpha" operator="out"/>
<feColorMatrix type="matrix" values="0 0 0 0 0 0 0 0 0 0 0 0 0 0 0 0 0 0 0.25 0"/>
<feBlend mode="normal" in2="BackgroundImageFix" result="effect1_dropShadow_41_566"/>
<feBlend mode="normal" in="SourceGraphic" in2="effect1_dropShadow_41_566" result="shape"/>
</filter>
<filter id="filter6_d_41_566" x="92.4429" y="37.769" width="11.3748" height="18.5603" filterUnits="userSpaceOnUse" color-interpolation-filters="sRGB">
<feFlood flood-opacity="0" result="BackgroundImageFix"/>
<feColorMatrix in="SourceAlpha" type="matrix" values="0 0 0 0 0 0 0 0 0 0 0 0 0 0 0 0 0 0 127 0" result="hardAlpha"/>
<feOffset dy="4"/>
<feGaussianBlur stdDeviation="2"/>
<feComposite in2="hardAlpha" operator="out"/>
<feColorMatrix type="matrix" values="0 0 0 0 0 0 0 0 0 0 0 0 0 0 0 0 0 0 0.25 0"/>
<feBlend mode="normal" in2="BackgroundImageFix" result="effect1_dropShadow_41_566"/>
<feBlend mode="normal" in="SourceGraphic" in2="effect1_dropShadow_41_566" result="shape"/>
</filter>
<filter id="filter7_d_41_566" x="90.3591" y="26.028" width="14.7903" height="21.9825" filterUnits="userSpaceOnUse" color-interpolation-filters="sRGB">
<feFlood flood-opacity="0" result="BackgroundImageFix"/>
<feColorMatrix in="SourceAlpha" type="matrix" values="0 0 0 0 0 0 0 0 0 0 0 0 0 0 0 0 0 0 127 0" result="hardAlpha"/>
<feOffset dy="4"/>
<feGaussianBlur stdDeviation="2"/>
<feComposite in2="hardAlpha" operator="out"/>
<feColorMatrix type="matrix" values="0 0 0 0 0 0 0 0 0 0 0 0 0 0 0 0 0 0 0.25 0"/>
<feBlend mode="normal" in2="BackgroundImageFix" result="effect1_dropShadow_41_566"/>
<feBlend mode="normal" in="SourceGraphic" in2="effect1_dropShadow_41_566" result="shape"/>
</filter>
<filter id="filter8_d_41_566" x="84.7751" y="30.244" width="14.4343" height="15.8356" filterUnits="userSpaceOnUse" color-interpolation-filters="sRGB">
<feFlood flood-opacity="0" result="BackgroundImageFix"/>
<feColorMatrix in="SourceAlpha" type="matrix" values="0 0 0 0 0 0 0 0 0 0 0 0 0 0 0 0 0 0 127 0" result="hardAlpha"/>
<feOffset dy="4"/>
<feGaussianBlur stdDeviation="2"/>
<feComposite in2="hardAlpha" operator="out"/>
<feColorMatrix type="matrix" values="0 0 0 0 0 0 0 0 0 0 0 0 0 0 0 0 0 0 0.25 0"/>
<feBlend mode="normal" in2="BackgroundImageFix" result="effect1_dropShadow_41_566"/>
<feBlend mode="normal" in="SourceGraphic" in2="effect1_dropShadow_41_566" result="shape"/>
</filter>
<filter id="filter9_d_41_566" x="85.1965" y="30.7283" width="8.76587" height="8.8804" filterUnits="userSpaceOnUse" color-interpolation-filters="sRGB">
<feFlood flood-opacity="0" result="BackgroundImageFix"/>
<feColorMatrix in="SourceAlpha" type="matrix" values="0 0 0 0 0 0 0 0 0 0 0 0 0 0 0 0 0 0 127 0" result="hardAlpha"/>
<feOffset dy="4"/>
<feGaussianBlur stdDeviation="2"/>
<feComposite in2="hardAlpha" operator="out"/>
<feColorMatrix type="matrix" values="0 0 0 0 0 0 0 0 0 0 0 0 0 0 0 0 0 0 0.25 0"/>
<feBlend mode="normal" in2="BackgroundImageFix" result="effect1_dropShadow_41_566"/>
<feBlend mode="normal" in="SourceGraphic" in2="effect1_dropShadow_41_566" result="shape"/>
</filter>
<filter id="filter10_d_41_566" x="85.3496" y="30.9044" width="8.45947" height="8.52824" filterUnits="userSpaceOnUse" color-interpolation-filters="sRGB">
<feFlood flood-opacity="0" result="BackgroundImageFix"/>
<feColorMatrix in="SourceAlpha" type="matrix" values="0 0 0 0 0 0 0 0 0 0 0 0 0 0 0 0 0 0 127 0" result="hardAlpha"/>
<feOffset dy="4"/>
<feGaussianBlur stdDeviation="2"/>
<feComposite in2="hardAlpha" operator="out"/>
<feColorMatrix type="matrix" values="0 0 0 0 0 0 0 0 0 0 0 0 0 0 0 0 0 0 0.25 0"/>
<feBlend mode="normal" in2="BackgroundImageFix" result="effect1_dropShadow_41_566"/>
<feBlend mode="normal" in="SourceGraphic" in2="effect1_dropShadow_41_566" result="shape"/>
</filter>
<filter id="filter11_d_41_566" x="84.395" y="31.5746" width="15.3662" height="11.6327" filterUnits="userSpaceOnUse" color-interpolation-filters="sRGB">
<feFlood flood-opacity="0" result="BackgroundImageFix"/>
<feColorMatrix in="SourceAlpha" type="matrix" values="0 0 0 0 0 0 0 0 0 0 0 0 0 0 0 0 0 0 127 0" result="hardAlpha"/>
<feOffset dy="4"/>
<feGaussianBlur stdDeviation="2"/>
<feComposite in2="hardAlpha" operator="out"/>
<feColorMatrix type="matrix" values="0 0 0 0 0 0 0 0 0 0 0 0 0 0 0 0 0 0 0.25 0"/>
<feBlend mode="normal" in2="BackgroundImageFix" result="effect1_dropShadow_41_566"/>
<feBlend mode="normal" in="SourceGraphic" in2="effect1_dropShadow_41_566" result="shape"/>
</filter>
<filter id="filter12_d_41_566" x="79.9287" y="25.3091" width="13.7075" height="19.3052" filterUnits="userSpaceOnUse" color-interpolation-filters="sRGB">
<feFlood flood-opacity="0" result="BackgroundImageFix"/>
<feColorMatrix in="SourceAlpha" type="matrix" values="0 0 0 0 0 0 0 0 0 0 0 0 0 0 0 0 0 0 127 0" result="hardAlpha"/>
<feOffset dy="4"/>
<feGaussianBlur stdDeviation="2"/>
<feComposite in2="hardAlpha" operator="out"/>
<feColorMatrix type="matrix" values="0 0 0 0 0 0 0 0 0 0 0 0 0 0 0 0 0 0 0.25 0"/>
<feBlend mode="normal" in2="BackgroundImageFix" result="effect1_dropShadow_41_566"/>
<feBlend mode="normal" in="SourceGraphic" in2="effect1_dropShadow_41_566" result="shape"/>
</filter>
<clipPath id="clip0_41_566">
<rect width="98.7952" height="72.6496" fill="white" transform="translate(4.95166 12.3504)"/>
</clipPath>
</defs>
</svg>
