<svg width="121" height="64" viewBox="0 0 121 64" fill="none" xmlns="http://www.w3.org/2000/svg">
<path d="M79.4602 29.3141C79.4256 29.3068 79.3913 29.2927 79.3557 29.2927C79.3394 29.2927 79.3236 29.2906 79.3073 29.2906C79.2959 29.2906 79.2671 29.2857 79.258 29.2959C79.2573 29.2968 79.2695 29.298 79.2705 29.2981C79.2863 29.2999 79.3023 29.2995 79.3182 29.3008C79.3205 29.301 79.3571 29.3058 79.3564 29.3089C79.3543 29.3171 79.317 29.3217 79.3105 29.3225C79.308 29.3228 79.2801 29.3286 79.2809 29.3295C79.2839 29.3329 79.2909 29.3312 79.295 29.3312C79.2972 29.3312 79.3131 29.3312 79.3087 29.3312C79.2983 29.3312 79.288 29.3312 79.2776 29.3312C79.2738 29.3312 79.2687 29.3323 79.2654 29.3301C79.262 29.328 79.2724 29.328 79.2757 29.3269" stroke="black" stroke-width="0.1"/>
<path d="M88.9235 3.82906C89.0176 3.83975 89.1056 3.88309 89.1733 3.95208L106.823 22.3316C106.874 22.385 106.91 22.4509 106.928 22.523L108.609 28.6493C108.655 28.8044 108.615 28.9729 108.505 29.0876C108.395 29.2021 108.233 29.2439 108.084 29.1963L102.201 27.446C102.131 27.4265 102.068 27.3886 102.017 27.3364L84.3667 8.95696C84.2849 8.87454 84.2386 8.76099 84.2386 8.64256C84.2386 8.52382 84.2849 8.41056 84.3667 8.32785L88.5691 3.95178C88.6624 3.85532 88.7934 3.81014 88.9235 3.82906ZM88.8711 4.89588L85.2728 8.64282L87.4005 10.858L90.9987 7.11111L88.8711 4.89588ZM91.6028 7.74017L88.0043 11.4871L102.109 26.1743L105.707 22.4274L91.6028 7.74017ZM106.219 23.1525L102.804 26.7081L105.457 27.5011L106.981 25.9147L106.219 23.1525ZM107.243 26.8995L106.403 27.7746L107.585 28.1302L107.243 26.8995ZM90.9723 27.4602C94.3108 27.4602 96.6151 29.7658 99.0229 31.9455C101.43 34.1253 103.937 36.2123 107.782 36.2123C108.763 36.2123 109.739 35.9526 110.435 35.4465C111.13 34.9404 111.564 34.2234 111.564 33.1489C111.564 31.6263 109.686 30.4688 109.686 30.4688C109.574 30.4233 109.486 30.3302 109.444 30.2127C109.402 30.0948 109.411 29.9645 109.468 29.854C109.524 29.7435 109.624 29.6635 109.741 29.6348C109.858 29.6058 109.982 29.6306 110.08 29.7029C110.08 29.7029 112.405 30.9419 112.405 33.1489C112.405 34.4877 111.788 35.5164 110.908 36.1574C110.027 36.7985 108.902 37.0875 107.782 37.0875C103.642 37.0875 100.897 34.7981 98.4715 32.6019C96.0461 30.4056 93.9378 28.3354 90.9727 28.3354C88.9126 28.368 87.4231 29.1932 86.1401 30.0448C84.8567 30.8964 83.8114 31.8363 82.5679 31.8363C81.7878 31.8363 81.1134 31.2308 80.518 30.6282C80.277 30.0812 79.0722 30.0855 78.8312 30.0855C78.6254 29.8532 78.958 29.5322 79.0722 29.5342C79.3131 29.5385 79.0722 29.265 79.5541 29.2607C79.6642 29.2604 79.0722 29.265 79.7951 29.265C79.9141 29.265 80.7589 29.5342 81.1758 30.2087C81.7146 30.7539 82.035 30.9609 82.5679 30.9609C83.3571 30.9609 84.3522 30.188 85.6805 29.3064C87.0088 28.4248 88.7011 27.4959 90.9723 27.4602Z" fill="black"/>
<path d="M79.2747 29.6465C78.3932 29.6441 77.5414 30.0072 76.8798 30.6675C76.4714 31.1564 76.1897 31.7633 76.0655 32.4217C75.4093 34.9308 72.8995 36.6198 71.9894 37.228C68.3396 39.6611 64.2252 38.3685 63.2672 38.059C61.3513 37.4561 60.0101 36.3645 57.3183 34.1759C52.2363 30.0538 52.4087 28.7016 49.8175 27.6154C46.7548 26.3997 43.3973 26.565 40.439 28.077C39.1889 28.745 38.8393 29.2881 36.7605 30.3906C35.1287 31.23 33.4365 31.9096 31.7025 32.4217C30.62 32.7258 27.0851 33.8935 20.2884 33.4156C13.6689 32.9431 13.6689 32.9431 9.20002 30.9174C7.07814 29.9561 3.52891 26.35 1.86206 21.3264C1.43577 20.0393 0.755618 15.7652 2.43683 11.3228C3.53419 8.33254 5.56522 5.90592 8.14148 4.50702C13.2761 1.49832 18.3294 2.82345 20.0441 3.30137C23.3601 4.13603 26.3698 6.10581 28.6657 8.94404C29.9063 10.5152 30.8805 12.3324 31.5396 14.3043C32.4298 17.0506 32.7095 20.0034 32.3539 22.9014C31.9109 26.5158 30.519 29.8955 28.3592 32.6009C25.2889 36.4025 21.6535 37.4507 17.927 38.5151C13.6093 39.7461 9.1189 39.9917 4.71678 39.2375C4.10615 39.1193 3.49069 39.0359 2.87271 38.9876C2.63801 38.9876 2.39373 38.9496 2.1734 38.9442" stroke="black" stroke-width="1.5" stroke-miterlimit="10"/>
<g clip-path="url(#clip0_41_566)">
<path d="M72.3184 46.0381H72.1145V46.7614H72.3184V46.0381Z" fill="#2F2E41"/>
<path d="M72.3184 44.4548H72.1145V42.8715H72.3184V44.4548ZM72.3184 41.2882H72.1145V39.7049H72.3184V41.2882Z" fill="#2F2E41"/>
<path d="M72.3182 38.1215H72.1144V37.5188H71.6047V37.2777H72.3182V38.1215Z" fill="#2F2E41"/>
<g filter="url(#filter0_d_41_566)">
<path d="M72.2805 55.5615C73.8443 55.5615 75.112 54.0622 75.112 52.2127C75.112 50.3631 73.8443 48.8638 72.2805 48.8638C70.7167 48.8638 69.449 50.3631 69.449 52.2127C69.449 54.0622 70.7167 55.5615 72.2805 55.5615Z" fill="#6D29D3"/>
</g>
<g filter="url(#filter1_d_41_566)">
<path d="M64.3359 32.1749L64.9475 36.4682L70.7573 32.7777L64.3359 32.1749Z" fill="#2F2E41"/>
</g>
<g filter="url(#filter2_d_41_566)">
<path d="M63.6418 58.8697L62.4247 58.811L62.0371 53.231L63.8333 53.3176L63.6418 58.8697Z" fill="#FFB6B6"/>
</g>
<g filter="url(#filter3_d_41_566)">
<path d="M63.7245 42.9038C65.9322 42.1077 66.3853 38.7042 67.5977 37.9613C67.5946 36.1637 67.6557 30.5894 66.1386 30.6956C65.2936 30.7547 60.5861 40.946 60.3843 42.6344C60.0099 45.767 62.0088 53.7622 61.7769 54.3115L64.0981 54.4852L64.1117 54.2692C64.1485 53.683 64.5185 51.9157 64.0964 51.6055L63.9365 51.4879C63.9379 50.8785 64.0504 49.8403 63.5856 49.5771C63.5797 49.5738 63.5744 49.569 63.5702 49.5631C63.5659 49.5572 63.5628 49.5503 63.5609 49.5429C63.5591 49.5354 63.5586 49.5276 63.5594 49.5199C63.5603 49.5123 63.5625 49.5049 63.5659 49.4983L63.7245 42.9038Z" fill="#2F2E41"/>
</g>
<g filter="url(#filter4_d_41_566)">
<path d="M64.269 60.1182L63.4551 60.175L63.2645 59.2763L62.9377 60.211L60.7791 60.3616C60.6756 60.3688 60.5729 60.3367 60.486 60.27C60.399 60.2033 60.3324 60.1054 60.2957 59.9907C60.2591 59.8761 60.2545 59.7505 60.2824 59.6325C60.3104 59.5145 60.3696 59.4101 60.4512 59.3346L62.1049 57.8063L62.0591 56.8876L63.8786 56.8891L64.269 60.1182Z" fill="#2F2E41"/>
</g>
<path d="M72.9185 48.8129L74.1326 48.9293L75.0897 43.4462L73.2978 43.2744L72.9185 48.8129Z" fill="#FFB6B6"/>
<g filter="url(#filter5_d_41_566)">
<path d="M72.4425 34.917C71.3537 37.1802 69.4057 37.7205 67.3858 38.1165C66.5075 36.6494 65.1688 34.6041 66.4573 33.6507C67.1748 33.1198 73.3948 28.8246 74.355 30.0966C76.862 33.4176 75.0735 44.1044 75.2276 43.8682L73.2418 43.8341L73.1249 43.6673C72.9693 43.4453 72.868 43.1771 72.8321 42.8919C72.7962 42.6067 72.8271 42.3152 72.9213 42.0493L72.994 41.8438C72.8471 41.601 72.7615 41.3138 72.747 41.0157C72.7325 40.7176 72.7898 40.4208 72.9122 40.1596L72.9374 40.1059L72.4425 34.917Z" fill="#2F2E41"/>
</g>
<path d="M72.8867 46.8131L74.6929 47.0726L74.5532 47.978L76.0379 49.7322C76.1112 49.8189 76.1592 49.9309 76.1749 50.0521C76.1905 50.1733 76.173 50.2972 76.1249 50.4058C76.0768 50.5144 76.0006 50.602 75.9075 50.6557C75.8143 50.7094 75.7091 50.7265 75.6071 50.7045L73.4799 50.2454L73.2514 49.2707L72.97 50.1354L72.168 49.9623L72.8867 46.8131Z" fill="#2F2E41"/>
<path d="M68.1671 16.8651H67.3338C67.1636 16.8651 66.996 16.9139 66.8452 17.0073C66.6945 17.1007 66.5651 17.2359 66.4682 17.4014L65.8648 18.4322L64.3615 18.7556C63.8393 19.137 63.4458 19.7219 63.249 20.4095C63.0521 21.0971 63.0641 21.8443 63.283 22.5226C64.3468 25.8133 64.8603 31.9813 63.8263 34.7064C63.8263 34.7064 70.0991 35.3785 71.6746 33.1393C73.2501 30.9001 71.9804 19.9994 71.9804 19.9994L69.6361 18.4322L69.0328 17.4015C68.9359 17.236 68.8065 17.1007 68.6558 17.0073C68.505 16.9139 68.3373 16.8651 68.1671 16.8651V16.8651Z" fill="#6D29D3"/>
<g filter="url(#filter6_d_41_566)">
<path d="M72.0547 36.1256C72.1253 36.0378 72.1786 35.9327 72.2111 35.8178C72.2436 35.7029 72.2544 35.581 72.2427 35.4606C72.231 35.3402 72.1971 35.2244 72.1435 35.1211C72.0899 35.0179 72.0178 34.9299 71.9322 34.8632L73.3055 29.5228L71.7766 28.4378L70.9281 35.1443C70.8429 35.3217 70.8157 35.5298 70.8516 35.7293C70.8875 35.9289 70.984 36.1059 71.1229 36.2268C71.2618 36.3478 71.4333 36.4043 71.6051 36.3857C71.7768 36.367 71.9368 36.2745 72.0547 36.1256H72.0547Z" fill="#FFB6B6"/>
</g>
<g filter="url(#filter7_d_41_566)">
<path d="M73.4075 30.1255L71.5728 29.2817L71.6511 28.1983L69.4712 22.5546C69.3635 22.2756 69.309 21.972 69.3116 21.6653C69.3142 21.3587 69.3739 21.0564 69.4864 20.7801C69.5989 20.5037 69.7614 20.2601 69.9625 20.0664C70.1635 19.8727 70.3982 19.7338 70.6498 19.6594V19.6594C71.1043 19.5257 71.5851 19.6106 71.9867 19.8957C72.3883 20.1807 72.6779 20.6426 72.7919 21.1799L74.2246 27.9599C74.3904 29.0123 74.203 29.7982 73.4075 30.1255Z" fill="#6D29D3"/>
</g>
<path d="M70.8695 13.5801C70.8695 12.6033 70.5415 11.6666 69.9575 10.976C69.3735 10.2853 68.5815 9.89729 67.7557 9.89729C66.9298 9.89729 66.1378 10.2853 65.5539 10.976C64.9699 11.6666 64.6418 12.6033 64.6418 13.5801V15.8886C64.642 16.0196 64.6861 16.1453 64.7644 16.2379C64.8428 16.3306 64.949 16.3827 65.0597 16.3829H65.1362C65.2244 16.0837 65.2783 15.7719 65.2962 15.4558C65.457 15.7408 65.5794 16.0535 65.6591 16.3829H70.4506C70.5615 16.3827 70.6678 16.3307 70.7463 16.238C70.8248 16.1454 70.8691 16.0198 70.8695 15.8886C71.1213 15.281 71.2344 14.5843 70.8695 13.5801Z" fill="#2F2E41"/>
<path d="M67.63 16.3601C68.8908 16.3601 69.9129 15.1513 69.9129 13.6601C69.9129 12.169 68.8908 10.9601 67.63 10.9601C66.3692 10.9601 65.3472 12.169 65.3472 13.6601C65.3472 15.1513 66.3692 16.3601 67.63 16.3601Z" fill="#FFB8B8"/>
<path d="M65.2845 13.6497C65.2627 13.6199 65.2466 13.585 65.2372 13.5472C65.2278 13.5094 65.2254 13.4696 65.2302 13.4306L65.5006 11.2035C65.5059 11.1581 65.5208 11.1151 65.5437 11.0783C65.5667 11.0415 65.597 11.012 65.632 10.9925C67.0123 10.2285 68.412 10.2275 69.7923 10.9896C69.829 11.0101 69.8604 11.0416 69.8837 11.0808C69.907 11.12 69.9213 11.1657 69.9251 11.2135L70.2076 12.9613C70.2106 12.9994 70.2069 13.0379 70.1967 13.0742C70.1865 13.1106 70.17 13.144 70.1482 13.1724C70.1043 13.2295 70.0429 14.4854 69.9775 14.4854C70.0326 13.7368 69.8993 13.3787 69.4165 13.7445C69.3723 13.7444 69.3291 13.7294 69.2918 13.7014C69.2545 13.6733 69.2247 13.6333 69.2059 13.586L69.0084 13.0853C68.9956 13.0528 68.9742 13.0262 68.9475 13.0094C68.9208 12.9926 68.8902 12.9865 68.8603 12.9921C68.8305 12.9976 68.8029 13.0145 68.7819 13.0402C68.7608 13.0659 68.7474 13.099 68.7437 13.1345L68.7047 13.5037C68.6976 13.5702 68.6702 13.6313 68.6278 13.6756C68.5854 13.7199 68.5307 13.7444 68.4741 13.7445C67.6674 14.2179 66.6095 14.0905 65.4601 13.7445C65.4268 13.7445 65.3939 13.7361 65.3636 13.7197C65.3333 13.7034 65.3064 13.6795 65.2845 13.6497V13.6497Z" fill="#2F2E41"/>
<g filter="url(#filter8_d_41_566)">
<path d="M69.4504 28.6717H65.7088C65.5807 28.6716 65.4579 28.6113 65.3673 28.5042C65.2767 28.397 65.2257 28.2517 65.2256 28.1002V23.3436C65.2257 23.192 65.2767 23.0467 65.3673 22.9396C65.4579 22.8324 65.5807 22.7722 65.7088 22.772H69.4504C69.5785 22.7722 69.7013 22.8324 69.7919 22.9396C69.8825 23.0467 69.9335 23.192 69.9336 23.3436V28.1002C69.9335 28.2517 69.8825 28.397 69.7919 28.5042C69.7013 28.6113 69.5785 28.6716 69.4504 28.6717V28.6717Z" fill="#3F3D56"/>
</g>
<g filter="url(#filter9_d_41_566)">
<path d="M65.8142 23.7995C65.9689 23.7995 66.0944 23.6511 66.0944 23.468C66.0944 23.285 65.9689 23.1366 65.8142 23.1366C65.6594 23.1366 65.5339 23.285 65.5339 23.468C65.5339 23.6511 65.6594 23.7995 65.8142 23.7995Z" fill="#E6E6E6"/>
</g>
<g filter="url(#filter10_d_41_566)">
<path d="M65.8141 23.6669C65.907 23.6669 65.9823 23.5779 65.9823 23.468C65.9823 23.3582 65.907 23.2692 65.8141 23.2692C65.7213 23.2692 65.646 23.3582 65.646 23.468C65.646 23.5779 65.7213 23.6669 65.8141 23.6669Z" fill="#3F3D56"/>
</g>
<g filter="url(#filter11_d_41_566)">
<path d="M70.1142 25.4659C70.0311 25.5751 69.9287 25.6614 69.8143 25.7188C69.6998 25.7762 69.5762 25.8032 69.452 25.7979C69.3278 25.7927 69.2061 25.7552 69.0954 25.6883C68.9848 25.6214 68.8879 25.5266 68.8116 25.4106L65.4571 26.509L64.9475 25.183L69.0036 23.9476C69.1769 23.8089 69.3872 23.7501 69.5946 23.7825C69.802 23.8149 69.9922 23.9362 70.1291 24.1233C70.266 24.3105 70.3401 24.5505 70.3374 24.7979C70.3346 25.0454 70.2552 25.283 70.1142 25.4659H70.1142Z" fill="#FFB8B8"/>
</g>
<g filter="url(#filter12_d_41_566)">
<path d="M65.8556 26.5432L64.9144 26.8985C63.8908 28.1776 63.5286 27.2495 62.3222 27.1534C62.0952 27.1354 61.9176 26.915 61.7943 26.4985C61.6263 25.9129 61.6431 25.2752 61.8415 24.7031L63.5172 19.736L64.2186 19.0563L65.1979 20.4443L64.446 24.2602L65.6804 25.0043L65.8556 26.5432Z" fill="#6D29D3"/>
</g>
<rect width="0.719949" height="3.97924" rx="0.359975" transform="matrix(0.997669 0.068243 -0.0562283 0.998418 71.9604 50.1425)" fill="#7AFF64"/>
<rect width="0.79729" height="3.58413" rx="0.398645" transform="matrix(0.0674619 -0.997722 0.996626 0.0820773 70.3975 52.4177)" fill="#7AFF64"/>
</g>
<path d="M79.2134 29.267C79.2797 29.267 79.2991 29.2628 79.3706 29.2628C79.4283 29.2628 79.486 29.2649 79.5432 29.2649C79.5713 29.2649 79.5991 29.2712 79.6275 29.2712C79.6567 29.2712 79.6865 29.2732 79.7151 29.2732C79.7285 29.2732 79.7394 29.2795 79.7527 29.2795C79.7664 29.2795 79.7793 29.2816 79.7923 29.2816C79.7964 29.2816 79.8053 29.2848 79.8083 29.2889C79.812 29.294 79.8214 29.292 79.8252 29.2972C79.8286 29.3019 79.8381 29.298 79.8421 29.3035C79.8459 29.3087 79.8572 29.3086 79.8572 29.315" stroke="black" stroke-width="0.1"/>
<path d="M4.18483 39.0085C4.17471 39.0021 4.16978 38.9867 4.15919 38.9798C4.15206 38.9751 4.14567 38.9687 4.13844 38.9645C4.12353 38.9559 4.10831 38.9474 4.09386 38.937C4.08318 38.9293 4.06213 38.9343 4.0503 38.9343C4.02284 38.9343 3.9971 38.9255 3.97028 38.9231C3.94666 38.921 3.92406 38.9068 3.90069 38.9068C3.89551 38.9068 3.88298 38.8968 3.87647 38.8944C3.86618 38.8906 3.85665 38.8857 3.84618 38.8826C3.80775 38.8712 3.76707 38.8623 3.72789 38.8571C3.68281 38.8512 3.64121 38.8339 3.59581 38.8272C3.58115 38.825 3.56402 38.8226 3.55019 38.8189C3.54039 38.8163 3.53137 38.816 3.52132 38.816C3.51068 38.816 3.50143 38.8105 3.49078 38.8105C3.46213 38.8105 3.43413 38.8078 3.40548 38.8078C3.38989 38.8078 3.37464 38.805 3.35909 38.805C3.34864 38.805 3.3401 38.7995 3.32906 38.7995C3.31752 38.7995 3.3067 38.794 3.2953 38.794C3.28706 38.794 3.27789 38.7953 3.26979 38.7938C3.26098 38.7922 3.24909 38.7934 3.24079 38.7899C3.23515 38.7875 3.22068 38.7891 3.21708 38.7836C3.21262 38.7768 3.26391 38.772 3.2685 38.772C3.2773 38.772 3.28652 38.7637 3.2953 38.7637C3.30482 38.7637 3.31317 38.761 3.32249 38.761C3.33032 38.761 3.34545 38.7607 3.35161 38.7549C3.35683 38.7499 3.3691 38.7527 3.37584 38.7527C3.39518 38.7527 3.41274 38.761 3.43215 38.761C3.48125 38.761 3.33339 38.7692 3.28486 38.7604C3.26518 38.7568 3.24447 38.7509 3.22456 38.75C3.20378 38.7491 3.18405 38.7395 3.16296 38.739C3.15022 38.7387 3.13933 38.7307 3.12714 38.7307C3.11637 38.7307 3.10576 38.7252 3.09582 38.7252C3.08165 38.7252 3.06566 38.7152 3.05059 38.7142C3.03892 38.7135 3.02727 38.712 3.01528 38.7115C3.00381 38.711 2.99264 38.7032 2.98101 38.7032C2.95547 38.7032 2.92686 38.6964 2.90227 38.6893C2.87733 38.6822 2.85218 38.6774 2.82715 38.6708C2.82018 38.669 2.81571 38.6647 2.80833 38.6647C2.79252 38.6647 2.77504 38.6537 2.75885 38.6537C2.71165 38.6537 2.66362 38.6482 2.61543 38.6482C2.60155 38.6482 2.58768 38.6482 2.5738 38.6482C2.55952 38.6482 2.54401 38.6415 2.52973 38.6386C2.51054 38.6347 2.48992 38.633 2.47162 38.6246C2.4587 38.6186 2.44562 38.6084 2.4336 38.6009C2.42134 38.5932 2.40793 38.5918 2.39417 38.5865C2.38145 38.5816 2.36863 38.5747 2.3559 38.5714C2.33932 38.567 2.32071 38.5602 2.30371 38.5602" stroke="black" stroke-linecap="round"/>
<defs>
<filter id="filter0_d_41_566" x="65.449" y="48.8638" width="13.6631" height="14.6977" filterUnits="userSpaceOnUse" color-interpolation-filters="sRGB">
<feFlood flood-opacity="0" result="BackgroundImageFix"/>
<feColorMatrix in="SourceAlpha" type="matrix" values="0 0 0 0 0 0 0 0 0 0 0 0 0 0 0 0 0 0 127 0" result="hardAlpha"/>
<feOffset dy="4"/>
<feGaussianBlur stdDeviation="2"/>
<feComposite in2="hardAlpha" operator="out"/>
<feColorMatrix type="matrix" values="0 0 0 0 0 0 0 0 0 0 0 0 0 0 0 0 0 0 0.25 0"/>
<feBlend mode="normal" in2="BackgroundImageFix" result="effect1_dropShadow_41_566"/>
<feBlend mode="normal" in="SourceGraphic" in2="effect1_dropShadow_41_566" result="shape"/>
</filter>
<filter id="filter1_d_41_566" x="60.3359" y="32.1749" width="14.4214" height="12.2933" filterUnits="userSpaceOnUse" color-interpolation-filters="sRGB">
<feFlood flood-opacity="0" result="BackgroundImageFix"/>
<feColorMatrix in="SourceAlpha" type="matrix" values="0 0 0 0 0 0 0 0 0 0 0 0 0 0 0 0 0 0 127 0" result="hardAlpha"/>
<feOffset dy="4"/>
<feGaussianBlur stdDeviation="2"/>
<feComposite in2="hardAlpha" operator="out"/>
<feColorMatrix type="matrix" values="0 0 0 0 0 0 0 0 0 0 0 0 0 0 0 0 0 0 0.25 0"/>
<feBlend mode="normal" in2="BackgroundImageFix" result="effect1_dropShadow_41_566"/>
<feBlend mode="normal" in="SourceGraphic" in2="effect1_dropShadow_41_566" result="shape"/>
</filter>
<filter id="filter2_d_41_566" x="58.0371" y="53.231" width="9.79614" height="13.6387" filterUnits="userSpaceOnUse" color-interpolation-filters="sRGB">
<feFlood flood-opacity="0" result="BackgroundImageFix"/>
<feColorMatrix in="SourceAlpha" type="matrix" values="0 0 0 0 0 0 0 0 0 0 0 0 0 0 0 0 0 0 127 0" result="hardAlpha"/>
<feOffset dy="4"/>
<feGaussianBlur stdDeviation="2"/>
<feComposite in2="hardAlpha" operator="out"/>
<feColorMatrix type="matrix" values="0 0 0 0 0 0 0 0 0 0 0 0 0 0 0 0 0 0 0.25 0"/>
<feBlend mode="normal" in2="BackgroundImageFix" result="effect1_dropShadow_41_566"/>
<feBlend mode="normal" in="SourceGraphic" in2="effect1_dropShadow_41_566" result="shape"/>
</filter>
<filter id="filter3_d_41_566" x="56.3374" y="30.6941" width="15.2603" height="31.7912" filterUnits="userSpaceOnUse" color-interpolation-filters="sRGB">
<feFlood flood-opacity="0" result="BackgroundImageFix"/>
<feColorMatrix in="SourceAlpha" type="matrix" values="0 0 0 0 0 0 0 0 0 0 0 0 0 0 0 0 0 0 127 0" result="hardAlpha"/>
<feOffset dy="4"/>
<feGaussianBlur stdDeviation="2"/>
<feComposite in2="hardAlpha" operator="out"/>
<feColorMatrix type="matrix" values="0 0 0 0 0 0 0 0 0 0 0 0 0 0 0 0 0 0 0.25 0"/>
<feBlend mode="normal" in2="BackgroundImageFix" result="effect1_dropShadow_41_566"/>
<feBlend mode="normal" in="SourceGraphic" in2="effect1_dropShadow_41_566" result="shape"/>
</filter>
<filter id="filter4_d_41_566" x="56.2644" y="56.8876" width="12.0046" height="11.475" filterUnits="userSpaceOnUse" color-interpolation-filters="sRGB">
<feFlood flood-opacity="0" result="BackgroundImageFix"/>
<feColorMatrix in="SourceAlpha" type="matrix" values="0 0 0 0 0 0 0 0 0 0 0 0 0 0 0 0 0 0 127 0" result="hardAlpha"/>
<feOffset dy="4"/>
<feGaussianBlur stdDeviation="2"/>
<feComposite in2="hardAlpha" operator="out"/>
<feColorMatrix type="matrix" values="0 0 0 0 0 0 0 0 0 0 0 0 0 0 0 0 0 0 0.25 0"/>
<feBlend mode="normal" in2="BackgroundImageFix" result="effect1_dropShadow_41_566"/>
<feBlend mode="normal" in="SourceGraphic" in2="effect1_dropShadow_41_566" result="shape"/>
</filter>
<filter id="filter5_d_41_566" x="61.9236" y="29.8622" width="17.7793" height="22.0098" filterUnits="userSpaceOnUse" color-interpolation-filters="sRGB">
<feFlood flood-opacity="0" result="BackgroundImageFix"/>
<feColorMatrix in="SourceAlpha" type="matrix" values="0 0 0 0 0 0 0 0 0 0 0 0 0 0 0 0 0 0 127 0" result="hardAlpha"/>
<feOffset dy="4"/>
<feGaussianBlur stdDeviation="2"/>
<feComposite in2="hardAlpha" operator="out"/>
<feColorMatrix type="matrix" values="0 0 0 0 0 0 0 0 0 0 0 0 0 0 0 0 0 0 0.25 0"/>
<feBlend mode="normal" in2="BackgroundImageFix" result="effect1_dropShadow_41_566"/>
<feBlend mode="normal" in="SourceGraphic" in2="effect1_dropShadow_41_566" result="shape"/>
</filter>
<filter id="filter6_d_41_566" x="66.8362" y="28.4378" width="10.4692" height="15.9513" filterUnits="userSpaceOnUse" color-interpolation-filters="sRGB">
<feFlood flood-opacity="0" result="BackgroundImageFix"/>
<feColorMatrix in="SourceAlpha" type="matrix" values="0 0 0 0 0 0 0 0 0 0 0 0 0 0 0 0 0 0 127 0" result="hardAlpha"/>
<feOffset dy="4"/>
<feGaussianBlur stdDeviation="2"/>
<feComposite in2="hardAlpha" operator="out"/>
<feColorMatrix type="matrix" values="0 0 0 0 0 0 0 0 0 0 0 0 0 0 0 0 0 0 0.25 0"/>
<feBlend mode="normal" in2="BackgroundImageFix" result="effect1_dropShadow_41_566"/>
<feBlend mode="normal" in="SourceGraphic" in2="effect1_dropShadow_41_566" result="shape"/>
</filter>
<filter id="filter7_d_41_566" x="65.3115" y="19.5975" width="12.9685" height="18.528" filterUnits="userSpaceOnUse" color-interpolation-filters="sRGB">
<feFlood flood-opacity="0" result="BackgroundImageFix"/>
<feColorMatrix in="SourceAlpha" type="matrix" values="0 0 0 0 0 0 0 0 0 0 0 0 0 0 0 0 0 0 127 0" result="hardAlpha"/>
<feOffset dy="4"/>
<feGaussianBlur stdDeviation="2"/>
<feComposite in2="hardAlpha" operator="out"/>
<feColorMatrix type="matrix" values="0 0 0 0 0 0 0 0 0 0 0 0 0 0 0 0 0 0 0.25 0"/>
<feBlend mode="normal" in2="BackgroundImageFix" result="effect1_dropShadow_41_566"/>
<feBlend mode="normal" in="SourceGraphic" in2="effect1_dropShadow_41_566" result="shape"/>
</filter>
<filter id="filter8_d_41_566" x="61.2256" y="22.772" width="12.708" height="13.8997" filterUnits="userSpaceOnUse" color-interpolation-filters="sRGB">
<feFlood flood-opacity="0" result="BackgroundImageFix"/>
<feColorMatrix in="SourceAlpha" type="matrix" values="0 0 0 0 0 0 0 0 0 0 0 0 0 0 0 0 0 0 127 0" result="hardAlpha"/>
<feOffset dy="4"/>
<feGaussianBlur stdDeviation="2"/>
<feComposite in2="hardAlpha" operator="out"/>
<feColorMatrix type="matrix" values="0 0 0 0 0 0 0 0 0 0 0 0 0 0 0 0 0 0 0.25 0"/>
<feBlend mode="normal" in2="BackgroundImageFix" result="effect1_dropShadow_41_566"/>
<feBlend mode="normal" in="SourceGraphic" in2="effect1_dropShadow_41_566" result="shape"/>
</filter>
<filter id="filter9_d_41_566" x="61.5339" y="23.1366" width="8.56055" height="8.6629" filterUnits="userSpaceOnUse" color-interpolation-filters="sRGB">
<feFlood flood-opacity="0" result="BackgroundImageFix"/>
<feColorMatrix in="SourceAlpha" type="matrix" values="0 0 0 0 0 0 0 0 0 0 0 0 0 0 0 0 0 0 127 0" result="hardAlpha"/>
<feOffset dy="4"/>
<feGaussianBlur stdDeviation="2"/>
<feComposite in2="hardAlpha" operator="out"/>
<feColorMatrix type="matrix" values="0 0 0 0 0 0 0 0 0 0 0 0 0 0 0 0 0 0 0.25 0"/>
<feBlend mode="normal" in2="BackgroundImageFix" result="effect1_dropShadow_41_566"/>
<feBlend mode="normal" in="SourceGraphic" in2="effect1_dropShadow_41_566" result="shape"/>
</filter>
<filter id="filter10_d_41_566" x="61.646" y="23.2692" width="8.33618" height="8.39774" filterUnits="userSpaceOnUse" color-interpolation-filters="sRGB">
<feFlood flood-opacity="0" result="BackgroundImageFix"/>
<feColorMatrix in="SourceAlpha" type="matrix" values="0 0 0 0 0 0 0 0 0 0 0 0 0 0 0 0 0 0 127 0" result="hardAlpha"/>
<feOffset dy="4"/>
<feGaussianBlur stdDeviation="2"/>
<feComposite in2="hardAlpha" operator="out"/>
<feColorMatrix type="matrix" values="0 0 0 0 0 0 0 0 0 0 0 0 0 0 0 0 0 0 0.25 0"/>
<feBlend mode="normal" in2="BackgroundImageFix" result="effect1_dropShadow_41_566"/>
<feBlend mode="normal" in="SourceGraphic" in2="effect1_dropShadow_41_566" result="shape"/>
</filter>
<filter id="filter11_d_41_566" x="60.9475" y="23.7738" width="13.3899" height="10.7352" filterUnits="userSpaceOnUse" color-interpolation-filters="sRGB">
<feFlood flood-opacity="0" result="BackgroundImageFix"/>
<feColorMatrix in="SourceAlpha" type="matrix" values="0 0 0 0 0 0 0 0 0 0 0 0 0 0 0 0 0 0 127 0" result="hardAlpha"/>
<feOffset dy="4"/>
<feGaussianBlur stdDeviation="2"/>
<feComposite in2="hardAlpha" operator="out"/>
<feColorMatrix type="matrix" values="0 0 0 0 0 0 0 0 0 0 0 0 0 0 0 0 0 0 0.25 0"/>
<feBlend mode="normal" in2="BackgroundImageFix" result="effect1_dropShadow_41_566"/>
<feBlend mode="normal" in="SourceGraphic" in2="effect1_dropShadow_41_566" result="shape"/>
</filter>
<filter id="filter12_d_41_566" x="57.6794" y="19.0563" width="12.1763" height="16.5122" filterUnits="userSpaceOnUse" color-interpolation-filters="sRGB">
<feFlood flood-opacity="0" result="BackgroundImageFix"/>
<feColorMatrix in="SourceAlpha" type="matrix" values="0 0 0 0 0 0 0 0 0 0 0 0 0 0 0 0 0 0 127 0" result="hardAlpha"/>
<feOffset dy="4"/>
<feGaussianBlur stdDeviation="2"/>
<feComposite in2="hardAlpha" operator="out"/>
<feColorMatrix type="matrix" values="0 0 0 0 0 0 0 0 0 0 0 0 0 0 0 0 0 0 0.25 0"/>
<feBlend mode="normal" in2="BackgroundImageFix" result="effect1_dropShadow_41_566"/>
<feBlend mode="normal" in="SourceGraphic" in2="effect1_dropShadow_41_566" result="shape"/>
</filter>
<clipPath id="clip0_41_566">
<rect width="72.2892" height="54.7009" fill="white" transform="translate(3.89136 9.29915)"/>
</clipPath>
</defs>
</svg>
