<svg width="145" height="75" viewBox="0 0 145 75" fill="none" xmlns="http://www.w3.org/2000/svg">
<path d="M95.1521 34.3525C95.1106 34.344 95.0694 34.3274 95.0267 34.3274C95.0071 34.3274 94.9882 34.3249 94.9686 34.3249C94.9549 34.3249 94.9204 34.3191 94.9095 34.3312C94.9086 34.3322 94.9233 34.3336 94.9244 34.3337C94.9434 34.3358 94.9626 34.3354 94.9817 34.3369C94.9845 34.3371 95.0284 34.3428 95.0275 34.3463C95.025 34.3559 94.9803 34.3614 94.9725 34.3623C94.9694 34.3627 94.936 34.3694 94.937 34.3705C94.9405 34.3745 94.949 34.3725 94.9538 34.3725C94.9565 34.3725 94.9756 34.3725 94.9702 34.3725C94.9578 34.3725 94.9454 34.3725 94.933 34.3725C94.9285 34.3725 94.9223 34.3737 94.9183 34.3712C94.9143 34.3688 94.9267 34.3688 94.9307 34.3675" stroke="black" stroke-width="0.1"/>
<path d="M106.508 4.48718C106.621 4.4997 106.727 4.5505 106.808 4.63134L127.988 26.1698C128.048 26.2324 128.092 26.3097 128.114 26.3941L130.131 33.5734C130.186 33.7551 130.138 33.9526 130.006 34.0871C129.874 34.2212 129.679 34.2702 129.501 34.2144L122.441 32.1633C122.358 32.1404 122.282 32.0961 122.22 32.0349L101.04 10.4964C100.942 10.3999 100.886 10.2668 100.886 10.128C100.886 9.98885 100.942 9.85613 101.04 9.7592L106.083 4.63099C106.195 4.51795 106.352 4.465 106.508 4.48718ZM106.445 5.73737L102.127 10.1283L104.681 12.7243L108.998 8.33334L106.445 5.73737ZM109.723 9.07052L105.405 13.4615L122.33 30.673L126.648 26.2821L109.723 9.07052ZM127.263 27.1319L123.165 31.2985L126.349 32.2278L128.177 30.3688L127.263 27.1319ZM128.492 31.5228L127.483 32.5484L128.902 32.9651L128.492 31.5228ZM108.967 32.1799C112.973 32.1799 115.738 34.8818 118.628 37.4362C121.516 39.9906 124.525 42.4363 129.138 42.4363C130.316 42.4363 131.487 42.1319 132.322 41.5388C133.156 40.9457 133.677 40.1055 133.677 38.8463C133.677 37.0621 131.423 35.7056 131.423 35.7056C131.289 35.6523 131.183 35.5432 131.133 35.4055C131.083 35.2674 131.093 35.1146 131.161 34.9852C131.229 34.8557 131.349 34.7619 131.49 34.7283C131.63 34.6943 131.778 34.7233 131.896 34.8081C131.896 34.8081 134.686 36.26 134.686 38.8464C134.686 40.4153 133.946 41.6208 132.889 42.372C131.833 43.1232 130.483 43.4619 129.139 43.4619C124.171 43.4619 120.876 40.7791 117.966 38.2053C115.055 35.6316 112.525 33.2055 108.967 33.2055C106.495 33.2438 104.708 34.2107 103.168 35.2087C101.628 36.2067 100.374 37.3082 98.8815 37.3082C97.9454 37.3082 97.1361 36.5986 96.4216 35.8925C96.1324 35.2515 94.6867 35.2564 94.3975 35.2564C94.1505 34.9842 94.5497 34.6081 94.6867 34.6104C94.9758 34.6154 94.6867 34.2949 95.265 34.2899C95.3971 34.2896 94.6867 34.2949 95.5541 34.2949C95.697 34.2949 96.7108 34.6104 97.211 35.4009C97.8576 36.0398 98.242 36.2823 98.8816 36.2823C99.8286 36.2823 101.023 35.3765 102.617 34.3435C104.211 33.3104 106.241 32.2218 108.967 32.1799Z" fill="black"/>
<path d="M94.9297 34.742C93.8719 34.7392 92.8498 35.1647 92.0558 35.9385C91.5658 36.5114 91.2277 37.2226 91.0787 37.9942C90.2912 40.9345 87.2794 42.9138 86.1873 43.6266C81.8076 46.4778 76.8702 44.9631 75.7207 44.6003C73.4216 43.8939 71.8122 42.6147 68.582 40.0499C62.4836 35.2194 62.6905 33.6346 59.581 32.3618C55.9058 30.9372 51.8768 31.1308 48.3269 32.9027C46.8267 33.6856 46.4072 34.322 43.9126 35.6139C41.9545 36.5977 39.9238 37.394 37.843 37.9942C36.544 38.3506 32.3022 39.7189 24.1461 39.1589C16.2027 38.6052 16.2027 38.6052 10.8401 36.2313C8.29382 35.1048 4.03474 30.8789 2.03452 24.9919C1.52297 23.4836 0.70679 18.4749 2.72425 13.2689C4.04108 9.7647 6.47832 6.921 9.56982 5.28166C15.7314 1.75584 21.7953 3.30873 23.853 3.86879C27.8321 4.84691 31.4438 7.15524 34.1989 10.4813C35.6876 12.3225 36.8567 14.452 37.6476 16.7629C38.7158 19.9812 39.0514 23.4414 38.6247 26.8376C38.0931 31.0732 36.4229 35.0338 33.8311 38.2042C30.1468 42.6592 25.7842 43.8875 21.3125 45.1349C16.1313 46.5775 10.7427 46.8652 5.46018 45.9814C4.72743 45.8429 3.98888 45.7452 3.2473 45.6886C2.96566 45.6886 2.67252 45.6441 2.40812 45.6377" stroke="black" stroke-width="1.5" stroke-miterlimit="10"/>
<g clip-path="url(#clip0_41_566)">
<path d="M86.582 53.9509H86.3374V54.7985H86.582V53.9509Z" fill="#2F2E41"/>
<path d="M86.582 52.0955H86.3374V50.2401H86.582V52.0955ZM86.582 48.3845H86.3374V46.5291H86.582V48.3845Z" fill="#2F2E41"/>
<path d="M86.582 44.6736H86.3374V43.9673H85.7258V43.6847H86.582V44.6736Z" fill="#2F2E41"/>
<g filter="url(#filter0_d_41_566)">
<path d="M86.5367 65.1112C88.4133 65.1112 89.9345 63.3541 89.9345 61.1867C89.9345 59.0193 88.4133 57.2622 86.5367 57.2622C84.6602 57.2622 83.1389 59.0193 83.1389 61.1867C83.1389 63.3541 84.6602 65.1112 86.5367 65.1112Z" fill="#6D29D3"/>
</g>
<g filter="url(#filter1_d_41_566)">
<path d="M77.0032 37.705L77.737 42.7361L84.7088 38.4113L77.0032 37.705Z" fill="#2F2E41"/>
</g>
<g filter="url(#filter2_d_41_566)">
<path d="M76.1703 68.9879L74.7098 68.9191L74.2446 62.38L76.4001 62.4816L76.1703 68.9879Z" fill="#FFB6B6"/>
</g>
<g filter="url(#filter3_d_41_566)">
<path d="M76.2694 50.2779C78.9186 49.345 79.4623 45.3565 80.9172 44.4858C80.9135 42.3794 80.9868 35.847 79.1662 35.9713C78.1523 36.0406 72.5032 47.9835 72.2611 49.9622C71.8118 53.6332 74.2105 63.0026 73.9322 63.6463L76.7177 63.8499L76.734 63.5967C76.7781 62.9098 77.2222 60.8387 76.7157 60.4751L76.5237 60.3374C76.5254 59.6232 76.6604 58.4066 76.1026 58.0981C76.0956 58.0942 76.0893 58.0886 76.0842 58.0817C76.0791 58.0748 76.0753 58.0667 76.0731 58.058C76.0708 58.0493 76.0702 58.0402 76.0713 58.0312C76.0723 58.0222 76.075 58.0135 76.0791 58.0058L76.2694 50.2779Z" fill="#2F2E41"/>
</g>
<g filter="url(#filter4_d_41_566)">
<path d="M76.9229 70.451L75.9463 70.5175L75.7176 69.4644L75.3254 70.5598L72.7351 70.7362C72.6109 70.7446 72.4877 70.707 72.3833 70.6289C72.279 70.5507 72.199 70.436 72.155 70.3016C72.1111 70.1672 72.1055 70.0201 72.1391 69.8818C72.1726 69.7435 72.2436 69.6212 72.3416 69.5327L74.326 67.7418L74.271 66.6651L76.4545 66.6669L76.9229 70.451Z" fill="#2F2E41"/>
</g>
<path d="M87.3022 57.2026L88.7592 57.339L89.9077 50.9135L87.7575 50.7122L87.3022 57.2026Z" fill="#FFB6B6"/>
<g filter="url(#filter5_d_41_566)">
<path d="M86.7312 40.9183C85.4245 43.5705 83.087 44.2037 80.6631 44.6677C79.6092 42.9485 78.0027 40.5517 79.5489 39.4344C80.4099 38.8122 87.8739 33.7788 89.0262 35.2694C92.0345 39.1612 89.8884 51.6849 90.0733 51.408L87.6904 51.368L87.55 51.1726C87.3633 50.9124 87.2418 50.5982 87.1987 50.2639C87.1556 49.9297 87.1926 49.5882 87.3056 49.2765L87.393 49.0357C87.2167 48.7511 87.1139 48.4146 87.0966 48.0653C87.0792 47.7159 87.1479 47.3681 87.2948 47.062L87.325 46.9991L86.7312 40.9183Z" fill="#2F2E41"/>
</g>
<path d="M87.2641 54.859L89.4316 55.1632L89.2639 56.2242L91.0455 58.2799C91.1335 58.3815 91.1911 58.5128 91.2099 58.6548C91.2287 58.7968 91.2077 58.9421 91.15 59.0693C91.0922 59.1966 91.0008 59.2992 90.889 59.3621C90.7772 59.4251 90.6509 59.4452 90.5286 59.4194L87.9759 58.8813L87.7017 57.7391L87.3641 58.7524L86.4016 58.5495L87.2641 54.859Z" fill="#2F2E41"/>
<path d="M81.6008 19.7637H80.6008C80.3966 19.7637 80.1954 19.8209 80.0145 19.9304C79.8336 20.0399 79.6783 20.1984 79.5621 20.3923L78.838 21.6002L77.034 21.9792C76.4073 22.4262 75.9352 23.1116 75.699 23.9174C75.4627 24.7231 75.4772 25.5988 75.7398 26.3936C77.0163 30.25 77.6325 37.478 76.3918 40.6716C76.3918 40.6716 83.9191 41.4591 85.8097 38.8351C87.7004 36.211 86.1767 23.4367 86.1767 23.4367L83.3635 21.6002L82.6395 20.3923C82.5232 20.1984 82.368 20.0399 82.1871 19.9304C82.0062 19.8209 81.805 19.7637 81.6008 19.7637V19.7637Z" fill="#6D29D3"/>
<g filter="url(#filter6_d_41_566)">
<path d="M86.2657 42.3347C86.3504 42.2318 86.4144 42.1086 86.4534 41.974C86.4924 41.8393 86.5053 41.6964 86.4913 41.5554C86.4773 41.4143 86.4366 41.2785 86.3723 41.1576C86.3079 41.0366 86.2214 40.9334 86.1187 40.8553L87.7666 34.597L85.9319 33.3256L84.9138 41.1847C84.8116 41.3926 84.7789 41.6365 84.822 41.8703C84.8651 42.1041 84.9809 42.3116 85.1475 42.4533C85.3142 42.5951 85.5201 42.6613 85.7261 42.6394C85.9322 42.6176 86.1242 42.5092 86.2657 42.3347H86.2657Z" fill="#FFB6B6"/>
</g>
<g filter="url(#filter7_d_41_566)">
<path d="M87.889 35.3033L85.6874 34.3145L85.7814 33.0448L83.1655 26.4312C83.0362 26.1042 82.9708 25.7485 82.974 25.3891C82.9771 25.0297 83.0487 24.6755 83.1837 24.3517C83.3187 24.0278 83.5138 23.7423 83.755 23.5153C83.9963 23.2883 84.2779 23.1255 84.5798 23.0383V23.0383C85.1252 22.8816 85.7022 22.9812 86.1841 23.3153C86.666 23.6493 87.0135 24.1905 87.1504 24.8201L88.8696 32.7656C89.0685 33.9988 88.8436 34.9198 87.889 35.3033Z" fill="#6D29D3"/>
</g>
<path d="M84.8433 15.9141C84.8433 14.7695 84.4496 13.6718 83.7489 12.8624C83.0481 12.0531 82.0977 11.5984 81.1067 11.5984C80.1157 11.5984 79.1653 12.0531 78.4645 12.8624C77.7638 13.6718 77.3701 14.7695 77.3701 15.9141V18.6195C77.3703 18.773 77.4232 18.9202 77.5172 19.0288C77.6112 19.1374 77.7386 19.1984 77.8716 19.1987H77.9633C78.0692 18.8481 78.1338 18.4827 78.1554 18.1123C78.3483 18.4462 78.4952 18.8127 78.5908 19.1987H84.3406C84.4737 19.1985 84.6013 19.1375 84.6955 19.0289C84.7897 18.9204 84.8429 18.7731 84.8433 18.6195C85.1454 17.9075 85.2812 17.0909 84.8433 15.9141Z" fill="#2F2E41"/>
<path d="M80.9562 19.172C82.4692 19.172 83.6957 17.7554 83.6957 16.008C83.6957 14.2605 82.4692 12.8439 80.9562 12.8439C79.4433 12.8439 78.2168 14.2605 78.2168 16.008C78.2168 17.7554 79.4433 19.172 80.9562 19.172Z" fill="#FFB8B8"/>
<path d="M78.1416 15.9958C78.1154 15.9609 78.096 15.9199 78.0848 15.8756C78.0735 15.8313 78.0706 15.7847 78.0763 15.739L78.4008 13.129C78.4073 13.0759 78.4251 13.0255 78.4526 12.9824C78.4802 12.9392 78.5166 12.9046 78.5586 12.8818C80.215 11.9865 81.8946 11.9854 83.551 12.8784C83.5949 12.9025 83.6327 12.9393 83.6606 12.9853C83.6885 13.0313 83.7057 13.0848 83.7103 13.1407L84.0492 15.189C84.0529 15.2337 84.0485 15.2788 84.0362 15.3213C84.0239 15.3639 84.0041 15.4031 83.978 15.4363C83.9253 15.5033 83.8516 16.9751 83.7731 16.9751C83.8393 16.0978 83.6793 15.6781 83.1 16.1068C83.0469 16.1067 82.995 16.0892 82.9503 16.0563C82.9055 16.0234 82.8698 15.9765 82.8473 15.921L82.6102 15.3343C82.5948 15.2963 82.5692 15.2651 82.5372 15.2454C82.5051 15.2257 82.4684 15.2186 82.4326 15.2251C82.3967 15.2316 82.3636 15.2514 82.3384 15.2815C82.3131 15.3116 82.2971 15.3504 82.2926 15.392L82.2457 15.8247C82.2372 15.9025 82.2044 15.9741 82.1535 16.0261C82.1026 16.078 82.037 16.1067 81.969 16.1068C81.001 16.6616 79.7315 16.5123 78.3523 16.1068C78.3124 16.1068 78.2729 16.0969 78.2365 16.0778C78.2001 16.0586 78.1678 16.0306 78.1416 15.9958V15.9958Z" fill="#2F2E41"/>
<g filter="url(#filter8_d_41_566)">
<path d="M83.1406 33.5997H78.6507C78.497 33.5995 78.3496 33.5289 78.2408 33.4033C78.1321 33.2777 78.071 33.1075 78.0708 32.9299V27.3557C78.071 27.1781 78.1321 27.0079 78.2408 26.8823C78.3496 26.7568 78.497 26.6861 78.6507 26.6859H83.1406C83.2943 26.6861 83.4417 26.7568 83.5504 26.8823C83.6591 27.0079 83.7203 27.1781 83.7205 27.3557V32.9299C83.7203 33.1075 83.6591 33.2777 83.5504 33.4033C83.4417 33.5289 83.2943 33.5995 83.1406 33.5997V33.5997Z" fill="#3F3D56"/>
</g>
<g filter="url(#filter9_d_41_566)">
<path d="M78.7772 27.89C78.9629 27.89 79.1135 27.7161 79.1135 27.5016C79.1135 27.2871 78.9629 27.1132 78.7772 27.1132C78.5915 27.1132 78.4409 27.2871 78.4409 27.5016C78.4409 27.7161 78.5915 27.89 78.7772 27.89Z" fill="#E6E6E6"/>
</g>
<g filter="url(#filter10_d_41_566)">
<path d="M78.7772 27.7346C78.8886 27.7346 78.979 27.6303 78.979 27.5016C78.979 27.3729 78.8886 27.2685 78.7772 27.2685C78.6658 27.2685 78.5754 27.3729 78.5754 27.5016C78.5754 27.6303 78.6658 27.7346 78.7772 27.7346Z" fill="#3F3D56"/>
</g>
<g filter="url(#filter11_d_41_566)">
<path d="M83.9371 29.8428C83.8373 29.9708 83.7145 30.072 83.5772 30.1392C83.4399 30.2065 83.2915 30.2381 83.1424 30.2319C82.9934 30.2258 82.8473 30.1819 82.7146 30.1035C82.5818 30.0251 82.4655 29.914 82.3739 29.778L78.3486 31.0653L77.7371 29.5113L82.6044 28.0636C82.8123 27.901 83.0646 27.8322 83.3136 27.8701C83.5625 27.9081 83.7907 28.0502 83.955 28.2695C84.1192 28.4888 84.2082 28.7701 84.2049 29.0601C84.2016 29.35 84.1063 29.6285 83.9371 29.8428H83.9371Z" fill="#FFB8B8"/>
</g>
<g filter="url(#filter12_d_41_566)">
<path d="M78.8268 31.1053L77.6973 31.5217C76.469 33.0207 76.0344 31.933 74.5868 31.8204C74.3144 31.7992 74.1012 31.541 73.9532 31.053C73.7517 30.3667 73.7718 29.6194 74.0099 28.9489L76.0208 23.1281L76.8624 22.3316L78.0376 23.9582L77.1354 28.4299L78.6166 29.3019L78.8268 31.1053Z" fill="#6D29D3"/>
</g>
<rect width="0.863849" height="4.66353" rx="0.431925" transform="matrix(0.997776 0.0666505 -0.0575736 0.998341 86.1526 58.7607)" fill="#7AFF64"/>
<rect width="0.934426" height="4.30029" rx="0.467213" transform="matrix(0.0690734 -0.997612 0.996782 0.0801661 84.2769 61.427)" fill="#7AFF64"/>
</g>
<path d="M94.8562 34.2973C94.9358 34.2973 94.959 34.2924 95.0448 34.2924C95.1141 34.2924 95.1833 34.2948 95.252 34.2948C95.2857 34.2948 95.319 34.3021 95.3532 34.3021C95.3882 34.3021 95.424 34.3046 95.4582 34.3046C95.4744 34.3046 95.4874 34.3119 95.5034 34.3119C95.5198 34.3119 95.5353 34.3144 95.5509 34.3144C95.5558 34.3144 95.5665 34.3182 95.5701 34.3229C95.5745 34.3289 95.5858 34.3265 95.5904 34.3327C95.5944 34.3382 95.6059 34.3335 95.6107 34.34C95.6153 34.3462 95.6288 34.346 95.6288 34.3535" stroke="black" stroke-width="0.1"/>
<path d="M4.8218 45.7131C4.80966 45.7055 4.80374 45.6875 4.79103 45.6794C4.78247 45.674 4.77481 45.6664 4.76613 45.6615C4.74824 45.6515 4.72997 45.6415 4.71263 45.6293C4.69982 45.6203 4.67456 45.6261 4.66036 45.6261C4.62741 45.6261 4.59652 45.6158 4.56433 45.613C4.53599 45.6106 4.50887 45.5939 4.48083 45.5939C4.47461 45.5939 4.45957 45.5822 4.45176 45.5794C4.43941 45.5749 4.42797 45.5692 4.41542 45.5656C4.3693 45.5522 4.32049 45.5417 4.27347 45.5357C4.21937 45.5287 4.16945 45.5085 4.11497 45.5006C4.09739 45.498 4.07683 45.4952 4.06023 45.4909C4.04847 45.4879 4.03765 45.4875 4.02559 45.4875C4.01282 45.4875 4.00172 45.4811 3.98894 45.4811C3.95456 45.4811 3.92095 45.4778 3.88657 45.4778C3.86787 45.4778 3.84957 45.4746 3.8309 45.4746C3.81837 45.4746 3.80812 45.4682 3.79487 45.4682C3.78102 45.4682 3.76804 45.4617 3.75436 45.4617C3.74447 45.4617 3.73347 45.4633 3.72374 45.4615C3.71317 45.4596 3.69891 45.461 3.68895 45.4569C3.68218 45.4541 3.66482 45.456 3.6605 45.4495C3.65514 45.4416 3.71669 45.4359 3.7222 45.4359C3.73276 45.4359 3.74383 45.4263 3.75436 45.4263C3.76579 45.4263 3.77581 45.423 3.78699 45.423C3.79638 45.423 3.81454 45.4227 3.82194 45.4159C3.82819 45.4101 3.84292 45.4134 3.85101 45.4134C3.87422 45.4134 3.89528 45.423 3.91858 45.423C3.9775 45.423 3.80007 45.4327 3.74184 45.4223C3.71821 45.4181 3.69337 45.4112 3.66947 45.4101C3.64454 45.4091 3.62086 45.3978 3.59555 45.3973C3.58026 45.3969 3.56719 45.3876 3.55256 45.3876C3.53964 45.3876 3.52691 45.3811 3.51499 45.3811C3.49798 45.3811 3.4788 45.3694 3.46071 45.3682C3.4467 45.3673 3.43272 45.3656 3.41834 45.365C3.40458 45.3645 3.39117 45.3554 3.37721 45.3554C3.34657 45.3554 3.31223 45.3473 3.28273 45.3391C3.2528 45.3307 3.22262 45.3251 3.19258 45.3174C3.18421 45.3152 3.17885 45.3102 3.17 45.3102C3.15102 45.3102 3.13004 45.2973 3.11062 45.2973C3.05398 45.2973 2.99635 45.2909 2.93851 45.2909C2.92186 45.2909 2.90521 45.2909 2.88857 45.2909C2.87143 45.2909 2.85281 45.283 2.83568 45.2796C2.81265 45.275 2.7879 45.2731 2.76594 45.2631C2.75044 45.2561 2.73474 45.2442 2.72032 45.2354C2.70561 45.2264 2.68951 45.2248 2.67301 45.2186C2.65774 45.2128 2.64236 45.2048 2.62708 45.2008C2.60718 45.1957 2.58485 45.1878 2.56445 45.1878" stroke="black" stroke-linecap="round"/>
<defs>
<filter id="filter0_d_41_566" x="79.1389" y="57.2622" width="14.7957" height="15.8489" filterUnits="userSpaceOnUse" color-interpolation-filters="sRGB">
<feFlood flood-opacity="0" result="BackgroundImageFix"/>
<feColorMatrix in="SourceAlpha" type="matrix" values="0 0 0 0 0 0 0 0 0 0 0 0 0 0 0 0 0 0 127 0" result="hardAlpha"/>
<feOffset dy="4"/>
<feGaussianBlur stdDeviation="2"/>
<feComposite in2="hardAlpha" operator="out"/>
<feColorMatrix type="matrix" values="0 0 0 0 0 0 0 0 0 0 0 0 0 0 0 0 0 0 0.25 0"/>
<feBlend mode="normal" in2="BackgroundImageFix" result="effect1_dropShadow_41_566"/>
<feBlend mode="normal" in="SourceGraphic" in2="effect1_dropShadow_41_566" result="shape"/>
</filter>
<filter id="filter1_d_41_566" x="73.0032" y="37.705" width="15.7056" height="13.0312" filterUnits="userSpaceOnUse" color-interpolation-filters="sRGB">
<feFlood flood-opacity="0" result="BackgroundImageFix"/>
<feColorMatrix in="SourceAlpha" type="matrix" values="0 0 0 0 0 0 0 0 0 0 0 0 0 0 0 0 0 0 127 0" result="hardAlpha"/>
<feOffset dy="4"/>
<feGaussianBlur stdDeviation="2"/>
<feComposite in2="hardAlpha" operator="out"/>
<feColorMatrix type="matrix" values="0 0 0 0 0 0 0 0 0 0 0 0 0 0 0 0 0 0 0.25 0"/>
<feBlend mode="normal" in2="BackgroundImageFix" result="effect1_dropShadow_41_566"/>
<feBlend mode="normal" in="SourceGraphic" in2="effect1_dropShadow_41_566" result="shape"/>
</filter>
<filter id="filter2_d_41_566" x="70.2446" y="62.38" width="10.1555" height="14.6079" filterUnits="userSpaceOnUse" color-interpolation-filters="sRGB">
<feFlood flood-opacity="0" result="BackgroundImageFix"/>
<feColorMatrix in="SourceAlpha" type="matrix" values="0 0 0 0 0 0 0 0 0 0 0 0 0 0 0 0 0 0 127 0" result="hardAlpha"/>
<feOffset dy="4"/>
<feGaussianBlur stdDeviation="2"/>
<feComposite in2="hardAlpha" operator="out"/>
<feColorMatrix type="matrix" values="0 0 0 0 0 0 0 0 0 0 0 0 0 0 0 0 0 0 0.25 0"/>
<feBlend mode="normal" in2="BackgroundImageFix" result="effect1_dropShadow_41_566"/>
<feBlend mode="normal" in="SourceGraphic" in2="effect1_dropShadow_41_566" result="shape"/>
</filter>
<filter id="filter3_d_41_566" x="68.2048" y="35.9696" width="16.7124" height="35.8803" filterUnits="userSpaceOnUse" color-interpolation-filters="sRGB">
<feFlood flood-opacity="0" result="BackgroundImageFix"/>
<feColorMatrix in="SourceAlpha" type="matrix" values="0 0 0 0 0 0 0 0 0 0 0 0 0 0 0 0 0 0 127 0" result="hardAlpha"/>
<feOffset dy="4"/>
<feGaussianBlur stdDeviation="2"/>
<feComposite in2="hardAlpha" operator="out"/>
<feColorMatrix type="matrix" values="0 0 0 0 0 0 0 0 0 0 0 0 0 0 0 0 0 0 0.25 0"/>
<feBlend mode="normal" in2="BackgroundImageFix" result="effect1_dropShadow_41_566"/>
<feBlend mode="normal" in="SourceGraphic" in2="effect1_dropShadow_41_566" result="shape"/>
</filter>
<filter id="filter4_d_41_566" x="68.1174" y="66.6651" width="12.8054" height="12.0722" filterUnits="userSpaceOnUse" color-interpolation-filters="sRGB">
<feFlood flood-opacity="0" result="BackgroundImageFix"/>
<feColorMatrix in="SourceAlpha" type="matrix" values="0 0 0 0 0 0 0 0 0 0 0 0 0 0 0 0 0 0 127 0" result="hardAlpha"/>
<feOffset dy="4"/>
<feGaussianBlur stdDeviation="2"/>
<feComposite in2="hardAlpha" operator="out"/>
<feColorMatrix type="matrix" values="0 0 0 0 0 0 0 0 0 0 0 0 0 0 0 0 0 0 0.25 0"/>
<feBlend mode="normal" in2="BackgroundImageFix" result="effect1_dropShadow_41_566"/>
<feBlend mode="normal" in="SourceGraphic" in2="effect1_dropShadow_41_566" result="shape"/>
</filter>
<filter id="filter5_d_41_566" x="74.9084" y="34.9948" width="19.7351" height="24.4178" filterUnits="userSpaceOnUse" color-interpolation-filters="sRGB">
<feFlood flood-opacity="0" result="BackgroundImageFix"/>
<feColorMatrix in="SourceAlpha" type="matrix" values="0 0 0 0 0 0 0 0 0 0 0 0 0 0 0 0 0 0 127 0" result="hardAlpha"/>
<feOffset dy="4"/>
<feGaussianBlur stdDeviation="2"/>
<feComposite in2="hardAlpha" operator="out"/>
<feColorMatrix type="matrix" values="0 0 0 0 0 0 0 0 0 0 0 0 0 0 0 0 0 0 0.25 0"/>
<feBlend mode="normal" in2="BackgroundImageFix" result="effect1_dropShadow_41_566"/>
<feBlend mode="normal" in="SourceGraphic" in2="effect1_dropShadow_41_566" result="shape"/>
</filter>
<filter id="filter6_d_41_566" x="80.8035" y="33.3256" width="10.9631" height="17.3179" filterUnits="userSpaceOnUse" color-interpolation-filters="sRGB">
<feFlood flood-opacity="0" result="BackgroundImageFix"/>
<feColorMatrix in="SourceAlpha" type="matrix" values="0 0 0 0 0 0 0 0 0 0 0 0 0 0 0 0 0 0 127 0" result="hardAlpha"/>
<feOffset dy="4"/>
<feGaussianBlur stdDeviation="2"/>
<feComposite in2="hardAlpha" operator="out"/>
<feColorMatrix type="matrix" values="0 0 0 0 0 0 0 0 0 0 0 0 0 0 0 0 0 0 0.25 0"/>
<feBlend mode="normal" in2="BackgroundImageFix" result="effect1_dropShadow_41_566"/>
<feBlend mode="normal" in="SourceGraphic" in2="effect1_dropShadow_41_566" result="shape"/>
</filter>
<filter id="filter7_d_41_566" x="78.9739" y="22.9658" width="13.9622" height="20.3375" filterUnits="userSpaceOnUse" color-interpolation-filters="sRGB">
<feFlood flood-opacity="0" result="BackgroundImageFix"/>
<feColorMatrix in="SourceAlpha" type="matrix" values="0 0 0 0 0 0 0 0 0 0 0 0 0 0 0 0 0 0 127 0" result="hardAlpha"/>
<feOffset dy="4"/>
<feGaussianBlur stdDeviation="2"/>
<feComposite in2="hardAlpha" operator="out"/>
<feColorMatrix type="matrix" values="0 0 0 0 0 0 0 0 0 0 0 0 0 0 0 0 0 0 0.25 0"/>
<feBlend mode="normal" in2="BackgroundImageFix" result="effect1_dropShadow_41_566"/>
<feBlend mode="normal" in="SourceGraphic" in2="effect1_dropShadow_41_566" result="shape"/>
</filter>
<filter id="filter8_d_41_566" x="74.0708" y="26.6859" width="13.6497" height="14.9138" filterUnits="userSpaceOnUse" color-interpolation-filters="sRGB">
<feFlood flood-opacity="0" result="BackgroundImageFix"/>
<feColorMatrix in="SourceAlpha" type="matrix" values="0 0 0 0 0 0 0 0 0 0 0 0 0 0 0 0 0 0 127 0" result="hardAlpha"/>
<feOffset dy="4"/>
<feGaussianBlur stdDeviation="2"/>
<feComposite in2="hardAlpha" operator="out"/>
<feColorMatrix type="matrix" values="0 0 0 0 0 0 0 0 0 0 0 0 0 0 0 0 0 0 0.25 0"/>
<feBlend mode="normal" in2="BackgroundImageFix" result="effect1_dropShadow_41_566"/>
<feBlend mode="normal" in="SourceGraphic" in2="effect1_dropShadow_41_566" result="shape"/>
</filter>
<filter id="filter9_d_41_566" x="74.4409" y="27.1132" width="8.67261" height="8.77683" filterUnits="userSpaceOnUse" color-interpolation-filters="sRGB">
<feFlood flood-opacity="0" result="BackgroundImageFix"/>
<feColorMatrix in="SourceAlpha" type="matrix" values="0 0 0 0 0 0 0 0 0 0 0 0 0 0 0 0 0 0 127 0" result="hardAlpha"/>
<feOffset dy="4"/>
<feGaussianBlur stdDeviation="2"/>
<feComposite in2="hardAlpha" operator="out"/>
<feColorMatrix type="matrix" values="0 0 0 0 0 0 0 0 0 0 0 0 0 0 0 0 0 0 0.25 0"/>
<feBlend mode="normal" in2="BackgroundImageFix" result="effect1_dropShadow_41_566"/>
<feBlend mode="normal" in="SourceGraphic" in2="effect1_dropShadow_41_566" result="shape"/>
</filter>
<filter id="filter10_d_41_566" x="74.5754" y="27.2685" width="8.40356" height="8.46609" filterUnits="userSpaceOnUse" color-interpolation-filters="sRGB">
<feFlood flood-opacity="0" result="BackgroundImageFix"/>
<feColorMatrix in="SourceAlpha" type="matrix" values="0 0 0 0 0 0 0 0 0 0 0 0 0 0 0 0 0 0 127 0" result="hardAlpha"/>
<feOffset dy="4"/>
<feGaussianBlur stdDeviation="2"/>
<feComposite in2="hardAlpha" operator="out"/>
<feColorMatrix type="matrix" values="0 0 0 0 0 0 0 0 0 0 0 0 0 0 0 0 0 0 0.25 0"/>
<feBlend mode="normal" in2="BackgroundImageFix" result="effect1_dropShadow_41_566"/>
<feBlend mode="normal" in="SourceGraphic" in2="effect1_dropShadow_41_566" result="shape"/>
</filter>
<filter id="filter11_d_41_566" x="73.7371" y="27.8599" width="14.468" height="11.2053" filterUnits="userSpaceOnUse" color-interpolation-filters="sRGB">
<feFlood flood-opacity="0" result="BackgroundImageFix"/>
<feColorMatrix in="SourceAlpha" type="matrix" values="0 0 0 0 0 0 0 0 0 0 0 0 0 0 0 0 0 0 127 0" result="hardAlpha"/>
<feOffset dy="4"/>
<feGaussianBlur stdDeviation="2"/>
<feComposite in2="hardAlpha" operator="out"/>
<feColorMatrix type="matrix" values="0 0 0 0 0 0 0 0 0 0 0 0 0 0 0 0 0 0 0.25 0"/>
<feBlend mode="normal" in2="BackgroundImageFix" result="effect1_dropShadow_41_566"/>
<feBlend mode="normal" in="SourceGraphic" in2="effect1_dropShadow_41_566" result="shape"/>
</filter>
<filter id="filter12_d_41_566" x="69.8154" y="22.3316" width="13.0115" height="17.9752" filterUnits="userSpaceOnUse" color-interpolation-filters="sRGB">
<feFlood flood-opacity="0" result="BackgroundImageFix"/>
<feColorMatrix in="SourceAlpha" type="matrix" values="0 0 0 0 0 0 0 0 0 0 0 0 0 0 0 0 0 0 127 0" result="hardAlpha"/>
<feOffset dy="4"/>
<feGaussianBlur stdDeviation="2"/>
<feComposite in2="hardAlpha" operator="out"/>
<feColorMatrix type="matrix" values="0 0 0 0 0 0 0 0 0 0 0 0 0 0 0 0 0 0 0.25 0"/>
<feBlend mode="normal" in2="BackgroundImageFix" result="effect1_dropShadow_41_566"/>
<feBlend mode="normal" in="SourceGraphic" in2="effect1_dropShadow_41_566" result="shape"/>
</filter>
<clipPath id="clip0_41_566">
<rect width="86.747" height="64.1026" fill="white" transform="translate(4.46973 10.8974)"/>
</clipPath>
</defs>
</svg>
