<svg width="14" height="14" viewBox="0 0 14 14" fill="none" xmlns="http://www.w3.org/2000/svg">
<path d="M10.9406 10.5401C10.6685 10.5411 10.3989 10.4859 10.1474 10.3776C9.89596 10.2693 9.66754 10.1101 9.47538 9.90917L7.35895 7.69968C7.28409 7.62499 7.18451 7.58331 7.08093 7.58331C6.97736 7.58331 6.87777 7.62499 6.80291 7.69968L4.67933 9.91523C4.48729 10.1165 4.25893 10.276 4.00744 10.3846C3.75596 10.4932 3.48633 10.5488 3.21415 10.548H2.7998L5.48165 13.346C5.88388 13.7648 6.4289 14 6.99712 14C7.56535 14 8.11037 13.7648 8.51259 13.346L11.1998 10.542L10.9406 10.5401Z" fill="#32BCAD"/>
<path d="M3.21482 3.44925C3.48715 3.44849 3.75692 3.504 4.00855 3.61257C4.26017 3.72114 4.48865 3.88062 4.68078 4.08179L6.80549 6.29683C6.87934 6.37357 6.97937 6.41667 7.08366 6.41667C7.18794 6.41667 7.28797 6.37357 7.36182 6.29683L9.47893 4.09018C9.67091 3.88876 9.89935 3.72909 10.151 3.62042C10.4027 3.51176 10.6725 3.45627 10.9449 3.45717H11.1998L8.51116 0.6548C8.31207 0.447208 8.07569 0.282533 7.81552 0.17018C7.55535 0.0578278 7.2765 0 6.99488 0C6.71327 0 6.43442 0.0578278 6.17425 0.17018C5.91408 0.282533 5.6777 0.447208 5.47861 0.6548L2.7998 3.44925H3.21482Z" fill="#32BCAD"/>
<path d="M13.3769 5.87628L11.7655 4.67199C11.7291 4.68309 11.6903 4.68894 11.651 4.68923H10.9183C10.537 4.68994 10.1715 4.80311 9.9012 5.00414L7.8014 6.5724C7.61229 6.71347 7.35602 6.7927 7.08883 6.7927C6.82163 6.7927 6.56536 6.71347 6.37625 6.5724L4.26847 4.99817C3.99829 4.79703 3.63276 4.68373 3.25139 4.68293H2.35186C2.31479 4.68231 2.27815 4.67681 2.24363 4.66669L0.62199 5.87628C0.223691 6.17458 0 6.57878 0 7.00019C0 7.42159 0.223691 7.82579 0.62199 8.12409L2.24009 9.33335C2.27453 9.32305 2.31121 9.31754 2.34831 9.31711H3.25139C3.63275 9.31627 3.99826 9.20299 4.26847 9.00187L6.37581 7.42698C6.75682 7.14256 7.42083 7.14256 7.8014 7.42698L9.9012 8.9959C10.1715 9.19693 10.537 9.3101 10.9183 9.31081H11.651C11.6903 9.31102 11.7292 9.31687 11.7655 9.32805L13.3769 8.12376C13.5744 7.97619 13.7311 7.80097 13.8381 7.60813C13.945 7.41529 14 7.20859 14 6.99985C14 6.79112 13.945 6.58442 13.8381 6.39158C13.7311 6.19874 13.5744 6.02352 13.3769 5.87595" fill="#32BCAD"/>
</svg>
