<svg width="20" height="20" viewBox="0 0 20 20" fill="none" xmlns="http://www.w3.org/2000/svg">
<circle cx="10" cy="10" r="9.95" fill="#F3F3F3" stroke="black" stroke-width="0.1"/>
<path d="M13.9406 13.5402C13.6685 13.5412 13.3989 13.486 13.1474 13.3777C12.896 13.2694 12.6675 13.1102 12.4754 12.9092L10.3589 10.6997C10.2841 10.6251 10.1845 10.5834 10.0809 10.5834C9.97736 10.5834 9.87777 10.6251 9.80291 10.6997L7.67933 12.9153C7.48729 13.1165 7.25893 13.2761 7.00744 13.3847C6.75596 13.4933 6.48633 13.5488 6.21415 13.5481H5.7998L8.48165 16.3461C8.88388 16.7649 9.4289 17 9.99712 17C10.5653 17 11.1104 16.7649 11.5126 16.3461L14.1998 13.542L13.9406 13.5402Z" fill="#32BCAD"/>
<path d="M6.21482 6.44925C6.48715 6.44849 6.75692 6.504 7.00855 6.61257C7.26017 6.72114 7.48865 6.88062 7.68078 7.08179L9.80549 9.29683C9.87934 9.37357 9.97937 9.41667 10.0837 9.41667C10.1879 9.41667 10.288 9.37357 10.3618 9.29683L12.4789 7.09018C12.6709 6.88876 12.8993 6.72909 13.151 6.62042C13.4027 6.51176 13.6725 6.45627 13.9449 6.45717H14.1998L11.5112 3.6548C11.3121 3.44721 11.0757 3.28253 10.8155 3.17018C10.5554 3.05783 10.2765 3 9.99488 3C9.71327 3 9.43442 3.05783 9.17425 3.17018C8.91408 3.28253 8.6777 3.44721 8.47861 3.6548L5.7998 6.44925H6.21482Z" fill="#32BCAD"/>
<path d="M16.3769 8.87622L14.7655 7.67193C14.7291 7.68303 14.6903 7.68888 14.651 7.68917H13.9183C13.537 7.68988 13.1715 7.80305 12.9012 8.00408L10.8014 9.57234C10.6123 9.71341 10.356 9.79264 10.0888 9.79264C9.82163 9.79264 9.56536 9.71341 9.37625 9.57234L7.26847 7.99811C6.99829 7.79696 6.63276 7.68367 6.25139 7.68287H5.35186C5.31479 7.68224 5.27815 7.67675 5.24363 7.66663L3.62199 8.87622C3.22369 9.17452 3 9.57872 3 10.0001C3 10.4215 3.22369 10.8257 3.62199 11.124L5.24009 12.3333C5.27453 12.323 5.31121 12.3175 5.34831 12.3171H6.25139C6.63275 12.3162 6.99826 12.2029 7.26847 12.0018L9.37581 10.4269C9.75682 10.1425 10.4208 10.1425 10.8014 10.4269L12.9012 11.9958C13.1715 12.1969 13.537 12.31 13.9183 12.3108H14.651C14.6903 12.311 14.7292 12.3168 14.7655 12.328L16.3769 11.1237C16.5744 10.9761 16.7311 10.8009 16.8381 10.6081C16.945 10.4152 17 10.2085 17 9.99979C17 9.79105 16.945 9.58436 16.8381 9.39152C16.7311 9.19867 16.5744 9.02346 16.3769 8.87589" fill="#32BCAD"/>
</svg>
