<svg width="14" height="14" viewBox="0 0 14 14" fill="none" xmlns="http://www.w3.org/2000/svg">
<path d="M10.9406 10.5402C10.6685 10.5412 10.3989 10.486 10.1474 10.3777C9.89596 10.2694 9.66754 10.1102 9.47538 9.90923L7.35895 7.69974C7.28409 7.62505 7.18451 7.58337 7.08093 7.58337C6.97736 7.58337 6.87777 7.62505 6.80291 7.69974L4.67933 9.91529C4.48729 10.1165 4.25893 10.2761 4.00744 10.3847C3.75596 10.4933 3.48633 10.5488 3.21415 10.5481H2.7998L5.48165 13.3461C5.88388 13.7649 6.4289 14 6.99712 14C7.56535 14 8.11037 13.7649 8.51259 13.3461L11.1998 10.542L10.9406 10.5402Z" fill="#2CE0D5"/>
<path d="M3.21482 3.44925C3.48715 3.44849 3.75692 3.504 4.00855 3.61257C4.26017 3.72114 4.48865 3.88062 4.68078 4.08179L6.80549 6.29683C6.87934 6.37357 6.97937 6.41667 7.08366 6.41667C7.18794 6.41667 7.28797 6.37357 7.36182 6.29683L9.47893 4.09018C9.67091 3.88876 9.89935 3.72909 10.151 3.62042C10.4027 3.51176 10.6725 3.45627 10.9449 3.45717H11.1998L8.51116 0.6548C8.31207 0.447208 8.07569 0.282533 7.81552 0.17018C7.55535 0.0578278 7.2765 0 6.99488 0C6.71327 0 6.43442 0.0578278 6.17425 0.17018C5.91408 0.282533 5.6777 0.447208 5.47861 0.6548L2.7998 3.44925H3.21482Z" fill="#2CE0D5"/>
<path d="M13.3769 5.87622L11.7655 4.67193C11.7291 4.68303 11.6903 4.68888 11.651 4.68917H10.9183C10.537 4.68988 10.1715 4.80305 9.9012 5.00408L7.8014 6.57234C7.61229 6.71341 7.35602 6.79264 7.08883 6.79264C6.82163 6.79264 6.56536 6.71341 6.37625 6.57234L4.26847 4.99811C3.99829 4.79696 3.63276 4.68367 3.25139 4.68287H2.35186C2.31479 4.68224 2.27815 4.67675 2.24363 4.66663L0.62199 5.87622C0.223691 6.17452 0 6.57872 0 7.00013C0 7.42153 0.223691 7.82573 0.62199 8.12403L2.24009 9.33329C2.27453 9.32299 2.31121 9.31748 2.34831 9.31705H3.25139C3.63275 9.31621 3.99826 9.20292 4.26847 9.00181L6.37581 7.42691C6.75682 7.1425 7.42083 7.1425 7.8014 7.42691L9.9012 8.99584C10.1715 9.19687 10.537 9.31004 10.9183 9.31075H11.651C11.6903 9.31096 11.7292 9.31681 11.7655 9.32799L13.3769 8.1237C13.5744 7.97613 13.7311 7.80091 13.8381 7.60807C13.945 7.41523 14 7.20853 14 6.99979C14 6.79105 13.945 6.58436 13.8381 6.39152C13.7311 6.19867 13.5744 6.02346 13.3769 5.87589" fill="#2CE0D5"/>
</svg>
