<svg width="23" height="22" viewBox="0 0 23 22" fill="none" xmlns="http://www.w3.org/2000/svg">
<path d="M17.9741 16.5631C17.5271 16.5647 17.0843 16.4779 16.6711 16.3077C16.2579 16.1375 15.8827 15.8873 15.567 15.5716L12.09 12.0995C11.967 11.9822 11.8034 11.9167 11.6333 11.9167C11.4631 11.9167 11.2995 11.9822 11.1765 12.0995L7.68777 15.5811C7.37227 15.8973 6.9971 16.148 6.58395 16.3187C6.17079 16.4894 5.72784 16.5767 5.28069 16.5755H4.59998L9.00587 20.9724C9.66667 21.6304 10.5621 22 11.4956 22C12.4291 22 13.3245 21.6304 13.9853 20.9724L18.4 16.566L17.9741 16.5631Z" fill="#32BCAD"/>
<path d="M5.28178 5.42025C5.72918 5.41905 6.17238 5.50629 6.58576 5.6769C6.99914 5.84751 7.37451 6.09812 7.69015 6.41423L11.1807 9.89502C11.3021 10.0156 11.4664 10.0833 11.6377 10.0833C11.8091 10.0833 11.9734 10.0156 12.0947 9.89502L15.5728 6.42742C15.8882 6.11091 16.2635 5.85999 16.6769 5.68924C17.0904 5.51848 17.5337 5.43128 17.9812 5.4327H18.4L13.9829 1.02897C13.6558 0.702756 13.2675 0.44398 12.8401 0.267426C12.4127 0.0908722 11.9545 0 11.4919 0C11.0292 0 10.5711 0.0908722 10.1437 0.267426C9.71629 0.44398 9.32795 0.702756 9.00087 1.02897L4.59998 5.42025H5.28178Z" fill="#32BCAD"/>
<path d="M21.9763 9.23412L19.329 7.34167C19.2693 7.35911 19.2055 7.3683 19.141 7.36875H17.9372C17.3107 7.36987 16.7102 7.54772 16.2663 7.86362L12.8166 10.328C12.5059 10.5497 12.0849 10.6742 11.6459 10.6742C11.207 10.6742 10.7859 10.5497 10.4753 10.328L7.01249 7.85424C6.56861 7.53815 5.96811 7.36012 5.34158 7.35886H3.86377C3.80287 7.35788 3.74268 7.34924 3.68597 7.33333L1.02184 9.23412C0.367492 9.70288 0 10.338 0 11.0003C0 11.6625 0.367492 12.2976 1.02184 12.7664L3.68014 14.6667C3.73673 14.6505 3.79699 14.6418 3.85794 14.6411H5.34158C5.96809 14.6398 6.56857 14.4618 7.01249 14.1458L10.4745 11.6709C11.1005 11.224 12.1914 11.224 12.8166 11.6709L16.2663 14.1364C16.7102 14.4523 17.3107 14.6301 17.9372 14.6312H19.141C19.2055 14.6316 19.2693 14.6408 19.329 14.6583L21.9763 12.7659C22.3009 12.534 22.5583 12.2586 22.734 11.9556C22.9096 11.6526 23 11.3278 23 10.9997C23 10.6717 22.9096 10.3469 22.734 10.0439C22.5583 9.74084 22.3009 9.4655 21.9763 9.2336" fill="#32BCAD"/>
</svg>
