<svg width="23" height="22" viewBox="0 0 23 22" fill="none" xmlns="http://www.w3.org/2000/svg">
<g clip-path="url(#clip0_254_136)">
<path d="M17.9742 16.5631C17.5272 16.5647 17.0844 16.4779 16.6712 16.3077C16.258 16.1375 15.8828 15.8873 15.5671 15.5716L12.0901 12.0995C11.9671 11.9822 11.8035 11.9167 11.6334 11.9167C11.4632 11.9167 11.2996 11.9822 11.1766 12.0995L7.68789 15.5811C7.37239 15.8973 6.99722 16.148 6.58407 16.3187C6.17091 16.4894 5.72796 16.5767 5.28081 16.5755H4.6001L9.00599 20.9724C9.66679 21.6304 10.5622 22 11.4957 22C12.4292 22 13.3246 21.6304 13.9854 20.9724L18.4001 16.566L17.9742 16.5631Z" fill="#2CE0D5"/>
<path d="M5.2819 5.42025C5.7293 5.41905 6.1725 5.50629 6.58588 5.6769C6.99926 5.84751 7.37463 6.09812 7.69027 6.41423L11.1808 9.89502C11.3022 10.0156 11.4665 10.0833 11.6378 10.0833C11.8092 10.0833 11.9735 10.0156 12.0948 9.89502L15.5729 6.42742C15.8883 6.11091 16.2636 5.85999 16.677 5.68924C17.0905 5.51848 17.5338 5.43128 17.9813 5.4327H18.4001L13.983 1.02897C13.6559 0.702756 13.2676 0.44398 12.8402 0.267426C12.4128 0.0908722 11.9546 0 11.492 0C11.0293 0 10.5712 0.0908722 10.1438 0.267426C9.71641 0.44398 9.32807 0.702756 9.00099 1.02897L4.6001 5.42025H5.2819Z" fill="#2CE0D5"/>
<path d="M21.9763 9.23416L19.329 7.34171C19.2693 7.35915 19.2055 7.36834 19.141 7.36879H17.9372C17.3107 7.36991 16.7102 7.54776 16.2663 7.86366L12.8166 10.328C12.5059 10.5497 12.0849 10.6742 11.6459 10.6742C11.207 10.6742 10.7859 10.5497 10.4753 10.328L7.01249 7.85428C6.56861 7.53819 5.96811 7.36016 5.34158 7.3589H3.86377C3.80287 7.35792 3.74268 7.34928 3.68597 7.33337L1.02184 9.23416C0.367492 9.70292 0 10.338 0 11.0003C0 11.6625 0.367492 12.2976 1.02184 12.7664L3.68014 14.6667C3.73673 14.6505 3.79699 14.6418 3.85794 14.6411H5.34158C5.96809 14.6398 6.56857 14.4618 7.01249 14.1458L10.4745 11.6709C11.1005 11.224 12.1914 11.224 12.8166 11.6709L16.2663 14.1364C16.7102 14.4523 17.3107 14.6301 17.9372 14.6312H19.141C19.2055 14.6316 19.2693 14.6408 19.329 14.6583L21.9763 12.7659C22.3009 12.534 22.5583 12.2586 22.734 11.9556C22.9096 11.6526 23 11.3278 23 10.9997C23 10.6717 22.9096 10.3469 22.734 10.0439C22.5583 9.74088 22.3009 9.46606 21.9763 9.23416Z" fill="#2CE0D5"/>
</g>
<defs>
<clipPath id="clip0_254_136">
<rect width="23" height="22" fill="white"/>
</clipPath>
</defs>
</svg>
