<?xml version="1.0" encoding="UTF-8"?>
<svg width="752pt" height="752pt" version="1.1" viewBox="0 0 752 752" xmlns="http://www.w3.org/2000/svg">
 <g>
  <path d="m304.96 365.95c-46.191 0-83.773 37.578-83.773 83.773 0 46.191 37.582 83.77 83.773 83.77s83.773-37.582 83.773-83.773c-0.003906-46.191-37.582-83.77-83.773-83.77zm0 148.6c-35.746 0-64.828-29.082-64.828-64.832 0-35.746 29.078-64.828 64.828-64.828 35.746 0 64.828 29.082 64.828 64.828 0 35.75-29.082 64.832-64.828 64.832z"/>
  <path d="m314 441.78-14.574-2.7305c-1.6641-0.3125-3.0312-1.1289-3.7539-2.2461-0.61328-0.95312-0.4375-1.6797-0.38281-1.9219 0.48438-1.9922 3.5547-3.7461 6.9297-3.1094l17.652 3.3086c5.125 0.96484 10.09-2.4219 11.055-7.5625 0.96484-5.1445-2.4219-10.09-7.5625-11.055l-8.9219-1.6797v-6.8945c0-5.2305-4.2422-9.4727-9.4727-9.4727-5.2305 0-9.4727 4.2422-9.4727 9.4727v5.3125c-9.0234 1.8164-16.441 8.2773-18.609 17.211-1.3906 5.7227-0.36719 11.645 2.875 16.672 3.5273 5.4609 9.4258 9.3203 16.176 10.586l14.57 2.7305c1.6641 0.3125 3.0312 1.1289 3.7539 2.2461 0.61328 0.95312 0.4375 1.6797 0.38281 1.9219-0.48438 1.9922-3.5508 3.7539-6.9297 3.1094l-17.652-3.3086c-5.125-0.97266-10.09 2.4219-11.055 7.5625-0.96484 5.1445 2.4219 10.09 7.5625 11.055l8.9258 1.6758v6.8945c0 5.2305 4.2422 9.4727 9.4727 9.4727 5.2305 0 9.4727-4.2422 9.4727-9.4727v-5.3047c9.0234-1.8125 16.441-8.2773 18.609-17.215 1.3906-5.7227 0.36719-11.645-2.875-16.672-3.5312-5.4609-9.4297-9.3203-16.176-10.586z"/>
  <path d="m570.93 210.2h-155.44c-15.246 0-27.652 12.402-27.652 27.652v86.766c-7.3125-8.8633-14.809-16.781-22.32-23.57 2.9023-4.3164 4.5938-9.5117 4.5938-15.094 0-12.164-8.0508-22.488-19.102-25.918l18.984-65.121c0.83594-2.8594 0.27344-5.9492-1.5156-8.332-1.7891-2.3828-4.5977-3.7891-7.5781-3.7891h-24.375c-2.8984 0-5.6367 1.3242-7.4336 3.5977l-15.047 19.039-4.6523-15.836c-1.1836-4.0312-4.8828-6.8047-9.0859-6.8047h-51.285c-2.9805 0-5.7891 1.4023-7.5781 3.7891-1.7891 2.3828-2.3477 5.4727-1.5156 8.332l18.984 65.121c-11.055 3.4336-19.102 13.754-19.102 25.918 0 5.582 1.6953 10.773 4.5938 15.094-47.09 42.684-90.988 129.23-90.988 182.08 0 75.867 76.609 86.094 151.55 86.094s151.55-10.227 151.55-86.094c0-9.7578-1.5078-20.852-4.4883-33.094h118.91c15.246 0 27.652-12.402 27.652-27.652v-184.53c0-15.246-12.406-27.652-27.652-27.652zm-277.71-8.4648 7.8164 26.605c1 3.3984 3.8086 5.9531 7.2852 6.6289 3.4844 0.6875 7.0391-0.64844 9.2344-3.4258l23.559-29.809h7.1602l-16.641 57.086h-53.34l-16.641-57.086zm-26.27 76.031h76.027c4.5195 0 8.1914 3.6758 8.1914 8.1914 0 4.5195-3.6758 8.1914-8.1914 8.1914h-76.027c-4.5195 0-8.1914-3.6758-8.1914-8.1914 0-4.5195 3.6758-8.1914 8.1914-8.1914zm38.016 272.51c-95.422 0-132.6-18.828-132.6-67.152 0-44.492 40.164-130.24 87.953-170.86 2.125 0.53516 4.3477 0.82422 6.6367 0.82422h76.027c2.2852 0 4.5039-0.28516 6.625-0.82031 12.93 11.043 26.035 26.07 38.234 43.863v66.242c0 15.246 12.402 27.652 27.652 27.652h16.969c3.3516 12.5 5.1055 23.832 5.1055 33.094 0 48.324-37.18 67.152-132.6 67.152zm274.68-127.9c0 4.8047-3.9062 8.707-8.707 8.707l-155.44 0.003907c-4.8047 0-8.707-3.9062-8.707-8.707v-184.53c0-4.8047 3.9062-8.707 8.707-8.707h155.44c4.8008 0 8.707 3.9062 8.707 8.707z"/>
  <path d="m555.03 278.37h-105.45c-4.8047 0-8.707-3.9062-8.707-8.707v-19.082c0-5.2305-4.2422-9.4727-9.4727-9.4727-5.2305 0-9.4727 4.2422-9.4727 9.4727v19.082c0 15.246 12.402 27.652 27.652 27.652h105.45c5.2305 0 9.4727-4.2422 9.4727-9.4727-0.003906-5.2305-4.2422-9.4727-9.4727-9.4727z"/>
  <path d="m547.89 326.59h-27.27c-5.2305 0-9.4727 4.2422-9.4727 9.4727 0 5.2305 4.2422 9.4727 9.4727 9.4727h27.27c5.2305 0 9.4727-4.2422 9.4727-9.4727 0-5.2305-4.2422-9.4727-9.4727-9.4727z"/>
  <path d="m550.59 379.3c-3.6953-3.6992-9.6992-3.6992-13.395 0l-2.9453 2.9453-2.9453-2.9453c-3.6953-3.6992-9.6992-3.6992-13.395 0-3.6992 3.6992-3.6992 9.6953 0 13.395l2.9453 2.9453-2.9453 2.9453c-3.6992 3.6992-3.6992 9.6953 0 13.395 1.8477 1.8516 4.2734 2.7734 6.6953 2.7734s4.8477-0.92578 6.6953-2.7734l2.9453-2.9453 2.9453 2.9453c1.8477 1.8516 4.2734 2.7734 6.6953 2.7734s4.8477-0.92578 6.6953-2.7734c3.6992-3.6992 3.6992-9.6953 0-13.395l-2.9453-2.9453 2.9453-2.9453c3.707-3.6992 3.707-9.6953 0.007813-13.395z"/>
  <path d="m465.81 326.59h-4.1641v-4.1641c0-5.2305-4.2422-9.4727-9.4727-9.4727s-9.4727 4.2422-9.4727 9.4727v4.1641h-4.1641c-5.2305 0-9.4727 4.2422-9.4727 9.4727 0 5.2305 4.2422 9.4727 9.4727 9.4727h4.1641v4.1641c0 5.2305 4.2422 9.4727 9.4727 9.4727s9.4727-4.2422 9.4727-9.4727v-4.1641h4.1641c5.2305 0 9.4727-4.2422 9.4727-9.4727 0-5.2305-4.2422-9.4727-9.4727-9.4727z"/>
  <path d="m455.12 379.3-19.281 19.281c-3.6992 3.6992-3.6992 9.6953 0 13.395 1.8477 1.8516 4.2734 2.7734 6.6953 2.7734s4.8477-0.92578 6.6953-2.7734l19.281-19.281c3.6992-3.6992 3.6992-9.6953 0-13.395-3.6914-3.6992-9.6953-3.6992-13.391 0z"/>
 </g>
</svg>
