<svg width="210" height="170" viewBox="0 0 210 170" fill="none" xmlns="http://www.w3.org/2000/svg">
<g clip-path="url(#clip0_13_301)">
<path d="M0.273858 149.867C1.10578 143.128 5.25163 136.488 11.6315 134.295C9.11545 141.231 9.116 148.84 11.633 155.776C12.6134 158.447 13.9798 161.316 13.0577 164.008C12.484 165.683 11.0804 166.965 9.51146 167.766C7.94244 168.568 6.20115 168.95 4.48166 169.324L4.14325 169.606C1.41358 163.397 -0.558063 156.605 0.273858 149.867Z" fill="#6D29D3"/>
<path d="M11.6949 134.422C7.97953 138.616 5.67035 143.882 5.0953 149.473C4.95029 150.674 4.99417 151.891 5.22533 153.079C5.48762 154.229 6.05071 155.286 6.8561 156.143C7.59111 156.956 8.43648 157.702 8.96239 158.682C9.22421 159.187 9.37702 159.743 9.41083 160.312C9.44463 160.881 9.35865 161.45 9.15853 161.983C8.69421 163.325 7.77904 164.419 6.8472 165.457C5.81257 166.609 4.71978 167.79 4.27999 169.318C4.2267 169.503 3.94465 169.409 3.99786 169.224C4.76303 166.565 7.32473 165.055 8.54639 162.661C9.11645 161.544 9.35572 160.247 8.8213 159.067C8.35398 158.036 7.48288 157.266 6.7316 156.448C5.93377 155.625 5.34828 154.617 5.02627 153.513C4.73583 152.341 4.64548 151.128 4.75909 149.925C4.972 147.214 5.60675 144.553 6.64011 142.041C7.80369 139.166 9.44678 136.514 11.4983 134.198C11.6253 134.054 11.8211 134.28 11.6949 134.422V134.422Z" fill="#3F019D"/>
<path d="M5.17519 147.662C4.25712 147.437 3.44817 146.891 2.8928 146.121C2.33744 145.352 2.07183 144.408 2.14341 143.459C2.15855 143.267 2.45538 143.282 2.44022 143.474C2.37195 144.357 2.61945 145.236 3.13806 145.952C3.65667 146.668 4.41222 147.174 5.26835 147.378C5.45434 147.422 5.36012 147.706 5.17519 147.662Z" fill="#3F019D"/>
<path d="M6.42948 155.78C8.08764 154.782 9.3117 153.192 9.8576 151.326C9.91153 151.141 10.1936 151.235 10.1397 151.42C9.56805 153.36 8.29088 155.013 6.5631 156.047C6.39836 156.145 6.26562 155.877 6.42948 155.78H6.42948Z" fill="#3F019D"/>
<path d="M8.07929 139.45C8.41655 139.611 8.78832 139.686 9.16124 139.667C9.53415 139.648 9.89652 139.536 10.2158 139.341C10.3792 139.24 10.5118 139.508 10.3494 139.608C9.99568 139.822 9.59533 139.945 9.18336 139.967C8.77139 139.989 8.36035 139.909 7.98614 139.734C7.9495 139.721 7.91933 139.694 7.90178 139.658C7.88423 139.623 7.88061 139.583 7.89165 139.545C7.90417 139.508 7.93091 139.476 7.96604 139.459C8.00118 139.441 8.04188 139.438 8.07929 139.45Z" fill="#3F019D"/>
<path d="M31.0782 146.331C30.9779 146.397 30.8777 146.463 30.7773 146.531C29.4336 147.421 28.164 148.419 26.9809 149.517C26.8881 149.6 26.7953 149.686 26.7051 149.772C23.8827 152.446 21.5777 155.624 19.9072 159.146C19.2438 160.548 18.6872 161.998 18.2422 163.485C17.6278 165.539 17.1238 167.815 15.9077 169.495C15.7827 169.671 15.6471 169.84 15.5014 170H4.51094C4.48596 169.987 4.46086 169.977 4.43576 169.965L3.99695 169.985C4.01458 169.907 4.03453 169.826 4.05217 169.747C4.0622 169.702 4.0747 169.656 4.08474 169.611C4.0922 169.581 4.0998 169.55 4.10482 169.523C4.10726 169.512 4.10983 169.502 4.11228 169.495C4.1173 169.467 4.1249 169.442 4.12992 169.416C4.24023 168.964 4.3539 168.512 4.4709 168.06C4.4709 168.057 4.47091 168.057 4.47335 168.055C5.37364 164.612 6.56716 161.215 8.23464 158.108C8.28484 158.014 8.33491 157.918 8.39013 157.825C9.14947 156.428 10.0208 155.097 10.9955 153.844C11.5314 153.159 12.1013 152.502 12.7031 151.876C14.2612 150.26 16.0619 148.901 18.0391 147.849C21.981 145.753 26.5446 144.95 30.7573 146.23C30.865 146.263 30.9704 146.296 31.0782 146.331Z" fill="#6D29D3"/>
<path d="M31.0536 146.472C25.5807 147.567 20.5895 150.371 16.7889 154.486C15.9551 155.358 15.2628 156.356 14.7376 157.444C14.2599 158.521 14.0773 159.707 14.2086 160.88C14.3093 161.975 14.5382 163.084 14.3728 164.185C14.2798 164.747 14.0699 165.283 13.7568 165.758C13.4437 166.233 13.0345 166.635 12.5561 166.94C11.3835 167.729 9.99929 168.047 8.63487 168.311C7.11995 168.604 5.54182 168.883 4.27746 169.837C4.12427 169.952 3.95532 169.706 4.10829 169.591C6.30805 167.932 9.2559 168.28 11.6624 167.109C12.7852 166.563 13.7515 165.673 14.0297 164.407C14.2729 163.3 14.0379 162.156 13.9264 161.048C13.7817 159.907 13.9166 158.747 14.3194 157.67C14.7879 156.558 15.4408 155.535 16.2502 154.643C18.0406 152.608 20.1376 150.868 22.4644 149.489C25.1113 147.9 28.0085 146.778 31.0307 146.173C31.2178 146.136 31.2394 146.435 31.0536 146.472H31.0536Z" fill="#3F019D"/>
<path d="M17.9352 153.089C17.3363 152.353 17.0167 151.426 17.0335 150.475C17.0502 149.523 17.4021 148.608 18.0264 147.894C18.1533 147.75 18.3815 147.942 18.2545 148.086C17.6719 148.75 17.3442 149.602 17.3304 150.488C17.3166 151.374 17.6177 152.236 18.1794 152.918C18.3013 153.067 18.0564 153.236 17.9352 153.089H17.9352Z" fill="#3F019D"/>
<path d="M14.0849 160.331C16.005 160.54 17.9328 160.013 19.484 158.854C19.6376 158.739 19.8066 158.985 19.6532 159.1C18.0367 160.303 16.0294 160.848 14.0319 160.625C13.8415 160.604 13.8956 160.31 14.0849 160.331Z" fill="#3F019D"/>
<path d="M25.1619 148.293C25.3347 148.627 25.587 148.912 25.8961 149.123C26.2053 149.334 26.5616 149.464 26.9331 149.502C27.1236 149.521 27.0693 149.815 26.88 149.796C26.4698 149.753 26.0764 149.608 25.7343 149.376C25.3923 149.144 25.1119 148.83 24.9177 148.464C24.8965 148.431 24.8886 148.391 24.8955 148.352C24.9025 148.313 24.9238 148.279 24.9552 148.256C24.9876 148.233 25.0276 148.225 25.0663 148.232C25.105 148.239 25.1393 148.261 25.1619 148.293Z" fill="#3F019D"/>
<path d="M186.572 15.9686C177.494 6.25992 164.998 0.526268 151.769 0V51.028L186.572 15.9686Z" fill="#3F3D56"/>
<path d="M186.572 22.3223L151.769 57.3817H200.407C200.424 44.3413 195.472 31.7917 186.572 22.3223Z" fill="#F92828"/>
<path d="M182.021 99.7923C173.645 106.891 163.191 111.02 152.268 111.554V61.5484H199.957C199.93 64.5307 199.641 67.5051 199.095 70.4369L199.094 70.4387C199.05 70.6826 199.003 70.924 198.953 71.1658L198.953 71.1674C197.866 76.5667 195.903 81.7484 193.143 86.5046L193.142 86.5066C192.997 86.7601 192.846 87.0142 192.694 87.2645L192.622 87.3839V87.3865C189.914 91.8473 186.538 95.8598 182.613 99.2815L182.611 99.283C182.415 99.4557 182.219 99.6252 182.022 99.7916L182.021 99.7923Z" fill="#7AFF64" stroke="#30DB13"/>
<path d="M146.849 112.121C147.522 112.121 148.191 112.103 148.858 112.077V61.0472L112.018 98.1583C121.422 107.14 133.891 112.138 146.849 112.121Z" fill="#CACACA"/>
<path d="M146.917 6.30812C118.917 6.30812 96.2175 29.1745 96.2175 57.3817H148.979V6.35365C148.295 6.32606 147.608 6.30812 146.917 6.30812Z" fill="#6D29D3"/>
<path d="M134.822 61.0484L124.163 71.7865L123.814 72.1376L123.806 72.1452L114.511 81.5065L114.158 81.8627L104.115 91.9793L103.761 92.3355V92.338L97.9815 98.1579C92.9628 93.3904 88.9658 87.6386 86.2365 81.2566C83.5072 74.8746 82.1034 67.9975 82.1114 61.0484H134.822Z" fill="#6D29D3"/>
<path d="M52.1242 107.531C52.5121 107.294 52.8437 106.974 53.0955 106.594C53.3474 106.214 53.5135 105.783 53.5821 105.331C53.6507 104.879 53.6202 104.418 53.4926 103.979C53.365 103.541 53.1436 103.136 52.8438 102.793L53.2621 79.8221L48.2648 80.2438L48.2765 102.638C47.7379 103.183 47.4166 103.909 47.3735 104.677C47.3304 105.446 47.5686 106.203 48.0429 106.806C48.5172 107.409 49.1946 107.816 49.9468 107.95C50.699 108.083 51.4738 107.934 52.1242 107.531Z" fill="#FFB6B6"/>
<path d="M54.05 85.4449L47.5143 84.8171C47.3283 84.7993 47.1484 84.7413 46.9867 84.647C46.825 84.5528 46.6854 84.4245 46.5773 84.271C46.4693 84.1175 46.3953 83.9424 46.3605 83.7575C46.3257 83.5726 46.3309 83.3823 46.3757 83.1996L47.9451 76.7983C48.0413 75.8404 48.5105 74.96 49.2501 74.3501C49.9896 73.7402 50.939 73.4506 51.8902 73.5448C52.8414 73.639 53.7166 74.1093 54.3241 74.8526C54.9316 75.5959 55.2217 76.5515 55.1308 77.5099L55.4716 84.0733C55.4813 84.2613 55.4506 84.4491 55.3818 84.624C55.3129 84.7989 55.2074 84.9569 55.0725 85.087C54.9376 85.2172 54.7765 85.3165 54.6 85.3783C54.4236 85.4401 54.236 85.4628 54.05 85.4449H54.05Z" fill="#E4E4E4"/>
<path d="M43.1798 167.295H45.7157L46.922 157.442L43.1793 157.442L43.1798 167.295Z" fill="#FFB6B6"/>
<path d="M42.5328 166.461L47.527 166.461H47.5272C48.3713 166.461 49.1808 166.799 49.7777 167.4C50.3745 168.002 50.7099 168.817 50.7099 169.667V169.771L42.533 169.772L42.5328 166.461Z" fill="#2F2E41"/>
<path d="M66.5537 167.295H69.0898L70.2962 157.442L66.5535 157.442L66.5537 167.295Z" fill="#FFB6B6"/>
<path d="M65.9069 166.461L70.9011 166.461H70.9013C71.7453 166.461 72.5548 166.799 73.1517 167.4C73.7486 168.002 74.0839 168.817 74.0839 169.667V169.771L65.907 169.772L65.9069 166.461Z" fill="#2F2E41"/>
<path d="M63.492 88.1343L65.1467 98.7614L49.426 98.9698L51.4945 88.7594L63.492 88.1343Z" fill="#FFB6B6"/>
<path d="M64.6903 96.1665C69.6786 104.92 70.1044 134.599 70.3179 165.254H66.0775L55.9418 120.536L46.6336 164.087H42.4966L45.3925 115.119C45.3925 115.119 44.5385 105.29 48.9089 99.4906L49.9727 96.3946L64.6903 96.1665Z" fill="#2F2E41"/>
<path d="M52.034 94.0035C51.9422 94.0034 51.8506 93.9943 51.7606 93.9763C51.4579 93.9153 51.1834 93.7561 50.9789 93.5232C50.7744 93.2902 50.6513 92.9962 50.6282 92.6861C50.4727 90.5414 49.7023 86.8081 48.3382 81.5898C47.8777 79.8163 47.9797 77.942 48.6298 76.2298C49.28 74.5176 50.4458 73.0532 51.9637 72.042C53.4816 71.0309 55.2756 70.5235 57.0941 70.5911C58.9127 70.6588 60.6646 71.298 62.1044 72.4191C63.0263 73.1305 63.7957 74.0225 64.3663 75.0413C64.9369 76.0601 65.2969 77.1848 65.4246 78.3475C66.1026 84.3618 64.8245 90.4003 64.2435 92.7173C64.1672 93.0198 63.9945 93.2887 63.752 93.4829C63.5094 93.677 63.2104 93.7858 62.9007 93.7924L52.0641 94.0031C52.054 94.0034 52.044 94.0035 52.034 94.0035Z" fill="#E4E4E4"/>
<path d="M82.3094 74.7099C82.2443 74.857 82.1908 75.009 82.1495 75.1645L68.5851 79.8078L65.9641 77.5011L61.9915 81.0309L66.2375 85.5686C66.5806 85.9352 67.0324 86.1797 67.5252 86.2656C68.0179 86.3515 68.5251 86.2741 68.9704 86.0449L83.4851 78.5762C84.01 78.9005 84.6205 79.0562 85.2353 79.0225C85.8502 78.9888 86.4403 78.7674 86.9272 78.3876C87.414 78.0078 87.7746 77.4877 87.9609 76.8964C88.1471 76.3052 88.1503 75.6708 87.9699 75.0777C87.7896 74.4846 87.4343 73.9608 86.9512 73.5761C86.4682 73.1914 85.8803 72.964 85.2658 72.924C84.6513 72.8841 84.0393 73.0336 83.5112 73.3526C82.9831 73.6716 82.5639 74.145 82.3094 74.7099Z" fill="#FFB6B6"/>
<path d="M68.1122 80.0615L63.1674 84.4123C63.0267 84.536 62.8612 84.6278 62.6821 84.6814C62.503 84.7349 62.3146 84.7489 62.1296 84.7225C61.9447 84.696 61.7675 84.6298 61.6103 84.5281C61.4531 84.4265 61.3195 84.292 61.2185 84.1336L57.6816 78.5855C57.0569 77.8567 56.7446 76.9082 56.8131 75.9479C56.8816 74.9875 57.3254 74.0937 58.0471 73.4625C58.7688 72.8312 59.7095 72.514 60.663 72.5804C61.6166 72.6469 62.505 73.0915 63.1336 73.8168L68.1003 78.0786C68.2424 78.2007 68.3568 78.3522 68.4356 78.5228C68.5144 78.6934 68.5558 78.8792 68.5569 79.0673C68.5581 79.2555 68.5189 79.4417 68.4422 79.6133C68.3654 79.7849 68.2529 79.9377 68.1122 80.0615Z" fill="#E4E4E4"/>
<path d="M61.4705 65.7531C63.2313 62.5082 62.0475 58.4398 58.8264 56.666C55.6052 54.8922 51.5665 56.0847 49.8057 59.3296C48.0449 62.5745 49.2287 66.6429 52.4498 68.4167C55.671 70.1905 59.7096 68.998 61.4705 65.7531Z" fill="#FFB6B6"/>
<path d="M57.4678 53.2734H56.1199C55.473 53.0694 54.7989 52.966 54.121 52.9669C54.0093 52.9669 53.8983 52.9696 53.7879 52.9751C52.5277 53.055 51.3227 53.5249 50.3376 54.3205C49.3524 55.1161 48.6351 56.1987 48.2836 57.4204C46.7765 62.4882 47.4274 68.0956 47.4274 68.0956C49.6272 69.0978 52.9893 69.8395 57.9547 69.2296L58.6849 66.1462L58.624 69.1377C59.3238 69.0396 60.0541 68.9129 60.8147 68.7576V62.1618H63.8572C63.8572 57.2517 62.342 53.2734 57.4678 53.2734Z" fill="#2F2E41"/>
<path d="M209.373 112.407H113.836C113.77 112.407 113.706 112.381 113.659 112.333C113.612 112.286 113.586 112.222 113.586 112.155C113.586 112.088 113.612 112.023 113.659 111.976C113.706 111.929 113.77 111.902 113.836 111.902H209.373C209.44 111.902 209.503 111.929 209.55 111.976C209.597 112.023 209.624 112.088 209.624 112.155C209.624 112.222 209.597 112.286 209.55 112.333C209.503 112.381 209.44 112.407 209.373 112.407Z" fill="#F0F0F0"/>
<path d="M209.499 144.614V48.373C209.499 48.306 209.525 48.2417 209.572 48.1943C209.619 48.147 209.683 48.1204 209.749 48.1204C209.816 48.1204 209.88 48.147 209.927 48.1943C209.974 48.2417 210 48.306 210 48.373V144.614C210 144.681 209.974 144.745 209.927 144.792C209.88 144.84 209.816 144.866 209.749 144.866C209.683 144.866 209.619 144.84 209.572 144.792C209.525 144.745 209.499 144.681 209.499 144.614Z" fill="#F0F0F0"/>
<path d="M195.206 125.29C197.421 125.29 199.218 123.48 199.218 121.248C199.218 119.016 197.421 117.207 195.206 117.207C192.99 117.207 191.194 119.016 191.194 121.248C191.194 123.48 192.99 125.29 195.206 125.29Z" fill="#F0F0F0"/>
<path d="M97.663 11.367C99.8788 11.367 101.675 9.55752 101.675 7.3254C101.675 5.09329 99.8788 3.2838 97.663 3.2838C95.4473 3.2838 93.651 5.09329 93.651 7.3254C93.651 9.55752 95.4473 11.367 97.663 11.367Z" fill="#F0F0F0"/>
<path d="M96.0381 169.747C96.0382 169.781 96.0318 169.814 96.0193 169.844C96.0067 169.875 95.9882 169.903 95.9649 169.926C95.9416 169.95 95.9139 169.968 95.8835 169.981C95.853 169.994 95.8203 170 95.7874 170H0.250752C0.184249 170 0.120469 169.973 0.0734435 169.926C0.0264183 169.879 0 169.814 0 169.747C0 169.68 0.0264183 169.616 0.0734435 169.569C0.120469 169.521 0.184249 169.495 0.250752 169.495H95.7874C95.8203 169.495 95.853 169.501 95.8835 169.514C95.9139 169.526 95.9416 169.545 95.9649 169.569C95.9882 169.592 96.0067 169.62 96.0193 169.651C96.0318 169.681 96.0382 169.714 96.0381 169.747Z" fill="#3F019D"/>
<path d="M103.761 92.3376C95.4426 84.0383 90.5817 72.8536 90.1709 61.0666L91.1733 61.0304C91.5753 72.561 96.3305 83.5023 104.468 91.621L103.761 92.3376Z" fill="#3F3D56"/>
<path d="M114.521 81.5166L113.794 82.2088C108.252 76.314 104.341 69.0591 102.45 61.1672L102.936 61.0484H103.453C105.313 68.7195 109.124 75.7703 114.511 81.5065L114.521 81.5166Z" fill="#3F3D56"/>
<path d="M124.19 71.8218L123.814 72.1376L123.806 72.1452L123.42 72.4685C120.607 69.0784 118.288 65.301 116.535 61.2505L116.993 61.0484H117.543C119.241 64.9215 121.469 68.5359 124.163 71.7865C124.171 71.7989 124.18 71.8107 124.19 71.8218Z" fill="#3F3D56"/>
</g>
<defs>
<clipPath id="clip0_13_301">
<rect width="210" height="170" fill="white"/>
</clipPath>
</defs>
</svg>
