<svg width="150" height="180" viewBox="0 0 150 180" fill="none" xmlns="http://www.w3.org/2000/svg">
<g clip-path="url(#clip0_15_83)">
<path d="M141.233 146.67C140.938 146.15 139.66 146.707 139.425 146.235C139.191 145.765 140.378 145.049 141.056 143.412C141.179 143.117 141.949 141.257 141.379 140.684C140.297 139.596 135.349 144.085 133.617 142.616C133.237 142.293 132.972 141.65 131.821 140.605C131.364 140.189 131.087 140.002 130.819 140.071C130.439 140.171 130.409 140.702 130.002 141.746C129.391 143.311 129.029 143.217 128.673 144.466C128.409 145.393 128.469 145.932 128.158 146.037C127.718 146.186 127.313 145.202 126.755 145.29C126.186 145.38 125.842 146.526 125.733 147.383C125.529 148.992 126.095 150.054 126.409 151.17C126.75 152.384 126.952 154.229 126.165 156.841L118.373 179.763C120.093 175.059 125.074 162.166 127.167 157.374C127.771 155.991 128.438 154.588 129.808 154.035C131.127 153.501 132.938 153.82 135.247 153.239C135.517 153.171 136.265 152.972 136.36 152.513C136.437 152.133 135.997 151.921 136.065 151.565C136.156 151.088 137.021 151.082 138.085 150.531C138.835 150.143 139.302 149.681 139.704 149.284C139.825 149.164 141.626 147.362 141.233 146.67H141.233V146.67Z" fill="#F2F2F2"/>
<path d="M110.577 158.737C110.248 158.739 110.141 159.554 109.851 159.538C109.562 159.522 109.568 158.707 108.995 157.888C108.891 157.74 108.239 156.808 107.805 156.935C106.982 157.175 107.664 161.006 106.474 161.47C106.213 161.572 105.833 161.522 105.01 161.81C104.683 161.925 104.515 162.012 104.47 162.17C104.407 162.393 104.648 162.562 105.022 163.072C105.581 163.837 105.432 163.995 105.917 164.537C106.277 164.94 106.547 165.065 106.507 165.255C106.45 165.523 105.871 165.447 105.751 165.758C105.629 166.076 106.068 166.583 106.44 166.886C107.138 167.454 107.8 167.471 108.415 167.632C109.084 167.807 110.01 168.236 111.011 169.393L119.537 180C117.823 177.761 113.199 171.489 111.551 169.034C111.075 168.325 110.608 167.578 110.743 166.717C110.872 165.887 111.545 165.051 111.938 163.7C111.984 163.542 112.106 163.101 111.917 162.92C111.761 162.771 111.535 162.935 111.387 162.798C111.189 162.614 111.436 162.168 111.484 161.464C111.518 160.968 111.435 160.595 111.365 160.275C111.343 160.178 111.016 158.735 110.577 158.737V158.737H110.577Z" fill="#F2F2F2"/>
<path d="M117.153 160.278L116.954 158.427L117.045 158.287C117.465 157.638 117.679 157.005 117.681 156.403C117.682 156.308 117.678 156.212 117.673 156.115C117.656 155.728 117.635 155.249 117.874 154.689C118.009 154.377 118.386 153.655 118.954 153.744C119.107 153.767 119.222 153.84 119.31 153.926C119.323 153.904 119.336 153.883 119.35 153.86C119.527 153.578 119.667 153.458 119.802 153.341C119.905 153.252 120.012 153.16 120.18 152.942C120.254 152.846 120.311 152.762 120.359 152.692C120.506 152.478 120.698 152.223 121.036 152.228C121.397 152.246 121.586 152.558 121.712 152.764C121.936 153.132 122.037 153.398 122.104 153.574C122.129 153.638 122.156 153.71 122.171 153.733C122.287 153.912 123.233 153.744 123.59 153.684C124.39 153.544 125.083 153.424 125.369 153.951C125.573 154.328 125.421 154.827 124.904 155.473C124.742 155.674 124.571 155.827 124.418 155.947C124.545 156.025 124.658 156.146 124.703 156.335C124.811 156.784 124.442 157.233 123.606 157.673C123.398 157.783 123.119 157.93 122.727 158C122.543 158.033 122.377 158.041 122.235 158.046C122.232 158.132 122.212 158.225 122.162 158.32C122.016 158.602 121.71 158.736 121.249 158.704C120.743 158.676 120.325 158.575 119.957 158.486C119.636 158.41 119.359 158.344 119.142 158.36C118.739 158.394 118.428 158.73 118.063 159.167L117.153 160.278H117.153H117.153Z" fill="#F2F2F2"/>
<path d="M118.074 149.258L116.41 149.928L116.257 149.872C115.549 149.613 114.908 149.557 114.35 149.707C114.261 149.731 114.174 149.76 114.084 149.789C113.731 149.904 113.292 150.047 112.713 149.947C112.39 149.891 111.625 149.693 111.564 149.097C111.546 148.937 111.584 148.801 111.642 148.691C111.618 148.684 111.595 148.676 111.57 148.667C111.264 148.56 111.117 148.449 110.975 148.343C110.866 148.261 110.754 148.176 110.509 148.062C110.402 148.012 110.31 147.975 110.232 147.944C109.997 147.85 109.712 147.721 109.631 147.379C109.556 147.009 109.797 146.739 109.956 146.56C110.24 146.241 110.46 146.071 110.607 145.958C110.66 145.917 110.72 145.871 110.737 145.851C110.873 145.688 110.478 144.775 110.332 144.43C109.999 143.657 109.712 142.988 110.128 142.566C110.425 142.263 110.926 142.29 111.656 142.649C111.883 142.761 112.068 142.896 112.218 143.019C112.259 142.872 112.342 142.727 112.506 142.633C112.894 142.41 113.404 142.669 114.024 143.402C114.178 143.584 114.385 143.829 114.549 144.206C114.627 144.384 114.676 144.55 114.717 144.692C114.797 144.673 114.888 144.669 114.989 144.696C115.287 144.772 115.489 145.047 115.576 145.52C115.679 146.039 115.691 146.486 115.703 146.88C115.713 147.224 115.723 147.521 115.792 147.736C115.926 148.135 116.317 148.363 116.814 148.621L118.074 149.258L118.074 149.258V149.258Z" fill="#F2F2F2"/>
<path d="M117.153 143.806L116.954 141.955L117.045 141.814C117.465 141.166 117.679 140.532 117.681 139.93C117.682 139.835 117.678 139.739 117.673 139.642C117.656 139.256 117.635 138.776 117.874 138.216C118.009 137.904 118.386 137.182 118.954 137.272C119.107 137.294 119.222 137.367 119.31 137.453C119.323 137.432 119.336 137.41 119.35 137.387C119.527 137.105 119.667 136.985 119.802 136.869C119.905 136.779 120.012 136.687 120.18 136.469C120.254 136.374 120.311 136.29 120.359 136.219C120.506 136.005 120.698 135.751 121.036 135.755C121.397 135.773 121.586 136.085 121.712 136.291C121.936 136.659 122.037 136.925 122.104 137.101C122.129 137.165 122.156 137.238 122.171 137.26C122.287 137.439 123.233 137.272 123.59 137.211C124.39 137.071 125.083 136.951 125.369 137.478C125.573 137.855 125.421 138.354 124.904 139C124.742 139.201 124.571 139.354 124.418 139.474C124.545 139.552 124.658 139.673 124.703 139.863C124.811 140.311 124.442 140.761 123.606 141.2C123.398 141.31 123.119 141.457 122.727 141.528C122.543 141.561 122.377 141.569 122.235 141.573C122.232 141.659 122.212 141.752 122.162 141.847C122.016 142.129 121.71 142.263 121.249 142.231C120.743 142.203 120.325 142.102 119.957 142.014C119.636 141.937 119.359 141.872 119.142 141.887C118.739 141.921 118.428 142.258 118.063 142.695L117.153 143.806H117.153H117.153Z" fill="#F2F2F2"/>
<path d="M118.966 179.733L118.595 179.489L118.505 179.042L118.595 179.489L118.162 179.541C118.155 179.499 118.131 179.403 118.096 179.252C117.902 178.424 117.311 175.906 116.818 171.939C116.474 169.171 116.279 166.324 116.239 163.478C116.199 160.627 116.328 158.469 116.432 156.734C116.51 155.426 116.605 154.18 116.698 152.966C116.946 149.724 117.181 146.661 117.006 143.27C116.968 142.513 116.887 140.938 116.005 139.261C115.494 138.289 114.789 137.425 113.911 136.696L114.457 135.979C115.427 136.785 116.206 137.742 116.774 138.821C117.751 140.68 117.84 142.397 117.882 143.222C118.059 146.673 117.822 149.765 117.572 153.038C117.479 154.248 117.384 155.488 117.306 156.791C117.204 158.51 117.076 160.649 117.115 163.464C117.155 166.276 117.347 169.088 117.687 171.821C118.174 175.738 118.756 178.219 118.948 179.034C119.05 179.469 119.071 179.56 118.966 179.733V179.733H118.966Z" fill="#F2F2F2"/>
<path d="M112.304 138.15C112.268 138.15 112.231 138.149 112.195 138.147C111.448 138.105 110.757 137.638 110.14 136.76C109.85 136.348 109.702 135.877 109.407 134.937C109.361 134.793 109.139 134.058 109.003 133.047C108.915 132.387 108.926 132.111 109.051 131.867C109.191 131.595 109.416 131.405 109.669 131.278C109.658 131.19 109.667 131.1 109.703 131.008C109.853 130.626 110.25 130.676 110.465 130.7C110.573 130.715 110.709 130.733 110.855 130.725C111.086 130.714 111.209 130.642 111.397 130.535C111.576 130.432 111.799 130.304 112.13 130.234C112.782 130.092 113.329 130.285 113.509 130.348C114.457 130.678 114.924 131.447 115.465 132.338C115.573 132.517 115.943 133.168 116.188 134.06C116.364 134.703 116.339 134.989 116.286 135.202C116.178 135.639 115.924 135.889 115.277 136.441C114.602 137.02 114.263 137.309 113.972 137.485C113.294 137.894 112.869 138.15 112.304 138.15V138.15V138.15Z" fill="#F2F2F2"/>
<path d="M84.1263 51.2793C86.4977 50.0416 87.8082 47.7609 87.0536 46.1853C86.2989 44.6098 83.7652 44.3363 81.3931 45.5747C80.4391 46.0559 79.6093 46.7686 78.9731 47.6532L68.989 53.0298L71.5054 57.8678L81.0808 52.0538C82.1407 52.0533 83.185 51.7877 84.1263 51.2793V51.2793Z" fill="#FFB6B6"/>
<path d="M27.5586 176.351L32.3111 176.351L34.5719 157.211L27.5576 157.212L27.5586 176.351Z" fill="#FFB6B6"/>
<path d="M43.8413 176.239C43.9892 176.499 44.0673 177.339 44.0673 177.641C44.0673 178.571 43.3452 179.325 42.4543 179.325H27.7363C27.1286 179.325 26.6359 178.811 26.6359 178.176V177.537C26.6359 177.537 25.9078 175.614 27.4068 173.244C27.4068 173.244 29.2699 175.1 32.0537 172.193L32.8747 170.64L38.8172 175.178L42.111 175.601C42.8316 175.694 43.4705 175.587 43.8412 176.239H43.8413H43.8413Z" fill="#2F2E41"/>
<path d="M35.0215 155.306L39.2421 157.587L49.6779 141.675L43.4487 138.309L35.0215 155.306Z" fill="#FFB6B6"/>
<path d="M49.5308 163.022C49.5476 163.324 49.2471 164.108 49.1138 164.376C48.7043 165.202 47.7309 165.525 46.9398 165.098L33.8696 158.033C33.3299 157.741 33.1189 157.048 33.3983 156.484L33.6801 155.916C33.6801 155.916 33.8802 153.859 36.255 152.474C36.255 152.474 37.0923 155.016 40.8444 153.771L42.2572 152.786L45.5363 159.669L48.2749 161.626C48.8741 162.054 49.4885 162.265 49.5307 163.022L49.5308 163.022V163.022Z" fill="#2F2E41"/>
<path d="M22.7321 24.4344H35.1956L34.9236 28.6774L43.0513 55.7266L44.5752 73.7593L29.3358 76.4112L22.2241 42.9976L23.7481 27.6167L22.7321 24.4344Z" fill="#6D29D3"/>
<path d="M23.4941 27.8819L10.2866 34.7768L18.4143 63.417L16.8904 92.5876C16.8904 92.5876 37.7175 99.4825 36.7016 79.8586C35.6856 60.2348 35.6856 57.0525 35.6856 57.0525L23.4941 27.8819H23.4941Z" fill="#2F2E41"/>
<path d="M44.5753 31.4546C44.5753 31.4546 47.8772 28.9426 49.4011 32.6553C50.9251 36.3679 60.8307 55.1962 60.8307 55.1962L76.324 48.0361L78.8639 53.8703C78.8639 53.8703 66.1644 66.5993 58.5447 65.0081C50.9251 63.417 44.8293 49.6273 44.8293 49.6273L44.5753 31.4546H44.5753Z" fill="#2F2E41"/>
<path d="M18.4143 87.2839C18.4143 87.2839 17.9064 95.7699 18.9223 102.665C19.9383 109.56 26.796 168.166 26.796 168.166L35.4317 167.636L36.1936 98.9522L48.3851 119.106L37.7176 149.338L45.0833 152.785L60.5766 119.637L49.9091 81.9802L46.8612 72.4334L24.0021 75.0853L18.4143 87.2839V87.2839Z" fill="#2F2E41"/>
<path d="M52.4489 89.4054C52.4489 89.4054 38.7335 93.6484 35.6856 57.0525L34.9962 27.5452L47.8771 31.0642L46.3532 57.5829L52.4489 89.4054V89.4054Z" fill="#2F2E41"/>
<path d="M29.0819 20.987C34.1317 20.987 38.2255 16.7128 38.2255 11.4403C38.2255 6.16778 34.1317 1.89355 29.0819 1.89355C24.032 1.89355 19.9382 6.16778 19.9382 11.4403C19.9382 16.7128 24.032 20.987 29.0819 20.987Z" fill="#FFB6B6"/>
<path d="M23.2401 20.7218C23.2401 20.7218 19.1763 15.9485 18.6683 13.827C18.1604 11.7055 18.1604 5.87135 18.6683 5.34097C19.1763 4.8106 24.7641 -0.493147 26.796 0.0372252C28.8279 0.567597 32.8557 3.21947 36.4476 3.21947C37.4636 3.21947 37.9716 8.52322 37.9716 8.52322L33.9077 9.0536C33.9077 9.0536 28.8279 6.40172 29.3359 9.0536C29.8439 11.7055 25.78 11.7055 25.78 11.7055L26.288 13.827L24.7641 14.3573L23.7481 12.2358C23.7481 12.2358 24.2561 17.0092 25.7801 19.1307C27.304 21.2522 23.2402 20.7218 23.2402 20.7218H23.2401Z" fill="#2F2E41"/>
<path d="M19.1915 97.0864C20.5856 99.4408 22.8791 100.598 24.3141 99.6717C25.7491 98.7452 25.7819 96.0858 24.387 93.7307C23.8422 92.782 23.0877 91.9833 22.1866 91.4014L16.1592 81.5034L11.7708 84.5556L18.1786 93.9892C18.2745 95.0913 18.6218 96.1533 19.1915 97.0864V97.0864Z" fill="#FFB6B6"/>
<path d="M12.3186 34.7768H9.77869C9.77869 34.7768 -0.380901 58.6437 0.127076 63.417C0.127076 63.417 0.127076 67.66 2.66697 70.8423C5.20687 74.0245 15.8744 92.0573 15.8744 92.0573L20.4463 88.3447L11.3026 66.0689L16.8904 42.7324L12.3186 34.7768Z" fill="#2F2E41"/>
<path d="M149.717 179.316C149.717 179.486 149.586 179.623 149.423 179.623H0.293821C0.13155 179.623 0 179.486 0 179.316C0 179.147 0.131547 179.01 0.293821 179.01H149.423C149.586 179.01 149.717 179.147 149.717 179.316V179.316Z" fill="#E6E6E6"/>
<path d="M94.7468 67.9738C93.547 67.9738 92.4036 67.462 91.5809 66.5491C86.2844 60.6703 83.3676 52.9885 83.3676 44.9189C83.3676 38.1944 85.3656 31.7743 89.1458 26.3523C89.8929 25.2812 91.052 24.6089 92.3262 24.5082C93.6205 24.404 94.8865 24.899 95.799 25.8616L111.158 42.06C112.695 43.6811 112.853 46.2692 111.524 48.08L98.2505 66.1689C97.4618 67.2438 96.2662 67.8995 94.9699 67.9679C94.8954 67.9719 94.821 67.9738 94.7468 67.9738V67.9738Z" fill="#6D29D3"/>
<path d="M119.219 77.4212C114.484 77.4212 109.939 76.3253 105.713 74.1641C104.178 73.3791 103.073 71.9323 102.682 70.194C102.291 68.4558 102.663 66.6466 103.703 65.23L114.763 50.1557C116.776 47.4136 116.538 43.4942 114.21 41.0389L102.887 29.0977C101.25 27.3716 100.508 25.0042 100.851 22.6026C101.196 20.1886 102.576 18.1381 104.638 16.9772C109.288 14.3597 114.557 13.035 119.876 13.1541C135.906 13.5033 149.118 26.8575 149.956 43.556C150.404 52.4773 147.418 60.9461 141.55 67.4023C135.677 73.8631 127.747 77.4212 119.219 77.4212ZM119.231 14.2426C114.305 14.2426 115.484 19.121 111.175 21.5465C109.406 22.5418 102.184 20.6948 101.889 22.7642C101.595 24.8209 102.231 26.8485 103.633 28.327L114.956 40.2682C117.65 43.1104 117.926 47.6475 115.597 50.8219L104.536 65.8962C103.688 67.0513 103.384 68.5264 103.703 69.9437C104.022 71.3606 104.923 72.5403 106.175 73.1805C110.256 75.2675 114.645 67.9262 119.219 67.9262C127.456 67.9262 135.116 72.8888 140.789 66.6483C146.457 60.412 149.341 52.2314 148.908 43.6134C148.099 27.485 135.337 14.5867 119.854 14.2493C119.646 14.2449 119.438 14.2426 119.231 14.2426H119.231Z" fill="#E6E6E6"/>
<path d="M121.237 45.4168C120.639 44.6871 120.34 43.6192 120.34 42.2122C120.34 40.8189 120.639 39.757 121.237 39.0273C121.835 38.2978 122.663 37.933 123.721 37.933C124.791 37.933 125.628 38.2978 126.233 39.0273C126.837 39.757 127.139 40.8189 127.139 42.2122C127.139 43.6192 126.837 44.6871 126.233 45.4168C125.628 46.1465 124.791 46.5113 123.721 46.5113C122.663 46.5113 121.835 46.1465 121.237 45.4168ZM124.797 44.2829C125.024 43.8622 125.137 43.1721 125.137 42.2122C125.137 41.2789 125.021 40.5987 124.788 40.1712C124.554 39.7442 124.199 39.5304 123.721 39.5304C123.255 39.5304 122.908 39.7442 122.682 40.1712C122.455 40.5987 122.342 41.2789 122.342 42.2122C122.342 43.1588 122.455 43.846 122.682 44.2731C122.908 44.7005 123.255 44.9139 123.721 44.9139C124.212 44.9139 124.571 44.7039 124.797 44.2829V44.2829ZM124.629 50.2936L131.37 38.13C132.301 38.13 132.882 39.1829 132.415 40.0234L125.666 52.1711C124.743 52.1711 124.167 51.1276 124.629 50.2936V50.2936ZM130.813 51.2146C130.215 50.4849 129.916 49.4102 129.916 47.9903C129.916 46.5969 130.215 45.5386 130.813 44.8153C131.411 44.0924 132.245 43.7308 133.316 43.7308C134.386 43.7308 135.22 44.0924 135.818 44.8153C136.416 45.5386 136.715 46.6035 136.715 48.0101C136.715 49.417 136.416 50.4849 135.818 51.2146C135.22 51.9443 134.386 52.3091 133.316 52.3091C132.245 52.3091 131.411 51.9443 130.813 51.2146ZM134.373 50.0709C134.6 49.6438 134.713 48.9568 134.713 48.0101C134.713 47.0768 134.597 46.3965 134.364 45.969C134.131 45.542 133.781 45.3282 133.316 45.3282C132.837 45.3282 132.485 45.542 132.258 45.969C132.031 46.3965 131.918 47.0768 131.918 48.0101C131.918 48.9568 132.031 49.6438 132.258 50.0709C132.485 50.4983 132.837 50.7118 133.316 50.7118C133.794 50.7118 134.147 50.4983 134.373 50.0709V50.0709Z" fill="black"/>
</g>
<defs>
<clipPath id="clip0_15_83">
<rect width="150" height="180" fill="white"/>
</clipPath>
</defs>
</svg>
