<svg width="23" height="23" viewBox="0 0 23 23" fill="none" xmlns="http://www.w3.org/2000/svg">
<path d="M12.5515 5.01479H12.7214V5.26844C12.7214 5.41431 12.8335 5.53172 12.9709 5.53172C13.1083 5.53172 13.2204 5.41431 13.2204 5.26844V5.01479H13.39C13.6626 5.01479 13.8845 4.7806 13.8845 4.49295V3.73135C13.8845 3.44455 13.6626 3.21036 13.3902 3.21036L12.5564 3.21614L12.5517 2.45925L13.385 2.45433L13.3848 2.65131C13.3848 2.79718 13.4968 2.91459 13.6342 2.91459C13.7717 2.91459 13.8837 2.79632 13.8837 2.65131L13.8839 2.45433C13.8839 2.16668 13.662 1.93249 13.3894 1.93249H13.2204V1.67884C13.2204 1.53297 13.1083 1.41556 12.9709 1.41556C12.8335 1.41556 12.7214 1.53297 12.7214 1.67884V1.93249H12.5518C12.2792 1.93249 12.0573 2.16668 12.0573 2.45433V3.21593C12.0573 3.50358 12.2792 3.73777 12.5518 3.73777L13.385 3.732L13.3905 4.48806L12.5567 4.49383L12.5563 4.29621C12.5563 4.15035 12.4442 4.03294 12.3068 4.03294C12.1694 4.03294 12.0573 4.15121 12.0573 4.29621V4.49319C12.0571 4.78064 12.279 5.01483 12.5516 5.01483L12.5515 5.01479Z" fill="#00920F"/>
<path d="M10.8129 5.66031C10.6854 5.67336 10.5549 5.66929 10.429 5.6894C10.2924 5.71121 10.1986 5.84488 10.2194 5.98925C10.2401 6.1334 10.3692 6.23071 10.5036 6.21039C11.842 5.99887 13.3009 6.23478 14.5056 6.84967C14.5408 6.86742 14.5777 6.87641 14.6146 6.87641C14.7074 6.87641 14.7958 6.82123 14.8388 6.72733C14.8988 6.59602 14.8473 6.43882 14.7228 6.37573C14.6193 6.32311 14.5048 6.28975 14.398 6.24206C15.3416 5.70396 15.9652 4.64742 15.9652 3.4724C15.9652 1.73103 14.6223 0.313904 12.9721 0.313904C11.3181 0.313904 9.97217 1.73103 9.97217 3.4724C9.97278 4.29729 10.2814 5.07689 10.8129 5.66032L10.8129 5.66031ZM12.9728 0.839833C14.3479 0.839833 15.4668 2.02038 15.4668 3.47173C15.4668 4.61828 14.7589 5.63272 13.7399 5.96977C13.0258 5.73558 12.2687 5.61003 11.5178 5.60682C10.8652 5.11171 10.4728 4.32164 10.4728 3.47174C10.4726 2.02039 11.5945 0.839839 12.9728 0.839839V0.839833Z" fill="#00920F"/>
<path d="M4.72427 10.1937C4.63672 10.3056 4.65131 10.4718 4.75731 10.5648C4.86331 10.6572 5.01997 10.6418 5.10895 10.5299C5.70479 9.76982 6.66081 9.76982 7.2567 10.5299C7.30575 10.5932 7.37729 10.6255 7.44863 10.6255C7.50477 10.6255 7.56071 10.6052 7.60753 10.5648C7.71434 10.4715 7.72893 10.3062 7.64057 10.1937C7.24657 9.69219 6.71536 9.40454 6.18173 9.40454C5.6481 9.40454 5.11748 9.6922 4.7243 10.1937H4.72427Z" fill="#00920F"/>
<path d="M22.0209 12.0816C21.8243 11.9633 21.6055 11.8822 21.3775 11.8377C21.4849 11.5591 21.6655 11.3135 21.9004 11.1514C22.0155 11.0712 22.0477 10.9083 21.9725 10.7868C21.8973 10.6653 21.7421 10.6319 21.627 10.7106C21.266 10.9611 20.9972 11.3565 20.8645 11.7973C20.6087 11.8063 20.3584 11.8743 20.1166 11.9682C20.056 9.29587 18.6025 6.84235 16.186 5.38054C16.067 5.30846 15.9142 5.35209 15.8459 5.47785C15.7776 5.60425 15.8183 5.76465 15.9381 5.83673C18.2494 7.23524 19.6292 9.59169 19.6292 12.1392C19.6292 14.1827 18.7523 16.1039 17.1591 17.5463C17.1037 17.5966 17.0723 17.6695 17.0723 17.7465V21.3847C17.0723 21.6017 16.898 21.7857 16.6923 21.7857H13.7053C13.4919 21.7857 13.3253 21.6099 13.3253 21.3847V20.0338C13.6064 19.9739 13.8867 19.9115 14.1561 19.8272C14.2882 19.786 14.3642 19.6401 14.3251 19.5007C14.2868 19.3612 14.1492 19.281 14.0156 19.3223C13.6954 19.4219 13.3636 19.5045 13.029 19.5678C11.7582 19.8052 10.4082 19.7654 9.16054 19.4504C9.03083 19.4172 8.89179 19.503 8.85957 19.6448C8.82734 19.7857 8.90942 19.9284 9.0438 19.9624C9.31416 20.0313 9.59201 20.0734 9.86928 20.1173V21.3821C9.86928 21.605 9.69721 21.7866 9.48542 21.7866H6.50185C6.28682 21.7866 6.11171 21.6018 6.11171 21.3748V18.1385C6.11171 18.0551 6.07401 17.9764 6.01037 17.927C4.84318 17.0163 3.97474 15.8332 3.49943 14.5053C3.46639 14.4129 3.38735 14.3481 3.29432 14.3368L1.71631 14.1464C1.43459 14.1124 1.22179 13.8605 1.22179 13.5614V10.7206C1.22179 10.4175 1.43682 10.1638 1.72158 10.129L3.29332 9.93926C3.38614 9.92793 3.46599 9.86227 3.49842 9.76987C3.74568 9.07305 4.11413 8.41587 4.5827 7.80566C4.58432 7.80973 4.58736 7.81208 4.58878 7.81614C4.68019 8.01953 4.84982 8.17182 5.05412 8.23341C5.12019 8.25287 5.18768 8.26335 5.25538 8.26335C5.39583 8.26335 5.53486 8.22122 5.65545 8.13867L8.63559 6.10558C8.8559 5.9548 8.98257 5.69965 8.97507 5.4201C8.97041 5.23531 8.90211 5.06763 8.79307 4.93482C9.00953 4.87087 9.23226 4.81334 9.46414 4.76714C9.59933 4.74041 9.6883 4.60267 9.66297 4.45917C9.63763 4.31651 9.50853 4.22091 9.37112 4.24936C8.97327 4.3287 8.59549 4.43735 8.23941 4.56611C6.21452 3.55726 4.21899 4.23396 3.17622 4.75239C2.93442 4.87322 2.77776 5.11554 2.75931 5.40086C2.74168 5.68852 2.86673 5.95352 3.09555 6.10984C3.47111 6.3667 3.94557 6.77178 4.311 7.32526C3.7865 7.97588 3.37178 8.6825 3.08704 9.43363L1.66427 9.60537C1.12757 9.67017 0.722046 10.1499 0.722046 10.7195V13.5603C0.722046 14.1284 1.12516 14.6049 1.65882 14.6688L3.08704 14.8414C3.5915 16.1638 4.46079 17.3444 5.61096 18.2698V21.3748C5.61096 21.8926 6.01023 22.3139 6.50088 22.3139H9.4832C9.97002 22.3139 10.3663 21.8958 10.3663 21.3829V20.1887C10.695 20.2227 11.0244 20.2494 11.3575 20.2494C11.8504 20.2494 12.3411 20.2024 12.8241 20.1271V21.3855C12.8241 21.8968 13.2187 22.3132 13.7041 22.3132H16.6911C17.1757 22.3132 17.5703 21.8968 17.5703 21.3855V17.8673C19.1183 16.4266 20.0021 14.5491 20.1065 12.5371C20.3131 12.4285 20.5397 12.3549 20.7715 12.3329C20.766 12.4575 20.7715 12.5824 20.7891 12.7065C20.8459 13.1051 21.0917 13.6343 21.4932 13.8539C21.6168 13.9211 21.7443 13.9553 21.874 13.9553C22.0053 13.9553 22.1389 13.9204 22.2702 13.8516C22.6541 13.6482 22.718 13.3396 22.7218 13.1734C22.7327 12.7371 22.3773 12.2939 22.0209 12.0816L22.0209 12.0816ZM3.36745 5.66743C3.29226 5.61631 3.25152 5.52969 3.25679 5.43559C3.26084 5.39196 3.27847 5.28417 3.39137 5.22834C3.99333 4.92935 4.93856 4.57111 6.01355 4.57111C6.75675 4.57111 7.56298 4.74199 8.36013 5.22172C8.46309 5.28417 8.47687 5.39025 8.47829 5.43409C8.48052 5.52798 8.43917 5.6131 8.36621 5.66251L5.38607 7.69559C5.32689 7.73537 5.25859 7.74585 5.19251 7.72639C5.12502 7.70607 5.07111 7.65752 5.04132 7.59037C4.62442 6.6626 3.90105 6.03209 3.36742 5.66744L3.36745 5.66743ZM22.0474 13.3797C21.9323 13.4422 21.8293 13.4437 21.7241 13.3861C21.4992 13.2629 21.3232 12.9041 21.2833 12.6277C21.2704 12.537 21.2665 12.4446 21.2695 12.3537C21.4507 12.3869 21.6228 12.4493 21.7748 12.54C22.0182 12.6859 22.2278 12.9752 22.2233 13.1598C22.2231 13.1942 22.2209 13.2875 22.0474 13.3797V13.3797Z" fill="#00920F"/>
</svg>
