<svg width="26" height="22" viewBox="0 0 26 22" fill="none" xmlns="http://www.w3.org/2000/svg">
<path d="M19.3567 9.24106C19.1107 9.24106 18.8374 9.26726 18.5911 9.29346V8.92599C18.5911 3.99042 14.4355 0 9.29555 0C4.15563 0 0 3.99036 0 8.92599C0 13.8616 4.15558 17.852 9.29555 17.852C10.5805 17.852 11.7836 17.5895 12.877 17.1433C13.6153 19.926 16.2397 22 19.3565 22C23.0201 22 26 19.1384 26 15.6207C26 12.1028 23.02 9.2413 19.3565 9.2413L19.3567 9.24106ZM8.94063 8.03342H9.73348C11.4011 8.03342 12.7408 9.39849 12.5769 11.0262C12.4675 12.2338 11.4834 13.1526 10.2804 13.4153V14.3605C10.2804 14.5179 10.1437 14.6229 10.007 14.6229H8.69485C8.53091 14.6229 8.42154 14.5179 8.42154 14.3605V13.4417C7.2187 13.2055 6.26166 12.2341 6.15227 11.0526C6.12498 10.8952 6.26163 10.7638 6.42558 10.7638H7.73776C7.87442 10.7638 7.98379 10.8426 8.01108 10.9476C8.09316 11.3677 8.50312 11.6828 8.96788 11.6828H9.76073C10.3076 11.6828 10.7451 11.2627 10.7451 10.7376C10.7451 10.2125 10.3076 9.79238 9.76073 9.79238H9.10452C7.62816 9.79238 6.28867 8.7424 6.15179 7.32467C6.01514 5.88078 7.02674 4.64693 8.42107 4.38428V3.46552C8.42107 3.3081 8.55772 3.20307 8.69438 3.20307H10.0066C10.1432 3.20307 10.2799 3.3343 10.2799 3.46552V4.38428C11.4827 4.62053 12.4398 5.59191 12.5764 6.77338C12.6037 6.9308 12.4397 7.06224 12.3031 7.06224H10.9909C10.8542 7.06224 10.7449 6.98342 10.7176 6.8784C10.6082 6.45832 10.2255 6.14323 9.76079 6.14323H8.96794C8.42108 6.14323 7.9836 6.56332 7.9836 7.08844C7.95654 7.58713 8.39379 8.03342 8.94063 8.03342V8.03342ZM19.3567 20.2672C16.6775 20.2672 14.5176 18.1932 14.5176 15.6205C14.5176 13.0478 16.6775 10.9738 19.3567 10.9738C22.0359 10.9738 24.1958 13.0478 24.1958 15.6205C24.1958 18.1932 22.0359 20.2672 19.3567 20.2672V20.2672Z" fill="#064F00"/>
<path d="M21.7899 14.754H20.259V13.2839C20.259 12.8114 19.8488 12.4175 19.3567 12.4175C18.8647 12.4175 18.4545 12.8114 18.4545 13.2839V14.754H16.9235C16.4314 14.754 16.0212 15.1479 16.0212 15.6204C16.0212 16.0929 16.4314 16.4868 16.9235 16.4868H18.4545V17.9569C18.4545 18.4294 18.8647 18.8233 19.3567 18.8233C19.8488 18.8233 20.259 18.4294 20.259 17.9569V16.4868H21.7899C22.282 16.4868 22.6922 16.0929 22.6922 15.6204C22.6922 15.1479 22.2822 14.754 21.7899 14.754Z" fill="#064F00"/>
</svg>
