<svg width="17" height="14" viewBox="0 0 17 14" fill="none" xmlns="http://www.w3.org/2000/svg">
<path d="M8.98122 2.99147H9.11016V3.15289C9.11016 3.24571 9.19526 3.32043 9.29958 3.32043C9.40391 3.32043 9.489 3.24571 9.489 3.15289V2.99147H9.61779C9.82475 2.99147 9.99324 2.84244 9.99324 2.65939V2.17474C9.99324 1.99223 9.82475 1.8432 9.61794 1.8432L8.98492 1.84687L8.98138 1.36522L9.61397 1.36209L9.61382 1.48744C9.61382 1.58026 9.69891 1.65498 9.80323 1.65498C9.90756 1.65498 9.99265 1.57971 9.99265 1.48744L9.99281 1.36209C9.99281 1.17903 9.82432 1.03 9.61736 1.03H9.48903V0.86859C9.48903 0.775768 9.40394 0.70105 9.29961 0.70105C9.19529 0.70105 9.1102 0.775768 9.1102 0.86859V1.03H8.9814C8.77445 1.03 8.60596 1.17903 8.60596 1.36209V1.84674C8.60596 2.02979 8.77445 2.17882 8.9814 2.17882L9.61399 2.17515L9.61815 2.65628L8.98513 2.65995L8.98482 2.5342C8.98482 2.44137 8.89972 2.36665 8.7954 2.36665C8.69108 2.36665 8.60598 2.44192 8.60598 2.5342V2.65955C8.60583 2.84246 8.77432 2.99149 8.98128 2.99149L8.98122 2.99147Z" fill="#00920F"/>
<path d="M7.66121 3.40226C7.56443 3.41056 7.46533 3.40798 7.36978 3.42077C7.26607 3.43465 7.19483 3.51971 7.21067 3.61158C7.22637 3.70331 7.32438 3.76524 7.4264 3.75231C8.44258 3.61771 9.55015 3.76783 10.4648 4.15913C10.4916 4.17042 10.5196 4.17614 10.5476 4.17614C10.618 4.17614 10.6851 4.14102 10.7177 4.08127C10.7633 3.99771 10.7242 3.89768 10.6297 3.85752C10.5511 3.82404 10.4642 3.80281 10.3831 3.77246C11.0995 3.43003 11.573 2.75769 11.573 2.00995C11.573 0.90181 10.5534 0 9.30056 0C8.0448 0 7.02295 0.90181 7.02295 2.00995C7.02341 2.53488 7.25776 3.03099 7.66121 3.40227L7.66121 3.40226ZM9.30104 0.334682C10.3451 0.334682 11.1946 1.08594 11.1946 2.00953C11.1946 2.73915 10.6571 3.3847 9.88344 3.59919C9.34133 3.45016 8.76649 3.37026 8.19638 3.36822C7.70092 3.05315 7.403 2.55038 7.403 2.00953C7.40285 1.08594 8.25468 0.334686 9.30104 0.334686V0.334682Z" fill="#00920F"/>
<path d="M3.03803 6.28712C2.97155 6.3583 2.98263 6.46405 3.06311 6.52326C3.14358 6.58205 3.26253 6.57225 3.33007 6.50107C3.78244 6.01736 4.50827 6.01736 4.96068 6.50107C4.99792 6.54136 5.05223 6.56191 5.1064 6.56191C5.14902 6.56191 5.19149 6.54898 5.22703 6.52325C5.30812 6.46392 5.3192 6.35871 5.25211 6.28712C4.95298 5.96796 4.54969 5.78491 4.14455 5.78491C3.73941 5.78491 3.33655 5.96797 3.03804 6.28712H3.03803Z" fill="#00920F"/>
<path d="M16.1704 7.48844C16.0212 7.41317 15.855 7.36159 15.6819 7.33328C15.7634 7.15595 15.9005 6.9997 16.0789 6.89654C16.1663 6.84551 16.1907 6.7418 16.1336 6.66449C16.0766 6.58718 15.9587 6.56595 15.8713 6.61604C15.5972 6.77541 15.3932 7.02707 15.2924 7.30758C15.0982 7.31329 14.9082 7.35657 14.7247 7.41632C14.6786 5.71573 13.5751 4.1544 11.7404 3.22416C11.6501 3.17829 11.5341 3.20606 11.4822 3.28608C11.4304 3.36652 11.4613 3.46859 11.5522 3.51446C13.307 4.40442 14.3546 5.90398 14.3546 7.5251C14.3546 8.82553 13.6888 10.0481 12.4792 10.966C12.4372 10.998 12.4133 11.0444 12.4133 11.0934V13.4086C12.4133 13.5467 12.281 13.6638 12.1248 13.6638H9.85708C9.69505 13.6638 9.56857 13.5519 9.56857 13.4086V12.549C9.78199 12.5109 9.99478 12.4711 10.1993 12.4175C10.2996 12.3912 10.3573 12.2984 10.3276 12.2097C10.2985 12.1209 10.1941 12.0699 10.0927 12.0962C9.84955 12.1596 9.59768 12.2121 9.3436 12.2524C8.37883 12.4035 7.35386 12.3782 6.40662 12.1777C6.30814 12.1566 6.20258 12.2112 6.17812 12.3014C6.15365 12.3911 6.21597 12.4819 6.31799 12.5035C6.52325 12.5474 6.7342 12.5742 6.94471 12.6021V13.407C6.94471 13.5488 6.81407 13.6643 6.65327 13.6643H4.38811C4.22485 13.6643 4.09191 13.5468 4.09191 13.4024V11.3429C4.09191 11.2898 4.06329 11.2397 4.01497 11.2083C3.12882 10.6288 2.46949 9.87586 2.10862 9.03081C2.08354 8.97202 2.02353 8.93078 1.95291 8.92356L0.754857 8.80243C0.540974 8.78079 0.37941 8.62047 0.37941 8.43018V6.62235C0.37941 6.42949 0.542668 6.26808 0.75886 6.24588L1.95214 6.12516C2.02262 6.11795 2.08324 6.07617 2.10786 6.01737C2.29558 5.57394 2.57532 5.15573 2.93106 4.76742C2.93229 4.77 2.9346 4.7715 2.93568 4.77409C3.00507 4.90352 3.13386 5.00042 3.28897 5.03962C3.33913 5.05201 3.39037 5.05868 3.44177 5.05868C3.5484 5.05868 3.65396 5.03186 3.74551 4.97933L6.00807 3.68555C6.17533 3.5896 6.2715 3.42723 6.26581 3.24933C6.26227 3.13174 6.21042 3.02504 6.12763 2.94052C6.29197 2.89982 6.46107 2.86321 6.63712 2.83381C6.73976 2.8168 6.8073 2.72915 6.78807 2.63783C6.76884 2.54705 6.67082 2.48621 6.56649 2.50431C6.26444 2.55481 5.97763 2.62395 5.70729 2.70588C4.16996 2.06389 2.65493 2.49452 1.86324 2.82442C1.67967 2.90132 1.56073 3.05552 1.54672 3.23709C1.53334 3.42015 1.62827 3.58878 1.802 3.68826C2.08713 3.85171 2.44735 4.10949 2.72478 4.46171C2.32657 4.87574 2.01172 5.3254 1.79554 5.8034L0.715348 5.91269C0.307883 5.95392 0 6.2592 0 6.62165V8.42948C0 8.79097 0.306052 9.0942 0.711212 9.13489L1.79554 9.24472C2.17853 10.0862 2.8385 10.8375 3.71173 11.4264V13.4023C3.71173 13.7318 4.01486 13.9999 4.38737 13.9999H6.65159C7.02119 13.9999 7.32203 13.7339 7.32203 13.4075V12.6475C7.57161 12.6692 7.82167 12.6862 8.0746 12.6862C8.44882 12.6862 8.82135 12.6562 9.18804 12.6083V13.4091C9.18804 13.7345 9.48763 13.9995 9.85616 13.9995H12.1239C12.4918 13.9995 12.7914 13.7345 12.7914 13.4091V11.1703C13.9667 10.2535 14.6377 9.05867 14.717 7.77834C14.8738 7.7092 15.0458 7.66238 15.2218 7.64836C15.2177 7.7277 15.2218 7.80719 15.2352 7.88613C15.2783 8.13982 15.4649 8.47652 15.7697 8.61631C15.8636 8.65904 15.9604 8.68082 16.0589 8.68082C16.1586 8.68082 16.26 8.65863 16.3597 8.61481C16.6511 8.48538 16.6996 8.28898 16.7025 8.18323C16.7108 7.90558 16.4409 7.6236 16.1704 7.48844L16.1704 7.48844ZM2.00843 3.40672C1.95134 3.37419 1.92041 3.31907 1.92441 3.25919C1.92749 3.23142 1.94088 3.16283 2.02658 3.1273C2.4836 2.93704 3.20124 2.70906 4.01739 2.70906C4.58163 2.70906 5.19373 2.81781 5.79894 3.12309C5.87711 3.16283 5.88757 3.23033 5.88865 3.25824C5.89034 3.31798 5.85895 3.37215 5.80355 3.40359L3.54099 4.69737C3.49606 4.72269 3.44421 4.72936 3.39404 4.71697C3.3428 4.70404 3.30187 4.67315 3.27925 4.63041C2.96273 4.04002 2.41355 3.63878 2.00841 3.40673L2.00843 3.40672ZM16.1905 8.31454C16.1031 8.35428 16.0249 8.35523 15.9451 8.31862C15.7743 8.24023 15.6407 8.01185 15.6104 7.83599C15.6006 7.77829 15.5976 7.71949 15.5999 7.66165C15.7375 7.68274 15.8681 7.72248 15.9835 7.78019C16.1683 7.87301 16.3275 8.05715 16.3241 8.1746C16.3239 8.19651 16.3222 8.25585 16.1905 8.31451V8.31454Z" fill="#00920F"/>
</svg>
