<svg width="20" height="20" viewBox="0 0 20 20" fill="none" xmlns="http://www.w3.org/2000/svg">
<circle cx="10" cy="10" r="9.95" fill="#F3F3F3" stroke="black" stroke-width="0.1"/>
<path d="M10.9812 5.99147H11.1102V6.15289C11.1102 6.24571 11.1953 6.32043 11.2996 6.32043C11.4039 6.32043 11.489 6.24571 11.489 6.15289V5.99147H11.6178C11.8247 5.99147 11.9932 5.84244 11.9932 5.65939V5.17474C11.9932 4.99223 11.8247 4.8432 11.6179 4.8432L10.9849 4.84687L10.9814 4.36522L11.614 4.36209L11.6138 4.48744C11.6138 4.58026 11.6989 4.65498 11.8032 4.65498C11.9076 4.65498 11.9927 4.57971 11.9927 4.48744L11.9928 4.36209C11.9928 4.17903 11.8243 4.03 11.6174 4.03H11.489V3.86859C11.489 3.77577 11.4039 3.70105 11.2996 3.70105C11.1953 3.70105 11.1102 3.77577 11.1102 3.86859V4.03H10.9814C10.7744 4.03 10.606 4.17903 10.606 4.36209V4.84674C10.606 5.02979 10.7744 5.17882 10.9814 5.17882L11.614 5.17515L11.6181 5.65628L10.9851 5.65995L10.9848 5.5342C10.9848 5.44137 10.8997 5.36665 10.7954 5.36665C10.6911 5.36665 10.606 5.44192 10.606 5.5342V5.65955C10.6058 5.84247 10.7743 5.99149 10.9813 5.99149L10.9812 5.99147Z" fill="#00920F"/>
<path d="M9.66121 6.40226C9.56443 6.41056 9.46533 6.40798 9.36978 6.42077C9.26607 6.43465 9.19483 6.51971 9.21067 6.61158C9.22637 6.70331 9.32438 6.76524 9.4264 6.75231C10.4426 6.61771 11.5502 6.76783 12.4648 7.15913C12.4916 7.17042 12.5196 7.17614 12.5476 7.17614C12.618 7.17614 12.6851 7.14102 12.7177 7.08127C12.7633 6.99771 12.7242 6.89768 12.6297 6.85752C12.5511 6.82404 12.4642 6.80281 12.3831 6.77246C13.0995 6.43003 13.573 5.75769 13.573 5.00995C13.573 3.90181 12.5534 3 11.3006 3C10.0448 3 9.02295 3.90181 9.02295 5.00995C9.02341 5.53488 9.25776 6.03099 9.66121 6.40227L9.66121 6.40226ZM11.301 3.33468C12.3451 3.33468 13.1946 4.08594 13.1946 5.00953C13.1946 5.73915 12.6571 6.3847 11.8834 6.59919C11.3413 6.45016 10.7665 6.37026 10.1964 6.36822C9.70092 6.05315 9.403 5.55038 9.403 5.00953C9.40285 4.08594 10.2547 3.33469 11.301 3.33469V3.33468Z" fill="#00920F"/>
<path d="M5.03803 9.28712C4.97155 9.3583 4.98263 9.46405 5.06311 9.52326C5.14358 9.58205 5.26253 9.57225 5.33007 9.50107C5.78244 9.01736 6.50827 9.01736 6.96068 9.50107C6.99792 9.54136 7.05223 9.56191 7.1064 9.56191C7.14902 9.56191 7.19149 9.54898 7.22703 9.52325C7.30812 9.46392 7.3192 9.35871 7.25211 9.28712C6.95298 8.96796 6.54969 8.78491 6.14455 8.78491C5.73941 8.78491 5.33655 8.96797 5.03804 9.28712H5.03803Z" fill="#00920F"/>
<path d="M18.1704 10.4884C18.0212 10.4132 17.855 10.3616 17.6819 10.3333C17.7634 10.1559 17.9005 9.9997 18.0789 9.89654C18.1663 9.84551 18.1907 9.7418 18.1336 9.66449C18.0766 9.58718 17.9587 9.56595 17.8713 9.61604C17.5972 9.77541 17.3932 10.0271 17.2924 10.3076C17.0982 10.3133 16.9082 10.3566 16.7247 10.4163C16.6786 8.71573 15.5751 7.1544 13.7404 6.22416C13.6501 6.17829 13.5341 6.20606 13.4822 6.28608C13.4304 6.36652 13.4613 6.46859 13.5522 6.51446C15.307 7.40442 16.3546 8.90398 16.3546 10.5251C16.3546 11.8255 15.6888 13.0481 14.4792 13.966C14.4372 13.998 14.4133 14.0444 14.4133 14.0934V16.4086C14.4133 16.5467 14.281 16.6638 14.1248 16.6638H11.8571C11.695 16.6638 11.5686 16.5519 11.5686 16.4086V15.549C11.782 15.5109 11.9948 15.4711 12.1993 15.4175C12.2996 15.3912 12.3573 15.2984 12.3276 15.2097C12.2985 15.1209 12.1941 15.0699 12.0927 15.0962C11.8495 15.1596 11.5977 15.2121 11.3436 15.2524C10.3788 15.4035 9.35386 15.3782 8.40662 15.1777C8.30814 15.1566 8.20258 15.2112 8.17812 15.3014C8.15365 15.3911 8.21597 15.4819 8.31799 15.5035C8.52325 15.5474 8.7342 15.5742 8.94471 15.6021V16.407C8.94471 16.5488 8.81407 16.6643 8.65327 16.6643H6.38811C6.22485 16.6643 6.09191 16.5468 6.09191 16.4024V14.3429C6.09191 14.2898 6.06329 14.2397 6.01497 14.2083C5.12882 13.6288 4.46949 12.8759 4.10862 12.0308C4.08354 11.972 4.02353 11.9308 3.95291 11.9236L2.75486 11.8024C2.54097 11.7808 2.37941 11.6205 2.37941 11.4302V9.62235C2.37941 9.42949 2.54267 9.26808 2.75886 9.24588L3.95214 9.12516C4.02262 9.11795 4.08324 9.07617 4.10786 9.01737C4.29558 8.57394 4.57532 8.15573 4.93106 7.76742C4.93229 7.77 4.9346 7.7715 4.93568 7.77409C5.00507 7.90352 5.13386 8.00042 5.28897 8.03962C5.33913 8.05201 5.39037 8.05868 5.44177 8.05868C5.5484 8.05868 5.65396 8.03186 5.74551 7.97933L8.00807 6.68555C8.17533 6.5896 8.2715 6.42723 8.26581 6.24933C8.26227 6.13174 8.21042 6.02504 8.12763 5.94052C8.29197 5.89982 8.46107 5.86321 8.63712 5.83381C8.73976 5.8168 8.8073 5.72915 8.78807 5.63783C8.76884 5.54705 8.67082 5.48621 8.56649 5.50431C8.26444 5.55481 7.97763 5.62395 7.70729 5.70588C6.16996 5.06389 4.65493 5.49452 3.86324 5.82442C3.67967 5.90132 3.56073 6.05552 3.54672 6.23709C3.53334 6.42015 3.62827 6.58878 3.802 6.68826C4.08712 6.85171 4.44735 7.10949 4.72478 7.46171C4.32657 7.87573 4.01172 8.3254 3.79554 8.8034L2.71535 8.91269C2.30788 8.95392 2 9.2592 2 9.62165V11.4295C2 11.791 2.30605 12.0942 2.71121 12.1349L3.79554 12.2447C4.17853 13.0862 4.8385 13.8375 5.71173 14.4264V16.4023C5.71173 16.7318 6.01486 16.9999 6.38737 16.9999H8.65159C9.02119 16.9999 9.32203 16.7339 9.32203 16.4075V15.6475C9.57161 15.6692 9.82167 15.6862 10.0746 15.6862C10.4488 15.6862 10.8213 15.6562 11.188 15.6083V16.4091C11.188 16.7345 11.4876 16.9995 11.8562 16.9995H14.1239C14.4918 16.9995 14.7914 16.7345 14.7914 16.4091V14.1703C15.9667 13.2535 16.6377 12.0587 16.717 10.7783C16.8738 10.7092 17.0458 10.6624 17.2218 10.6484C17.2177 10.7277 17.2218 10.8072 17.2352 10.8861C17.2783 11.1398 17.4649 11.4765 17.7697 11.6163C17.8636 11.659 17.9604 11.6808 18.0589 11.6808C18.1586 11.6808 18.26 11.6586 18.3597 11.6148C18.6511 11.4854 18.6996 11.289 18.7025 11.1832C18.7108 10.9056 18.4409 10.6236 18.1704 10.4884L18.1704 10.4884ZM4.00843 6.40672C3.95134 6.37419 3.92041 6.31907 3.92441 6.25919C3.92749 6.23142 3.94088 6.16283 4.02658 6.1273C4.4836 5.93704 5.20124 5.70906 6.01739 5.70906C6.58163 5.70906 7.19373 5.81781 7.79894 6.12309C7.87711 6.16283 7.88757 6.23033 7.88865 6.25824C7.89034 6.31798 7.85895 6.37215 7.80355 6.40359L5.54099 7.69737C5.49606 7.72269 5.44421 7.72936 5.39404 7.71697C5.3428 7.70404 5.30187 7.67315 5.27925 7.63041C4.96273 7.04002 4.41355 6.63878 4.00841 6.40673L4.00843 6.40672ZM18.1905 11.3145C18.1031 11.3543 18.0249 11.3552 17.9451 11.3186C17.7743 11.2402 17.6407 11.0118 17.6104 10.836C17.6006 10.7783 17.5976 10.7195 17.5999 10.6616C17.7375 10.6827 17.8681 10.7225 17.9835 10.7802C18.1683 10.873 18.3275 11.0572 18.3241 11.1746C18.3239 11.1965 18.3222 11.2558 18.1905 11.3145V11.3145Z" fill="#00920F"/>
</svg>
