<svg width="29" height="36" viewBox="0 0 29 36" fill="none" xmlns="http://www.w3.org/2000/svg">
<path d="M3.28113e-06 33.5482L0.0882874 2.37334C0.0908027 1.74236 0.34888 1.13812 0.805897 0.693193C1.26291 0.24826 1.88155 -0.00103357 2.52608 3.22102e-06L26.5757 0.0652741C27.2202 0.0677393 27.8374 0.320392 28.2919 0.767798C28.7464 1.2152 29.0011 1.82083 29 2.45181L28.9117 33.6267C28.9092 34.2576 28.6511 34.8619 28.1941 35.3068C27.7371 35.7517 27.1185 36.001 26.4739 36L2.4243 35.9347C1.77978 35.9323 1.16257 35.6796 0.708081 35.2322C0.253594 34.7848 -0.00105431 34.1792 3.28113e-06 33.5482V33.5482Z" fill="#D1D1D1"/>
<path d="M2.55885 24.254L2.61248 3.83024C2.61469 3.22806 2.84303 2.65139 3.24739 2.22676C3.65175 1.80213 4.19912 1.56422 4.7694 1.56522L24.2961 1.62238C24.8664 1.62472 25.4125 1.86583 25.8146 2.29282C26.2168 2.71981 26.4421 3.29781 26.4412 3.90002L26.367 32.1698C26.3647 32.772 26.1364 33.3486 25.732 33.7733C25.3276 34.1979 24.7802 34.4358 24.2099 34.4348L12.1136 34.3994C9.57335 34.3889 7.14079 33.3149 5.34955 31.4129C3.55831 29.511 2.55469 26.9364 2.55885 24.254V24.254Z" fill="white"/>
<path d="M22.8771 17.2174H6.12293C5.85632 17.2174 5.60063 17.1349 5.41211 16.9882C5.22359 16.8414 5.11768 16.6423 5.11768 16.4348C5.11768 16.2272 5.22359 16.0282 5.41211 15.8814C5.60063 15.7346 5.85632 15.6522 6.12293 15.6522H22.8771C23.1437 15.6522 23.3994 15.7346 23.588 15.8814C23.7765 16.0282 23.8824 16.2272 23.8824 16.4348C23.8824 16.6423 23.7765 16.8414 23.588 16.9882C23.3994 17.1349 23.1437 17.2174 22.8771 17.2174V17.2174Z" fill="#6D29D3"/>
<path d="M10.0346 12.5217H6.17131C5.89187 12.5217 5.62387 12.3981 5.42628 12.1779C5.22869 11.9578 5.11768 11.6592 5.11768 11.3478C5.11768 11.0365 5.22869 10.7379 5.42628 10.5177C5.62387 10.2976 5.89187 10.1739 6.17131 10.1739H10.0346C10.3141 10.1739 10.5821 10.2976 10.7797 10.5177C10.9773 10.7379 11.0883 11.0365 11.0883 11.3478C11.0883 11.6592 10.9773 11.9578 10.7797 12.1779C10.5821 12.3981 10.3141 12.5217 10.0346 12.5217V12.5217Z" fill="#6D29D3"/>
<path d="M22.8771 25.8261H6.12293C5.85632 25.8261 5.60063 25.7024 5.41211 25.4823C5.22359 25.2621 5.11768 24.9635 5.11768 24.6522C5.11768 24.3408 5.22359 24.0423 5.41211 23.8221C5.60063 23.602 5.85632 23.4783 6.12293 23.4783H22.8771C23.1437 23.4783 23.3994 23.602 23.588 23.8221C23.7765 24.0423 23.8824 24.3408 23.8824 24.6522C23.8824 24.9635 23.7765 25.2621 23.588 25.4823C23.3994 25.7024 23.1437 25.8261 22.8771 25.8261V25.8261Z" fill="#6D29D3"/>
<path d="M22.8771 21.913H6.12293C5.85632 21.913 5.60063 21.7894 5.41211 21.5692C5.22359 21.3491 5.11768 21.0505 5.11768 20.7391C5.11768 20.4278 5.22359 20.1292 5.41211 19.909C5.60063 19.6889 5.85632 19.5652 6.12293 19.5652H22.8771C23.1437 19.5652 23.3994 19.6889 23.588 19.909C23.7765 20.1292 23.8824 20.4278 23.8824 20.7391C23.8824 21.0505 23.7765 21.3491 23.588 21.5692C23.3994 21.7894 23.1437 21.913 22.8771 21.913V21.913Z" fill="#6D29D3"/>
<path d="M20.0441 13.3043C21.2218 13.3043 22.1764 12.4284 22.1764 11.3478C22.1764 10.2673 21.2218 9.3913 20.0441 9.3913C18.8664 9.3913 17.9117 10.2673 17.9117 11.3478C17.9117 12.4284 18.8664 13.3043 20.0441 13.3043Z" fill="#6D29D3"/>
<path d="M20.0441 13.3043C21.2218 13.3043 22.1764 12.4284 22.1764 11.3478C22.1764 10.2673 21.2218 9.3913 20.0441 9.3913C18.8664 9.3913 17.9117 10.2673 17.9117 11.3478C17.9117 12.4284 18.8664 13.3043 20.0441 13.3043Z" fill="#6D29D3"/>
<path d="M19.7089 12.5217C19.6664 12.5217 19.6246 12.5127 19.5866 12.4952C19.5486 12.4778 19.5156 12.4525 19.4901 12.4213L18.8195 11.6008C18.7979 11.5745 18.7822 11.5445 18.7733 11.5125C18.7643 11.4806 18.7623 11.4473 18.7674 11.4147C18.7724 11.3821 18.7845 11.3506 18.8028 11.3223C18.8211 11.2939 18.8453 11.2691 18.874 11.2493C18.9028 11.2295 18.9355 11.2151 18.9703 11.207C19.0051 11.1988 19.0413 11.197 19.0769 11.2017C19.1125 11.2064 19.1467 11.2174 19.1776 11.2343C19.2085 11.2511 19.2355 11.2733 19.257 11.2997L19.6958 11.8365L20.8226 10.2855C20.8629 10.2302 20.9254 10.1918 20.9965 10.1788C21.0676 10.1657 21.1414 10.1792 21.2017 10.2161C21.262 10.2529 21.3039 10.3103 21.3181 10.3755C21.3324 10.4407 21.3178 10.5085 21.2777 10.5638L19.9364 12.41C19.9122 12.4434 19.8795 12.471 19.8413 12.4904C19.803 12.5098 19.7602 12.5205 19.7165 12.5217C19.7139 12.5217 19.7114 12.5217 19.7089 12.5217Z" fill="#7AFF64"/>
<path d="M19.7089 12.5217C19.6664 12.5217 19.6246 12.5127 19.5866 12.4952C19.5486 12.4778 19.5156 12.4525 19.4901 12.4213L18.8195 11.6008C18.7979 11.5745 18.7822 11.5445 18.7733 11.5125C18.7643 11.4806 18.7623 11.4473 18.7674 11.4147C18.7724 11.3821 18.7845 11.3506 18.8028 11.3223C18.8211 11.2939 18.8453 11.2691 18.874 11.2493C18.9028 11.2295 18.9355 11.2151 18.9703 11.207C19.0051 11.1988 19.0413 11.197 19.0769 11.2017C19.1125 11.2064 19.1467 11.2174 19.1776 11.2343C19.2085 11.2511 19.2355 11.2733 19.257 11.2997L19.6958 11.8365L20.8226 10.2855C20.8629 10.2302 20.9254 10.1918 20.9965 10.1788C21.0676 10.1657 21.1414 10.1792 21.2017 10.2161C21.262 10.2529 21.3039 10.3103 21.3181 10.3755C21.3324 10.4407 21.3178 10.5085 21.2777 10.5638L19.9364 12.41C19.9122 12.4434 19.8795 12.471 19.8413 12.4904C19.803 12.5098 19.7602 12.5205 19.7165 12.5217C19.7139 12.5217 19.7114 12.5217 19.7089 12.5217Z" fill="#7AFF64"/>
</svg>
