<svg width="320" height="222" viewBox="0 0 320 222" fill="none" xmlns="http://www.w3.org/2000/svg">
<path d="M95.4706 62.0203C94.599 59.0639 88.9292 56.0918 90.5646 44.1113C92.4545 30.4722 103.543 22.932 120.126 23.3793C117.139 23.8675 114.27 24.7397 111.63 25.9622C110.972 26.1128 106.068 25.7166 105.891 26.6211C105.714 27.5257 107.956 27.564 108.601 27.564C107.038 28.5364 105.614 29.6461 104.358 30.8726C102.627 30.744 100.883 30.7754 99.1603 30.9663C99.0608 30.9888 98.9677 31.0268 98.8865 31.0781C98.8053 31.1294 98.7375 31.1931 98.6869 31.2655C98.6363 31.3379 98.604 31.4176 98.5918 31.5C98.5796 31.5824 98.5877 31.666 98.6157 31.7459C98.8332 32.3664 99.5969 32.2244 102.809 32.5226C102.048 33.4224 101.372 34.367 100.787 35.3484C98.8845 35.4422 96.9839 35.5089 95.094 35.6495C94.6008 35.6495 92.9725 36.9701 97.7813 37.0922L99.8003 37.1391C99.2132 38.3877 98.7769 39.6787 98.4973 40.9944C96.7908 41.0208 95.0871 41.1185 93.3933 41.2869C92.0072 41.4942 92.8169 43.1712 98.1808 42.8702C98.0235 44.1228 97.9527 45.3814 97.9687 46.6403C96.9716 46.6403 92.184 46.1404 92.1027 47.319C92.0213 48.4976 96.1512 48.4124 97.9687 48.5062L98.2869 51.9C96.7842 52.0505 95.2708 52.1726 93.7804 52.3615C93.0061 52.4566 93.0733 53.4265 94.9543 53.6537C96.1799 53.7332 97.4103 53.7517 98.6387 53.709C98.9062 54.9141 99.3207 56.0951 99.8763 57.2349L97.0953 57.3386C97.0953 57.3386 94.104 57.5828 96.1919 58.7145C97.7543 59.1788 99.4356 59.3252 101.086 59.1405C101.972 60.3036 103.176 61.2902 104.606 62.026C105.415 62.4307 106.55 61.6199 105.779 60.988C99.5015 55.521 98.6688 44.5401 101.908 37.8207C107.775 25.5675 127.596 21.0334 138.18 27.9048C138.398 28.0239 138.661 28.0765 138.923 28.0534C139.184 28.0302 139.427 27.9326 139.607 27.7784C139.787 27.6241 139.892 27.4232 139.904 27.2121C139.916 27.0009 139.833 26.7933 139.671 26.6268C135.893 23.2515 129.848 22.3569 124.686 21.7988C111.554 20.3944 99.4202 23.0243 92.4368 32.8265C87.4141 39.8484 85.9237 50.7356 90.3153 58.2758C93.464 63.5468 95.7694 63.0385 95.4706 62.0203Z" fill="#38A1FF"/>
<path d="M144.207 58.4291C143.693 59.2683 145.05 60.8048 146.799 58.6265C152.034 52.086 151.67 39.022 144.992 32.4417C144.559 32.0157 143.185 32.8294 143.537 33.2809C149.288 40.6337 149.541 49.7203 144.207 58.4291Z" fill="#38A1FF"/>
<path d="M207.883 112.807C179.42 70.2066 90.5313 68.5026 54.6033 99.6759C42.8677 94.1989 24.5148 94.2273 21.3926 96.4894C18.5286 98.5725 21.0762 115.341 26.3428 123.611C28.3629 120.251 31.3765 117.338 35.1206 115.128C35.72 114.807 36.2946 115.505 35.872 115.882C24.2549 125.599 18.868 143.004 27.0712 157.524C52.5667 145.626 83.0671 155.48 82.1036 170.622C81.2709 183.677 65.9216 187.324 56.9087 188.051C72.6345 194.998 86.504 197.646 86.9866 198.542C89.6615 203.613 91.258 210.718 97.032 217.978C103.52 218.815 115.808 218.919 120.585 217.978C124.021 210.907 126.369 199.126 126.804 194.122C126.804 193.688 127.865 193.481 127.976 194.038C128.416 196.374 128.369 198.754 127.837 201.078C139.523 200.153 150.777 197.04 160.695 191.99C161.106 191.801 161.528 192.293 161.316 192.612C159.979 194.658 152.434 197.768 149.699 198.758C150.086 199.587 148.108 215.413 147.012 217.797C152.632 218.665 165.448 218.835 172.454 217.279C178.497 215.931 192.872 193.97 198.266 184.289C193.788 160.98 195.559 155.089 207.883 112.807ZM24.1082 99.5055C20.6801 98.0855 22.1953 97.3854 25.0469 98.2616C30.6212 99.9769 42.2985 108.77 45.1502 112.4C45.8573 113.278 44.1177 114.201 43.308 113.427C38.8687 109.139 30.2659 102.056 24.1082 99.5055ZM44.6923 144.532C42.2401 144.74 41.243 138.426 44.4571 138.066C47.1338 137.755 46.911 144.345 44.6923 144.532ZM45.4896 129.347C42.6291 129.97 41.5471 131.477 40.3042 133.23C39.7986 133.928 37.6859 133.72 39.1303 130.922C40.1679 129.048 42.0754 127.573 44.4465 126.812C44.6577 126.743 44.8843 126.71 45.112 126.715C45.3398 126.719 45.5641 126.761 45.7709 126.838C45.9776 126.915 46.1626 127.025 46.3142 127.162C46.4659 127.298 46.581 127.458 46.6526 127.632C46.7241 127.806 46.7504 127.99 46.73 128.172C46.7095 128.354 46.6428 128.531 46.5337 128.692C46.4247 128.853 46.2758 128.994 46.0962 129.106C45.9166 129.219 45.7102 129.301 45.4896 129.347ZM69.5707 144.494C67.2229 144.095 67.9636 138.076 70.9673 138.537C73.9711 138.999 71.9874 144.906 69.5707 144.494ZM81.2125 129.47C80.3286 127.961 78.8647 125.445 73.0677 124.851C71.7187 124.719 70.8736 122.295 75.4155 122.967C77.2053 123.142 78.8856 123.752 80.2305 124.717C81.5753 125.682 82.5202 126.954 82.938 128.363C83.1962 129.79 82.2468 131.224 81.2125 129.47ZM91.2102 178.861C90.5879 178.963 90.3545 178.135 90.9291 177.918C97.3945 175.091 97.1947 170.292 93.4042 165.9C92.5362 164.884 94.6418 163.667 95.5876 164.622C100.423 169.52 99.9155 177.424 91.2102 178.861ZM114.821 108.667C111.285 105.849 102.887 98.4873 92.3965 96.9793C97.0904 101.192 102.606 118.809 101.236 124.654C101.188 124.79 101.086 124.91 100.945 124.996C100.804 125.081 100.632 125.127 100.456 125.127C100.279 125.127 100.107 125.081 99.9666 124.996C99.8257 124.91 99.7234 124.79 99.6751 124.654C98.3615 117.782 95.8139 101.975 89.7747 97.5828C83.7442 98.5257 74.5191 109.582 71.176 113.758C70.6933 114.37 69.2966 113.947 69.6732 113.24C72.7616 107.855 77.206 103.043 82.7259 99.1065C87.9608 95.2512 91.3287 94.4687 98.381 96.7691C104.471 98.7134 109.887 101.811 114.165 105.799C116.382 107.923 115.774 109.424 114.821 108.667ZM105.656 90.3635C102.136 89.2275 99.272 87.6854 95.7167 86.734C107.136 82.3888 130.63 81.7952 142.27 83.1613C146.312 84.2271 150.024 85.9722 153.161 88.2804C142.035 87.1486 121.981 86.9129 105.656 90.3635Z" fill="#38A1FF"/>
<path d="M147.375 199.465C143.96 200.53 131.204 203.235 127.647 202.447C126.991 206.341 125.301 214.436 122.953 217.661C130.353 218.448 137.85 218.448 145.25 217.661C146.586 211.653 147.296 205.567 147.375 199.465Z" fill="#38A1FF"/>
<path d="M79.6634 169.359C79.6634 160.876 66.6373 153.597 49.7499 154.146C28.2624 154.856 21.3268 161.622 21.3975 169.719C21.4788 179.03 31.6303 186.269 48.6821 186.74C65.7338 187.212 79.6634 182.452 79.6634 169.359ZM36.9341 176.089C30.6226 176.981 29.1888 166.974 34.9523 165.636C40.2207 164.412 43.2368 175.198 36.9341 176.089ZM62.3182 176.249C55.9819 175.977 57.695 164.994 63.5964 165.805C68.4441 166.475 68.6439 176.522 62.3182 176.249Z" fill="#38A1FF"/>
<path d="M57.0962 189.964C60.4553 197.136 70.8154 216.779 73.9712 217.486C77.774 218.338 87.5489 218.523 94.0266 217.656C91.0813 214.169 86.4935 203.518 85.4256 199.597C80.5921 199.38 61.8519 192.471 57.0962 189.964Z" fill="#38A1FF"/>
<path d="M99.4009 71.8695C101.948 72.9799 107.839 72.9444 106.923 71.3696C106.291 70.2862 102.84 72.0399 98.8263 70.2677C98.1457 69.9752 96.8674 70.7647 99.4009 71.8695Z" fill="#191919"/>
<path d="M104.613 69.9467C104.729 69.8648 104.817 69.7598 104.867 69.6421C104.917 69.5244 104.928 69.3981 104.898 69.276C104.868 69.154 104.799 69.0403 104.698 68.9464C104.596 68.8525 104.465 68.7817 104.319 68.7412C103.145 68.487 101.725 69.5037 97.0068 67.3212C96.2201 66.9534 95.4352 67.9247 97.8166 69.2069C99.5898 70.0887 103.156 70.7859 104.613 69.9467Z" fill="#191919"/>
<path d="M135.44 32.1023C135.18 32.365 135.346 32.8762 135.85 32.8293C137.95 32.6305 139.372 31.584 144.066 31.3114C144.349 31.3114 144.62 31.221 144.821 31.0602C145.021 30.8993 145.133 30.6812 145.133 30.4537C145.133 30.2262 145.021 30.0081 144.821 29.8472C144.62 29.6864 144.349 29.596 144.066 29.596C141.566 29.7281 136.978 30.5502 135.44 32.1023Z" fill="#191919"/>
<path d="M129.585 21.3771C132.27 21.105 134.998 21.4061 137.493 22.2499C139.987 23.0937 142.161 24.4506 143.795 26.1838C145.415 27.7855 146.801 26.5984 144.969 24.7411C142.291 22.1408 138.438 20.5004 134.256 20.18C129.01 19.7838 128.577 21.4722 129.585 21.3771Z" fill="#191919"/>
<path d="M102.253 74.3587C106.229 75.2022 110.422 75.117 114.34 74.1131C118.823 72.9061 117.381 71.3426 116.417 71.4463C115.15 71.5769 113.589 73.6984 102.465 73.3306C102.317 73.3412 102.177 73.3909 102.068 73.472C101.96 73.5532 101.887 73.661 101.863 73.7787C101.839 73.8964 101.864 74.0172 101.934 74.1222C102.005 74.2272 102.117 74.3104 102.253 74.3587Z" fill="#191919"/>
<path d="M111.288 63.0285C113.634 64.9157 114.962 63.7073 113.272 62.0856C111.369 60.6489 110.045 58.7881 109.469 56.7422C109.282 56.2139 107.333 55.6289 108.297 58.8622C108.823 60.4372 109.855 61.8737 111.288 63.0285Z" fill="#191919"/>
<path d="M109.575 64.2171C109.939 63.3651 108.53 62.9632 107.898 63.5752C104.869 66.5345 99.6837 65.461 96.2291 64.5181C95.5131 64.3108 95.1684 65.0648 95.6987 65.461C99.3548 67.9389 108.083 67.7032 109.575 64.2171Z" fill="#191919"/>
<path d="M149.147 28.7469C154.463 34.7421 165.87 48.7958 173.357 52.397C173.491 52.458 173.648 52.4787 173.799 52.4552C173.95 52.4318 174.086 52.3658 174.182 52.2692C174.278 52.1725 174.328 52.0514 174.323 51.9278C174.318 51.8042 174.258 51.686 174.154 51.5947C164.496 43.3288 158.16 35.9576 150.004 26.8057C148.831 25.4383 147.973 25.2437 147.74 26.8526C147.453 28.4666 146.932 30.0483 146.189 31.5656C145.556 33.102 148.067 32.9799 149.147 28.7469Z" fill="#191919"/>
<path d="M150.919 51.6614C152.092 53.6693 154.499 56.8827 156.88 58.0145C157.007 58.0894 157.164 58.1259 157.321 58.1174C157.478 58.1089 157.627 58.056 157.741 57.9681C157.855 57.8802 157.926 57.7628 157.943 57.6367C157.959 57.5107 157.92 57.3839 157.831 57.2789C156.083 55.0169 154.803 54.659 152.761 51.0863C152.715 50.9881 152.645 50.8982 152.555 50.8218C152.466 50.7455 152.358 50.6841 152.239 50.6413C152.12 50.5986 151.991 50.5752 151.86 50.5726C151.73 50.57 151.6 50.5883 151.478 50.6263C151.356 50.6643 151.245 50.7214 151.151 50.7941C151.057 50.8668 150.981 50.9539 150.929 51.0501C150.877 51.1464 150.85 51.25 150.848 51.3549C150.846 51.4598 150.87 51.564 150.919 51.6614Z" fill="#191919"/>
<path d="M121.276 73.5848C130.292 77.1504 161.986 76.6491 178.709 74.6412C190.338 73.2454 208.117 70.9933 217.798 65.7435C218.314 65.451 217.927 64.7154 217.305 64.9043C202.378 69.6173 197.016 70.5602 181.161 72.5865C157.294 75.6125 127.566 74.8386 122.085 72.4544C118.565 70.9464 117.697 67.0726 117.791 64.0651C151.108 65.1585 172.312 57.9477 191.723 49.9276C201.78 45.8096 211.449 39.323 226.752 41.2088C255.393 44.7332 266.229 87.5348 265.677 100.788C264.058 105.332 230.637 112.626 211.932 108.903C215.077 96.549 212.413 82.7849 202.954 72.7086C202.845 72.5838 202.679 72.4988 202.492 72.4725C202.305 72.4461 202.113 72.4805 201.957 72.568C201.802 72.6556 201.696 72.7892 201.663 72.9394C201.63 73.0896 201.673 73.2441 201.782 73.3689C209.727 83.9526 212.499 96.5276 209.561 108.659C209.174 110.221 211.603 110.647 214.524 110.996C228.22 112.598 251.61 110.214 263.319 104.568C266.1 103.229 267.615 102.324 267.615 100.524C267.615 81.7668 255.996 44.959 229.053 39.776C214.501 36.9473 203.417 43.5461 190.959 48.4195C162.978 59.4558 147.879 63.4999 116.933 62.7175C116.778 62.6991 116.62 62.7081 116.469 62.744C116.318 62.7798 116.179 62.8416 116.062 62.925C115.944 63.0084 115.85 63.1114 115.787 63.2269C115.724 63.3424 115.693 63.4675 115.696 63.5936C115.478 67.3921 116.721 71.7856 121.276 73.5848Z" fill="#191919"/>
<path d="M192.414 23.1577C191.96 23.0905 191.491 23.1615 191.099 23.3568C190.707 23.5521 190.419 23.8578 190.292 24.2142C190.163 24.7325 190.621 24.9242 191.031 24.6288C191.452 24.2237 192.047 23.961 192.698 23.8933C193.471 23.7144 193.33 23.2245 192.414 23.1577Z" fill="#191919"/>
<path d="M189.258 20.9425C190.137 20.8107 191.041 20.8301 191.91 20.9993C192.591 21.1314 193.166 20.8389 192.884 20.2893C192.474 19.4686 190.103 19.2797 188.859 19.6858C187.614 20.092 187.568 21.1967 189.258 20.9425Z" fill="#191919"/>
<path d="M187.426 29.4824C188.234 29.7522 190.759 29.7664 191.067 28.8136C191.089 28.7376 191.09 28.6584 191.069 28.5821C191.049 28.5057 191.007 28.4341 190.947 28.3725C190.887 28.311 190.81 28.2611 190.723 28.2266C190.636 28.1921 190.54 28.1738 190.443 28.1732C189.762 28.1732 189.339 28.8037 188.295 28.6815C189.2 25.6995 188.086 24.7226 187.639 26.5984C187.31 27.9644 186.626 29.2155 187.426 29.4824Z" fill="#191919"/>
<path d="M192.626 31.8666C194.074 32.6448 197.672 32.1876 198.283 30.1712C198.512 29.2482 198.413 28.2922 197.998 27.4122C197.583 26.5322 196.868 25.7636 195.936 25.1941C195.229 24.7681 194.622 25.4482 194.824 26.0461C195.455 28.017 193.342 29.6472 192.31 30.5148C191.594 31.0885 191.762 31.4023 192.626 31.8666ZM196.199 27.2147C197.866 29.1005 197.214 31.5656 193.37 31.0288C194.894 30.1005 195.908 28.7328 196.199 27.2147Z" fill="#191919"/>
<path d="M182.745 21.414C182.221 21.8151 181.837 22.3194 181.631 22.8767C181.425 23.4339 181.405 24.0248 181.571 24.5905C181.677 24.8546 182.476 25.336 182.745 24.129C182.904 23.4233 183.312 22.7689 183.919 22.2433C184.845 21.4055 183.649 20.8105 182.745 21.414Z" fill="#191919"/>
<path d="M184.612 26.7873C184.931 26.5426 185.345 26.3924 185.784 26.3613C186.525 26.2846 186.477 25.7763 185.691 25.6627C185.352 25.6134 185.003 25.6687 184.714 25.8175C184.424 25.9663 184.216 26.1976 184.13 26.465C184 26.7589 184.29 27.0301 184.612 26.7873Z" fill="#191919"/>
<path d="M204.232 210.672C199.62 212.392 194.828 213.782 189.912 214.828C187.283 215.404 187.096 217.657 189.758 218.138C192.106 218.543 212.564 218.138 215.013 218.034C216.891 217.968 218.651 217.571 218.991 215.884C219.346 214.187 218.929 212.444 217.817 210.973C217.384 210.522 216.104 210.689 216.256 211.303C216.703 213.263 218.674 216.232 213.852 216.415C210.049 216.557 193.374 216.924 190.616 216.536C195.11 215.463 201.365 213.831 204.968 211.721C205.09 211.625 205.169 211.499 205.193 211.364C205.217 211.228 205.185 211.089 205.101 210.97C205.017 210.85 204.887 210.756 204.73 210.702C204.573 210.648 204.398 210.638 204.232 210.672Z" fill="#191919"/>
<path d="M295.309 184.657C299.142 186.219 300.12 185.43 297.093 191.407C294.679 196.215 291.427 200.725 287.435 204.8C287.281 201.03 287.965 196.034 287.845 192.189C287.845 191.529 286.484 191.415 286.38 192.104C285.756 196.063 285.593 200.634 285.345 204.715C285.181 207.413 287.306 207.599 289.512 205.243C294.091 200.432 297.724 195.086 300.284 189.39C300.907 187.97 301.457 186.486 300.284 185.149C299.215 184.08 297.714 183.346 296.041 183.074C295.791 183.028 295.528 183.058 295.302 183.156C295.076 183.254 294.902 183.415 294.813 183.608C294.724 183.802 294.725 184.015 294.816 184.208C294.907 184.401 295.083 184.56 295.309 184.657Z" fill="#191919"/>
<path d="M178.474 23.676C180.242 29.0294 187.667 41.2173 196.662 38.6159C197.08 40.2068 198.016 41.6802 199.374 42.8858C199.715 43.0832 200.396 42.8006 200.172 42.4428C199.301 41.045 198.556 39.599 197.942 38.116C199.188 37.4241 200.25 36.5407 201.068 35.5171C201.886 34.4934 202.443 33.3497 202.707 32.152C202.765 31.567 201.768 31.5386 201.533 32.01C200.265 34.4609 198.071 37.5991 194.304 37.5906C186.406 37.5906 179.929 24.6487 178.923 19.6248C176.987 19.3408 173.136 18.4093 171.975 17.0617C171.902 16.9644 171.871 16.8505 171.886 16.7376C171.901 16.6247 171.962 16.519 172.06 16.4365C172.157 16.3541 172.285 16.2995 172.425 16.2811C172.564 16.2627 172.707 16.2815 172.832 16.3346C179.374 19.3507 187.559 18.2204 194.284 16.0719C195.458 19.6532 198.862 21.4537 199.426 20.6798C202.452 16.4667 207.252 20.7466 203.989 23.5837C202.815 24.5266 202.675 24.7893 202.875 25.6953C203.626 29.1828 209.469 36.8735 212.192 38.8246C238.55 32.3025 257.097 51.1346 267.641 81.3153C272.523 79.6567 281.184 76.0755 282.298 60.0039C283.411 43.9323 268.154 37.1419 261.104 36.4404C254.053 35.7389 252.573 34.6498 252.573 27.1465C252.573 19.6433 241.527 16.1358 231.751 16.5505C220.346 17.0404 216.495 10.5865 213.703 4.67361C211.143 -0.773513 199.622 -1.24495 194.341 2.14885C189.06 5.54265 183.988 5.17345 175.903 3.76055C168.51 2.44989 162.113 10.48 164.567 16.7294C165.491 19.0195 167.394 20.9731 169.939 22.2445C172.485 23.5159 175.508 24.023 178.474 23.676Z" fill="#191919"/>
<path d="M267.602 105.071C249.824 113.883 222.375 113.997 210.662 112.215C205.769 122.931 200.242 149.531 199.209 159.06C198.177 168.59 201.884 196.923 203.806 208.827C208.835 209.704 214.043 209.685 219.062 208.772C218.581 205.679 221.021 169.722 221.913 165.912C222.723 162.453 229.259 150.275 234.34 141.82C234.177 138.666 233.507 135.542 232.346 132.526C232.28 132.408 232.276 132.273 232.333 132.152C232.391 132.03 232.506 131.932 232.654 131.879C236.407 130.537 237.903 158.955 244.75 167.137C247.027 169.852 276.612 186.385 285.271 190.796C288.287 189.005 293.216 185.433 294.111 181.502C290.495 179.447 266.462 159.54 266.016 158.475C265.571 157.41 271.628 126.294 267.602 105.071Z" fill="#191919"/>
<path d="M318.828 220.148C217.129 220.051 103.476 219.787 1.16139 220.344C1.01103 220.339 0.861043 220.357 0.720409 220.394C0.579775 220.432 0.45139 220.489 0.342946 220.562C0.234503 220.635 0.148233 220.723 0.0893037 220.82C0.0303749 220.917 0 221.022 0 221.127C0 221.233 0.0303749 221.337 0.0893037 221.434C0.148233 221.531 0.234503 221.619 0.342946 221.692C0.45139 221.766 0.579775 221.823 0.720409 221.86C0.861043 221.898 1.01103 221.915 1.16139 221.911C104.342 222.054 216.609 222.044 318.816 221.738C318.968 221.743 319.121 221.726 319.264 221.688C319.407 221.651 319.537 221.593 319.648 221.52C319.758 221.446 319.847 221.357 319.907 221.259C319.968 221.16 319.999 221.054 320 220.947C320.001 220.84 319.971 220.734 319.912 220.635C319.853 220.537 319.766 220.447 319.656 220.372C319.547 220.298 319.417 220.239 319.275 220.201C319.132 220.162 318.98 220.144 318.828 220.148Z" fill="#191919"/>
<path d="M125.058 36.9567C124.204 36.7549 123.138 36.8693 122.274 36.9567C121.074 37.078 120.052 37.4687 119.008 37.9328C116.979 38.8352 115.211 40.1098 115.211 42.0835C115.211 43.2047 115.879 44.8031 117.567 44.8823C119.238 44.9607 120.996 44.4622 122.577 44.1092C124.477 43.6851 126.406 43.2595 128.368 43.064C129.999 42.9013 131.749 42.8488 133.053 43.7377C134.605 44.7955 135.215 46.8604 134.613 48.3851C133.717 50.6559 130.738 51.5224 128.157 52.2897C126.94 52.6512 125.598 53.0281 124.479 53.5595C123.942 53.8141 123.427 54.0941 122.816 54.216" stroke="#38A1FF" stroke-width="1.8" stroke-linecap="round"/>
<path d="M115.58 35.9143C115.986 35.9345 116.406 36.3676 116.604 36.6097C116.976 37.066 117.469 37.4357 117.823 37.9184C118.498 38.842 119.287 39.552 120.162 40.3501C121.981 42.0072 123.245 43.9761 124.989 45.6756C126.34 46.9923 127.524 48.4251 129.013 49.6578C129.645 50.1811 129.991 50.9037 130.644 51.4244C131.26 51.9163 131.829 52.4643 132.35 53.0181" stroke="#38A1FF" stroke-width="1.8" stroke-linecap="round"/>
</svg>
