<svg width="200" height="101" viewBox="0 0 200 101" fill="none" xmlns="http://www.w3.org/2000/svg">
<path d="M99.8437 4.24817C83.2804 4.24817 69.8423 17.4412 69.8423 33.7231C69.8423 50.005 83.2804 63.198 99.8437 63.198C116.416 63.198 129.845 50.005 129.845 33.7231C129.845 17.4412 116.416 4.24817 99.8437 4.24817Z" fill="#8F4EF2"/>
<path d="M99.8437 4.24817C83.2804 4.24817 69.8423 17.4412 69.8423 33.7231C69.8423 50.005 83.2804 63.198 99.8437 63.198C116.416 63.198 129.845 50.005 129.845 33.7231C129.845 17.4412 116.416 4.24817 99.8437 4.24817Z" stroke="#6D29D3" stroke-width="7.95855"/>
<path d="M123.055 34.1883C123.055 46.5253 112.875 56.5178 100.327 56.5178C87.7693 56.5178 77.5889 46.5253 77.5889 34.1883C77.5889 21.8605 87.7693 11.8588 100.327 11.8588C112.875 11.8588 123.055 21.8605 123.055 34.1883Z" fill="#F58611"/>
<path d="M100.327 15.7386C89.9664 15.7386 81.538 24.0098 81.538 34.1883C81.538 44.3668 89.9664 52.6474 100.327 52.6474C110.678 52.6474 119.106 44.3668 119.106 34.1883C119.106 24.0098 110.678 15.7386 100.327 15.7386ZM100.327 53.6243C89.4171 53.6243 80.5436 44.9065 80.5436 34.1883C80.5436 23.4795 89.4171 14.7617 100.327 14.7617C111.227 14.7617 120.1 23.4795 120.1 34.1883C120.1 44.9065 111.227 53.6243 100.327 53.6243Z" fill="#14AD5E"/>
<path d="M103.953 39.4636C103.868 40.3475 103.357 40.9802 102.448 41.3523C102.41 39.6404 102.362 37.9378 102.306 36.2538C103.395 36.9888 104.067 38.2727 103.953 39.4636ZM97.3339 29.2479C97.2392 29.099 97.0877 28.8757 97.4192 28.364C97.5991 28.0756 97.8737 27.8058 98.1957 27.5639C98.2146 28.4478 98.243 29.3409 98.2714 30.2248C97.8927 29.9457 97.5801 29.6387 97.3339 29.2479ZM104.02 32.8485C103.413 32.5043 102.788 32.2252 102.163 31.974C102.116 30.2155 102.059 28.4385 102.021 26.6614C102.381 26.8196 102.618 27.0987 102.779 27.536C103.129 28.5222 104.218 29.0339 105.222 28.6897C106.226 28.3454 106.756 27.2662 106.406 26.2892C105.705 24.3075 104.086 23.0329 101.965 22.7723C101.955 22.1955 101.955 21.6093 101.955 21.0325C101.955 19.9905 101.093 19.1438 100.033 19.1438C98.9627 19.1438 98.1105 19.9905 98.1105 21.0325C98.1105 21.7861 98.1105 22.549 98.1199 23.312C96.4817 23.9446 95.0139 25.0239 94.1616 26.3544C93.1389 27.9546 93.101 29.741 94.0764 31.2575C95.1938 33.016 96.8131 33.9092 98.404 34.5791C98.4703 36.7469 98.5461 38.9519 98.5934 41.1663C98.3567 41.0546 98.1294 40.9244 97.9211 40.7848C97.1067 40.2266 96.69 39.5102 96.6805 38.6542C96.6711 37.6215 95.8188 36.7748 94.7582 36.7748H94.7487C93.6881 36.7841 92.8264 37.6401 92.8358 38.6821C92.8453 40.7662 93.8775 42.6177 95.7146 43.883C96.5953 44.4878 97.6086 44.9158 98.6692 45.167C98.6692 45.8927 98.6786 46.6277 98.6786 47.3441C98.6786 48.3954 99.5404 49.2421 100.601 49.2421C101.662 49.2421 102.523 48.3954 102.523 47.3441C102.523 46.6556 102.514 45.9671 102.514 45.2693C102.874 45.1949 103.234 45.1018 103.574 44.9902C106.018 44.1156 107.552 42.2362 107.779 39.8079C108.035 37.0911 106.529 34.2906 104.02 32.8485Z" fill="#8A4CFF"/>
<path d="M100.346 55.3455C93.262 55.3455 86.9644 51.9868 83.0248 46.8045C84.1896 47.3999 85.4208 47.8837 86.6992 48.2652C90.2505 51.5774 95.0424 53.6243 100.327 53.6243C111.227 53.6243 120.1 44.9065 120.1 34.1883C120.1 27.9547 117.098 22.4002 112.449 18.8461C111.833 17.5714 111.085 16.3619 110.242 15.2455C117.203 18.7623 121.957 25.8985 121.957 34.1232C121.957 45.8462 112.288 55.3455 100.346 55.3455ZM100.327 52.6474C95.9989 52.6474 92.0025 51.2052 88.83 48.7769C90.1464 49.0281 91.5195 49.1584 92.9116 49.1584C95.0045 49.1584 97.0312 48.8606 98.9441 48.3117C99.2851 48.8699 99.9006 49.2421 100.601 49.2421C101.662 49.2421 102.524 48.3954 102.524 47.3441C102.524 47.2138 102.524 47.0743 102.524 46.944C109.636 43.4644 114.523 36.2631 114.523 27.9267C114.523 25.4426 114.087 23.0608 113.291 20.8464C116.871 24.2145 119.106 28.9502 119.106 34.1883C119.106 44.3668 110.678 52.6474 100.327 52.6474Z" fill="#F7980F"/>
<path d="M100.327 53.6243C95.0424 53.6243 90.2505 51.5774 86.6992 48.2652C87.3905 48.4699 88.1008 48.6374 88.83 48.7769C92.0025 51.2053 95.9989 52.6474 100.327 52.6474C110.678 52.6474 119.106 44.3668 119.106 34.1883C119.106 28.9502 116.871 24.2145 113.291 20.8465C113.045 20.1673 112.761 19.4974 112.449 18.8461C117.098 22.4002 120.1 27.9547 120.1 34.1883C120.1 44.9065 111.227 53.6243 100.327 53.6243Z" fill="#14AD5E"/>
<path d="M100.601 49.2421C99.9005 49.2421 99.285 48.8699 98.9441 48.3117C100.185 47.9582 101.387 47.5023 102.524 46.944C102.524 47.0743 102.524 47.2138 102.524 47.3441C102.524 48.3954 101.662 49.2421 100.601 49.2421Z" fill="#8A4CFF"/>
<path d="M100.015 67.0238C91.0422 67.0238 82.5994 63.5955 76.2461 57.3537C69.9033 51.1223 66.4032 42.8276 66.4032 34.0223C66.4032 25.2067 69.9033 16.9016 76.2461 10.6702C82.5994 4.42832 91.0316 1 100.015 1C108.999 1 117.421 4.42832 123.774 10.6702C130.117 16.9016 133.606 25.1962 133.606 34.0223C133.606 42.8484 130.117 51.1223 123.774 57.3537C117.421 63.5955 108.989 67.0238 100.015 67.0238ZM100.015 2.96946C91.5831 2.96946 83.6388 6.19979 77.6673 12.0665C71.6958 17.9332 68.4184 25.7173 68.4184 34.0223C68.4184 42.317 71.6958 50.1115 77.6673 55.9782C83.6388 61.8449 91.5725 65.0648 100.015 65.0648C108.469 65.0648 116.392 61.8449 122.363 55.9782C128.335 50.1115 131.612 42.317 131.612 34.0223C131.612 25.7173 128.335 17.9332 122.363 12.0665C116.381 6.19979 108.448 2.96946 100.015 2.96946Z" fill="#25005C"/>
<path d="M99.2566 59.523H99.1808C98.9251 59.5137 98.7168 59.2997 98.7262 59.0485C98.7452 58.8066 98.9441 58.6019 99.1998 58.6019H99.2092H99.266C99.5312 58.6205 99.7301 58.8252 99.7206 59.0764C99.7206 59.3183 99.5217 59.523 99.2566 59.523ZM101.624 59.4672C101.368 59.4672 101.17 59.2718 101.16 59.0299C101.141 58.7694 101.34 58.5554 101.596 58.5368H101.643C101.908 58.5089 102.135 58.7136 102.145 58.9555C102.173 59.216 101.975 59.4393 101.719 59.4486H101.662C101.634 59.4672 101.624 59.4672 101.624 59.4672ZM96.8512 59.3555C96.8417 59.3555 96.8133 59.3555 96.7943 59.3555L96.7375 59.3462C96.4724 59.309 96.2924 59.0857 96.3303 58.8252C96.3587 58.574 96.586 58.3972 96.8512 58.4251L96.9174 58.4437C97.1731 58.4623 97.3531 58.7042 97.3341 58.9555C97.2868 59.1787 97.0784 59.3555 96.8512 59.3555ZM104.011 59.1974C103.783 59.1974 103.584 59.0299 103.547 58.8066C103.499 58.5554 103.679 58.3135 103.944 58.2763L104.001 58.267C104.257 58.2297 104.503 58.3972 104.541 58.6484C104.579 58.9089 104.408 59.1415 104.143 59.1787L104.086 59.1974C104.077 59.1974 104.048 59.1974 104.011 59.1974ZM94.4647 58.9741C94.4268 58.9741 94.3984 58.9741 94.37 58.9555L94.3037 58.9462C94.0575 58.8903 93.887 58.6391 93.9438 58.3972C94.0101 58.146 94.2563 57.9878 94.512 58.0437L94.5689 58.053C94.8245 58.1088 94.9855 58.3507 94.9287 58.6019C94.8814 58.8252 94.673 58.9741 94.4647 58.9741ZM106.378 58.7136C106.17 58.7136 105.971 58.574 105.924 58.36C105.867 58.1088 106.009 57.8576 106.274 57.7925L106.321 57.7832C106.577 57.7087 106.833 57.8669 106.899 58.1088C106.965 58.36 106.814 58.6205 106.558 58.6763L106.501 58.6856C106.463 58.7042 106.416 58.7136 106.378 58.7136ZM92.135 58.3693C92.0877 58.3693 92.0309 58.36 91.9835 58.3507L91.9362 58.3321C91.6899 58.2577 91.5479 57.9971 91.6331 57.7459C91.7089 57.504 91.9646 57.3738 92.2108 57.4389L92.2771 57.4575C92.5233 57.5226 92.6559 57.7925 92.5896 58.0344C92.5138 58.2391 92.3244 58.3693 92.135 58.3693ZM108.689 57.9971C108.499 57.9971 108.32 57.8762 108.244 57.6901C108.159 57.4575 108.282 57.1877 108.537 57.104L108.585 57.0761C108.821 56.9923 109.096 57.1133 109.191 57.3459C109.276 57.5878 109.153 57.8576 108.916 57.9506L108.859 57.9692C108.793 57.9971 108.746 57.9971 108.689 57.9971ZM89.8622 57.5599C89.7959 57.5599 89.7391 57.5506 89.6823 57.5226L89.616 57.504C89.3792 57.3924 89.275 57.1226 89.3697 56.89C89.4739 56.6574 89.7485 56.5457 89.9948 56.6481L90.0421 56.6667C90.2789 56.7597 90.402 57.0295 90.2883 57.2807C90.2221 57.4389 90.0421 57.5599 89.8622 57.5599ZM110.924 57.0761C110.744 57.0761 110.573 56.983 110.507 56.8248C110.403 56.5829 110.498 56.3131 110.725 56.2015L110.782 56.1736C111.018 56.0712 111.293 56.1643 111.416 56.3969C111.52 56.6295 111.426 56.8993 111.189 57.0109L111.142 57.0295C111.056 57.0668 110.981 57.0761 110.924 57.0761ZM87.6746 56.5271C87.5988 56.5271 87.5136 56.4992 87.4473 56.4713L87.4 56.4434C87.1727 56.3317 87.0874 56.0433 87.2011 55.82C87.3242 55.5967 87.6083 55.513 87.8356 55.6339L87.8829 55.6619C88.1102 55.7735 88.1954 56.0526 88.0818 56.2759C88.006 56.4434 87.8356 56.5271 87.6746 56.5271ZM113.055 55.9596C112.894 55.9596 112.742 55.8851 112.647 55.7363C112.515 55.513 112.591 55.2339 112.799 55.1036L112.846 55.0664C113.074 54.9454 113.367 55.0106 113.49 55.2339C113.623 55.4572 113.556 55.7363 113.329 55.8665L113.282 55.8945C113.216 55.941 113.14 55.9596 113.055 55.9596ZM85.5912 55.3083C85.5059 55.3083 85.4112 55.2804 85.326 55.2246L85.2786 55.1874C85.0608 55.0478 85.004 54.7687 85.1461 54.5454C85.2881 54.3314 85.5817 54.2756 85.809 54.4151L85.8563 54.4523C86.0741 54.5919 86.131 54.871 85.9889 55.0943C85.9037 55.2339 85.7427 55.3083 85.5912 55.3083ZM115.072 54.6477C114.93 54.6477 114.788 54.5733 114.693 54.4616C114.532 54.257 114.579 53.9685 114.788 53.8104L114.835 53.7825C115.053 53.6243 115.337 53.6708 115.488 53.8755C115.649 54.0802 115.602 54.3686 115.394 54.5175L115.346 54.5547C115.261 54.6198 115.166 54.6477 115.072 54.6477ZM83.6403 53.9034C83.5361 53.9034 83.432 53.8755 83.3467 53.8011L83.2994 53.7638C83.091 53.6057 83.0532 53.3173 83.2236 53.1219C83.3941 52.9172 83.6782 52.8893 83.8865 53.0474L83.9339 53.0847C84.1328 53.2521 84.1612 53.5406 84.0002 53.7359C83.9149 53.8476 83.7824 53.9034 83.6403 53.9034ZM116.947 53.1591C116.814 53.1591 116.691 53.1126 116.606 53.0009C116.435 52.8148 116.445 52.5171 116.634 52.359L116.691 52.3217C116.881 52.145 117.174 52.1729 117.354 52.359C117.534 52.545 117.515 52.8428 117.316 53.0195L117.288 53.0474C117.174 53.1219 117.06 53.1591 116.947 53.1591ZM81.841 52.3217C81.7179 52.3217 81.5948 52.2752 81.519 52.1915L81.4716 52.145C81.2728 51.9682 81.2728 51.6798 81.4716 51.4844C81.6421 51.2983 81.9451 51.2983 82.1345 51.4844L82.1724 51.5216C82.3618 51.6984 82.3618 51.9961 82.1819 52.1822C82.0872 52.2845 81.9546 52.3217 81.841 52.3217ZM118.68 51.503C118.566 51.503 118.453 51.4658 118.358 51.3727C118.168 51.196 118.159 50.8982 118.339 50.7122L118.377 50.6656C118.547 50.4796 118.85 50.4702 119.04 50.647C119.229 50.8145 119.248 51.1122 119.068 51.2983L119.03 51.3355C118.936 51.4565 118.803 51.503 118.68 51.503ZM80.1837 50.5912C80.0606 50.5912 79.928 50.5354 79.8333 50.433L79.7954 50.3865C79.625 50.1818 79.6534 49.9027 79.8522 49.7259C80.0606 49.5585 80.3447 49.5864 80.5246 49.7818L80.5625 49.8283C80.7235 50.033 80.7046 50.3121 80.4962 50.4889C80.4015 50.5633 80.2973 50.5912 80.1837 50.5912ZM120.252 49.6887C120.157 49.6887 120.044 49.6515 119.958 49.5957C119.759 49.4468 119.712 49.1491 119.883 48.9537L119.911 48.9072C120.072 48.7025 120.366 48.6653 120.574 48.8234C120.773 48.9723 120.811 49.27 120.659 49.4654L120.621 49.5119C120.536 49.6329 120.394 49.6887 120.252 49.6887ZM78.7158 48.7118C78.5738 48.7118 78.4223 48.6467 78.337 48.5164L78.2991 48.4699C78.1571 48.2559 78.2044 47.9768 78.4223 47.8279C78.6306 47.6791 78.9242 47.7256 79.0757 47.9396L79.1136 47.9861C79.2556 48.2001 79.2083 48.4792 78.9905 48.6374C78.8958 48.6839 78.8011 48.7118 78.7158 48.7118ZM121.635 47.7535C121.549 47.7535 121.474 47.7256 121.388 47.6791C121.17 47.5395 121.095 47.2604 121.246 47.0464L121.275 46.9999C121.417 46.7859 121.71 46.7208 121.919 46.8603C122.136 46.9999 122.212 47.279 122.07 47.493L122.032 47.5395C121.947 47.6698 121.796 47.7535 121.635 47.7535ZM77.4184 46.7115C77.248 46.7115 77.087 46.6277 77.0112 46.4695L76.9828 46.423C76.8502 46.1997 76.9354 45.9206 77.1627 45.7904C77.39 45.6601 77.6741 45.7438 77.8067 45.9671L77.8351 46.0137C77.9677 46.237 77.8825 46.5161 77.6552 46.6463C77.5794 46.6835 77.4942 46.7115 77.4184 46.7115ZM122.847 45.688C122.771 45.688 122.705 45.6787 122.629 45.6415C122.402 45.5205 122.307 45.2414 122.421 45.0181L122.449 44.9716C122.572 44.7483 122.856 44.6553 123.083 44.7669C123.311 44.8879 123.405 45.167 123.282 45.3903L123.263 45.4368C123.178 45.595 123.008 45.688 122.847 45.688ZM76.3294 44.5902C76.1494 44.5902 75.979 44.4878 75.8937 44.3203L75.8748 44.2738C75.7611 44.0412 75.8748 43.7714 76.1115 43.6691C76.3483 43.5574 76.6229 43.6691 76.7366 43.9017L76.7555 43.9482C76.8597 44.1808 76.7555 44.4506 76.5188 44.5622C76.4619 44.5808 76.3862 44.5902 76.3294 44.5902ZM123.832 43.5202C123.775 43.5202 123.718 43.5109 123.671 43.4923C123.434 43.3992 123.311 43.1294 123.405 42.8875L123.434 42.8317C123.529 42.5991 123.803 42.4782 124.04 42.5712C124.277 42.6642 124.4 42.934 124.305 43.1759L124.277 43.2318C124.191 43.4085 124.03 43.5202 123.832 43.5202ZM75.4297 42.3851C75.2403 42.3851 75.0509 42.2642 74.9846 42.0688L74.9656 42.013C74.8804 41.7617 75.013 41.5012 75.2592 41.4268C75.5149 41.3431 75.7801 41.4733 75.8558 41.7152L75.8843 41.7711C75.9695 42.0223 75.8369 42.2828 75.6001 42.3665C75.5339 42.3758 75.4865 42.3851 75.4297 42.3851ZM124.627 41.2779C124.58 41.2779 124.542 41.2686 124.495 41.2593C124.239 41.1849 124.097 40.9244 124.173 40.6825L124.182 40.6267C124.258 40.3755 124.513 40.2359 124.769 40.3103C125.015 40.3755 125.167 40.636 125.091 40.8779L125.082 40.943C125.006 41.1384 124.826 41.2779 124.627 41.2779ZM74.7573 40.0963C74.549 40.0963 74.3501 39.9568 74.3027 39.7428L74.2933 39.687C74.2364 39.4358 74.388 39.1939 74.6437 39.1287C74.8899 39.0729 75.1456 39.2218 75.2024 39.473L75.2119 39.5288C75.2782 39.78 75.1172 40.0219 74.8709 40.087C74.8331 40.0963 74.7952 40.0963 74.7573 40.0963ZM125.186 38.9706C125.167 38.9706 125.129 38.9706 125.091 38.952C124.845 38.9054 124.674 38.6635 124.722 38.4123L124.731 38.3565C124.779 38.1146 125.034 37.9471 125.281 37.9936C125.536 38.0402 125.697 38.2821 125.65 38.5333L125.64 38.5891C125.603 38.8124 125.404 38.9706 125.186 38.9706ZM74.3027 37.7704C74.0755 37.7704 73.8766 37.6029 73.8387 37.3703L73.8292 37.3145C73.7914 37.054 73.9713 36.8307 74.2364 36.7934C74.5016 36.7562 74.7289 36.933 74.7573 37.1935L74.7762 37.2493C74.8047 37.5098 74.6247 37.7331 74.3785 37.7797C74.3501 37.7704 74.3311 37.7704 74.3027 37.7704ZM125.517 36.6167C125.508 36.6167 125.489 36.6167 125.47 36.6167C125.214 36.5981 125.015 36.3748 125.053 36.1142V36.0584C125.082 35.7979 125.309 35.6118 125.574 35.6397C125.83 35.6677 126.019 35.891 125.991 36.1515V36.2073C125.972 36.4399 125.764 36.6167 125.517 36.6167ZM74.0944 35.4071C73.8387 35.4071 73.6398 35.2211 73.6209 34.9606V34.9047C73.6114 34.6442 73.8198 34.4302 74.066 34.4209C74.3311 34.4116 74.549 34.607 74.5584 34.8582V34.914C74.5679 35.1745 74.369 35.3885 74.1133 35.3978C74.1039 35.4071 74.0944 35.4071 74.0944 35.4071ZM125.64 34.1883C125.375 34.1883 125.148 34.0302 125.148 33.779V33.7324V33.7138V33.658C125.148 33.3975 125.366 33.2021 125.631 33.2021C125.896 33.2021 126.104 33.4161 126.104 33.658V33.7045V33.7138V33.779C126.104 34.0302 125.906 34.1883 125.64 34.1883ZM74.0755 33.0253C74.066 33.0253 74.066 33.0253 74.0565 33.0253C73.7914 33.016 73.5925 32.802 73.6019 32.5415V32.4857C73.6114 32.2252 73.8387 32.0391 74.0944 32.0484C74.3501 32.0577 74.5584 32.2717 74.53 32.5322V32.588C74.549 32.8393 74.3311 33.0253 74.0755 33.0253ZM125.536 31.8158C125.29 31.8158 125.091 31.639 125.063 31.3878V31.332C125.044 31.0715 125.233 30.8482 125.489 30.8296C125.745 30.8017 125.972 30.9971 126 31.239V31.2948C126.019 31.5553 125.83 31.7786 125.574 31.8065C125.555 31.8158 125.546 31.8158 125.536 31.8158ZM74.3027 30.6621C74.2838 30.6621 74.2554 30.6621 74.2459 30.6621C73.9808 30.6249 73.8008 30.3923 73.8387 30.1504L73.8482 30.0853C73.886 29.8341 74.1228 29.6573 74.388 29.7038C74.6531 29.7317 74.8331 29.9736 74.7857 30.2248L74.7762 30.29C74.7384 30.4947 74.53 30.6621 74.3027 30.6621ZM125.195 29.4619C124.968 29.4619 124.779 29.3131 124.731 29.0898L124.722 29.0339C124.674 28.7827 124.845 28.5408 125.091 28.4943C125.347 28.4478 125.593 28.606 125.64 28.8572L125.65 28.913C125.697 29.1642 125.536 29.4061 125.281 29.4526C125.243 29.4619 125.224 29.4619 125.195 29.4619ZM74.7478 28.3268C74.71 28.3268 74.6721 28.3268 74.6437 28.3175C74.388 28.2524 74.2364 28.0105 74.2933 27.7593L74.3027 27.7035C74.369 27.4616 74.6153 27.3034 74.8709 27.3592C75.1172 27.4244 75.2782 27.6663 75.2119 27.9175L75.2024 27.9733C75.1551 28.1873 74.9656 28.3268 74.7478 28.3268ZM124.637 27.1545C124.438 27.1545 124.239 27.0243 124.182 26.8103L124.173 26.7545C124.097 26.5033 124.239 26.2428 124.495 26.1776C124.741 26.1032 125.006 26.2428 125.082 26.494L125.091 26.5498C125.167 26.801 125.015 27.0615 124.769 27.1266C124.722 27.1545 124.674 27.1545 124.637 27.1545ZM75.4202 26.0474C75.3729 26.0474 75.3255 26.0381 75.2592 26.0288C75.013 25.945 74.8804 25.6845 74.9656 25.4333L74.9846 25.3868C75.0698 25.1449 75.3445 25.0146 75.5812 25.0984C75.8369 25.1821 75.9695 25.4333 75.8843 25.6845L75.8558 25.7403C75.799 25.9264 75.6096 26.0474 75.4202 26.0474ZM123.86 24.9123C123.671 24.9123 123.491 24.7913 123.415 24.6146L123.396 24.568C123.301 24.3354 123.415 24.0656 123.661 23.9726C123.898 23.8702 124.173 23.9912 124.267 24.2238L124.286 24.2889C124.39 24.5215 124.267 24.7913 124.03 24.8844C123.964 24.8937 123.917 24.9123 123.86 24.9123ZM76.3009 23.8423C76.2441 23.8423 76.1684 23.8237 76.1115 23.8051C75.8748 23.7028 75.7611 23.433 75.8748 23.1911L75.8937 23.1352C76.0074 22.9026 76.282 22.791 76.5188 22.9026C76.7555 23.005 76.8597 23.2748 76.7555 23.5074L76.7366 23.5539C76.6513 23.7307 76.4809 23.8423 76.3009 23.8423ZM122.866 22.7352C122.705 22.7352 122.534 22.6421 122.449 22.4747L122.421 22.4281C122.307 22.2048 122.402 21.9257 122.629 21.8048C122.856 21.6931 123.14 21.7862 123.263 22.0095L123.282 22.056C123.405 22.2793 123.311 22.5584 123.083 22.6793C123.008 22.7259 122.941 22.7352 122.866 22.7352ZM77.39 21.7117C77.3048 21.7117 77.2385 21.6931 77.1627 21.6559C76.9354 21.5256 76.8502 21.2465 76.9828 21.0232L77.0112 20.9767C77.1438 20.7534 77.4279 20.679 77.6552 20.7999C77.8825 20.9302 77.9487 21.2093 77.8351 21.4326L77.8067 21.4791C77.712 21.628 77.5605 21.7117 77.39 21.7117ZM121.672 20.6697C121.521 20.6697 121.36 20.5859 121.275 20.4557L121.256 20.4092C121.114 20.1952 121.18 19.9068 121.398 19.7765C121.616 19.6369 121.909 19.7021 122.042 19.9161L122.08 19.9626C122.222 20.1766 122.146 20.465 121.938 20.5953C121.843 20.6604 121.758 20.6697 121.672 20.6697ZM78.6779 19.7021C78.5832 19.7021 78.4885 19.6835 78.4223 19.6183C78.2044 19.4788 78.1571 19.1904 78.2991 18.9764L78.337 18.9298C78.4791 18.7159 78.7726 18.6693 78.9905 18.8089C79.2083 18.9671 79.2556 19.2462 79.1136 19.4602L79.0757 19.5067C78.981 19.6369 78.8295 19.7021 78.6779 19.7021ZM120.29 18.7345C120.138 18.7345 119.996 18.6693 119.911 18.5577L119.883 18.5112C119.722 18.3065 119.759 18.0181 119.958 17.8599C120.167 17.711 120.46 17.7482 120.621 17.9436L120.659 17.9901C120.811 18.1855 120.773 18.4833 120.574 18.6321C120.489 18.6972 120.394 18.7345 120.29 18.7345ZM80.1553 17.8227C80.0416 17.8227 79.9375 17.7948 79.8522 17.7203C79.6534 17.5529 79.625 17.2644 79.7954 17.0784L79.8333 17.0318C79.9943 16.8271 80.2973 16.8178 80.4962 16.976C80.7046 17.1435 80.714 17.4412 80.5436 17.6366L80.5152 17.6831C80.4299 17.7668 80.2879 17.8227 80.1553 17.8227ZM118.718 16.9202C118.585 16.9202 118.472 16.8737 118.377 16.7713L118.339 16.7341C118.159 16.548 118.168 16.2503 118.358 16.0735C118.547 15.8968 118.85 15.9154 119.03 16.1014L119.078 16.148C119.258 16.334 119.248 16.6318 119.059 16.8085C118.954 16.8737 118.841 16.9202 118.718 16.9202ZM81.8031 16.0921C81.68 16.0921 81.5663 16.0363 81.4716 15.9433C81.2917 15.7572 81.2917 15.4781 81.4811 15.292L81.5285 15.2455C81.7179 15.0687 82.0209 15.0687 82.2008 15.2548C82.3713 15.4409 82.3713 15.7386 82.1819 15.9154L82.144 15.9433C82.0398 16.0363 81.9167 16.0921 81.8031 16.0921ZM116.994 15.2548C116.89 15.2548 116.767 15.2176 116.691 15.1338L116.653 15.0966C116.464 14.9384 116.435 14.6407 116.615 14.4453C116.786 14.2593 117.079 14.2313 117.288 14.4081L117.335 14.4453C117.524 14.6221 117.543 14.9012 117.373 15.0966C117.25 15.2083 117.127 15.2548 116.994 15.2548ZM83.6024 14.5012C83.4793 14.5012 83.3278 14.4453 83.2331 14.3244C83.0721 14.129 83.1005 13.8313 83.3088 13.6824L83.3562 13.6452C83.5551 13.4777 83.8581 13.5149 84.0096 13.7196C84.1801 13.915 84.1422 14.2127 83.9433 14.3616L83.896 14.3988C83.8108 14.4639 83.7161 14.5012 83.6024 14.5012ZM115.119 13.7661C115.024 13.7661 114.93 13.7382 114.844 13.6638L114.797 13.6359C114.579 13.4777 114.551 13.1986 114.693 12.9846C114.844 12.7799 115.147 12.7427 115.346 12.8823L115.394 12.9195C115.612 13.0684 115.649 13.3661 115.488 13.5615C115.403 13.6917 115.261 13.7661 115.119 13.7661ZM85.5533 13.0963C85.4018 13.0963 85.2597 13.0218 85.165 12.8823C85.0135 12.6683 85.0798 12.3799 85.2881 12.231L85.3449 12.2031C85.5533 12.0635 85.8563 12.1194 85.9984 12.3333C86.1404 12.538 86.0836 12.8358 85.8658 12.9753L85.8184 13.0125C85.7332 13.0684 85.6385 13.0963 85.5533 13.0963ZM113.102 12.445C113.017 12.445 112.931 12.4264 112.865 12.3799L112.818 12.3426C112.591 12.2124 112.515 11.9333 112.647 11.71C112.78 11.4867 113.064 11.4122 113.291 11.5425L113.339 11.5797C113.566 11.71 113.642 11.9891 113.509 12.2124C113.424 12.3613 113.263 12.445 113.102 12.445ZM87.6272 11.8681C87.4568 11.8681 87.2863 11.7751 87.2011 11.6262C87.0874 11.4029 87.1727 11.1238 87.4 11.0029L87.4473 10.975C87.6746 10.8633 87.9587 10.9471 88.0818 11.1703C88.1954 11.3936 88.1102 11.6728 87.8829 11.7844L87.8356 11.8123C87.7788 11.8495 87.6935 11.8681 87.6272 11.8681ZM110.971 11.3192C110.905 11.3192 110.839 11.3099 110.772 11.2727L110.725 11.2448C110.479 11.1424 110.384 10.8633 110.498 10.6214C110.602 10.3888 110.886 10.2958 111.132 10.4074L111.179 10.426C111.416 10.5284 111.511 10.8168 111.407 11.0494C111.322 11.2262 111.151 11.3192 110.971 11.3192ZM89.7959 10.8354C89.616 10.8354 89.4455 10.7331 89.3697 10.5563C89.275 10.3237 89.3792 10.0539 89.616 9.94222L89.6823 9.92362C89.919 9.83058 90.1936 9.93292 90.2978 10.1655C90.402 10.4074 90.2883 10.6772 90.0516 10.7796L90.0042 10.7982C89.919 10.8261 89.8622 10.8354 89.7959 10.8354ZM108.746 10.3888C108.698 10.3888 108.641 10.3795 108.594 10.3702L108.537 10.3423C108.291 10.2586 108.159 9.98874 108.263 9.74684C108.338 9.51424 108.613 9.38399 108.869 9.47703L108.926 9.49563C109.162 9.57937 109.295 9.84918 109.219 10.1004C109.115 10.2772 108.945 10.3888 108.746 10.3888ZM92.0687 10.0167C91.8699 10.0167 91.6899 9.8864 91.6142 9.69102C91.5289 9.43981 91.6805 9.1793 91.9267 9.11417L91.9835 9.09556C92.2392 9.02113 92.5044 9.16069 92.5707 9.40259C92.6559 9.6538 92.5138 9.90501 92.2581 9.97944L92.2013 9.98874C92.1634 10.0167 92.1161 10.0167 92.0687 10.0167ZM106.444 9.69102C106.407 9.69102 106.359 9.69102 106.321 9.67241L106.264 9.66311C106.009 9.60728 105.857 9.34677 105.924 9.09556C105.99 8.85366 106.246 8.69549 106.501 8.76993L106.558 8.77923C106.814 8.85366 106.965 9.09556 106.899 9.34677C106.833 9.54215 106.643 9.69102 106.444 9.69102ZM94.3984 9.4119C94.19 9.4119 94.0006 9.26304 93.9438 9.04904C93.887 8.80714 94.0575 8.55594 94.3037 8.50011L94.351 8.49081C94.6067 8.42568 94.8719 8.59315 94.9192 8.84436C94.9761 9.08626 94.8056 9.33747 94.5594 9.39329L94.5026 9.40259C94.4741 9.40259 94.4363 9.4119 94.3984 9.4119ZM104.077 9.1793C104.048 9.1793 104.03 9.1793 104.001 9.17L103.944 9.16069C103.689 9.12348 103.509 8.87227 103.547 8.63037C103.594 8.37916 103.831 8.20238 104.086 8.2396L104.143 8.2489C104.399 8.30473 104.579 8.53733 104.531 8.77923C104.503 9.03044 104.304 9.1793 104.077 9.1793ZM96.7943 9.03044C96.5576 9.03044 96.3492 8.85366 96.3303 8.62106C96.2924 8.36055 96.4818 8.13725 96.747 8.10004L96.8038 8.09074C97.069 8.05352 97.2963 8.2396 97.3341 8.50011C97.372 8.76062 97.1731 8.98392 96.9174 9.02113L96.8512 9.03044C96.8322 9.02113 96.8038 9.03044 96.7943 9.03044ZM101.671 8.90949C101.662 8.90949 101.643 8.90949 101.634 8.90949H101.577C101.312 8.90018 101.122 8.67689 101.132 8.41638C101.141 8.15587 101.368 7.96979 101.634 7.97909H101.69C101.956 7.9977 102.145 8.22099 102.135 8.4722C102.126 8.7234 101.918 8.90949 101.671 8.90949ZM99.1998 8.86297C98.9441 8.86297 98.7262 8.66758 98.7262 8.40707C98.7168 8.14656 98.9346 7.93257 99.1808 7.92327H99.2471C99.4933 7.91396 99.7206 8.12795 99.7206 8.36986C99.7301 8.63037 99.5217 8.84436 99.266 8.85366L99.1998 8.86297C99.2092 8.86297 99.2092 8.86297 99.1998 8.86297Z" fill="#25005C"/>
<mask id="path-11-inside-1_17_517" fill="white">
<path d="M23.6659 65.3752L23.3913 59.4206L23.6943 59.0485C23.789 58.9275 23.8932 58.8159 23.9974 58.7042L24.2625 58.3972L24.3572 58.4251C29.4237 52.6939 37.3597 49.9492 43.0323 48.656C32.4826 46.116 19.5748 41.9664 9.92471 38.8589L9.11975 38.5984L15.1049 53.1312L0 58.7414C7.31095 61.0209 15.6163 63.3469 23.6659 65.3752Z"/>
</mask>
<path d="M23.6659 65.3752L23.3913 59.4206L23.6943 59.0485C23.789 58.9275 23.8932 58.8159 23.9974 58.7042L24.2625 58.3972L24.3572 58.4251C29.4237 52.6939 37.3597 49.9492 43.0323 48.656C32.4826 46.116 19.5748 41.9664 9.92471 38.8589L9.11975 38.5984L15.1049 53.1312L0 58.7414C7.31095 61.0209 15.6163 63.3469 23.6659 65.3752Z" fill="#6D29D3" stroke="black" stroke-width="2" mask="url(#path-11-inside-1_17_517)"/>
<mask id="path-12-inside-2_17_517" fill="white">
<path d="M48.2209 64.0912L48.0126 50.3679C44.5372 50.861 33.5713 52.88 27.1603 59.2532C31.952 60.5557 46.4785 63.7656 48.2209 64.0912Z"/>
</mask>
<path d="M48.2209 64.0912L48.0126 50.3679C44.5372 50.861 33.5713 52.88 27.1603 59.2532C31.952 60.5557 46.4785 63.7656 48.2209 64.0912Z" fill="#6D29D3" stroke="black" stroke-width="2" mask="url(#path-12-inside-2_17_517)"/>
<mask id="path-13-inside-3_17_517" fill="white">
<path d="M175.491 58.4251L175.595 58.3972L175.861 58.7042C175.955 58.8159 176.059 58.9275 176.164 59.0485L176.467 59.4206L176.192 65.3752C184.289 63.3469 192.651 61.0209 200 58.7414L184.8 53.1312L190.833 38.5984L190.018 38.8589C180.312 41.9664 167.319 46.116 156.702 48.656C162.404 49.9492 170.396 52.6939 175.491 58.4251Z"/>
</mask>
<path d="M175.491 58.4251L175.595 58.3972L175.861 58.7042C175.955 58.8159 176.059 58.9275 176.164 59.0485L176.467 59.4206L176.192 65.3752C184.289 63.3469 192.651 61.0209 200 58.7414L184.8 53.1312L190.833 38.5984L190.018 38.8589C180.312 41.9664 167.319 46.116 156.702 48.656C162.404 49.9492 170.396 52.6939 175.491 58.4251Z" fill="#6D29D3" stroke="black" stroke-width="2" mask="url(#path-13-inside-3_17_517)"/>
<mask id="path-14-inside-4_17_517" fill="white">
<path d="M172.669 59.2532C166.22 52.88 155.187 50.861 151.693 50.3679L151.475 64.0912C153.227 63.7656 167.849 60.5557 172.669 59.2532Z"/>
</mask>
<path d="M172.669 59.2532C166.22 52.88 155.187 50.861 151.693 50.3679L151.475 64.0912C153.227 63.7656 167.849 60.5557 172.669 59.2532Z" fill="#6D29D3" stroke="black" stroke-width="2" mask="url(#path-14-inside-4_17_517)"/>
<mask id="path-15-inside-5_17_517" fill="white">
<path d="M173.654 67.85C173.645 67.5802 173.645 67.3011 173.645 67.022L173.626 66.0078L173.692 65.9985C173.673 64.4076 173.692 62.9654 173.749 61.6257C168.957 62.9282 163.976 64.1377 158.919 65.217C158.473 65.3193 158.019 65.4124 157.564 65.5054C155.301 65.9799 153.066 66.4172 150.916 66.808L149.571 67.0499C133.141 69.962 116.407 71.3762 99.6828 71.3111C83.0721 71.3762 66.4425 69.962 50.116 67.0499L48.7807 66.808C46.6405 66.4172 44.4245 65.9799 42.1706 65.5054C41.7255 65.4124 41.2709 65.3193 40.8353 65.217C35.8066 64.1377 30.8537 62.9282 26.0903 61.6257C26.1471 62.9654 26.166 64.4076 26.1471 65.9985L26.2134 66.0078L26.1944 67.022C26.1944 67.3011 26.1944 67.5802 26.185 67.85C26.0903 70.5854 25.863 73.3487 25.4936 76.084C24.8686 80.7732 23.8553 85.3228 22.5011 89.612C50.4664 97.3715 74.9657 101 99.5312 101H99.8437C124.561 101 149.221 97.3715 177.366 89.612C175.993 85.3228 174.98 80.7732 174.345 76.084C173.986 73.3487 173.749 70.5854 173.654 67.85Z"/>
</mask>
<path d="M173.654 67.85C173.645 67.5802 173.645 67.3011 173.645 67.022L173.626 66.0078L173.692 65.9985C173.673 64.4076 173.692 62.9654 173.749 61.6257C168.957 62.9282 163.976 64.1377 158.919 65.217C158.473 65.3193 158.019 65.4124 157.564 65.5054C155.301 65.9799 153.066 66.4172 150.916 66.808L149.571 67.0499C133.141 69.962 116.407 71.3762 99.6828 71.3111C83.0721 71.3762 66.4425 69.962 50.116 67.0499L48.7807 66.808C46.6405 66.4172 44.4245 65.9799 42.1706 65.5054C41.7255 65.4124 41.2709 65.3193 40.8353 65.217C35.8066 64.1377 30.8537 62.9282 26.0903 61.6257C26.1471 62.9654 26.166 64.4076 26.1471 65.9985L26.2134 66.0078L26.1944 67.022C26.1944 67.3011 26.1944 67.5802 26.185 67.85C26.0903 70.5854 25.863 73.3487 25.4936 76.084C24.8686 80.7732 23.8553 85.3228 22.5011 89.612C50.4664 97.3715 74.9657 101 99.5312 101H99.8437C124.561 101 149.221 97.3715 177.366 89.612C175.993 85.3228 174.98 80.7732 174.345 76.084C173.986 73.3487 173.749 70.5854 173.654 67.85Z" fill="#6D29D3" stroke="black" stroke-width="2" mask="url(#path-15-inside-5_17_517)"/>
<path d="M37.6807 76.1852C35.5978 75.0027 33.7346 73.6382 34.3939 71.0812C34.7952 69.5551 35.8462 68.4635 37.8718 69.0497C40.2414 69.737 41.9708 72.1727 40.8433 75.1037L43.5473 72.4861C42.7256 71.0105 41.3402 69.646 38.9228 68.9385C35.5882 67.9784 33.0658 69.08 32.3874 71.6876C31.9192 73.5068 32.3683 75.9022 36.1233 78.0752C38.4833 79.4396 39.9356 80.5109 39.3528 82.785C38.9706 84.2404 37.8718 85.7766 35.4258 85.0691C32.9034 84.3414 30.9447 81.845 32.053 78.9039L29.3968 81.4913C30.2376 82.9871 31.9001 84.4829 34.3843 85.2005C38.1202 86.292 40.6522 84.7053 41.3115 82.1684C41.7224 80.5918 41.5026 78.3581 37.6807 76.1852Z" fill="#D7BDFF"/>
<path d="M46.7304 73.9131C47.4183 74.0849 48.0776 73.6503 48.24 72.9024C48.4024 72.1747 47.9916 71.4774 47.3036 71.3056C46.5966 71.1337 45.9373 71.5683 45.7749 72.296C45.6125 73.0439 46.0233 73.7413 46.7304 73.9131ZM42.7747 87.143L45.708 87.8707C45.1634 87.2542 45.0678 86.7792 45.3354 85.5562L46.9501 78.2288L47.4279 76.5712L43.9691 76.076L43.9499 76.167C44.3895 76.3287 44.915 76.6218 45.1634 76.9048L43.2429 85.6068L42.7747 87.143Z" fill="#D7BDFF"/>
<path d="M62.6064 91.3242L65.5779 91.8902C65.0047 91.304 64.8805 90.8289 65.0907 89.5959L65.9315 84.6435C66.5143 81.187 65.0524 80.1763 63.753 79.9236C61.928 79.58 60.1604 80.6614 58.8323 81.3588V81.379C58.6986 79.4183 57.552 78.7512 56.5392 78.5592C54.8289 78.2358 53.1377 79.1959 51.8383 79.8731L51.9147 79.4587L52.3065 77.781L48.8286 77.4778L48.8094 77.5687C49.2585 77.7001 49.7936 77.9629 50.0611 78.2358L48.5706 87.0287L48.1693 88.5852L51.1408 89.1512C50.5675 88.5751 50.4529 88.1001 50.6535 86.8569L51.7523 80.3784C52.9849 79.7316 54.0263 79.105 55.1824 79.3172C56.1761 79.5092 57.1507 80.3279 56.7112 82.9456L55.7844 88.4033L55.3926 89.9597L58.3546 90.5156C57.7813 89.9395 57.6667 89.4645 57.8769 88.2315L58.7081 83.2791C58.8037 82.7232 58.8419 82.2381 58.8514 81.8136C60.1222 81.1364 61.2019 80.4593 62.3962 80.6917C63.3899 80.8737 64.3741 81.7024 63.925 84.31L62.9982 89.7677L62.6064 91.3242Z" fill="#D7BDFF"/>
<path d="M74.2764 81.3403C73.0056 81.1988 70.531 81.1381 68.1423 81.5727L68.1327 81.6637C68.6965 81.7749 69.2506 81.9972 69.5373 82.2499L68.257 94.5803C68.1327 95.7426 67.8748 96.1064 67.0913 96.2277L67.0817 96.2984L71.1807 97.5416L71.1902 97.4708C70.2539 96.8948 70.101 96.4399 70.2348 95.1867L70.5405 92.1748C71.1807 92.4578 71.926 92.7307 72.891 92.8419C76.6555 93.2866 79.2066 91.0227 79.5697 87.556C79.8946 84.3824 78.2416 81.8052 74.2764 81.3403ZM73.7414 92.5286C72.5566 92.3871 71.5247 91.6998 70.6743 90.9014L71.6202 81.8052C72.1171 81.6334 72.9292 81.5121 73.6554 81.5929C76.2829 81.9063 77.6779 84.8271 77.3053 88.4656C76.9708 91.7301 75.4708 92.7206 73.7414 92.5286Z" fill="#D7BDFF"/>
<path d="M83.9096 91.4605L84.8937 76.8459L85.0657 75.9464L81.0241 77.6039L81.0145 77.7454C82.4095 77.4119 82.8395 77.3209 82.7726 78.2508L81.8362 92.1174L81.54 93.5425L85.0179 93.8053V93.7143C83.9383 93.3707 83.8332 92.7137 83.9096 91.4605Z" fill="#D7BDFF"/>
<path d="M96.7743 91.9997C96.0577 92.98 94.2423 93.3742 93.0766 93.3237C90.43 93.2327 88.7961 90.7464 88.8821 87.5526L95.1787 87.7952C97.9304 87.8963 97.5864 82.9237 93.0097 82.7519C89.8185 82.6306 86.8374 84.8238 86.7132 88.5633C86.5985 92.0805 89.035 94.203 92.0925 94.3141C94.357 94.4051 96.1819 93.3742 96.8794 92.1007L96.7743 91.9997ZM92.2071 83.1359C95.064 83.2471 95.6564 87.3404 94.3092 87.3202L88.9012 87.1787C89.0923 84.561 90.4204 83.0652 92.2071 83.1359Z" fill="#D7BDFF"/>
<path d="M120.666 77.3854V77.2742L116.748 77.4662L112.076 90.8679L105.273 78.0322L102.101 78.1939C103.085 78.8913 103.534 79.5685 103.993 80.4275L104.442 90.7366C104.585 93.9 103.83 94.1931 102.932 94.3548L102.942 94.466L106.716 94.2841V94.1628C105.808 94.092 105.005 93.4149 104.862 90.2514L104.47 81.3372L111.35 94.3043L116.806 78.6791L117.417 92.4244C117.455 93.2633 116.691 93.5564 115.793 93.7181L115.802 93.8293L121.382 93.5564V93.4351C120.475 93.3643 119.691 93.142 119.653 92.3132L119.051 78.6791C119.013 77.8402 119.767 77.5471 120.666 77.3854Z" fill="#D7BDFF"/>
<path d="M127.618 81.2319C124.293 81.6361 122.2 84.274 122.573 87.6801C122.946 91.0962 125.535 93.1479 128.86 92.7537C132.185 92.3494 134.268 89.7014 133.905 86.3055C133.532 82.8793 130.933 80.8276 127.618 81.2319ZM129.672 92.2484C126.959 92.5819 124.809 89.1152 124.465 85.9215C124.207 83.516 125.076 81.9393 126.806 81.7271C129.519 81.3936 131.66 84.8602 132.013 88.054C132.271 90.4594 131.402 92.0462 129.672 92.2484Z" fill="#D7BDFF"/>
<path d="M145.152 90.0422L148.123 89.5065C147.397 89.173 147.139 88.7687 146.938 87.5256L146.136 82.5732C145.582 79.1066 143.776 78.6922 142.362 78.955C140.432 79.2986 138.97 80.9359 137.938 81.9668L137.861 81.5322L137.699 79.8141L134.326 80.7742L134.336 80.8652C134.804 80.8348 135.396 80.8955 135.731 81.0471L137.154 89.8603L137.279 91.4673L140.25 90.9316C139.524 90.588 139.256 90.1837 139.056 88.9507L138.014 82.4722C138.998 81.4918 139.897 80.4104 141.282 80.1577C142.409 79.9555 143.728 80.3598 144.148 82.9775L145.027 88.4352L145.152 90.0422Z" fill="#D7BDFF"/>
<path d="M159.525 84.4523C159.067 85.5842 157.404 86.4635 156.267 86.7263C153.687 87.3428 151.509 85.372 150.831 82.2692L156.974 80.8138C159.659 80.1771 158.14 75.4471 153.668 76.5083C150.553 77.2461 148.193 80.1771 148.967 83.8358C149.703 87.262 152.569 88.6567 155.551 87.9493C157.767 87.4237 159.277 85.9481 159.65 84.523L159.525 84.4523ZM152.98 77.1046C155.78 76.4375 157.328 80.2478 156.019 80.5813L150.754 81.9053C150.315 79.3079 151.241 77.519 152.98 77.1046Z" fill="#D7BDFF"/>
<path d="M166.311 73.2182L166.34 73.3092C167.171 73.3496 168.165 73.4911 167.907 75.6439L167.047 82.5469L162.824 77.1397C161.505 75.4417 162.212 74.6635 163.244 74.2188L163.215 74.1278L158.868 75.4013L160.053 76.695L166.722 85.1544L166.607 86.0337C166.368 87.9641 165.117 89.0557 163.359 89.5711L164.419 90.319C166.607 89.6823 166.818 87.853 167.047 86.0236L168.318 75.5529C168.585 73.3496 168.996 72.8139 169.608 72.349L169.579 72.2581L166.311 73.2182Z" fill="#D7BDFF"/>
</svg>
