<svg width="95" height="25" viewBox="0 0 95 25" fill="none" xmlns="http://www.w3.org/2000/svg">
<path d="M11.052 12.7217C11.052 13.3724 10.9027 13.9697 10.604 14.5137C10.3053 15.047 9.84667 15.479 9.228 15.8097C8.60933 16.1404 7.84133 16.3057 6.924 16.3057H5.228V20.3377H2.492V9.10571H6.924C7.82 9.10571 8.57733 9.26037 9.196 9.56971C9.81467 9.87904 10.2787 10.3057 10.588 10.8497C10.8973 11.3937 11.052 12.0177 11.052 12.7217ZM6.716 14.1297C7.23867 14.1297 7.628 14.007 7.884 13.7617C8.14 13.5164 8.268 13.1697 8.268 12.7217C8.268 12.2737 8.14 11.927 7.884 11.6817C7.628 11.4364 7.23867 11.3137 6.716 11.3137H5.228V14.1297H6.716ZM16.5404 20.4657C15.6657 20.4657 14.8764 20.279 14.1724 19.9057C13.479 19.5324 12.9297 18.999 12.5244 18.3057C12.1297 17.6124 11.9324 16.8017 11.9324 15.8737C11.9324 14.9564 12.135 14.151 12.5404 13.4577C12.9457 12.7537 13.5004 12.215 14.2044 11.8417C14.9084 11.4684 15.6977 11.2817 16.5724 11.2817C17.447 11.2817 18.2364 11.4684 18.9404 11.8417C19.6444 12.215 20.199 12.7537 20.6044 13.4577C21.0097 14.151 21.2124 14.9564 21.2124 15.8737C21.2124 16.791 21.0044 17.6017 20.5884 18.3057C20.183 18.999 19.623 19.5324 18.9084 19.9057C18.2044 20.279 17.415 20.4657 16.5404 20.4657ZM16.5404 18.0977C17.063 18.0977 17.5057 17.9057 17.8684 17.5217C18.2417 17.1377 18.4284 16.5884 18.4284 15.8737C18.4284 15.159 18.247 14.6097 17.8844 14.2257C17.5324 13.8417 17.095 13.6497 16.5724 13.6497C16.039 13.6497 15.5964 13.8417 15.2444 14.2257C14.8924 14.599 14.7164 15.1484 14.7164 15.8737C14.7164 16.5884 14.887 17.1377 15.2284 17.5217C15.5804 17.9057 16.0177 18.0977 16.5404 18.0977ZM31.4799 11.4097V20.3377H28.7439V19.1217C28.4665 19.5164 28.0879 19.8364 27.6079 20.0817C27.1385 20.3164 26.6159 20.4337 26.0399 20.4337C25.3572 20.4337 24.7545 20.2844 24.2319 19.9857C23.7092 19.6764 23.3039 19.2337 23.0159 18.6577C22.7279 18.0817 22.5839 17.4044 22.5839 16.6257V11.4097H25.3039V16.2577C25.3039 16.855 25.4585 17.319 25.7679 17.6497C26.0772 17.9804 26.4932 18.1457 27.0159 18.1457C27.5492 18.1457 27.9705 17.9804 28.2799 17.6497C28.5892 17.319 28.7439 16.855 28.7439 16.2577V11.4097H31.4799ZM36.1811 12.6737C36.4478 12.2577 36.8158 11.9217 37.2851 11.6657C37.7545 11.4097 38.3038 11.2817 38.9331 11.2817C39.6691 11.2817 40.3358 11.4684 40.9331 11.8417C41.5305 12.215 41.9998 12.7484 42.3411 13.4417C42.6931 14.135 42.8691 14.9404 42.8691 15.8577C42.8691 16.775 42.6931 17.5857 42.3411 18.2897C41.9998 18.983 41.5305 19.5217 40.9331 19.9057C40.3358 20.279 39.6691 20.4657 38.9331 20.4657C38.3145 20.4657 37.7651 20.3377 37.2851 20.0817C36.8158 19.8257 36.4478 19.495 36.1811 19.0897V24.5937H33.4451V11.4097H36.1811V12.6737ZM40.0851 15.8577C40.0851 15.175 39.8931 14.6417 39.5091 14.2577C39.1358 13.863 38.6718 13.6657 38.1171 13.6657C37.5731 13.6657 37.1091 13.863 36.7251 14.2577C36.3518 14.6524 36.1651 15.191 36.1651 15.8737C36.1651 16.5564 36.3518 17.095 36.7251 17.4897C37.1091 17.8844 37.5731 18.0817 38.1171 18.0817C38.6611 18.0817 39.1251 17.8844 39.5091 17.4897C39.8931 17.0844 40.0851 16.5404 40.0851 15.8577ZM57.0245 9.10571V20.3377H54.2885V13.6017L51.7765 20.3377H49.5685L47.0405 13.5857V20.3377H44.3045V9.10571H47.5365L50.6885 16.8817L53.8085 9.10571H57.0245ZM58.448 15.8577C58.448 14.9404 58.6187 14.135 58.96 13.4417C59.312 12.7484 59.7867 12.215 60.384 11.8417C60.9813 11.4684 61.648 11.2817 62.384 11.2817C63.0133 11.2817 63.5627 11.4097 64.032 11.6657C64.512 11.9217 64.88 12.2577 65.136 12.6737V11.4097H67.872V20.3377H65.136V19.0737C64.8693 19.4897 64.496 19.8257 64.016 20.0817C63.5467 20.3377 62.9973 20.4657 62.368 20.4657C61.6427 20.4657 60.9813 20.279 60.384 19.9057C59.7867 19.5217 59.312 18.983 58.96 18.2897C58.6187 17.5857 58.448 16.775 58.448 15.8577ZM65.136 15.8737C65.136 15.191 64.944 14.6524 64.56 14.2577C64.1867 13.863 63.728 13.6657 63.184 13.6657C62.64 13.6657 62.176 13.863 61.792 14.2577C61.4187 14.6417 61.232 15.175 61.232 15.8577C61.232 16.5404 61.4187 17.0844 61.792 17.4897C62.176 17.8844 62.64 18.0817 63.184 18.0817C63.728 18.0817 64.1867 17.8844 64.56 17.4897C64.944 17.095 65.136 16.5564 65.136 15.8737ZM71.2274 10.4817C70.7474 10.4817 70.3527 10.343 70.0434 10.0657C69.7447 9.77771 69.5954 9.42571 69.5954 9.00971C69.5954 8.58304 69.7447 8.23104 70.0434 7.95371C70.3527 7.66571 70.7474 7.52171 71.2274 7.52171C71.6967 7.52171 72.0807 7.66571 72.3794 7.95371C72.6887 8.23104 72.8434 8.58304 72.8434 9.00971C72.8434 9.42571 72.6887 9.77771 72.3794 10.0657C72.0807 10.343 71.6967 10.4817 71.2274 10.4817ZM72.5874 11.4097V20.3377H69.8514V11.4097H72.5874ZM78.2021 20.4657C77.4235 20.4657 76.7301 20.3324 76.1221 20.0657C75.5141 19.799 75.0341 19.4364 74.6821 18.9777C74.3301 18.5084 74.1328 17.9857 74.0901 17.4097H76.7941C76.8261 17.719 76.9701 17.9697 77.2261 18.1617C77.4821 18.3537 77.7968 18.4497 78.1701 18.4497C78.5115 18.4497 78.7728 18.3857 78.9541 18.2577C79.1461 18.119 79.2421 17.943 79.2421 17.7297C79.2421 17.4737 79.1088 17.287 78.8421 17.1697C78.5755 17.0417 78.1435 16.903 77.5461 16.7537C76.9061 16.6044 76.3728 16.4497 75.9461 16.2897C75.5195 16.119 75.1515 15.8577 74.8421 15.5057C74.5328 15.143 74.3781 14.6577 74.3781 14.0497C74.3781 13.5377 74.5168 13.0737 74.7941 12.6577C75.0821 12.231 75.4981 11.895 76.0421 11.6497C76.5968 11.4044 77.2528 11.2817 78.0101 11.2817C79.1301 11.2817 80.0101 11.559 80.6501 12.1137C81.3008 12.6684 81.6741 13.4044 81.7701 14.3217H79.2421C79.1995 14.0124 79.0608 13.767 78.8261 13.5857C78.6021 13.4044 78.3035 13.3137 77.9301 13.3137C77.6101 13.3137 77.3648 13.3777 77.1941 13.5057C77.0235 13.623 76.9381 13.7884 76.9381 14.0017C76.9381 14.2577 77.0715 14.4497 77.3381 14.5777C77.6155 14.7057 78.0421 14.8337 78.6181 14.9617C79.2795 15.1324 79.8181 15.303 80.2341 15.4737C80.6501 15.6337 81.0128 15.9004 81.3221 16.2737C81.6421 16.6364 81.8075 17.127 81.8181 17.7457C81.8181 18.2684 81.6688 18.7377 81.3701 19.1537C81.0821 19.559 80.6608 19.879 80.1061 20.1137C79.5621 20.3484 78.9275 20.4657 78.2021 20.4657Z" fill="black"/>
<rect width="21.5366" height="3.81" transform="matrix(0.790944 0.611888 -0.676887 0.736087 76.5791 2.849)" fill="#38A1FF"/>
<rect width="16.2546" height="3.81" transform="matrix(0.790944 0.611888 -0.676887 0.736087 81.2676 1.83441)" fill="#38A1FF"/>
<rect width="10.0879" height="3.81" transform="matrix(0.790944 0.611888 -0.676887 0.736087 86.2676 0.917175)" fill="#38A1FF"/>
<rect width="5.52221" height="3.81" transform="matrix(0.790944 0.611888 -0.676887 0.736087 90.2676 0)" fill="#38A1FF"/>
</svg>
