<svg width="201" height="100" viewBox="0 0 201 100" fill="none" xmlns="http://www.w3.org/2000/svg">
<path d="M131.767 45.8033C131.709 45.7919 131.652 45.7699 131.593 45.7699C131.565 45.7699 131.539 45.7666 131.512 45.7666C131.493 45.7666 131.445 45.7588 131.43 45.7749C131.429 45.7762 131.449 45.7781 131.451 45.7782C131.477 45.7811 131.504 45.7805 131.53 45.7825C131.534 45.7828 131.595 45.7904 131.594 45.7951C131.59 45.8079 131.528 45.8152 131.517 45.8165C131.513 45.817 131.467 45.8259 131.468 45.8274C131.473 45.8326 131.485 45.83 131.491 45.83C131.495 45.83 131.522 45.83 131.514 45.83C131.497 45.83 131.48 45.83 131.463 45.83C131.456 45.83 131.448 45.8316 131.442 45.8283C131.437 45.8251 131.454 45.825 131.459 45.8233" stroke="black" stroke-width="0.1"/>
<g clip-path="url(#clip0_41_566)">
<path d="M4.21289 60.6838C4.21289 60.6838 4.21289 60.6838 4.21289 60.6838ZM4.21289 60.6838C-1.00799 59.8291 4.21288 60.6838 1.80325 60.6838M4.21289 60.6838V60.2564" stroke="black"/>
<path d="M131.121 45.7265V46.1539" stroke="black" stroke-width="0.5"/>
<path d="M4.77139 60.1997C4.77066 60.2058 4.75126 60.203 4.74628 60.203C4.73432 60.203 4.7243 60.2136 4.71334 60.2162C4.69713 60.22 4.66782 60.213 4.65373 60.2214C4.63854 60.2303 4.61332 60.2274 4.59568 60.2264C4.58835 60.2259 4.56955 60.223 4.58784 60.223C4.59381 60.223 4.60898 60.2263 4.61381 60.2305C4.61953 60.2353 4.62831 60.2341 4.63403 60.239C4.63735 60.2418 4.64295 60.2375 4.64588 60.2414C4.64733 60.2433 4.65679 60.2464 4.64745 60.2464C4.63647 60.2464 4.62549 60.2464 4.61451 60.2464C4.61 60.2464 4.58509 60.2464 4.60039 60.2464C4.60869 60.2464 4.61923 60.2478 4.62549 60.2531C4.62731 60.2546 4.64777 60.2596 4.64763 60.2598C4.64563 60.2619 4.62647 60.2621 4.62253 60.2633C4.62033 60.264 4.62101 60.2681 4.61939 60.2698C4.61756 60.2717 4.60731 60.2637 4.60509 60.2631" stroke="#F3F4EF" stroke-width="0.1" stroke-linecap="round"/>
<path d="M4.6334 60.2431C4.59792 60.2431 4.56307 60.2464 4.5283 60.2464C4.51255 60.2464 4.49794 60.2397 4.4828 60.2397C4.46466 60.2397 4.45072 60.2297 4.4333 60.2297C4.40062 60.2297 4.37221 60.223 4.34004 60.223C4.32361 60.223 4.30753 60.2173 4.29141 60.2163C4.27492 60.2154 4.25766 60.2063 4.24121 60.2063" stroke="#F3F4EF" stroke-width="0.1" stroke-linecap="round"/>
<path d="M4.57056 60.2564H4.57446" stroke="#F3F4EF" stroke-width="0.1" stroke-linecap="round"/>
<path d="M4.58301 60.2631H4.58975" stroke="#F3F4EF" stroke-width="0.1" stroke-linecap="round"/>
<path d="M4.60181 60.2664H4.60571" stroke="#F3F4EF" stroke-width="0.1" stroke-linecap="round"/>
<path d="M3.63371 60.0661C3.61169 60.0661 3.62522 60.0895 3.60598 60.0895C3.59098 60.0895 3.62325 60.0995 3.63045 60.0995" stroke="#F3F4EF" stroke-width="0.1" stroke-linecap="round"/>
<path d="M3.63565 60.0828C3.63565 60.1101 3.62571 60.1062 3.6027 60.1062C3.59357 60.1062 3.58966 60.1021 3.58475 60.0969C3.57901 60.0908 3.56872 60.0953 3.56278 60.0902C3.55368 60.0825 3.52364 60.0895 3.51189 60.086C3.49712 60.0815 3.45086 60.0795 3.46622 60.0795" stroke="#F3F4EF" stroke-width="0.1" stroke-linecap="round"/>
<path d="M4.60861 60.2464C4.59179 60.2464 4.57498 60.2464 4.55816 60.2464C4.55463 60.2464 4.53734 60.2443 4.53627 60.2483C4.53466 60.2542 4.54759 60.2598 4.55186 60.2598" stroke="#F3F4EF" stroke-width="0.1" stroke-linecap="round"/>
<path d="M4.34473 60.203C4.35999 60.203 4.37225 60.2122 4.38551 60.213C4.39885 60.2138 4.40702 60.2226 4.41863 60.2262C4.43112 60.23 4.44984 60.2284 4.46012 60.2371C4.47069 60.2461 4.4894 60.2431 4.50317 60.2431C4.51645 60.2431 4.52952 60.2464 4.54396 60.2464C4.55128 60.2464 4.5586 60.2464 4.56592 60.2464C4.57386 60.2464 4.57572 60.2531 4.58318 60.2531C4.59086 60.2531 4.59812 60.2538 4.60514 60.2572C4.61025 60.2596 4.62406 60.2574 4.62711 60.2614C4.62982 60.265 4.61433 60.2631 4.60985 60.2631C4.60183 60.2631 4.59726 60.2664 4.58946 60.2664C4.5762 60.2664 4.58593 60.2664 4.59329 60.2664C4.60274 60.2664 4.60917 60.2727 4.61839 60.2731C4.62198 60.2733 4.63736 60.2806 4.62711 60.2757C4.62076 60.2727 4.61267 60.2718 4.60654 60.27C4.59522 60.2665 4.57882 60.2647 4.56993 60.2572C4.55948 60.2483 4.5398 60.2501 4.53002 60.2414C4.52305 60.2352 4.49994 60.2321 4.49062 60.2299C4.47687 60.2266 4.45925 60.2297 4.44513 60.2297C4.42549 60.2297 4.40638 60.2303 4.38726 60.2266C4.38127 60.2254 4.4149 60.233 4.41375 60.233" stroke="#F3F4EF" stroke-width="0.1" stroke-linecap="round"/>
</g>
<path d="M147.539 5.9829C147.696 5.9996 147.843 6.06732 147.956 6.17511L177.373 34.8931C177.456 34.9765 177.516 35.0795 177.547 35.1921L180.349 44.7645C180.425 45.0068 180.359 45.2701 180.175 45.4494C179.992 45.6283 179.721 45.6936 179.474 45.6192L169.668 42.8844C169.553 42.8539 169.447 42.7947 169.362 42.7132L139.945 13.9952C139.808 13.8665 139.731 13.689 139.731 13.504C139.731 13.3185 139.808 13.1415 139.945 13.0123L146.949 6.17465C147.104 6.02393 147.322 5.95333 147.539 5.9829ZM147.452 7.64981L141.455 13.5044L145.001 16.9657L150.998 11.1111L147.452 7.64981ZM152.005 12.094L146.007 17.9486L169.514 40.8973L175.512 35.0427L152.005 12.094ZM176.365 36.1758L170.674 41.7314L175.096 42.9704L177.634 40.4917L176.365 36.1758ZM178.072 42.0304L176.671 43.3978L178.641 43.9535L178.072 42.0304ZM150.954 42.9066C156.518 42.9066 160.359 46.509 164.372 49.9149C168.384 53.3209 172.562 56.5818 178.97 56.5818C180.605 56.5818 182.233 56.1759 183.392 55.3851C184.55 54.5943 185.274 53.474 185.274 51.7951C185.274 49.4161 182.144 47.6074 182.144 47.6074C181.957 47.5364 181.81 47.3909 181.74 47.2073C181.67 47.0232 181.685 46.8195 181.779 46.6469C181.874 46.4742 182.04 46.3493 182.236 46.3044C182.431 46.2591 182.637 46.2977 182.8 46.4108C182.8 46.4108 186.675 48.3467 186.675 51.7951C186.675 53.8871 185.647 55.4944 184.18 56.496C182.712 57.4976 180.837 57.9492 178.97 57.9492C172.071 57.9492 167.494 54.3721 163.453 50.9404C159.41 47.5088 155.897 44.274 150.955 44.274C147.521 44.3251 145.039 45.6143 142.9 46.945C140.761 48.2756 139.019 49.7442 136.947 49.7442C135.647 49.7442 134.522 48.7981 133.53 47.8566C133.128 47.0019 131.12 47.0085 130.719 47.0085C130.376 46.6456 130.93 46.1441 131.12 46.1472C131.522 46.1538 131.12 45.7265 131.924 45.7199C132.107 45.7194 131.12 45.7265 132.325 45.7265C132.524 45.7265 133.932 46.1472 134.627 47.2012C135.524 48.053 136.058 48.3764 136.947 48.3764C138.262 48.3764 139.921 47.1687 142.134 45.7913C144.348 44.4138 147.169 42.9624 150.954 42.9066Z" fill="black"/>
<path d="M131.458 46.3227C129.989 46.3189 128.569 46.8863 127.466 47.918C126.786 48.6818 126.316 49.6301 126.109 50.6589C125.016 54.5793 120.833 57.2184 119.316 58.1688C113.233 61.9704 106.375 59.9508 104.779 59.4671C101.586 58.5252 99.3504 56.8196 94.864 53.3998C86.394 46.9591 86.6814 44.8462 82.3626 43.149C77.2582 41.2495 71.6623 41.5078 66.7319 43.8703C64.6484 44.9141 64.0656 45.7626 60.601 47.4852C57.8813 48.7969 55.061 49.8587 52.1709 50.6589C50.3668 51.1341 44.4753 52.9585 33.1475 52.2118C22.115 51.4735 22.115 51.4735 14.6669 48.3084C11.1304 46.8064 5.21501 41.1719 2.43693 33.3226C1.72644 31.3114 0.592859 24.6332 3.39489 17.6918C5.22382 13.0196 8.60887 9.228 12.9026 7.04222C21.4604 2.34112 29.8824 4.41164 32.7404 5.15838C38.267 6.46254 43.2831 9.54032 47.1097 13.9751C49.1773 16.43 50.8011 19.2693 51.8995 22.3505C53.3832 26.6416 53.8493 31.2553 53.2566 35.7834C52.5184 41.431 50.1985 46.7117 46.5988 50.9389C41.4817 56.879 35.4226 58.5167 29.2119 60.1799C22.0157 62.1033 14.5317 62.487 7.19479 61.3085C6.17708 61.1239 5.15131 60.9936 4.12134 60.9182C3.73017 60.9182 3.32304 60.8588 2.95582 60.8503" stroke="black" stroke-width="1.5" stroke-miterlimit="10"/>
<g clip-path="url(#clip1_41_566)">
<path d="M119.864 71.9345H119.524V73.0647H119.864V71.9345Z" fill="#2F2E41"/>
<path d="M119.864 69.4606H119.524V66.9868H119.864V69.4606ZM119.864 64.5127H119.524V62.0389H119.864V64.5127Z" fill="#2F2E41"/>
<path d="M119.864 59.5648H119.524V58.623H118.675V58.2463H119.864V59.5648Z" fill="#2F2E41"/>
<g filter="url(#filter0_d_41_566)">
<path d="M119.801 86.8149C122.408 86.8149 124.52 84.4721 124.52 81.5823C124.52 78.6924 122.408 76.3496 119.801 76.3496C117.195 76.3496 115.082 78.6924 115.082 81.5823C115.082 84.4721 117.195 86.8149 119.801 86.8149Z" fill="#6D29D3"/>
</g>
<g filter="url(#filter1_d_41_566)">
<path d="M106.56 50.2733L107.58 56.9815L117.263 51.2151L106.56 50.2733Z" fill="#2F2E41"/>
</g>
<g filter="url(#filter2_d_41_566)">
<path d="M105.404 91.9839L103.375 91.8921L102.729 83.1734L105.723 83.3088L105.404 91.9839Z" fill="#FFB6B6"/>
</g>
<g filter="url(#filter3_d_41_566)">
<path d="M105.541 67.0372C109.221 65.7933 109.976 60.4754 111.997 59.3145C111.991 56.5058 112.093 47.7959 109.565 47.9618C108.156 48.0542 100.31 63.9781 99.9741 66.6162C99.3501 71.5109 102.682 84.0035 102.295 84.8617L106.164 85.1332L106.186 84.7956C106.248 83.8797 106.865 81.1183 106.161 80.6335L105.894 80.4499C105.897 79.4976 106.084 77.8754 105.31 77.4642C105.3 77.459 105.291 77.4515 105.284 77.4423C105.277 77.4331 105.272 77.4223 105.269 77.4107C105.265 77.3991 105.265 77.3869 105.266 77.3749C105.267 77.3629 105.271 77.3514 105.277 77.3411L105.541 67.0372Z" fill="#2F2E41"/>
</g>
<g filter="url(#filter4_d_41_566)">
<path d="M106.449 93.9347L105.092 94.0234L104.775 92.6192L104.23 94.0797L100.632 94.3149C100.46 94.3262 100.289 94.2761 100.144 94.1718C99.9988 94.0676 99.8877 93.9147 99.8267 93.7355C99.7656 93.5563 99.7579 93.3602 99.8045 93.1758C99.8511 92.9913 99.9497 92.8282 100.086 92.7103L102.842 90.3224L102.766 88.8868L105.798 88.8893L106.449 93.9347Z" fill="#2F2E41"/>
</g>
<path d="M120.865 76.2702L122.888 76.452L124.483 67.8846L121.497 67.6162L120.865 76.2702Z" fill="#FFB6B6"/>
<g filter="url(#filter5_d_41_566)">
<path d="M120.071 54.5578C118.257 58.094 115.01 58.9382 111.644 59.5569C110.18 57.2647 107.949 54.0689 110.096 52.5792C111.292 51.7496 121.659 45.0384 123.259 47.0259C127.437 52.215 124.456 68.9132 124.713 68.5441L121.404 68.4907L121.209 68.2301C120.949 67.8832 120.781 67.4642 120.721 67.0185C120.661 66.5729 120.712 66.1175 120.869 65.7019L120.991 65.381C120.746 65.0015 120.603 64.5528 120.579 64.087C120.555 63.6213 120.65 63.1574 120.854 62.7494L120.896 62.6655L120.071 54.5578Z" fill="#2F2E41"/>
</g>
<path d="M120.812 73.1454L123.822 73.5509L123.589 74.9656L126.064 77.7066C126.186 77.8419 126.266 78.0171 126.292 78.2064C126.318 78.3958 126.289 78.5894 126.209 78.7591C126.129 78.9287 126.002 79.0655 125.846 79.1495C125.691 79.2335 125.516 79.2602 125.346 79.2258L121.8 78.5084L121.419 76.9854L120.951 78.3365L119.614 78.066L120.812 73.1454Z" fill="#2F2E41"/>
<path d="M112.946 26.3517H111.557C111.273 26.3517 110.994 26.4279 110.743 26.5739C110.491 26.7198 110.276 26.9312 110.114 27.1897L109.109 28.8003L106.603 29.3056C105.733 29.9016 105.077 30.8155 104.749 31.8898C104.421 32.9642 104.441 34.1318 104.806 35.1915C106.579 40.3333 107.434 49.9707 105.711 54.2288C105.711 54.2288 116.166 55.2789 118.792 51.7801C121.417 48.2814 119.301 31.249 119.301 31.249L115.394 28.8003L114.388 27.1898C114.227 26.9312 114.011 26.7199 113.76 26.5739C113.509 26.4279 113.229 26.3517 112.946 26.3517V26.3517Z" fill="#6D29D3"/>
<g filter="url(#filter6_d_41_566)">
<path d="M119.425 56.4463C119.543 56.309 119.631 56.1448 119.686 55.9653C119.74 55.7857 119.758 55.5952 119.738 55.4072C119.719 55.2191 119.662 55.038 119.573 54.8768C119.484 54.7155 119.363 54.5779 119.221 54.4737L121.51 46.1293L118.961 44.4341L117.547 54.913C117.405 55.1901 117.36 55.5154 117.42 55.8271C117.48 56.1388 117.64 56.4154 117.872 56.6044C118.103 56.7934 118.389 56.8817 118.676 56.8526C118.962 56.8234 119.228 56.6789 119.425 56.4463H119.425Z" fill="#FFB6B6"/>
</g>
<g filter="url(#filter7_d_41_566)">
<path d="M121.679 47.0711L118.622 45.7526L118.752 44.0598L115.119 35.2416C114.939 34.8057 114.849 34.3313 114.853 33.8521C114.857 33.3729 114.957 32.9007 115.144 32.4689C115.332 32.0371 115.603 31.6564 115.938 31.3538C116.273 31.0511 116.664 30.834 117.083 30.7178V30.7178C117.841 30.5088 118.642 30.6416 119.311 31.087C119.981 31.5324 120.463 32.254 120.653 33.0935L123.041 43.6874C123.318 45.3317 123.005 46.5598 121.679 47.0711Z" fill="#6D29D3"/>
</g>
<path d="M117.45 21.2189C117.45 19.6927 116.903 18.2291 115.929 17.1499C114.956 16.0708 113.636 15.4645 112.26 15.4645C110.883 15.4645 109.563 16.0708 108.59 17.1499C107.617 18.2291 107.07 19.6927 107.07 21.2189V24.8259C107.07 25.0307 107.144 25.227 107.274 25.3717C107.405 25.5165 107.582 25.5979 107.767 25.5982H107.894C108.041 25.1308 108.131 24.6436 108.161 24.1497C108.429 24.5949 108.633 25.0836 108.765 25.5982H116.751C116.936 25.598 117.113 25.5166 117.244 25.3719C117.375 25.2272 117.449 25.0309 117.45 24.8259C117.869 23.8766 118.058 22.7879 117.45 21.2189Z" fill="#2F2E41"/>
<path d="M112.051 25.5627C114.152 25.5627 115.855 23.6739 115.855 21.3439C115.855 19.014 114.152 17.1252 112.051 17.1252C109.949 17.1252 108.246 19.014 108.246 21.3439C108.246 23.6739 109.949 25.5627 112.051 25.5627Z" fill="#FFB8B8"/>
<path d="M108.141 21.3277C108.105 21.2812 108.078 21.2265 108.063 21.1674C108.047 21.1084 108.043 21.0463 108.051 20.9853L108.502 17.5054C108.51 17.4346 108.535 17.3674 108.573 17.3098C108.612 17.2523 108.662 17.2062 108.721 17.1758C111.021 15.982 113.354 15.9805 115.654 17.1713C115.715 17.2033 115.768 17.2524 115.807 17.3137C115.846 17.375 115.869 17.4465 115.876 17.521L116.347 20.252C116.352 20.3116 116.345 20.3717 116.328 20.4285C116.311 20.4852 116.284 20.5375 116.248 20.5818C116.174 20.671 116.072 22.6334 115.963 22.6334C116.055 21.4638 115.833 20.9041 115.028 21.4758C114.954 21.4756 114.882 21.4522 114.82 21.4083C114.758 21.3645 114.708 21.302 114.677 21.228L114.348 20.4457C114.327 20.395 114.291 20.3534 114.246 20.3272C114.202 20.3009 114.151 20.2914 114.101 20.3001C114.051 20.3088 114.005 20.3352 113.97 20.3754C113.935 20.4155 113.913 20.4672 113.907 20.5227L113.842 21.0995C113.83 21.2034 113.784 21.2989 113.714 21.3681C113.643 21.4374 113.552 21.4757 113.457 21.4758C112.113 22.2155 110.35 22.0164 108.434 21.4758C108.379 21.4758 108.324 21.4626 108.273 21.437C108.223 21.4115 108.178 21.3742 108.141 21.3277V21.3277Z" fill="#2F2E41"/>
<g filter="url(#filter8_d_41_566)">
<path d="M115.085 44.7996H108.849C108.635 44.7993 108.43 44.7051 108.279 44.5377C108.128 44.3703 108.043 44.1433 108.043 43.9065V36.4743C108.043 36.2375 108.128 36.0105 108.279 35.8431C108.43 35.6757 108.635 35.5815 108.849 35.5812H115.085C115.298 35.5815 115.503 35.6757 115.654 35.8431C115.805 36.0105 115.89 36.2375 115.89 36.4743V43.9065C115.89 44.1433 115.805 44.3703 115.654 44.5377C115.503 44.7051 115.298 44.7993 115.085 44.7996V44.7996Z" fill="#3F3D56"/>
</g>
<g filter="url(#filter9_d_41_566)">
<path d="M109.024 37.1867C109.282 37.1867 109.491 36.9548 109.491 36.6688C109.491 36.3828 109.282 36.1509 109.024 36.1509C108.766 36.1509 108.557 36.3828 108.557 36.6688C108.557 36.9548 108.766 37.1867 109.024 37.1867Z" fill="#E6E6E6"/>
</g>
<g filter="url(#filter10_d_41_566)">
<path d="M109.024 36.9795C109.179 36.9795 109.304 36.8404 109.304 36.6688C109.304 36.4972 109.179 36.3581 109.024 36.3581C108.869 36.3581 108.744 36.4972 108.744 36.6688C108.744 36.8404 108.869 36.9795 109.024 36.9795Z" fill="#3F3D56"/>
</g>
<g filter="url(#filter11_d_41_566)">
<path d="M116.191 39.7904C116.052 39.9611 115.882 40.096 115.691 40.1856C115.5 40.2753 115.294 40.3175 115.087 40.3092C114.88 40.301 114.677 40.2426 114.493 40.138C114.308 40.0334 114.147 39.8853 114.02 39.7041L108.429 41.4204L107.58 39.3484L114.34 37.4181C114.629 37.2013 114.979 37.1096 115.325 37.1602C115.67 37.2108 115.987 37.4002 116.216 37.6926C116.444 37.9851 116.567 38.3601 116.563 38.7468C116.558 39.1334 116.426 39.5047 116.191 39.7904H116.191Z" fill="#FFB8B8"/>
</g>
<g filter="url(#filter12_d_41_566)">
<path d="M109.093 41.4737L107.524 42.0289C105.818 44.0275 105.215 42.5773 103.204 42.4272C102.826 42.399 102.53 42.0547 102.324 41.404C102.044 40.4889 102.072 39.4925 102.403 38.5985L105.196 30.8374L106.365 29.7755L107.997 31.9442L106.744 37.9066L108.801 39.0692L109.093 41.4737Z" fill="#6D29D3"/>
</g>
<rect width="1.19958" height="6.21892" rx="0.599792" transform="matrix(0.99795 0.0639954 -0.0599642 0.998201 119.268 78.3476)" fill="#7AFF64"/>
<rect width="1.24615" height="5.97112" rx="0.623077" transform="matrix(0.0719369 -0.997409 0.997033 0.0769788 116.663 81.9027)" fill="#7AFF64"/>
</g>
<path d="M131.356 45.7298C131.466 45.7298 131.499 45.7232 131.618 45.7232C131.714 45.7232 131.81 45.7265 131.905 45.7265C131.952 45.7265 131.999 45.7365 132.046 45.7365C132.095 45.7365 132.144 45.7399 132.192 45.7399C132.214 45.7399 132.232 45.7499 132.255 45.7499C132.277 45.7499 132.299 45.7532 132.321 45.7532C132.327 45.7532 132.342 45.7584 132.347 45.7649C132.353 45.7731 132.369 45.7698 132.375 45.7782C132.381 45.7857 132.397 45.7794 132.404 45.7883C132.41 45.7966 132.429 45.7964 132.429 45.8066" stroke="black" stroke-width="0.1"/>
<defs>
<filter id="filter0_d_41_566" x="111.082" y="76.3496" width="17.4382" height="18.4652" filterUnits="userSpaceOnUse" color-interpolation-filters="sRGB">
<feFlood flood-opacity="0" result="BackgroundImageFix"/>
<feColorMatrix in="SourceAlpha" type="matrix" values="0 0 0 0 0 0 0 0 0 0 0 0 0 0 0 0 0 0 127 0" result="hardAlpha"/>
<feOffset dy="4"/>
<feGaussianBlur stdDeviation="2"/>
<feComposite in2="hardAlpha" operator="out"/>
<feColorMatrix type="matrix" values="0 0 0 0 0 0 0 0 0 0 0 0 0 0 0 0 0 0 0.25 0"/>
<feBlend mode="normal" in2="BackgroundImageFix" result="effect1_dropShadow_41_566"/>
<feBlend mode="normal" in="SourceGraphic" in2="effect1_dropShadow_41_566" result="shape"/>
</filter>
<filter id="filter1_d_41_566" x="102.56" y="50.2733" width="18.7021" height="14.7082" filterUnits="userSpaceOnUse" color-interpolation-filters="sRGB">
<feFlood flood-opacity="0" result="BackgroundImageFix"/>
<feColorMatrix in="SourceAlpha" type="matrix" values="0 0 0 0 0 0 0 0 0 0 0 0 0 0 0 0 0 0 127 0" result="hardAlpha"/>
<feOffset dy="4"/>
<feGaussianBlur stdDeviation="2"/>
<feComposite in2="hardAlpha" operator="out"/>
<feColorMatrix type="matrix" values="0 0 0 0 0 0 0 0 0 0 0 0 0 0 0 0 0 0 0.25 0"/>
<feBlend mode="normal" in2="BackgroundImageFix" result="effect1_dropShadow_41_566"/>
<feBlend mode="normal" in="SourceGraphic" in2="effect1_dropShadow_41_566" result="shape"/>
</filter>
<filter id="filter2_d_41_566" x="98.729" y="83.1734" width="10.9937" height="16.8105" filterUnits="userSpaceOnUse" color-interpolation-filters="sRGB">
<feFlood flood-opacity="0" result="BackgroundImageFix"/>
<feColorMatrix in="SourceAlpha" type="matrix" values="0 0 0 0 0 0 0 0 0 0 0 0 0 0 0 0 0 0 127 0" result="hardAlpha"/>
<feOffset dy="4"/>
<feGaussianBlur stdDeviation="2"/>
<feComposite in2="hardAlpha" operator="out"/>
<feColorMatrix type="matrix" values="0 0 0 0 0 0 0 0 0 0 0 0 0 0 0 0 0 0 0.25 0"/>
<feBlend mode="normal" in2="BackgroundImageFix" result="effect1_dropShadow_41_566"/>
<feBlend mode="normal" in="SourceGraphic" in2="effect1_dropShadow_41_566" result="shape"/>
</filter>
<filter id="filter3_d_41_566" x="95.896" y="47.9595" width="20.1006" height="45.1737" filterUnits="userSpaceOnUse" color-interpolation-filters="sRGB">
<feFlood flood-opacity="0" result="BackgroundImageFix"/>
<feColorMatrix in="SourceAlpha" type="matrix" values="0 0 0 0 0 0 0 0 0 0 0 0 0 0 0 0 0 0 127 0" result="hardAlpha"/>
<feOffset dy="4"/>
<feGaussianBlur stdDeviation="2"/>
<feComposite in2="hardAlpha" operator="out"/>
<feColorMatrix type="matrix" values="0 0 0 0 0 0 0 0 0 0 0 0 0 0 0 0 0 0 0.25 0"/>
<feBlend mode="normal" in2="BackgroundImageFix" result="effect1_dropShadow_41_566"/>
<feBlend mode="normal" in="SourceGraphic" in2="effect1_dropShadow_41_566" result="shape"/>
</filter>
<filter id="filter4_d_41_566" x="95.7744" y="88.8868" width="14.6743" height="13.4297" filterUnits="userSpaceOnUse" color-interpolation-filters="sRGB">
<feFlood flood-opacity="0" result="BackgroundImageFix"/>
<feColorMatrix in="SourceAlpha" type="matrix" values="0 0 0 0 0 0 0 0 0 0 0 0 0 0 0 0 0 0 127 0" result="hardAlpha"/>
<feOffset dy="4"/>
<feGaussianBlur stdDeviation="2"/>
<feComposite in2="hardAlpha" operator="out"/>
<feColorMatrix type="matrix" values="0 0 0 0 0 0 0 0 0 0 0 0 0 0 0 0 0 0 0.25 0"/>
<feBlend mode="normal" in2="BackgroundImageFix" result="effect1_dropShadow_41_566"/>
<feBlend mode="normal" in="SourceGraphic" in2="effect1_dropShadow_41_566" result="shape"/>
</filter>
<filter id="filter5_d_41_566" x="105.207" y="46.6597" width="24.2988" height="29.8904" filterUnits="userSpaceOnUse" color-interpolation-filters="sRGB">
<feFlood flood-opacity="0" result="BackgroundImageFix"/>
<feColorMatrix in="SourceAlpha" type="matrix" values="0 0 0 0 0 0 0 0 0 0 0 0 0 0 0 0 0 0 127 0" result="hardAlpha"/>
<feOffset dy="4"/>
<feGaussianBlur stdDeviation="2"/>
<feComposite in2="hardAlpha" operator="out"/>
<feColorMatrix type="matrix" values="0 0 0 0 0 0 0 0 0 0 0 0 0 0 0 0 0 0 0.25 0"/>
<feBlend mode="normal" in2="BackgroundImageFix" result="effect1_dropShadow_41_566"/>
<feBlend mode="normal" in="SourceGraphic" in2="effect1_dropShadow_41_566" result="shape"/>
</filter>
<filter id="filter6_d_41_566" x="113.394" y="44.4341" width="12.1155" height="20.4239" filterUnits="userSpaceOnUse" color-interpolation-filters="sRGB">
<feFlood flood-opacity="0" result="BackgroundImageFix"/>
<feColorMatrix in="SourceAlpha" type="matrix" values="0 0 0 0 0 0 0 0 0 0 0 0 0 0 0 0 0 0 127 0" result="hardAlpha"/>
<feOffset dy="4"/>
<feGaussianBlur stdDeviation="2"/>
<feComposite in2="hardAlpha" operator="out"/>
<feColorMatrix type="matrix" values="0 0 0 0 0 0 0 0 0 0 0 0 0 0 0 0 0 0 0.25 0"/>
<feBlend mode="normal" in2="BackgroundImageFix" result="effect1_dropShadow_41_566"/>
<feBlend mode="normal" in="SourceGraphic" in2="effect1_dropShadow_41_566" result="shape"/>
</filter>
<filter id="filter7_d_41_566" x="110.853" y="30.6211" width="16.2808" height="24.45" filterUnits="userSpaceOnUse" color-interpolation-filters="sRGB">
<feFlood flood-opacity="0" result="BackgroundImageFix"/>
<feColorMatrix in="SourceAlpha" type="matrix" values="0 0 0 0 0 0 0 0 0 0 0 0 0 0 0 0 0 0 127 0" result="hardAlpha"/>
<feOffset dy="4"/>
<feGaussianBlur stdDeviation="2"/>
<feComposite in2="hardAlpha" operator="out"/>
<feColorMatrix type="matrix" values="0 0 0 0 0 0 0 0 0 0 0 0 0 0 0 0 0 0 0.25 0"/>
<feBlend mode="normal" in2="BackgroundImageFix" result="effect1_dropShadow_41_566"/>
<feBlend mode="normal" in="SourceGraphic" in2="effect1_dropShadow_41_566" result="shape"/>
</filter>
<filter id="filter8_d_41_566" x="104.043" y="35.5812" width="15.8467" height="17.2183" filterUnits="userSpaceOnUse" color-interpolation-filters="sRGB">
<feFlood flood-opacity="0" result="BackgroundImageFix"/>
<feColorMatrix in="SourceAlpha" type="matrix" values="0 0 0 0 0 0 0 0 0 0 0 0 0 0 0 0 0 0 127 0" result="hardAlpha"/>
<feOffset dy="4"/>
<feGaussianBlur stdDeviation="2"/>
<feComposite in2="hardAlpha" operator="out"/>
<feColorMatrix type="matrix" values="0 0 0 0 0 0 0 0 0 0 0 0 0 0 0 0 0 0 0.25 0"/>
<feBlend mode="normal" in2="BackgroundImageFix" result="effect1_dropShadow_41_566"/>
<feBlend mode="normal" in="SourceGraphic" in2="effect1_dropShadow_41_566" result="shape"/>
</filter>
<filter id="filter9_d_41_566" x="104.557" y="36.1509" width="8.93408" height="9.03577" filterUnits="userSpaceOnUse" color-interpolation-filters="sRGB">
<feFlood flood-opacity="0" result="BackgroundImageFix"/>
<feColorMatrix in="SourceAlpha" type="matrix" values="0 0 0 0 0 0 0 0 0 0 0 0 0 0 0 0 0 0 127 0" result="hardAlpha"/>
<feOffset dy="4"/>
<feGaussianBlur stdDeviation="2"/>
<feComposite in2="hardAlpha" operator="out"/>
<feColorMatrix type="matrix" values="0 0 0 0 0 0 0 0 0 0 0 0 0 0 0 0 0 0 0.25 0"/>
<feBlend mode="normal" in2="BackgroundImageFix" result="effect1_dropShadow_41_566"/>
<feBlend mode="normal" in="SourceGraphic" in2="effect1_dropShadow_41_566" result="shape"/>
</filter>
<filter id="filter10_d_41_566" x="104.744" y="36.3581" width="8.56055" height="8.62146" filterUnits="userSpaceOnUse" color-interpolation-filters="sRGB">
<feFlood flood-opacity="0" result="BackgroundImageFix"/>
<feColorMatrix in="SourceAlpha" type="matrix" values="0 0 0 0 0 0 0 0 0 0 0 0 0 0 0 0 0 0 127 0" result="hardAlpha"/>
<feOffset dy="4"/>
<feGaussianBlur stdDeviation="2"/>
<feComposite in2="hardAlpha" operator="out"/>
<feColorMatrix type="matrix" values="0 0 0 0 0 0 0 0 0 0 0 0 0 0 0 0 0 0 0.25 0"/>
<feBlend mode="normal" in2="BackgroundImageFix" result="effect1_dropShadow_41_566"/>
<feBlend mode="normal" in="SourceGraphic" in2="effect1_dropShadow_41_566" result="shape"/>
</filter>
<filter id="filter11_d_41_566" x="103.58" y="37.1466" width="16.9832" height="12.2738" filterUnits="userSpaceOnUse" color-interpolation-filters="sRGB">
<feFlood flood-opacity="0" result="BackgroundImageFix"/>
<feColorMatrix in="SourceAlpha" type="matrix" values="0 0 0 0 0 0 0 0 0 0 0 0 0 0 0 0 0 0 127 0" result="hardAlpha"/>
<feOffset dy="4"/>
<feGaussianBlur stdDeviation="2"/>
<feComposite in2="hardAlpha" operator="out"/>
<feColorMatrix type="matrix" values="0 0 0 0 0 0 0 0 0 0 0 0 0 0 0 0 0 0 0.25 0"/>
<feBlend mode="normal" in2="BackgroundImageFix" result="effect1_dropShadow_41_566"/>
<feBlend mode="normal" in="SourceGraphic" in2="effect1_dropShadow_41_566" result="shape"/>
</filter>
<filter id="filter12_d_41_566" x="98.1328" y="29.7755" width="14.9602" height="21.3003" filterUnits="userSpaceOnUse" color-interpolation-filters="sRGB">
<feFlood flood-opacity="0" result="BackgroundImageFix"/>
<feColorMatrix in="SourceAlpha" type="matrix" values="0 0 0 0 0 0 0 0 0 0 0 0 0 0 0 0 0 0 127 0" result="hardAlpha"/>
<feOffset dy="4"/>
<feGaussianBlur stdDeviation="2"/>
<feComposite in2="hardAlpha" operator="out"/>
<feColorMatrix type="matrix" values="0 0 0 0 0 0 0 0 0 0 0 0 0 0 0 0 0 0 0.25 0"/>
<feBlend mode="normal" in2="BackgroundImageFix" result="effect1_dropShadow_41_566"/>
<feBlend mode="normal" in="SourceGraphic" in2="effect1_dropShadow_41_566" result="shape"/>
</filter>
<clipPath id="clip0_41_566">
<rect width="130.482" height="59.188" fill="white" transform="translate(1 3.41881)"/>
</clipPath>
<clipPath id="clip1_41_566">
<rect width="120.482" height="85.4701" fill="white" transform="translate(5.81934 14.5299)"/>
</clipPath>
</defs>
</svg>
