<svg width="35" height="32" viewBox="0 0 35 32" fill="none" xmlns="http://www.w3.org/2000/svg">
<path d="M35 3.78372C33.7139 4.43034 32.3305 4.86179 30.8713 5.06593C32.3548 4.06621 33.4961 2.47172 34.0317 0.588138C32.6435 1.51172 31.1056 2.19034 29.4695 2.54786C28.1629 0.975448 26.2993 0 24.2345 0C20.2682 0 17.0533 3.6171 17.0533 8.07724C17.0533 8.70841 17.1184 9.32303 17.2409 9.92C11.2739 9.58014 5.98159 6.36028 2.44105 1.47421C1.81888 2.66814 1.46891 4.06621 1.46891 5.54152C1.46891 8.34538 2.73366 10.8138 4.66239 12.2681C3.48513 12.2273 2.37688 11.8554 1.40669 11.2596C1.40669 11.2839 1.40669 11.3203 1.40669 11.3545C1.40669 15.2728 3.88273 18.5357 7.16468 19.2783C6.56487 19.4648 5.93103 19.5686 5.27775 19.5686C4.81404 19.5686 4.362 19.509 3.92453 19.4196C4.83835 22.6218 7.48938 24.9622 10.6304 25.0317C8.17279 27.1945 5.07749 28.4899 1.71194 28.4899C1.1306 28.4899 0.561898 28.4524 0 28.3752C3.17987 30.6604 6.95567 32 11.0085 32C24.2151 32 31.44 19.6899 31.44 9.01076C31.44 8.66097 31.4303 8.31228 31.4157 7.968C32.8253 6.83807 34.0405 5.41241 35 3.78372Z" fill="#6D29D3"/>
</svg>
